<?xml version="1.0" encoding="iso-8859-1"?>
<!-- Generator: Adobe Illustrator 19.0.0, SVG Export Plug-In . SVG Version: 6.00 Build 0)  -->
<svg xmlns="http://www.w3.org/2000/svg" xmlns:xlink="http://www.w3.org/1999/xlink" version="1.1" id="Layer_1" x="0px" y="0px" viewBox="0 0 512 512" style="enable-background:new 0 0 512 512;" xml:space="preserve">
<path style="fill:#FDD834;" d="M418.133,171.435c-0.196,38.938-14.473,76.493-40.192,105.728  c-7.083,8.533-14.933,15.701-21.845,24.064c-7.066,8.465-13.483,17.451-19.2,26.88c-7.057,11.153-12.783,23.1-17.067,35.584  c-2.782,9.361-4.164,19.081-4.096,28.843c0,4.71-3.823,8.533-8.533,8.533H204.8c-4.71,0-8.533-3.823-8.533-8.533  c0.026-9.916-1.442-19.789-4.352-29.269c-4.284-12.484-10.01-24.431-17.067-35.584c-5.717-9.429-12.134-18.415-19.2-26.88  c-6.912-8.533-14.763-15.787-21.845-24.064c-25.532-29.158-39.706-66.543-39.936-105.301C94.601,88.721,156.774,19.49,238.933,9.899  c5.658-0.802,11.358-1.263,17.067-1.365C345.318,9.779,417.306,82.108,418.133,171.435z"/>
<path style="fill:#FFEB3A;" d="M384,171.435c-0.196,38.938-14.473,76.493-40.192,105.728c-7.083,8.533-14.933,15.701-21.845,24.064  c-7.066,8.465-13.483,17.451-19.2,26.88c-7.057,11.153-12.783,23.1-17.067,35.584c-2.782,9.361-4.164,19.081-4.096,28.843  c0,4.71-3.823,8.533-8.533,8.533H204.8c-4.71,0-8.533-3.823-8.533-8.533c0.026-9.916-1.442-19.789-4.352-29.269  c-4.284-12.484-10.01-24.431-17.067-35.584c-5.717-9.429-12.134-18.415-19.2-26.88c-6.912-8.533-14.763-15.787-21.845-24.064  c-25.532-29.158-39.706-66.543-39.936-105.301C94.601,88.721,156.774,19.49,238.933,9.899C321.092,19.49,383.266,88.721,384,171.435  z"/>
<g>
	<path style="fill:#607D8B;" d="M213.333,401.067h85.333l0,0v25.6c0,4.71-3.823,8.533-8.533,8.533h-68.267   c-4.71,0-8.533-3.823-8.533-8.533V401.067L213.333,401.067z"/>
	<path style="fill:#607D8B;" d="M230.4,435.2h51.2l0,0v25.6c0,4.71-3.823,8.533-8.533,8.533h-34.133   c-4.71,0-8.533-3.823-8.533-8.533V435.2L230.4,435.2z"/>
	<path style="fill:#607D8B;" d="M238.933,469.333h34.133l0,0v25.6c0,4.71-3.823,8.533-8.533,8.533h-17.067   c-4.71,0-8.533-3.823-8.533-8.533V469.333L238.933,469.333z"/>
</g>
<g>
	<path style="fill:#CFD8DC;" d="M213.333,401.067h59.733l0,0v25.6c0,4.71-3.823,8.533-8.533,8.533h-42.667   c-4.71,0-8.533-3.823-8.533-8.533V401.067L213.333,401.067z"/>
	<path style="fill:#CFD8DC;" d="M230.4,435.2H256l0,0v25.6c0,4.71-3.823,8.533-8.533,8.533h-8.533c-4.71,0-8.533-3.823-8.533-8.533   V435.2L230.4,435.2z"/>
</g>
<path d="M307.2,409.6H204.8c-9.233,0-16.794-7.33-17.067-16.555c0.043-9.079-1.28-18.108-3.925-26.795  c-3.994-11.964-9.378-23.424-16.043-34.133c-5.504-8.977-11.665-17.536-18.432-25.6c-3.669-4.437-7.595-8.533-11.776-13.056  c-4.181-4.523-6.741-7.083-9.984-10.837c-26.974-30.822-41.967-70.315-42.24-111.275C86.263,79.01,159.462,3.635,251.733,0l0,0  h8.533l0,0c92.271,3.635,165.47,79.01,166.4,171.349c-0.247,40.986-15.241,80.521-42.24,111.36  c-3.243,3.755-6.571,7.253-9.984,10.837c-3.413,3.584-8.533,8.533-11.776,13.056c-6.767,8.064-12.928,16.623-18.432,25.6  c-6.665,10.709-12.049,22.17-16.043,34.133c-2.637,8.661-3.959,17.664-3.925,26.709C323.994,402.27,316.433,409.6,307.2,409.6z   M256,17.067c-84.514,1.382-152.593,69.76-153.6,154.283c0.247,36.881,13.756,72.439,38.059,100.181  c3.072,3.584,6.315,6.912,9.472,10.325c3.157,3.413,8.533,9.045,12.544,13.909c7.313,8.764,13.952,18.065,19.883,27.819  c7.33,11.759,13.261,24.329,17.664,37.461c3.149,10.197,4.762,20.813,4.779,31.488h102.4c-0.017-10.641,1.562-21.231,4.693-31.403  c4.403-13.133,10.334-25.711,17.664-37.461c6.059-9.771,12.851-19.072,20.309-27.819c4.011-4.949,8.533-9.472,12.544-13.909  c4.011-4.437,6.4-6.741,9.472-10.325c24.201-27.81,37.581-63.403,37.717-100.267C408.593,86.827,340.514,18.449,256,17.067z"/>
<path d="M290.133,443.733h-68.267c-9.429,0-17.067-7.637-17.067-17.067v-34.133h102.4v34.133  C307.2,436.096,299.563,443.733,290.133,443.733z M221.867,409.6v17.067h68.267V409.6H221.867z"/>
<path d="M273.067,477.867h-34.133c-9.429,0-17.067-7.637-17.067-17.067v-34.133h68.267V460.8  C290.133,470.229,282.496,477.867,273.067,477.867z M238.933,443.733V460.8h34.133v-17.067H238.933z"/>
<path d="M264.533,512h-17.067c-9.429,0-17.067-7.637-17.067-17.067V460.8h51.2v34.133C281.6,504.363,273.963,512,264.533,512z   M247.467,477.867v17.067h17.067v-17.067H247.467z"/>
<path d="M238.933,401.067c-4.71,0-8.533-3.823-8.533-8.533v-48.555c-8.533-5.973-25.6-21.163-25.6-42.667V281.6  c0-4.71,3.823-8.533,8.533-8.533s8.533,3.823,8.533,8.533v20.053c0,17.067,21.163,30.464,21.419,30.549  c2.594,1.536,4.181,4.326,4.181,7.339v52.992C247.467,397.244,243.644,401.067,238.933,401.067z"/>
<path d="M273.067,401.067c-4.71,0-8.533-3.823-8.533-8.533v-53.077c0-3.012,1.587-5.803,4.181-7.339  c0,0,21.419-13.056,21.419-30.635V281.6c0-4.71,3.823-8.533,8.533-8.533c4.71,0,8.533,3.823,8.533,8.533v20.053  c0,21.333-17.067,36.437-25.6,42.667v48.213C281.6,397.244,277.777,401.067,273.067,401.067z"/>
<g>
	<path style="fill:#F44335;" d="M267.776,170.667h-23.552c-3.763,0.111-6.98-2.662-7.424-6.4l-6.4-79.957   c-0.196-3.951,2.859-7.313,6.81-7.509c0.23-0.009,0.469-0.009,0.7,0h36.267c3.959-0.145,7.279,2.944,7.424,6.895   c0.009,0.205,0.009,0.41,0,0.614l-6.4,79.957C274.756,168.004,271.539,170.778,267.776,170.667z"/>
	<path style="fill:#F44335;" d="M251.477,204.8h9.045c6.929,0,12.544,5.615,12.544,12.544v9.045c0,6.929-5.615,12.544-12.544,12.544   h-9.045c-6.929,0-12.544-5.615-12.544-12.544v-9.045C238.933,210.415,244.548,204.8,251.477,204.8z"/>
</g>
<path d="M267.776,179.2h-23.552c-8.201,0.085-15.121-6.093-15.957-14.251l-6.4-79.616c-0.333-4.233,1.126-8.405,4.011-11.52  c3.038-3.482,7.415-5.495,12.032-5.547h36.267c4.531-0.009,8.866,1.877,11.947,5.205c2.978,3.191,4.437,7.518,4.011,11.861  l-6.4,79.957C282.735,173.312,275.866,179.302,267.776,179.2z M245.248,162.133h21.675l6.144-76.8h-34.133L245.248,162.133z"/>
<path d="M260.523,247.467h-9.045c-11.622-0.043-21.035-9.455-21.077-21.077v-9.045c0.043-11.622,9.455-21.035,21.077-21.077h8.96  c11.657,0,21.111,9.421,21.163,21.077v8.96C281.6,237.961,272.179,247.415,260.523,247.467z M251.563,213.333  c-2.193,0.043-3.968,1.818-4.011,4.011v8.96c0.043,2.193,1.818,3.968,4.011,4.011h8.96c2.193-0.043,3.968-1.818,4.011-4.011v-8.96  c-0.043-2.193-1.818-3.968-4.011-4.011H251.563z"/>
<g>
</g>
<g>
</g>
<g>
</g>
<g>
</g>
<g>
</g>
<g>
</g>
<g>
</g>
<g>
</g>
<g>
</g>
<g>
</g>
<g>
</g>
<g>
</g>
<g>
</g>
<g>
</g>
<g>
</g>
</svg>
