<?xml version="1.0" encoding="iso-8859-1"?>
<!-- Generator: Adobe Illustrator 19.0.0, SVG Export Plug-In . SVG Version: 6.00 Build 0)  -->
<svg xmlns="http://www.w3.org/2000/svg" xmlns:xlink="http://www.w3.org/1999/xlink" version="1.1" id="Layer_1" x="0px" y="0px" viewBox="0 0 512 512" style="enable-background:new 0 0 512 512;" xml:space="preserve">
<path style="fill:#607D8B;" d="M446.054,206.235l-34.135,59.736l-9.899,17.068c-1.92,3.337-5.829,4.984-9.558,4.011l-21.42-5.718  L46.76,195.141c-4.54-1.212-7.254-5.863-6.059-10.411l17.75-66.649l4.352-15.702c1.203-4.557,5.871-7.279,10.428-6.076  c0.026,0.009,0.043,0.009,0.068,0.017l367.549,97.37c4.557,1.195,7.279,5.863,6.085,10.42  C446.737,204.861,446.447,205.569,446.054,206.235z"/>
<path style="fill:#CFD8DC;" d="M405.519,221.255l-34.135,59.736v0.597L47.101,195.397c-4.54-1.212-7.254-5.863-6.059-10.411  l17.75-66.649l341.35,90.799c4.548,1.229,7.245,5.914,6.016,10.462C406.005,220.171,405.792,220.725,405.519,221.255z"/>
<path style="fill:#37474F;" d="M367.8,280.308l-11.777,23.297l-8.534,17.068c-1.835,3.584-5.922,5.402-9.814,4.352l-98.65-26.369  l-63.235-17.068L68.35,253.597c-3.593-0.964-6.144-4.139-6.315-7.851l-2.219-47.362L367.8,280.308z"/>
<g>
	<path style="fill:#CFD8DC;" d="M128.086,443.73c0.009,5.999,1.596,11.879,4.608,17.068H48.722c1.715-5.53,2.577-11.282,2.56-17.068   c0.017-5.786-0.845-11.538-2.56-17.068h83.972C129.691,431.851,128.103,437.739,128.086,443.73z"/>
	<path style="fill:#CFD8DC;" d="M213.424,331.852l-23.98,91.226c-6.46-8.508-16.538-13.5-27.223-13.483   c-1.536-0.128-3.072-0.128-4.608,0l23.126-86.874c1.835,1.929,3.934,3.593,6.23,4.95c5.683,3.422,12.22,5.163,18.86,5.035   C208.389,332.714,210.941,332.424,213.424,331.852z"/>
</g>
<g>
	<path style="fill:#37474F;" d="M196.356,443.73c-0.171,18.851-15.591,33.99-34.442,33.819   c-18.851-0.171-33.99-15.591-33.819-34.442c0.154-16.948,12.724-31.216,29.527-33.512c1.536-0.128,3.072-0.128,4.608,0   C181.081,409.595,196.356,424.879,196.356,443.73z"/>
	<path style="fill:#37474F;" d="M239.025,298.656c0.171,3.217-0.179,6.443-1.024,9.558c-3.158,11.836-12.63,20.942-24.577,23.639   c-2.56,0.683-5.197,1.05-7.851,1.109c-6.639,0.128-13.176-1.613-18.86-5.035c-2.296-1.357-4.395-3.021-6.23-4.95   c-8.73-8.192-12.246-20.524-9.131-32.087c0.853-3.004,2.116-5.871,3.755-8.534L239.025,298.656z"/>
	<path style="fill:#37474F;" d="M51.282,443.73c0.017,5.786-0.845,11.538-2.56,17.068c-6.136,19.611-20.916,35.33-40.109,42.669   V383.993c19.192,7.339,33.973,23.058,40.109,42.669C50.438,432.192,51.299,437.944,51.282,443.73z"/>
</g>
<g>
	<path style="fill:#607D8B;" d="M449.382,275.444L436.24,324.94l-80.217-21.334l11.777-23.383l25.004,6.656   c3.755,1.016,7.715-0.632,9.643-4.011l9.814-17.068L449.382,275.444z"/>
	<path style="fill:#607D8B;" d="M472.364,255.518l24.739,6.571c4.557,1.212,7.262,5.88,6.059,10.437l-21.915,82.479   c-1.212,4.557-5.88,7.262-10.437,6.059l-24.739-6.571c-9.114-2.424-14.533-11.768-12.109-20.882l17.528-65.983   C453.905,258.513,463.258,253.094,472.364,255.518z"/>
</g>
<path d="M473.106,369.571c-1.502,0-2.987-0.205-4.438-0.597l0,0l-24.833-6.571c-13.663-3.627-21.804-17.648-18.177-31.31v-0.009  l17.494-65.966c3.627-13.663,17.648-21.804,31.31-18.177h0.009l24.748,6.571c9.114,2.415,14.542,11.76,12.126,20.865  c0,0.017-0.009,0.026-0.009,0.043l-21.932,82.436c-1.971,7.484-8.73,12.698-16.47,12.715L473.106,369.571z M473.106,352.504  L473.106,352.504l21.932-82.521l-24.748-6.571c-4.548-1.195-9.199,1.519-10.411,6.059l-17.494,65.966  c-1.195,4.549,1.519,9.199,6.059,10.411L473.106,352.504z"/>
<path style="fill:#1566C0;" d="M375.565,127.981c0,65.983-53.49,119.473-119.473,119.473c-2.901,0-5.803,0-8.534,0  s-5.718-0.512-8.534-0.939c-2.816-0.427-5.12-0.853-7.68-1.365l0,0c-1.707,0-3.413-0.768-5.035-1.28  c-1.016-0.179-2.014-0.435-2.987-0.768l-6.23-1.963l-4.608-2.219l-2.389-1.024c-1.34-0.495-2.645-1.067-3.926-1.707l-1.28-0.341  l-0.853-0.427c-1.451-0.683-2.901-1.365-4.352-2.219l-5.291-2.816c-1.28-0.768-2.56-1.536-3.84-2.475  c-2.97-1.775-5.82-3.746-8.534-5.888c-28.759-22.725-45.493-57.39-45.4-94.042c0-2.731,0-5.376,0-8.022  c-0.009-0.171-0.009-0.341,0-0.512c0-2.56,0.256-5.12,0.768-7.68l0,0c0,0,0,0,0-0.683c0.512-3.243,1.109-6.4,1.877-9.558  c0.785-3.49,1.758-6.938,2.901-10.326l1.536-4.352c0.683-1.877,1.451-3.755,2.304-5.632c0.683-1.621,1.451-3.243,2.219-4.779  s1.536-3.157,2.389-4.694c0.853-1.536,1.707-3.072,2.645-4.608c1.877-3.072,3.926-6.144,6.059-9.046  c2.133-2.901,3.67-4.779,5.632-6.998c3.926-4.651,8.235-8.96,12.886-12.886c2.219-1.963,4.608-3.84,6.998-5.632  c2.389-1.792,5.974-4.182,9.046-6.059l4.608-2.645l4.694-2.389l4.779-2.219c1.877-0.853,3.67-1.621,5.632-2.304l4.352-1.536  c3.388-1.144,6.836-2.116,10.326-2.901c3.158-0.768,6.315-1.365,9.558-1.877h1.195c2.56-0.341,5.12-0.597,7.68-0.768  c0.307-0.043,0.631-0.043,0.939,0c2.645,0,5.291,0,8.022,0C321.291,9.634,374.823,62.364,375.565,127.981z"/>
<path style="fill:#2296F3;" d="M341.43,127.981c-0.026,59.369-43.642,109.71-102.405,118.193c-2.56,0-5.12-0.853-7.68-1.365l0,0  c-1.707,0-3.413-0.768-5.035-1.28c-1.016-0.179-2.014-0.435-2.987-0.768l-6.23-1.963l-4.608-1.877l-2.389-1.024  c-1.34-0.495-2.645-1.067-3.926-1.707l-1.28-0.341l-0.853-0.427c-1.451-0.683-2.901-1.365-4.352-2.219l-5.291-2.816  c-1.28-0.768-2.56-1.536-3.84-2.475c-2.97-1.775-5.82-3.746-8.534-5.888c-28.759-22.725-45.493-57.39-45.4-94.042  c0-2.731,0-5.376,0-8.022c-0.009-0.171-0.009-0.341,0-0.512c0-2.56,0.256-5.12,0.768-7.68l0,0c0,0,0,0,0-0.683  c0.512-3.243,1.109-6.4,1.877-9.558c0.785-3.49,1.758-6.938,2.901-10.326l1.536-4.352c0.683-1.877,1.451-3.755,2.304-5.632  c0.683-1.621,1.451-3.243,2.219-4.779s1.536-3.157,2.389-4.694c0.853-1.536,1.707-3.072,2.645-4.608  c1.877-3.072,3.926-6.144,6.059-9.046c2.133-2.901,3.67-4.779,5.632-6.998c3.926-4.651,8.235-8.96,12.886-12.886  c2.219-1.963,4.608-3.84,6.998-5.632c2.389-1.792,5.974-4.182,9.046-6.059l4.608-2.645l4.694-2.389l4.779-2.219  c1.877-0.853,3.67-1.621,5.632-2.304l4.352-1.536c3.388-1.144,6.836-2.116,10.326-2.901c3.158-0.768,6.315-1.365,9.558-1.877h1.195  C297.473,19.073,340.987,68.935,341.43,127.981z"/>
<path style="fill:#F5F5F5;" d="M332.896,124.738c-26.113,41.218-61.272,57.518-93.871,48.984  c-21.846-5.462-42.669-21.846-59.736-48.984c13.953-21.113,35.236-36.32,59.736-42.669c5.598-1.263,11.324-1.895,17.068-1.877  C283.827,79.935,311.562,94.87,332.896,124.738z"/>
<path style="fill:#FFFFFF;" d="M298.761,124.738c-17.068,27.137-38.317,43.437-59.736,48.984  c-21.846-5.462-42.669-21.846-59.736-48.984c13.953-21.113,35.236-36.32,59.736-42.669  C263.526,88.418,284.809,103.625,298.761,124.738z"/>
<path style="fill:#3F51B5;" d="M237.062,82.069c-9.455,10.514-8.602,26.694,1.903,36.158c10.514,9.455,26.694,8.602,36.158-1.903  c8.764-9.737,8.764-24.517,0-34.255"/>
<path d="M256.093,255.987c-5.419,0.017-10.838-0.324-16.214-1.024h-0.853c-10.642-1.545-21.044-4.412-30.978-8.534l-1.195-0.512  c-10.753-4.446-20.831-10.36-29.953-17.58c-30.867-24.142-48.873-61.17-48.813-100.357c0.017-5.308,0.358-10.607,1.024-15.873  C137.9,41.96,201.886-7.783,272.034,1.007S391.925,73.783,383.135,143.93c-4.19,33.461-21.42,63.918-47.934,84.749  C312.689,246.472,284.792,256.098,256.093,255.987z M214.363,230.386L214.363,230.386c56.758,23.084,121.478-4.216,144.562-60.965  s-4.216-121.478-60.965-144.562s-121.478,4.216-144.562,60.965c-3.635,8.943-6.093,18.322-7.305,27.905  c-0.614,4.728-0.93,9.49-0.939,14.251c-0.017,34.075,15.736,66.248,42.669,87.13c8.022,6.264,16.871,11.41,26.284,15.275  L214.363,230.386L214.363,230.386z"/>
<path d="M210.864,247.453c-0.734,0.094-1.485,0.094-2.219,0l-163.934-44.12c-9.088-2.415-14.499-11.725-12.118-20.822l21.932-82.436  c2.372-9.123,11.683-14.601,20.814-12.229c0.034,0.009,0.068,0.017,0.094,0.026l64.345,17.068c4.139,1.084,6.836,5.061,6.315,9.302  c-0.589,4.557-0.905,9.148-0.939,13.739c-0.017,34.075,15.736,66.248,42.669,87.13c8.022,6.264,16.871,11.41,26.284,15.275  c4.711,0.896,7.808,5.445,6.912,10.155C220.123,245.251,215.583,248.349,210.864,247.453z M71.081,104.427l-21.932,82.436  l115.462,30.722c-23.528-23.877-36.653-56.084-36.525-89.604c0-2.731,0-5.632,0-8.534L71.081,104.427z"/>
<path d="M395.108,295.84c-1.528,0-3.047-0.196-4.523-0.597l-152.157-40.45c-4.711-0.922-7.791-5.487-6.87-10.198  c0.922-4.711,5.487-7.791,10.198-6.87l0,0c29.45,3.951,59.241-4.173,82.607-22.529c14.985-11.7,26.736-27.035,34.135-44.546  c1.647-3.934,5.948-6.05,10.07-4.95l74.414,19.798c9.114,2.424,14.533,11.768,12.109,20.882c-0.384,1.442-0.956,2.833-1.698,4.122  L409.7,287.306C406.688,292.529,401.141,295.771,395.108,295.84z M291.337,251.123l103.6,27.564l43.608-76.804l0,0l-67.502-17.921  c-8.517,17.358-20.822,32.582-36.012,44.546C322.067,238.8,307.227,246.48,291.337,251.123z"/>
<path d="M339.724,334.156c-1.502,0-2.987-0.205-4.438-0.597L65.96,261.961c-7.177-1.929-12.289-8.278-12.63-15.702l-2.048-47.362  c-0.162-4.711,3.524-8.662,8.235-8.824c0.853-0.026,1.698,0.068,2.517,0.29l151.389,40.023l1.28,0.427l0,0  c8.542,3.456,17.494,5.837,26.625,7.083h1.536l127.324,34.135c4.557,1.203,7.271,5.88,6.059,10.437  c-0.162,0.614-0.393,1.203-0.683,1.766l-20.481,40.535C352.166,330.563,346.218,334.199,339.724,334.156z M68.35,209.734  l1.707,35.671l269.667,71.598l15.702-31.063l-117.169-31.148c-10.334-1.4-20.455-4.096-30.124-8.022L68.35,209.734z"/>
<path d="M132.694,469.331H48.722c-4.711,0.222-8.704-3.422-8.918-8.133c-0.043-1.007,0.085-2.005,0.384-2.961  c1.587-4.676,2.449-9.566,2.56-14.507c0.026-4.915-0.691-9.805-2.133-14.507c-1.417-4.497,1.075-9.285,5.573-10.71  c0.956-0.299,1.963-0.435,2.961-0.384h83.972c4.711-0.017,8.551,3.789,8.568,8.5c0.009,1.51-0.393,2.995-1.144,4.301  c-4.574,7.919-4.574,17.682,0,25.601c2.355,4.079,0.956,9.302-3.123,11.657c-1.306,0.751-2.791,1.152-4.301,1.144H132.694z   M59.304,452.263h61.102c-1.169-5.632-1.169-11.435,0-17.068H59.304c0.35,2.833,0.521,5.683,0.512,8.534  C59.825,446.58,59.654,449.43,59.304,452.263z"/>
<path d="M162.221,486.398c-23.562,1.579-43.949-16.248-45.528-39.81s16.248-43.949,39.81-45.528c1.903-0.154,3.815-0.154,5.718,0  c13.432,0,26.079,6.324,34.135,17.068c14.14,18.851,10.317,45.596-8.534,59.736C180.441,483.403,171.455,486.398,162.221,486.398z   M162.221,418.128c-1.05-0.085-2.108-0.085-3.158,0c-7.928,0.998-14.934,5.632-18.945,12.545c-7.211,12.161-3.2,27.871,8.969,35.082  c12.161,7.211,27.871,3.2,35.082-8.969c7.211-12.161,3.2-27.871-8.969-35.082C171.276,419.383,166.795,418.145,162.221,418.128z"/>
<path d="M204.89,341.325c-3.772,0-7.527-0.486-11.179-1.451c-3.96-1.05-7.757-2.663-11.265-4.779c-2.961-1.749-5.658-3.9-8.022-6.4  c-10.795-10.343-15.088-25.763-11.179-40.194c1.041-3.874,2.62-7.578,4.694-11.009c1.98-3.209,5.829-4.736,9.472-3.755  l63.235,17.068c3.559,0.956,6.11,4.088,6.315,7.766c0.213,4.113-0.213,8.227-1.28,12.203c-5.223,17.665-21.189,29.979-39.597,30.551  H204.89z M180.142,292.255v0.939c-2.27,8.517,0.316,17.597,6.742,23.639c1.382,1.468,2.961,2.731,4.694,3.755  c2.159,1.289,4.48,2.261,6.912,2.901c2.415,0.666,4.915,0.981,7.424,0.939c1.954-0.026,3.908-0.282,5.803-0.768  c8.619-2.031,15.472-8.559,17.921-17.068v-0.939L180.142,292.255z"/>
<path d="M189.444,431.697c-2.688,0-5.214-1.263-6.827-3.414c-5.308-7.552-14.414-11.478-23.553-10.155  c-4.651,0.768-9.037-2.381-9.805-7.032c-0.196-1.178-0.137-2.389,0.162-3.55l23.041-86.703c1.22-4.548,5.905-7.254,10.454-6.025  c1.51,0.41,2.884,1.22,3.968,2.355c1.28,1.365,2.748,2.543,4.352,3.499c2.159,1.289,4.48,2.261,6.912,2.901  c2.415,0.666,4.915,0.981,7.424,0.939c1.954-0.026,3.908-0.282,5.803-0.768c4.531-1.289,9.251,1.34,10.548,5.871  c0.418,1.485,0.435,3.055,0.034,4.54l-24.236,91.226c-0.862,3.157-3.448,5.538-6.656,6.144L189.444,431.697z M168.707,401.573  c5.726,0.879,11.213,2.91,16.129,5.974l17.494-66.222c-2.884-0.179-5.743-0.64-8.534-1.365c-2.765-0.717-5.453-1.724-8.022-2.987  L168.707,401.573z"/>
<path d="M8.614,512c-4.711,0-8.534-3.823-8.534-8.534V383.993c-0.009-4.711,3.815-8.534,8.525-8.542  c1.084,0,2.159,0.205,3.166,0.606c21.676,8.261,38.325,26.045,45.144,48.216c1.946,6.298,2.919,12.86,2.901,19.457  c0.009,6.656-0.998,13.279-2.987,19.628c-6.836,22.094-23.451,39.81-45.058,48.045C10.773,511.803,9.697,512,8.614,512z   M17.147,398.074v91.311c11.222-7.228,19.508-18.211,23.383-30.978c1.485-4.753,2.227-9.703,2.219-14.678  c0.026-4.915-0.691-9.805-2.133-14.507C36.732,416.387,28.42,405.345,17.147,398.074z"/>
<path d="M436.24,333.559c-0.734,0.094-1.485,0.094-2.219,0l-80.217-21.334c-4.557-1.186-7.296-5.846-6.11-10.411  c0.154-0.589,0.367-1.161,0.649-1.707l11.777-23.383c1.809-3.618,5.905-5.47,9.814-4.438l25.004,6.656l9.814-17.068  c1.929-3.379,5.888-5.026,9.643-4.011l37.207,9.899c4.54,1.212,7.254,5.863,6.059,10.411l-13.142,49.496  c-1.033,3.832-4.566,6.452-8.534,6.315L436.24,333.559z M367.97,298.144l61.87,16.47l8.534-33.026l-22.614-5.974l-6.059,11.606  c-3.84,6.716-11.725,10.01-19.201,8.022l-18.177-5.12L367.97,298.144z"/>
<path d="M255.581,184.559h-0.597c-31.746,0-61.187-19.884-82.948-55.299c-1.877-2.85-1.877-6.537,0-9.387  c22.273-31.234,52.056-48.386,83.716-48.386s61.443,17.068,83.716,48.386c1.954,2.884,1.954,6.673,0,9.558  C317.45,164.932,287.497,184.559,255.581,184.559z M189.7,124.823c18.092,27.137,41.218,42.071,65.454,42.669h0.427  c24.492,0,48.045-14.934,66.905-42.669c-18.518-23.639-41.901-36.61-66.393-36.61c-24.492,0-47.96,13.227-66.478,36.951  L189.7,124.823z"/>
<path d="M256.093,133.271c-18.851-0.102-34.05-15.472-33.939-34.323c0.043-8.15,3.004-16.009,8.337-22.171  c3.158-3.507,8.568-3.798,12.075-0.64s3.798,8.568,0.64,12.075l0,0c-6.238,7.066-5.555,17.853,1.51,24.091  c7.066,6.238,17.853,5.555,24.091-1.51c5.692-6.452,5.692-16.129,0-22.58c-3.158-3.559-2.833-9.003,0.725-12.161  c3.559-3.157,9.003-2.833,12.161,0.725c12.587,14.038,11.41,35.62-2.628,48.199c-6.306,5.658-14.499,8.764-22.973,8.722V133.271z"/>
<g>
</g>
<g>
</g>
<g>
</g>
<g>
</g>
<g>
</g>
<g>
</g>
<g>
</g>
<g>
</g>
<g>
</g>
<g>
</g>
<g>
</g>
<g>
</g>
<g>
</g>
<g>
</g>
<g>
</g>
</svg>
