<?xml version="1.0" encoding="iso-8859-1"?>
<!-- Generator: Adobe Illustrator 19.0.0, SVG Export Plug-In . SVG Version: 6.00 Build 0)  -->
<svg xmlns="http://www.w3.org/2000/svg" xmlns:xlink="http://www.w3.org/1999/xlink" version="1.1" id="Layer_1" x="0px" y="0px" viewBox="0 0 512.002 512.002" style="enable-background:new 0 0 512.002 512.002;" xml:space="preserve">
<path style="fill:#607D8B;" d="M446.116,162.605L411.97,222.36l-9.902,17.073c-1.921,3.338-5.83,4.985-9.561,4.012l-21.427-5.719  L46.694,151.507c-4.541-1.212-7.256-5.865-6.061-10.414l17.756-66.67l4.354-15.707c1.204-4.558,5.873-7.282,10.432-6.078  c0.026,0.009,0.043,0.017,0.068,0.017l367.666,97.401c4.558,1.195,7.282,5.865,6.087,10.423  C446.799,161.23,446.5,161.947,446.116,162.605z"/>
<path style="fill:#CFD8DC;" d="M405.567,177.629l-34.146,59.755v0.598L47.036,151.763c-4.541-1.212-7.256-5.865-6.061-10.414  l17.756-66.67l341.459,90.828c4.55,1.229,7.247,5.916,6.018,10.466C406.054,176.553,405.841,177.108,405.567,177.629z"/>
<path d="M394.982,252.152c-1.468-0.009-2.937-0.213-4.354-0.598L44.731,159.617c-9.117-2.416-14.546-11.763-12.13-20.872  c0-0.017,0.009-0.026,0.009-0.043L54.548,56.24c2.416-9.117,11.763-14.546,20.872-12.13c0.017,0,0.026,0.009,0.043,0.009  l367.665,97.743l0,0c9.108,2.441,14.503,11.806,12.062,20.914c-0.376,1.4-0.93,2.749-1.648,4.012l-43.707,76.828  C406.771,248.925,401.103,252.178,394.982,252.152z M70.597,60.679l-21.512,82.462l345.898,91.938l43.707-76.828l2.219-8.536  l-2.219,8.536L70.597,60.679z"/>
<path style="fill:#37474F;" d="M367.836,236.701l-11.78,23.305l-8.536,17.073c-1.835,3.585-5.924,5.404-9.817,4.354l-98.681-26.378  l-63.255-17.073l-107.474-28c-3.594-0.965-6.146-4.14-6.317-7.854l-2.219-47.377L367.836,236.701z"/>
<path d="M339.666,290.396c-1.468-0.009-2.937-0.205-4.354-0.598L65.902,218.177c-7.179-1.929-12.293-8.28-12.634-15.707  l-2.049-47.292c-0.162-4.712,3.526-8.665,8.238-8.827c0.854-0.026,1.699,0.068,2.518,0.29l308.337,81.95  c4.524,1.315,7.136,6.044,5.822,10.577c-0.137,0.469-0.316,0.93-0.529,1.374l-20.658,40.121  C352.138,286.571,346.205,290.344,339.666,290.396z M68.292,166.019l1.707,35.682l269.411,71.621l15.792-31.158L68.292,166.019z"/>
<g>
	<path style="fill:#CFD8DC;" d="M128.047,400.174c0.009,6.001,1.596,11.883,4.61,17.073H48.658   c1.716-5.532,2.578-11.285,2.561-17.073c0.017-5.788-0.845-11.541-2.561-17.073h83.999   C129.643,388.292,128.056,394.182,128.047,400.174z"/>
	<path style="fill:#CFD8DC;" d="M213.412,288.261l-23.987,91.255c-6.462-8.511-16.544-13.505-27.231-13.488   c-1.537-0.128-3.073-0.128-4.61,0l23.134-86.901c1.835,1.929,3.935,3.594,6.232,4.951c5.685,3.423,12.224,5.165,18.866,5.036   C208.375,289.124,210.919,288.842,213.412,288.261z"/>
</g>
<path d="M132.657,425.784H48.658c-4.712,0.222-8.707-3.423-8.921-8.135c-0.043-1.007,0.085-2.006,0.384-2.962  c1.579-4.678,2.441-9.569,2.561-14.512c0.026-4.917-0.691-9.808-2.134-14.512c-1.417-4.499,1.076-9.288,5.574-10.713  c0.956-0.299,1.963-0.435,2.962-0.384h83.999c4.712-0.017,8.554,3.79,8.571,8.502c0.009,1.511-0.393,2.996-1.144,4.302  c-4.576,7.922-4.576,17.688,0,25.609c2.356,4.08,0.956,9.305-3.124,11.661c-1.306,0.751-2.791,1.152-4.302,1.144H132.657z   M59.243,408.711h61.121c-1.17-5.634-1.17-11.439,0-17.073H59.243c0.35,2.834,0.521,5.685,0.512,8.536  C59.764,403.034,59.593,405.885,59.243,408.711z"/>
<g>
	<path style="fill:#37474F;" d="M196.339,400.174c-0.171,18.857-15.596,34.001-34.453,33.83   c-18.857-0.171-34.009-15.596-33.839-34.453c0.154-16.953,12.728-31.226,29.536-33.523c1.537-0.128,3.073-0.128,4.61,0   C181.05,366.029,196.339,381.317,196.339,400.174z"/>
	<path style="fill:#37474F;" d="M239.021,255.055c0.171,3.218-0.179,6.445-1.024,9.561c-3.158,11.84-12.634,20.948-24.585,23.646   c-2.561,0.683-5.199,1.05-7.854,1.11c-6.641,0.128-13.18-1.613-18.866-5.036c-2.296-1.357-4.396-3.022-6.232-4.951   c-8.733-8.195-12.25-20.53-9.134-32.097c0.854-3.005,2.117-5.873,3.756-8.536L239.021,255.055z"/>
	<path style="fill:#37474F;" d="M51.219,400.174c0.017,5.788-0.845,11.541-2.561,17.073c-6.138,19.617-20.923,35.341-40.121,42.682   v-119.51c19.199,7.341,33.984,23.066,40.121,42.682C50.374,388.633,51.236,394.387,51.219,400.174z"/>
</g>
<path d="M162.193,442.857c-23.569,1.579-43.963-16.253-45.542-39.823c-1.579-23.569,16.253-43.963,39.823-45.542  c1.904-0.154,3.816-0.154,5.719,0c13.436,0,26.087,6.326,34.146,17.073c14.145,18.857,10.321,45.61-8.536,59.755  C180.418,439.86,171.429,442.857,162.193,442.857z M162.193,374.565c-1.05-0.085-2.109-0.085-3.158,0  c-12.899,1.605-22.553,12.617-22.451,25.609c0.017,4.499,1.229,8.921,3.5,12.805c7.136,12.207,22.818,16.322,35.034,9.185  c7.819-4.567,12.642-12.933,12.685-21.99C187.802,386.038,176.338,374.565,162.193,374.565z"/>
<path d="M204.875,297.737c-3.747-0.017-7.478-0.504-11.097-1.451c-3.961-1.059-7.76-2.663-11.268-4.78  c-2.962-1.75-5.66-3.91-8.024-6.402c-10.816-10.338-15.11-25.772-11.183-40.207c1.033-3.876,2.612-7.58,4.695-11.012  c1.98-3.21,5.83-4.738,9.475-3.756l63.255,17.073c3.56,0.956,6.112,4.089,6.317,7.768c0.222,4.115-0.213,8.229-1.28,12.207  c-5.233,17.696-21.247,30.023-39.695,30.561H204.875z M180.119,248.567v0.939c-2.271,8.519,0.316,17.602,6.744,23.646  c1.374,1.494,2.954,2.791,4.695,3.841c2.134,1.28,4.43,2.254,6.829,2.902c4.337,1.161,8.895,1.161,13.232,0  c8.622-2.032,15.477-8.562,17.927-17.073v-0.854L180.119,248.567z"/>
<path d="M189.424,388.053c-2.689,0-5.216-1.263-6.829-3.415c-5.335-7.521-14.435-11.413-23.561-10.073  c-4.652,0.768-9.04-2.382-9.808-7.034c-0.196-1.178-0.137-2.39,0.162-3.551l23.048-86.816c1.221-4.55,5.907-7.256,10.457-6.027  c1.511,0.41,2.885,1.221,3.969,2.356c1.306,1.366,2.8,2.544,4.439,3.5c2.134,1.28,4.43,2.254,6.829,2.902  c4.337,1.161,8.895,1.161,13.232,0c4.524-1.323,9.262,1.28,10.585,5.805c0.452,1.562,0.452,3.218,0,4.78l-24.244,91.255  c-0.862,3.159-3.449,5.54-6.658,6.146L189.424,388.053z M168.681,357.492c5.728,0.879,11.217,2.911,16.134,5.976l17.5-65.731  c-2.885-0.188-5.737-0.649-8.536-1.366c-2.8-0.717-5.515-1.716-8.11-2.988L168.681,357.492z"/>
<path d="M8.536,468.466c-4.712,0-8.536-3.824-8.536-8.536v-119.51c-0.009-4.712,3.816-8.536,8.528-8.545  c1.084,0,2.16,0.205,3.167,0.606c21.683,8.263,38.337,26.053,45.158,48.231c1.946,6.3,2.919,12.864,2.902,19.463  c0.009,6.658-0.999,13.283-2.988,19.634c-6.838,22.101-23.458,39.823-45.073,48.06C10.688,468.27,9.621,468.475,8.536,468.466z   M17.073,354.419v91.34c11.225-7.23,19.514-18.217,23.39-30.987c1.477-4.721,2.219-9.646,2.219-14.597  c0.026-4.917-0.691-9.808-2.134-14.512C36.681,372.798,28.358,361.718,17.073,354.419z"/>
<path style="fill:#607D8B;" d="M449.445,231.835l-13.146,49.511l-80.243-21.341l11.78-23.39l25.012,6.658  c3.756,1.016,7.717-0.632,9.646-4.012l9.817-17.073L449.445,231.835z"/>
<path d="M436.299,289.883c-0.734,0.094-1.485,0.094-2.219,0l-80.243-21.341c-4.558-1.187-7.299-5.847-6.112-10.414  c0.154-0.589,0.367-1.161,0.649-1.707l11.78-23.39c1.81-3.619,5.907-5.472,9.817-4.439l25.012,6.658l9.817-17.073  c1.929-3.38,5.89-5.028,9.646-4.012l37.219,9.902c4.541,1.212,7.256,5.865,6.061,10.414l-13.146,49.512  c-1.033,3.833-4.567,6.454-8.536,6.317L436.299,289.883z M368.007,254.457l61.889,16.475l8.536-33.036l-22.622-5.976l-6.061,11.61  c-3.841,6.718-11.729,10.013-19.207,8.024l-18.183-5.037L368.007,254.457z"/>
<path style="fill:#607D8B;" d="M472.434,211.903l24.747,6.573c4.559,1.212,7.265,5.882,6.061,10.44l-21.922,82.505  c-1.212,4.558-5.882,7.265-10.44,6.061l-24.747-6.573c-9.117-2.424-14.538-11.772-12.113-20.889l17.534-66.004  C453.969,214.908,463.317,209.478,472.434,211.903z"/>
<path d="M473.176,325.907c-1.502,0-2.988-0.205-4.439-0.598l0,0l-24.841-6.573c-13.667-3.628-21.811-17.653-18.183-31.32v-0.009  l17.5-65.987c3.628-13.667,17.653-21.811,31.32-18.183h0.009l24.756,6.573c9.117,2.416,14.546,11.763,12.13,20.872  c0,0.017-0.009,0.026-0.009,0.043l-21.939,82.462c-1.972,7.486-8.733,12.702-16.475,12.719L473.176,325.907z M473.176,308.834  l-2.219,8.536L473.176,308.834z M468.14,219.457c-3.969-0.137-7.504,2.484-8.536,6.317l-17.244,65.987  c-1.195,4.55,1.52,9.202,6.061,10.414l24.756,6.573l21.939-82.462l-24.756-6.573C469.634,219.534,468.891,219.449,468.14,219.457z"/>
<g>
</g>
<g>
</g>
<g>
</g>
<g>
</g>
<g>
</g>
<g>
</g>
<g>
</g>
<g>
</g>
<g>
</g>
<g>
</g>
<g>
</g>
<g>
</g>
<g>
</g>
<g>
</g>
<g>
</g>
</svg>
