<?xml version="1.0" encoding="iso-8859-1"?>
<!-- Generator: Adobe Illustrator 19.0.0, SVG Export Plug-In . SVG Version: 6.00 Build 0)  -->
<svg xmlns="http://www.w3.org/2000/svg" xmlns:xlink="http://www.w3.org/1999/xlink" version="1.1" id="Layer_1" x="0px" y="0px" viewBox="0 0 512 512" style="enable-background:new 0 0 512 512;" xml:space="preserve">
<path style="fill:#424242;" d="M452.267,341.333h-85.333v64.256c0,16.35-13.261,29.611-29.611,29.611l0,0H170.069  c-13.978-0.981-24.858-12.527-25.003-26.539c0-1.024,0-2.048,0-3.072v-64.256H59.733c-18.85,0-34.133,15.283-34.133,34.133v119.467  c0,4.71,3.823,8.533,8.533,8.533h443.733c4.71,0,8.533-3.823,8.533-8.533V375.467C486.4,356.617,471.117,341.333,452.267,341.333z"/>
<g>
	<path style="fill:#9E9E9E;" d="M452.267,375.467v119.467c0,4.71-3.823,8.533-8.533,8.533h-409.6c-4.71,0-8.533-3.823-8.533-8.533   V375.467c0-18.85,15.283-34.133,34.133-34.133h85.333v64.256c0,1.024,0,2.048,0,3.072c0.145,14.012,11.025,25.557,25.003,26.539   h167.253c16.35,0,29.611-13.261,29.611-29.611l0,0v-64.256h51.2C436.983,341.333,452.267,356.617,452.267,375.467z"/>
	<path style="fill:#9E9E9E;" d="M366.933,341.333v64.256c0,16.35-13.261,29.611-29.611,29.611l0,0h-34.133   c16.35,0,29.611-13.261,29.611-29.611l0,0v-64.256H366.933z"/>
</g>
<g>
	<path style="fill:#37474F;" d="M366.933,38.144v47.189H145.067V38.144c0-16.35,13.261-29.611,29.611-29.611h162.645   C353.673,8.533,366.933,21.794,366.933,38.144L366.933,38.144z"/>
	<path style="fill:#37474F;" d="M366.933,315.733v89.856c0,16.35-13.261,29.611-29.611,29.611l0,0H174.677   c-15.241,0.119-28.066-11.375-29.611-26.539c0-1.024,0-2.048,0-3.072v-89.856H366.933z"/>
</g>
<g>
	<path style="fill:#607D8B;" d="M332.8,38.144v47.189H145.067V38.144c-1.186-15.053,9.967-28.254,25.003-29.611h137.728   C322.833,9.89,333.986,23.091,332.8,38.144z"/>
	<path style="fill:#607D8B;" d="M332.8,315.733v89.856c1.186,15.053-9.967,28.254-25.003,29.611H170.069   c-13.978-0.981-24.858-12.527-25.003-26.539c0-1.024,0-2.048,0-3.072v-89.856H332.8z"/>
</g>
<path d="M375.467,93.867H136.533V38.144C136.533,17.075,153.609,0,174.677,0h162.645c21.069,0,38.144,17.075,38.144,38.144l0,0  V93.867z M153.6,76.8h204.8V38.144c0-11.639-9.438-21.077-21.077-21.077l0,0H174.677c-11.639,0-21.077,9.438-21.077,21.077V76.8z"/>
<path d="M337.323,443.733H174.677c-19.61,0.145-36.122-14.626-38.144-34.133c0-1.451,0-2.645,0-3.925V307.2h238.933v98.389  C375.467,426.658,358.391,443.733,337.323,443.733L337.323,443.733z M153.6,324.267v81.323c0,0.768,0,1.536,0,2.304  c1.143,10.752,10.266,18.876,21.077,18.773h162.645c11.639,0,21.077-9.438,21.077-21.077l0,0v-81.323H153.6z"/>
<circle style="fill:#37474F;" cx="256" cy="375.467" r="25.6"/>
<path d="M256,409.6c-18.85,0-34.133-15.283-34.133-34.133S237.15,341.333,256,341.333c18.85,0,34.133,15.283,34.133,34.133  S274.85,409.6,256,409.6z M256,358.4c-9.429,0-17.067,7.637-17.067,17.067c0,9.429,7.637,17.067,17.067,17.067  c9.429,0,17.067-7.637,17.067-17.067C273.067,366.037,265.429,358.4,256,358.4z"/>
<rect x="145.067" y="85.333" style="fill:#0377BC;" width="221.867" height="230.4"/>
<rect x="145.067" y="85.333" style="fill:#02A9F4;" width="187.733" height="230.4"/>
<path d="M375.467,324.267H136.533V76.8h238.933V324.267z M153.6,307.2h204.8V93.867H153.6V307.2z"/>
<path d="M278.187,54.016h-44.373c-4.71,0-8.533-3.823-8.533-8.533s3.823-8.533,8.533-8.533h44.373c4.71,0,8.533,3.823,8.533,8.533  S282.897,54.016,278.187,54.016z"/>
<path d="M477.867,512H34.133c-9.429,0-17.067-7.637-17.067-17.067V375.467c0-23.561,19.106-42.667,42.667-42.667H153.6v72.789  c0,0.768,0,1.536,0,2.304c-0.111,9.549,6.989,17.638,16.469,18.773h167.253c11.639,0,21.077-9.438,21.077-21.077l0,0V332.8h93.867  c23.561,0,42.667,19.106,42.667,42.667v119.467C494.933,504.363,487.296,512,477.867,512z M59.733,349.867  c-14.14,0-25.6,11.46-25.6,25.6v119.467h443.733V375.467c0-14.14-11.46-25.6-25.6-25.6h-76.8v55.723  c0,21.069-17.075,38.144-38.144,38.144l0,0H170.069c-18.389-0.845-33.015-15.727-33.536-34.133c0-1.195,0-2.475,0-3.755v-55.979  H59.733z"/>
<path d="M213.333,477.867h-17.067c-4.71,0-8.533-3.823-8.533-8.533c0-4.71,3.823-8.533,8.533-8.533h17.067  c4.71,0,8.533,3.823,8.533,8.533C221.867,474.044,218.044,477.867,213.333,477.867z"/>
<path d="M264.533,477.867h-17.067c-4.71,0-8.533-3.823-8.533-8.533c0-4.71,3.823-8.533,8.533-8.533h17.067  c4.71,0,8.533,3.823,8.533,8.533C273.067,474.044,269.244,477.867,264.533,477.867z"/>
<path d="M315.733,477.867h-17.067c-4.71,0-8.533-3.823-8.533-8.533c0-4.71,3.823-8.533,8.533-8.533h17.067  c4.71,0,8.533,3.823,8.533,8.533C324.267,474.044,320.444,477.867,315.733,477.867z"/>
<path style="fill:#CDDC39;" d="M213.333,179.2h85.333c4.71,0,8.533,3.823,8.533,8.533v34.133c0,9.429-7.637,17.067-17.067,17.067  h-68.267c-9.429,0-17.067-7.637-17.067-17.067v-34.133C204.8,183.023,208.623,179.2,213.333,179.2z"/>
<path d="M290.133,247.467h-68.267c-14.14,0-25.6-11.46-25.6-25.6v-34.133c0-9.429,7.637-17.067,17.067-17.067h85.333  c9.429,0,17.067,7.637,17.067,17.067v34.133C315.733,236.006,304.273,247.467,290.133,247.467z M213.333,187.733v34.133  c0,4.71,3.823,8.533,8.533,8.533h68.267c4.71,0,8.533-3.823,8.533-8.533v-34.133H213.333z"/>
<path d="M230.4,187.733c-4.71,0-8.533-3.823-8.533-8.533V128c0-4.71,3.823-8.533,8.533-8.533s8.533,3.823,8.533,8.533v51.2  C238.933,183.91,235.11,187.733,230.4,187.733z"/>
<path d="M281.6,187.733c-4.71,0-8.533-3.823-8.533-8.533V128c0-4.71,3.823-8.533,8.533-8.533s8.533,3.823,8.533,8.533v51.2  C290.133,183.91,286.31,187.733,281.6,187.733z"/>
<path d="M256,315.733c-4.71,0-8.533-3.823-8.533-8.533v-68.267c0-4.71,3.823-8.533,8.533-8.533c4.71,0,8.533,3.823,8.533,8.533  V307.2C264.533,311.91,260.71,315.733,256,315.733z"/>
<path d="M170.069,443.733h-50.603c-4.71,0-8.533-3.823-8.533-8.533s3.823-8.533,8.533-8.533h50.603c4.71,0,8.533,3.823,8.533,8.533  S174.78,443.733,170.069,443.733z"/>
<path d="M392.533,443.733h-55.211c-4.71,0-8.533-3.823-8.533-8.533s3.823-8.533,8.533-8.533h55.211c4.71,0,8.533,3.823,8.533,8.533  S397.244,443.733,392.533,443.733z"/>
<path d="M93.867,443.733h-8.533c-4.71,0-8.533-3.823-8.533-8.533s3.823-8.533,8.533-8.533h8.533c4.71,0,8.533,3.823,8.533,8.533  S98.577,443.733,93.867,443.733z"/>
<path d="M426.667,443.733h-8.533c-4.71,0-8.533-3.823-8.533-8.533s3.823-8.533,8.533-8.533h8.533c4.71,0,8.533,3.823,8.533,8.533  S431.377,443.733,426.667,443.733z"/>
<g>
</g>
<g>
</g>
<g>
</g>
<g>
</g>
<g>
</g>
<g>
</g>
<g>
</g>
<g>
</g>
<g>
</g>
<g>
</g>
<g>
</g>
<g>
</g>
<g>
</g>
<g>
</g>
<g>
</g>
</svg>
