<?xml version="1.0" encoding="iso-8859-1"?>
<!-- Generator: Adobe Illustrator 19.0.0, SVG Export Plug-In . SVG Version: 6.00 Build 0)  -->
<svg xmlns="http://www.w3.org/2000/svg" xmlns:xlink="http://www.w3.org/1999/xlink" version="1.1" id="Layer_1" x="0px" y="0px" viewBox="0 0 511.998 511.998" style="enable-background:new 0 0 511.998 511.998;" xml:space="preserve">
<path style="fill:#C52828;" d="M486.601,127.87c0,66.002-53.505,119.506-119.507,119.506c-5.719,0.009-11.421-0.418-17.072-1.28  c-58.78-8.485-102.409-58.84-102.434-118.226C247.57,68.449,291.216,18.043,350.022,9.558c5.659-0.785,11.362-1.187,17.072-1.195  C433.096,8.363,486.601,61.868,486.601,127.87z"/>
<path style="fill:#F44335;" d="M452.456,127.87c-0.026,59.386-43.654,109.741-102.434,118.226  c-58.78-8.485-102.409-58.84-102.434-118.226C247.57,68.449,291.216,18.043,350.022,9.558  C408.827,18.043,452.464,68.449,452.456,127.87z"/>
<g>
	<path style="fill:#FDD834;" d="M378.874,144.942h-23.56c-3.764,0.111-6.983-2.663-7.426-6.402l-6.402-79.984   c-0.196-3.952,2.86-7.316,6.812-7.512c0.23-0.009,0.469-0.009,0.7,0h36.279c3.961-0.145,7.281,2.945,7.426,6.897   c0.009,0.205,0.009,0.41,0,0.615L386.3,138.54C385.857,142.279,382.63,145.053,378.874,144.942z"/>
	<path style="fill:#FDD834;" d="M362.57,179.087h9.048c6.931,0,12.548,5.617,12.548,12.548v9.048   c0,6.931-5.617,12.548-12.548,12.548h-9.048c-6.931,0-12.548-5.617-12.548-12.548v-9.048   C350.022,184.704,355.638,179.087,362.57,179.087z"/>
</g>
<path style="fill:#2E7D32;" d="M281.732,211.439v223.733c0,18.856-15.288,34.145-34.145,34.145H59.792  c-18.856,0-34.145-15.288-34.145-34.145V85.189c0-18.856,15.288-34.145,34.145-34.145h187.796c7.99,0.009,15.724,2.817,21.853,7.939  c-1.451,2.049-2.817,4.183-4.183,6.317c-8.041,13.069-13.487,27.555-16.048,42.681c-1.118,6.573-1.665,13.223-1.622,19.889  c-0.043,22.134,6.112,43.833,17.755,62.656c1.195,1.878,2.39,3.756,3.756,5.634C272.88,201.588,277.106,206.701,281.732,211.439z"/>
<path style="fill:#4CAF50;" d="M247.588,211.439v223.733c0,18.856-15.288,34.145-34.145,34.145H59.792  c-18.856,0-34.145-15.288-34.145-34.145V85.189c0-18.856,15.288-34.145,34.145-34.145h153.651c7.99,0.009,15.724,2.817,21.853,7.939  c-1.451,2.049-2.817,4.183-4.183,6.317c-8.041,13.069-13.487,27.555-16.048,42.681c-1.118,6.573-1.665,13.223-1.622,19.889  c-0.043,22.134,6.112,43.833,17.755,62.656c1.195,1.878,2.39,3.756,3.756,5.634C238.736,201.588,242.961,206.701,247.588,211.439z"/>
<g>
	<path style="fill:#2E7D32;" d="M59.792,469.317h42.681l0,0v17.072c0,9.432-7.64,17.072-17.072,17.072h-8.536   c-9.432,0-17.072-7.64-17.072-17.072V469.317L59.792,469.317z"/>
	<path style="fill:#2E7D32;" d="M204.907,469.317h42.681l0,0v17.072c0,9.432-7.64,17.072-17.072,17.072h-8.536   c-9.432,0-17.072-7.64-17.072-17.072V469.317L204.907,469.317z"/>
</g>
<path d="M247.588,477.853H59.792c-23.568,0-42.681-19.112-42.681-42.681V85.189c0-23.568,19.113-42.681,42.681-42.681h187.796  c9.987,0.009,19.65,3.508,27.316,9.902c3.372,2.86,4.003,7.828,1.451,11.438c-1.366,1.963-2.646,4.012-3.927,5.975  c-7.435,12.19-12.446,25.694-14.768,39.779c-1.041,6.035-1.562,12.147-1.537,18.267c-0.034,20.53,5.677,40.666,16.475,58.131  c1.024,1.707,2.134,3.414,3.414,5.122c3.551,5.105,7.52,9.902,11.865,14.341c1.528,1.579,2.382,3.696,2.39,5.89v223.819  C290.268,458.741,271.156,477.853,247.588,477.853z M59.792,59.58c-14.144,0-25.609,11.464-25.609,25.609v349.983  c0,14.144,11.464,25.609,25.609,25.609h187.796c14.144,0,25.609-11.464,25.609-25.609V214.853  c-4.029-4.336-7.734-8.963-11.097-13.829c-1.366-1.793-2.646-3.841-3.927-5.89c-12.523-20.197-19.147-43.5-19.121-67.265  c-0.043-7.034,0.529-14.059,1.707-20.999c2.766-16.031,8.562-31.379,17.072-45.242c-3.235-1.383-6.727-2.074-10.243-2.049  L59.792,59.58L59.792,59.58z"/>
<path d="M85.4,511.998h-8.536c-14.144,0-25.609-11.464-25.609-25.609v-17.072c0-4.712,3.824-8.536,8.536-8.536h42.681  c4.712,0,8.536,3.824,8.536,8.536v17.072C111.009,500.534,99.536,511.998,85.4,511.998z M68.328,477.853v8.536  c0,4.712,3.824,8.536,8.536,8.536H85.4c4.712,0,8.536-3.824,8.536-8.536v-8.536H68.328z"/>
<path d="M230.515,511.998h-8.536c-14.144,0-25.609-11.464-25.609-25.609v-17.072c0-4.712,3.824-8.536,8.536-8.536h42.681  c4.712,0,8.536,3.824,8.536,8.536v17.072C256.124,500.534,244.651,511.998,230.515,511.998z M213.443,477.853v8.536  c0,4.712,3.824,8.536,8.536,8.536h8.536c4.712,0,8.536-3.824,8.536-8.536v-8.536H213.443z"/>
<path d="M269.099,204.695H25.647c-4.712,0-8.536-3.824-8.536-8.536c0-4.712,3.824-8.536,8.536-8.536h243.452  c4.712,0,8.536,3.824,8.536,8.536C277.635,200.871,273.811,204.695,269.099,204.695z"/>
<path d="M59.792,290.057c-4.712,0-8.536-3.824-8.536-8.536v-51.217c0-4.712,3.824-8.536,8.536-8.536s8.536,3.824,8.536,8.536v51.217  C68.328,286.233,64.504,290.057,59.792,290.057z"/>
<path d="M59.792,170.551c-4.712,0-8.536-3.824-8.536-8.536v-51.217c0-4.712,3.824-8.536,8.536-8.536s8.536,3.824,8.536,8.536v51.217  C68.328,166.727,64.504,170.551,59.792,170.551z"/>
<path d="M367.094,255.912c-28.716,0.085-56.612-9.569-79.13-27.401c-4.379-3.406-8.511-7.119-12.377-11.097  c-4.968-5.079-9.509-10.559-13.573-16.389c-1.366-1.793-2.646-3.841-3.927-5.89C245.599,174.93,239,151.626,239.051,127.87  c-0.043-7.034,0.529-14.059,1.707-20.999c2.672-16.296,8.468-31.917,17.072-46.01c1.537-2.39,2.988-4.61,4.524-6.829  c40.88-57.705,120.795-71.337,178.5-30.457s71.337,120.795,30.457,178.5c-7.059,9.962-15.51,18.873-25.088,26.445  C423.706,246.343,395.81,256.006,367.094,255.912z M367.094,16.899c-36.065,0.017-69.877,17.559-90.654,47.034  c-1.366,1.963-2.646,4.012-3.927,5.975c-7.435,12.19-12.446,25.694-14.768,39.779c-1.067,6.001-1.613,12.087-1.622,18.182  c-0.034,20.53,5.677,40.666,16.475,58.131c1.024,1.707,2.134,3.414,3.414,5.122c3.551,5.105,7.52,9.902,11.865,14.341  c3.406,3.44,7.059,6.641,10.926,9.561c48.306,37.713,118.047,29.125,155.76-19.181c15.16-19.42,23.432-43.338,23.5-67.974  C478.064,66.58,428.375,16.899,367.094,16.899z"/>
<path d="M371.618,221.768h-9.048c-11.643,0-21.084-9.441-21.084-21.084l0,0v-9.048c0-11.643,9.441-21.084,21.084-21.084l0,0h9.048  c11.643,0,21.084,9.441,21.084,21.084v9.048C392.703,212.327,383.262,221.768,371.618,221.768L371.618,221.768z M362.57,187.623  c-2.219,0-4.012,1.793-4.012,4.012l0,0v9.048c0,2.219,1.793,4.012,4.012,4.012l0,0h9.048c2.219,0,4.012-1.793,4.012-4.012l0,0  v-9.048c0-2.219-1.793-4.012-4.012-4.012l0,0H362.57z"/>
<path d="M378.874,153.478h-23.56c-8.254,0.128-15.203-6.12-15.963-14.341l-6.402-79.557c-0.35-4.234,1.101-8.425,4.012-11.524  c3.056-3.466,7.418-5.48,12.036-5.549h36.193c4.558-0.017,8.92,1.869,12.036,5.207c3.005,3.184,4.464,7.512,4.012,11.865  l-6.402,79.899C393.915,147.563,387,153.615,378.874,153.478z M356.424,136.406h21.597l6.146-76.826h-34.145L356.424,136.406z"/>
<g>
</g>
<g>
</g>
<g>
</g>
<g>
</g>
<g>
</g>
<g>
</g>
<g>
</g>
<g>
</g>
<g>
</g>
<g>
</g>
<g>
</g>
<g>
</g>
<g>
</g>
<g>
</g>
<g>
</g>
</svg>
