<?xml version="1.0" encoding="iso-8859-1"?>
<!-- Generator: Adobe Illustrator 19.0.0, SVG Export Plug-In . SVG Version: 6.00 Build 0)  -->
<svg xmlns="http://www.w3.org/2000/svg" xmlns:xlink="http://www.w3.org/1999/xlink" version="1.1" id="Layer_1" x="0px" y="0px" viewBox="0 0 512 512" style="enable-background:new 0 0 512 512;" xml:space="preserve">
<path style="fill:#0377BC;" d="M281.619,145.067v75.776c-29.099,16.777-49.783,45.022-57.003,77.824H102.419  c-28.279,0-51.2-22.921-51.2-51.2l0,0v-102.4c0-4.71,3.823-8.533,8.533-8.533h213.333  C277.796,136.533,281.619,140.356,281.619,145.067z"/>
<path style="fill:#02A9F4;" d="M247.486,145.067v75.776c-29.099,16.777-49.783,45.022-57.003,77.824h-88.064  c-28.279,0-51.2-22.921-51.2-51.2l0,0v-102.4c0-4.71,3.823-8.533,8.533-8.533h179.2  C243.663,136.533,247.486,140.356,247.486,145.067z"/>
<g>
	<path style="fill:#9E9E9E;" d="M136.552,25.6v110.933H93.886V25.6c0.026-7.765,5.282-14.532,12.8-16.469   c1.382-0.41,2.825-0.614,4.267-0.597h8.533C128.907,8.533,136.552,16.171,136.552,25.6z"/>
	<path style="fill:#9E9E9E;" d="M238.952,25.6v110.933h-42.667V25.6c0.026-7.765,5.282-14.532,12.8-16.469   c1.382-0.41,2.825-0.614,4.267-0.597h8.533C231.307,8.533,238.952,16.171,238.952,25.6z"/>
</g>
<g>
	<path style="fill:#F5F5F5;" d="M119.486,25.6v110.933h-25.6V25.6c0.026-7.765,5.282-14.532,12.8-16.469   C114.195,11.068,119.46,17.835,119.486,25.6z"/>
	<path style="fill:#F5F5F5;" d="M221.886,25.6v110.933h-25.6V25.6c0.026-7.765,5.282-14.532,12.8-16.469   C216.595,11.068,221.86,17.835,221.886,25.6z"/>
</g>
<path d="M224.616,307.2H102.419c-32.99,0-59.733-26.743-59.733-59.733v-102.4c0-9.429,7.637-17.067,17.067-17.067h213.333  c9.429,0,17.067,7.637,17.067,17.067v75.776c0.009,3.063-1.613,5.897-4.267,7.424c-27.008,15.582-46.217,41.822-52.907,72.277  C232.092,304.452,228.619,307.217,224.616,307.2z M273.086,145.067H59.752v102.4c0,23.561,19.106,42.667,42.667,42.667H217.96  c8.516-30.686,28.177-57.097,55.125-74.069V145.067z"/>
<path d="M136.552,145.067H93.886c-4.71,0-8.533-3.823-8.533-8.533V25.6c0-14.14,11.46-25.6,25.6-25.6h8.533  c14.14,0,25.6,11.46,25.6,25.6v110.933C145.086,141.244,141.263,145.067,136.552,145.067z M102.419,128h25.6V25.6  c0-4.71-3.823-8.533-8.533-8.533h-8.533c-4.71,0-8.533,3.823-8.533,8.533V128z"/>
<path d="M238.952,145.067h-42.667c-4.71,0-8.533-3.823-8.533-8.533V25.6c0-14.14,11.46-25.6,25.6-25.6h8.533  c14.14,0,25.6,11.46,25.6,25.6v110.933C247.486,141.244,243.663,145.067,238.952,145.067z M204.819,128h25.6V25.6  c0-4.71-3.823-8.533-8.533-8.533h-8.533c-4.71,0-8.533,3.823-8.533,8.533V128z"/>
<path d="M85.352,512c-4.71,0-8.533-3.823-8.533-8.533v-34.133c-1.007-27.273,20.284-50.193,47.548-51.2  c1.22-0.043,2.432-0.043,3.652,0c34.133,0,34.133-32.768,34.133-34.133v-85.333c0-4.71,3.823-8.533,8.533-8.533  s8.533,3.823,8.533,8.533V384c1.007,27.273-20.284,50.193-47.548,51.2c-1.22,0.043-2.432,0.043-3.652,0  c-34.133,0-34.133,32.768-34.133,34.133v34.133C93.886,508.177,90.063,512,85.352,512z"/>
<path style="fill:#2E7D32;" d="M460.819,324.267c0,65.98-53.487,119.467-119.467,119.467c-5.717,0.009-11.418-0.418-17.067-1.28  c-58.761-8.482-102.374-58.82-102.4-118.187c-0.094-42.692,22.707-82.167,59.733-103.424c13.133-7.654,27.622-12.698,42.667-14.848  c5.658-0.785,11.358-1.178,17.067-1.195C407.332,204.8,460.819,258.287,460.819,324.267z"/>
<path style="fill:#4CAF50;" d="M426.686,324.267c-0.026,59.366-43.639,109.705-102.4,118.187  c-58.761-8.482-102.374-58.82-102.4-118.187c-0.094-42.692,22.707-82.167,59.733-103.424c13.133-7.654,27.622-12.698,42.667-14.848  C383.072,214.477,426.694,264.866,426.686,324.267z"/>
<path d="M341.352,452.267c-70.69,0-128-57.31-128-128c-0.009-9.207,0.964-18.389,2.901-27.392  c15.147-69.052,83.405-112.751,152.457-97.604s112.751,83.405,97.604,152.457c-6.349,28.954-22.562,54.81-45.85,73.148  C397.946,442.701,370.059,452.352,341.352,452.267z M341.352,213.333c-52.105-0.009-97.195,36.241-108.373,87.125  c-1.698,7.825-2.551,15.804-2.56,23.808c0,61.269,49.664,110.933,110.933,110.933s110.933-49.664,110.933-110.933  S402.613,213.333,341.352,213.333z"/>
<path d="M179.219,267.776c-2.671,0.017-5.197-1.212-6.827-3.328l-41.387-54.187c-3.021-3.618-2.534-9.003,1.084-12.015  c1.604-1.34,3.652-2.039,5.743-1.98h29.44l-7.936-23.125c-1.365-4.514,1.178-9.276,5.692-10.641  c4.275-1.297,8.832,0.922,10.436,5.094l11.776,34.133c1.698,4.395-0.495,9.335-4.89,11.034c-0.998,0.384-2.065,0.58-3.132,0.572  h-24.064l30.891,40.448c3.021,3.618,2.534,9.003-1.084,12.015C183.349,267.136,181.31,267.844,179.219,267.776z"/>
<path d="M85.352,179.2c-1.118,0.026-2.227-0.205-3.243-0.683c-1.05-0.41-2.005-1.015-2.816-1.792  c-0.751-0.853-1.382-1.801-1.877-2.816c-0.41-1.033-0.614-2.133-0.597-3.243c-0.017-2.27,0.879-4.446,2.475-6.059  c0.802-0.794,1.758-1.399,2.816-1.792c2.074-0.853,4.412-0.853,6.485,0c1.033,0.435,1.988,1.041,2.816,1.792  c0.751,0.828,1.357,1.783,1.792,2.816c1.792,4.361-0.29,9.344-4.651,11.136C87.537,178.978,86.445,179.191,85.352,179.2z"/>
<path d="M136.552,179.2h-25.6c-4.71,0-8.533-3.823-8.533-8.533s3.823-8.533,8.533-8.533h25.6c4.71,0,8.533,3.823,8.533,8.533  S141.263,179.2,136.552,179.2z"/>
<g>
	<path style="fill:#E91E63;" d="M264.552,366.933V332.8c0-4.71,3.823-8.533,8.533-8.533h17.067c4.71,0,8.533,3.823,8.533,8.533   v34.133H264.552z"/>
	<path style="fill:#E91E63;" d="M324.286,366.933V307.2c0-4.71,3.823-8.533,8.533-8.533h17.067c4.71,0,8.533,3.823,8.533,8.533   v59.733H324.286z"/>
	<path style="fill:#E91E63;" d="M384.019,366.933V281.6c0-4.71,3.823-8.533,8.533-8.533h17.067c4.71,0,8.533,3.823,8.533,8.533   v85.333H384.019z"/>
</g>
<path d="M298.686,375.467h-34.133c-4.71,0-8.533-3.823-8.533-8.533V332.8c0-9.429,7.637-17.067,17.067-17.067h17.067  c9.429,0,17.067,7.637,17.067,17.067v34.133C307.219,371.644,303.396,375.467,298.686,375.467z M273.086,358.4h17.067v-25.6h-17.067  V358.4z"/>
<path d="M358.419,375.467h-34.133c-4.71,0-8.533-3.823-8.533-8.533V307.2c0-9.429,7.637-17.067,17.067-17.067h17.067  c9.429,0,17.067,7.637,17.067,17.067v59.733C366.952,371.644,363.13,375.467,358.419,375.467z M332.819,358.4h17.067v-51.2h-17.067  V358.4z"/>
<path d="M418.152,375.467h-34.133c-4.71,0-8.533-3.823-8.533-8.533V281.6c0-9.429,7.637-17.067,17.067-17.067h17.067  c9.429,0,17.067,7.637,17.067,17.067v85.333C426.686,371.644,422.863,375.467,418.152,375.467z M392.552,358.4h17.067v-76.8h-17.067  V358.4z"/>
<g>
</g>
<g>
</g>
<g>
</g>
<g>
</g>
<g>
</g>
<g>
</g>
<g>
</g>
<g>
</g>
<g>
</g>
<g>
</g>
<g>
</g>
<g>
</g>
<g>
</g>
<g>
</g>
<g>
</g>
</svg>
