<?xml version="1.0" encoding="iso-8859-1"?>
<!-- Generator: Adobe Illustrator 19.0.0, SVG Export Plug-In . SVG Version: 6.00 Build 0)  -->
<svg xmlns="http://www.w3.org/2000/svg" xmlns:xlink="http://www.w3.org/1999/xlink" version="1.1" id="Layer_1" x="0px" y="0px" viewBox="0 0 512 512" style="enable-background:new 0 0 512 512;" xml:space="preserve">
<g>
	<path style="fill:#F57C00;" d="M82.251,230.522H8.64c1.169,28.48,19.49,53.404,46.316,63.034"/>
	<path style="fill:#F57C00;" d="M299.33,469.352v25.589c0,4.708-3.821,8.53-8.53,8.53H51.971c-4.708,0-8.53-3.821-8.53-8.53v-25.589   H299.33z"/>
</g>
<path style="fill:#FF9801;" d="M264.529,469.352v25.589c0,4.708-3.821,8.53-8.53,8.53H51.971c-4.708,0-8.53-3.821-8.53-8.53v-25.589  H264.529z"/>
<path style="fill:#F57C00;" d="M256.682,196.403H86.089c13.11-23.781,35.407-41.138,61.669-48.022  c-0.648-2.422-0.989-4.913-1.024-7.421c-0.034-9.221,4.137-17.955,11.344-23.712c4.836-3.898,10.841-6.065,17.059-6.141  c16.206,0.281,29.112,13.639,28.83,29.845v0.009c-0.043,3.309-0.614,6.593-1.706,9.724  C225.404,158.719,244.775,174.994,256.682,196.403z"/>
<path style="fill:#FF9801;" d="M221.881,196.403H86.089c13.11-23.781,35.407-41.138,61.669-48.022  c-0.648-2.422-0.989-4.913-1.024-7.421c-0.034-9.221,4.137-17.955,11.344-23.712c7.208,5.758,11.379,14.492,11.344,23.712  c-0.043,3.309-0.614,6.593-1.706,9.724C190.757,158.787,210.025,175.054,221.881,196.403z"/>
<path style="fill:#F57C00;" d="M298.648,435.233c0,4.708-3.821,8.53-8.53,8.53H51.289c-4.708,0-8.53-3.821-8.53-8.53  c-1.783-47.544,2.312-95.131,12.197-141.677c4.47-20.019,11.02-39.509,19.533-58.172c1.424-2.994,4.452-4.887,7.762-4.862h176.478  c3.548-0.026,6.738,2.149,8.018,5.459C274.083,255.172,297.454,324.774,298.648,435.233z"/>
<path style="fill:#FF9801;" d="M264.529,435.233c0,4.708-3.821,8.53-8.53,8.53H51.289c-4.708,0-8.53-3.821-8.53-8.53  c-1.783-47.544,2.312-95.131,12.197-141.677c4.47-20.019,11.02-39.509,19.533-58.172c1.424-2.994,4.452-4.887,7.762-4.862h142.445  c3.548-0.026,6.738,2.149,8.018,5.459C240.049,255.172,263.421,324.774,264.529,435.233z"/>
<rect x="120.268" y="443.797" style="fill:#F57C00;" width="102.356" height="25.589"/>
<path style="fill:#00838F;" d="M205.504,328.613c0,40.004-15.268,72.502-34.119,72.502c-4.939-0.136-9.638-2.149-13.136-5.63  c-12.368-11.003-20.983-36.763-20.983-66.872c0-30.11,8.53-55.869,20.983-66.872c3.497-3.48,8.197-5.493,13.136-5.63  C190.236,256.111,205.504,288.609,205.504,328.613z"/>
<path style="fill:#00BCD4;" d="M179.233,328.613c0,30.11-8.53,55.869-20.983,66.872c-12.368-11.003-20.983-36.763-20.983-66.872  c0-30.11,8.53-55.869,20.983-66.872C170.703,272.743,179.233,298.759,179.233,328.613z"/>
<path style="fill:#D84315;" d="M503.359,128.166c0.051,32.114-12.905,62.889-35.91,85.296c-3.062,3.045-6.303,5.894-9.724,8.53  c-3.548,2.789-7.25,5.382-11.089,7.762l-2.985,1.706c-18.1,10.611-38.725,16.181-59.707,16.121  c-5.715,0.009-11.413-0.418-17.059-1.279c-15.055-2.081-29.555-7.122-42.648-14.842l-2.985-1.706  c-3.838-2.38-7.54-4.973-11.089-7.762c-3.42-2.636-6.662-5.485-9.724-8.53c-47.126-46.137-47.928-121.744-1.791-168.87  c18.33-18.723,42.307-30.894,68.237-34.647c5.655-0.785,11.353-1.186,17.059-1.194C449.896,8.751,503.359,62.215,503.359,128.166z"/>
<path style="fill:#FF5722;" d="M469.241,128.166c0.051,32.114-12.905,62.889-35.91,85.296c-3.062,3.045-6.303,5.894-9.724,8.53  c-3.548,2.789-7.25,5.382-11.089,7.762l-2.985,1.706c-13.093,7.719-27.593,12.76-42.648,14.842  c-15.055-2.081-29.555-7.122-42.648-14.842l-2.985-1.706c-3.838-2.38-7.54-4.973-11.089-7.762c-3.42-2.636-6.662-5.485-9.724-8.53  c-47.126-46.137-47.928-121.744-1.791-168.87c18.33-18.723,42.307-30.894,68.237-34.647c39.603,5.715,73.705,30.886,90.841,67.043  C465.343,92.973,469.275,110.459,469.241,128.166z"/>
<path d="M383.944,256.111c-6.141,0.009-12.266-0.444-18.339-1.365c-22.169-3.233-43.1-12.197-60.731-26.015  c-25.93-20.224-42.964-49.745-47.51-82.311c-0.921-6.039-1.373-12.146-1.365-18.253c0.009-6.107,0.435-12.206,1.279-18.253  C267.25,39.961,332.033-8.675,401.993,1.296c63.128,8.99,109.998,63.102,109.896,126.87  C511.889,198.826,454.604,256.111,383.944,256.111z M383.944,17.281c-55.042,0.205-101.682,40.575-109.776,95.02  c-0.734,5.254-1.1,10.56-1.109,15.865c-0.009,5.28,0.392,10.56,1.194,15.78c7.045,48.602,45.224,86.781,93.826,93.826  c5.246,0.827,10.551,1.262,15.865,1.279c61.243,0,110.885-49.642,110.885-110.885S445.187,17.281,383.944,17.281z"/>
<path d="M383.177,187.874c-10.346,0.06-20.514-2.687-29.427-7.933l-2.303-1.279c-1.766-1.109-3.472-2.303-5.118-3.582  c-1.561-1.186-3.037-2.465-4.435-3.838c-11.754-11.251-18.407-26.809-18.424-43.075c-0.06-8.854,1.894-17.605,5.715-25.589  c5.195-10.978,13.613-20.113,24.139-26.186c3.975-2.525,9.246-1.356,11.771,2.619c2.525,3.975,1.356,9.246-2.619,11.771  c-0.205,0.128-0.409,0.247-0.623,0.358c-7.438,4.401-13.383,10.944-17.059,18.765c-2.798,5.681-4.256,11.924-4.265,18.253  c0.017,11.72,4.862,22.919,13.392,30.963c0.913,0.887,1.877,1.714,2.9,2.474l3.497,2.474l1.962,1.109  c12.922,7.395,28.788,7.395,41.71,0l2.474-1.45l3.412-2.474c1.083-0.844,2.107-1.757,3.071-2.729  c8.188-7.984,12.829-18.927,12.88-30.365c0.026-6.286-1.382-12.496-4.094-18.168c-3.668-7.805-9.613-14.321-17.059-18.68  c-3.975-2.525-5.152-7.796-2.619-11.771c2.38-3.745,7.225-5.032,11.148-2.985c10.432,6.048,18.791,15.123,23.968,26.015  c10.909,23.021,6.005,50.419-12.197,68.237c-1.441,1.467-2.977,2.832-4.606,4.094c-1.791,1.365-3.327,2.474-5.033,3.582  l-2.815,1.621C403.614,185.289,393.48,187.967,383.177,187.874z"/>
<path d="M383.177,111.107c-4.708,0-8.53-3.821-8.53-8.53V68.459c0-4.708,3.821-8.53,8.53-8.53s8.53,3.821,8.53,8.53v34.119  C391.706,107.286,387.885,111.107,383.177,111.107z"/>
<path d="M290.886,512H52.056c-9.425,0-17.059-7.634-17.059-17.059v-25.589c0-4.708,3.821-8.53,8.53-8.53h255.889  c4.708,0,8.53,3.821,8.53,8.53v25.589C307.945,504.366,300.311,512,290.886,512z M52.056,477.881v17.059h238.83v-17.059H52.056z"/>
<path d="M256.767,204.933H86.175c-4.708-0.009-8.521-3.83-8.513-8.547c0-1.459,0.375-2.892,1.092-4.162  c13.033-23.474,34.306-41.283,59.707-49.984c0-0.452,0-0.913,0-1.365c0-20.582,16.684-37.275,37.275-37.275  s37.275,16.684,37.275,37.275l0,0c0.094,1.476,0.094,2.96,0,4.435c21.879,9.528,39.987,26.024,51.519,46.913  c2.312,4.103,0.861,9.306-3.25,11.617C259.906,204.617,258.345,204.993,256.767,204.933z M102.466,187.874h138.351  c-10.619-13.4-24.813-23.516-40.942-29.171c-4.401-1.535-6.764-6.32-5.288-10.747c0.802-2.243,1.237-4.606,1.279-6.994  c0-11.165-9.05-20.215-20.215-20.215c-11.165,0-20.215,9.05-20.215,20.215l0,0c0.034,1.817,0.29,3.617,0.768,5.374  c1.134,4.546-1.612,9.152-6.141,10.321C131.245,161.653,114.544,172.606,102.466,187.874z"/>
<path d="M297.966,426.703c-4.708-0.009-8.521-3.838-8.513-8.547c0.009-1.877,0.623-3.693,1.774-5.186  c33.266-42.648,47.084-65.763,39.663-104.062c-7.165-36.933-59.707-52.969-60.219-53.14c-4.615-1.339-7.267-6.175-5.928-10.79  c1.339-4.615,6.175-7.267,10.79-5.928l0,0c2.559,0.768,62.949,19.106,72.075,66.275s-10.321,75.658-42.648,117.709  C303.365,425.33,300.755,426.695,297.966,426.703z"/>
<path d="M290.118,452.292H51.289c-9.195,0.009-16.735-7.276-17.059-16.462c-1.74-48.423,2.559-96.871,12.794-144.236  c4.623-20.548,11.37-40.558,20.13-59.707c2.747-5.937,8.641-9.783,15.183-9.894h176.478c7.063-0.017,13.409,4.325,15.95,10.918  c7.336,19.192,31.304,90.329,32.413,202.323C307.178,444.658,299.544,452.292,290.118,452.292z M51.289,435.233h238.83  c-1.109-109.009-24.224-177.758-31.218-196.182H82.336c-8.308,18.1-14.68,37.027-19.021,56.466  C53.532,341.407,49.489,388.346,51.289,435.233z"/>
<path d="M222.649,477.881H120.293c-4.708,0-8.53-3.821-8.53-8.53v-25.589c0-4.708,3.821-8.53,8.53-8.53h102.356  c4.708,0,8.53,3.821,8.53,8.53v25.589C231.179,474.06,227.357,477.881,222.649,477.881z M128.823,460.822h85.296v-8.53h-85.296  C128.823,452.292,128.823,460.822,128.823,460.822z"/>
<path d="M171.471,409.644c-24.309,0-42.648-34.801-42.648-81.032s18.339-81.032,42.648-81.032s42.648,34.801,42.648,81.032  S195.781,409.644,171.471,409.644z M171.471,264.64c-10.662,0-25.589,24.309-25.589,63.972s14.927,63.972,25.589,63.972  s25.589-24.309,25.589-63.972S182.218,264.64,171.471,264.64z"/>
<path d="M55.042,302.085c-0.989,0-1.97-0.171-2.9-0.512c-30.263-10.781-50.888-38.946-52.031-71.052c0-4.708,3.821-8.53,8.53-8.53  h73.696c4.708,0,8.53,3.821,8.53,8.53s-3.821,8.53-8.53,8.53H18.279c3.804,21.571,19.03,39.373,39.748,46.487  c4.427,1.604,6.713,6.5,5.109,10.926c-1.22,3.369-4.427,5.612-8.009,5.621L55.042,302.085L55.042,302.085z"/>
<g>
</g>
<g>
</g>
<g>
</g>
<g>
</g>
<g>
</g>
<g>
</g>
<g>
</g>
<g>
</g>
<g>
</g>
<g>
</g>
<g>
</g>
<g>
</g>
<g>
</g>
<g>
</g>
<g>
</g>
</svg>
