<?xml version="1.0" encoding="iso-8859-1"?>
<!-- Generator: Adobe Illustrator 19.0.0, SVG Export Plug-In . SVG Version: 6.00 Build 0)  -->
<svg xmlns="http://www.w3.org/2000/svg" xmlns:xlink="http://www.w3.org/1999/xlink" version="1.1" id="Layer_1" x="0px" y="0px" viewBox="0 0 512.001 512.001" style="enable-background:new 0 0 512.001 512.001;" xml:space="preserve">
<path style="fill:#1566C0;" d="M503.463,128.014c0.051,32.127-12.91,62.914-35.924,85.33c-3.063,3.046-6.306,5.896-9.728,8.533  c-3.55,2.79-7.253,5.384-11.093,7.765l-2.987,1.707c-18.107,10.615-38.74,16.187-59.731,16.127  c-5.717,0.009-11.417-0.418-17.066-1.28c-15.061-2.082-29.567-7.125-42.665-14.848l-2.987-1.707  c-3.84-2.381-7.543-4.975-11.093-7.765c-3.422-2.637-6.664-5.487-9.728-8.533c-47.145-46.155-47.947-121.792-1.792-168.937  c18.337-18.73,42.324-30.907,68.264-34.661C372.591,8.961,378.291,8.56,384,8.552C449.978,8.552,503.463,62.037,503.463,128.014z"/>
<path style="fill:#2296F3;" d="M469.33,128.014c0.051,32.127-12.91,62.914-35.924,85.33c-3.063,3.046-6.306,5.896-9.728,8.533  c-3.55,2.79-7.253,5.384-11.093,7.765l-2.987,1.707c-13.098,7.722-27.604,12.765-42.665,14.848  c-15.061-2.082-29.567-7.125-42.665-14.848l-2.987-1.707c-3.84-2.381-7.543-4.975-11.093-7.765  c-3.422-2.637-6.664-5.487-9.728-8.533c-47.145-46.155-47.947-121.792-1.792-168.937c18.337-18.73,42.324-30.907,68.264-34.661  c39.619,5.717,73.734,30.898,90.877,67.07C465.422,92.807,469.365,110.3,469.33,128.014z"/>
<path style="fill:#607D8B;" d="M42.678,213.345v42.665H76.81v-42.665H42.678z"/>
<path style="fill:#00838F;" d="M265.561,112.911c-0.043-0.657-0.043-1.306,0-1.963l0.512-3.072c0-1.963,0.683-3.925,1.109-5.802  c0.427-1.877,1.28-5.376,2.048-8.021c0-1.109,0.683-2.219,1.109-3.328c0.427-1.109,0.853-2.645,1.365-3.925  c2.039-5.896,4.582-11.605,7.594-17.066c1.195-2.048,2.389-4.096,3.669-6.058c1.28-1.963,2.56-3.925,3.925-5.802l0.512-0.683  c1.195-1.707,2.475-3.328,3.84-4.949c0,0,0,0,0.512-0.597c1.417-1.818,2.918-3.55,4.523-5.205l0,0  c1.647-1.766,3.353-3.473,5.12-5.12c1.451-1.451,2.987-2.816,4.522-4.096c3.14-2.56,6.417-4.958,9.813-7.168v-12.97  c0-4.71-3.823-8.533-8.533-8.533H51.211c-4.71,0-8.533,3.823-8.533,8.533v196.26H76.81v42.665H42.678v179.194h273.058v-209.23  c-1.877-1.28-3.755-2.645-5.546-4.096c-1.792-1.451-2.901-2.304-4.352-3.584c-1.451-1.28-2.731-2.389-4.096-3.755  c-2.748-2.688-5.342-5.538-7.765-8.533c-1.024-1.109-1.963-2.304-2.901-3.499c-1.638-1.911-3.174-3.908-4.608-5.973  c-0.964-1.28-1.843-2.62-2.645-4.011c-1.075-1.544-2.074-3.14-2.987-4.779c-2.15-3.609-4.087-7.338-5.802-11.178  c-0.597-1.365-1.195-2.731-1.707-4.096c-0.512-1.365-1.451-3.499-2.048-5.29c-0.597-1.792-1.451-4.437-2.133-6.656  c-0.964-3.311-1.766-6.673-2.389-10.069c-0.435-1.911-0.751-3.848-0.939-5.802c-0.58-2.679-1.007-5.384-1.28-8.106  c0-2.816,0-5.717,0-8.533c0-2.816,0-5.802,0-8.533C264.742,117.271,265.083,115.078,265.561,112.911z M162.141,54.63  c5.41-2.253,11.204-3.413,17.066-3.413c28.33,0,51.198,26.708,51.198,59.731H128.009C127.07,87.03,140.509,64.87,162.141,54.63z"/>
<path style="fill:#00BCD4;" d="M231.429,112.911c-0.043-0.657-0.043-1.306,0-1.963l0.512-3.072c0-1.963,0.683-3.925,1.109-5.802  c0.427-1.877,1.28-5.376,2.048-8.021c0-1.109,0.683-2.219,1.109-3.328c0.427-1.109,0.853-2.645,1.365-3.925  c2.039-5.896,4.582-11.605,7.594-17.066c1.195-2.048,2.389-4.096,3.669-6.058c1.28-1.963,2.56-3.925,3.925-5.802l0.512-0.683  c1.195-1.707,2.475-3.328,3.84-4.949c0,0,0,0,0.512-0.597c1.417-1.818,2.918-3.55,4.523-5.205l0,0  c1.647-1.766,3.353-3.473,5.12-5.12c1.451-1.451,2.987-2.816,4.523-4.096c3.14-2.56,6.417-4.958,9.813-7.168v-12.97  c0-4.71-3.823-8.533-8.533-8.533H51.211c-4.71,0-8.533,3.823-8.533,8.533v196.26H76.81v42.665H42.678v179.194h238.925v-209.23  c-1.877-1.28-3.755-2.645-5.547-4.096c-1.792-1.451-2.901-2.304-4.352-3.584c-1.451-1.28-2.731-2.389-4.096-3.755  c-2.748-2.688-5.342-5.538-7.765-8.533c-1.024-1.109-1.963-2.304-2.901-3.499c-1.638-1.911-3.174-3.908-4.608-5.973  c-0.964-1.28-1.843-2.62-2.645-4.011c-1.075-1.544-2.074-3.14-2.987-4.779c-2.15-3.609-4.087-7.338-5.802-11.178  c-0.597-1.365-1.195-2.731-1.707-4.096c-0.512-1.365-1.451-3.499-2.048-5.29c-0.597-1.792-1.451-4.437-2.133-6.656  c-0.964-3.311-1.766-6.673-2.389-10.069c-0.435-1.911-0.751-3.848-0.939-5.802c-0.58-2.679-1.007-5.384-1.28-8.106  c0-2.816,0-5.717,0-8.533c0-2.816,0-5.802,0-8.533C230.61,117.271,230.951,115.078,231.429,112.911z M128.009,110.948  c-0.93-23.918,12.501-46.078,34.132-56.318c5.41-2.253,11.204-3.413,17.066-3.413c28.33,0,51.198,26.708,51.198,59.731H128.009z"/>
<g>
	<path style="fill:#37474F;" d="M349.868,477.869v25.599H8.546v-25.599c0-4.71,3.823-8.533,8.533-8.533h324.256   C346.045,469.336,349.868,473.159,349.868,477.869z"/>
	<path style="fill:#37474F;" d="M332.802,443.737v25.599H25.612v-25.599c0-4.71,3.823-8.533,8.533-8.533h290.124   C328.979,435.204,332.802,439.027,332.802,443.737z"/>
</g>
<g>
	<path style="fill:#607D8B;" d="M315.736,477.869v25.599H8.546v-25.599c-0.026-4.395,3.302-8.089,7.68-8.533h291.83   C312.433,469.771,315.753,473.466,315.736,477.869z"/>
	<path style="fill:#607D8B;" d="M298.669,443.737v25.599H25.612v-25.599c-0.026-4.369,3.251-8.055,7.594-8.533h257.869   C295.418,435.682,298.695,439.368,298.669,443.737z"/>
</g>
<path style="fill:#CFD8DC;" d="M230.405,110.948H128.009c0-33.023,22.869-59.731,51.198-59.731S230.405,77.925,230.405,110.948z"/>
<path d="M349.868,512.001H8.546c-4.71,0-8.533-3.823-8.533-8.533v-25.599c0-9.429,7.637-17.066,17.066-17.066h324.256  c9.429,0,17.066,7.637,17.066,17.066v25.599C358.401,508.179,354.578,512.001,349.868,512.001z M17.079,494.935h324.256v-17.066  H17.079L17.079,494.935L17.079,494.935z"/>
<rect x="170.657" y="8.535" width="17.066" height="42.665"/>
<path d="M230.405,119.481H128.009c-4.71,0-8.533-3.823-8.533-8.533c0-37.631,26.794-68.264,59.731-68.264  s59.731,30.634,59.731,68.264C238.938,115.658,235.115,119.481,230.405,119.481z M137.139,102.415h84.136  c-3.413-24.149-20.991-42.665-42.068-42.665S140.552,78.267,137.139,102.415z"/>
<path d="M162.141,162.146c-4.71,0-8.533-3.823-8.533-8.533v-8.533c0-4.71,3.823-8.533,8.533-8.533c4.71,0,8.533,3.823,8.533,8.533  v8.533C170.674,158.324,166.851,162.146,162.141,162.146z"/>
<path d="M162.141,204.812c-4.71,0-8.533-3.823-8.533-8.533v-8.533c0-4.71,3.823-8.533,8.533-8.533c4.71,0,8.533,3.823,8.533,8.533  v8.533C170.674,200.989,166.851,204.812,162.141,204.812z"/>
<path d="M162.141,247.477c-4.71,0-8.533-3.823-8.533-8.533v-8.533c0-4.71,3.823-8.533,8.533-8.533c4.71,0,8.533,3.823,8.533,8.533  v8.533C170.674,243.654,166.851,247.477,162.141,247.477z"/>
<path d="M162.141,290.142c-4.71,0-8.533-3.823-8.533-8.533v-8.533c0-4.71,3.823-8.533,8.533-8.533c4.71,0,8.533,3.823,8.533,8.533  v8.533C170.674,286.319,166.851,290.142,162.141,290.142z"/>
<path d="M128.009,162.146c-4.71,0-8.533-3.823-8.533-8.533v-8.533c0-4.71,3.823-8.533,8.533-8.533c4.71,0,8.533,3.823,8.533,8.533  v8.533C136.542,158.324,132.719,162.146,128.009,162.146z"/>
<path d="M128.009,204.812c-4.71,0-8.533-3.823-8.533-8.533v-8.533c0-4.71,3.823-8.533,8.533-8.533c4.71,0,8.533,3.823,8.533,8.533  v8.533C136.542,200.989,132.719,204.812,128.009,204.812z"/>
<path d="M128.009,247.477c-4.71,0-8.533-3.823-8.533-8.533v-8.533c0-4.71,3.823-8.533,8.533-8.533c4.71,0,8.533,3.823,8.533,8.533  v8.533C136.542,243.654,132.719,247.477,128.009,247.477z"/>
<path d="M128.009,290.142c-4.71,0-8.533-3.823-8.533-8.533v-8.533c0-4.71,3.823-8.533,8.533-8.533c4.71,0,8.533,3.823,8.533,8.533  v8.533C136.542,286.319,132.719,290.142,128.009,290.142z"/>
<path d="M196.273,162.146c-4.71,0-8.533-3.823-8.533-8.533v-8.533c0-4.71,3.823-8.533,8.533-8.533c4.71,0,8.533,3.823,8.533,8.533  v8.533C204.806,158.324,200.983,162.146,196.273,162.146z"/>
<path d="M196.273,204.812c-4.71,0-8.533-3.823-8.533-8.533v-8.533c0-4.71,3.823-8.533,8.533-8.533c4.71,0,8.533,3.823,8.533,8.533  v8.533C204.806,200.989,200.983,204.812,196.273,204.812z"/>
<path d="M196.273,247.477c-4.71,0-8.533-3.823-8.533-8.533v-8.533c0-4.71,3.823-8.533,8.533-8.533c4.71,0,8.533,3.823,8.533,8.533  v8.533C204.806,243.654,200.983,247.477,196.273,247.477z"/>
<path d="M196.273,290.142c-4.71,0-8.533-3.823-8.533-8.533v-8.533c0-4.71,3.823-8.533,8.533-8.533c4.71,0,8.533,3.823,8.533,8.533  v8.533C204.806,286.319,200.983,290.142,196.273,290.142z"/>
<path d="M230.405,162.146c-4.71,0-8.533-3.823-8.533-8.533v-8.533c0-4.71,3.823-8.533,8.533-8.533c4.71,0,8.533,3.823,8.533,8.533  v8.533C238.938,158.324,235.115,162.146,230.405,162.146z"/>
<path d="M230.405,204.812c-4.71,0-8.533-3.823-8.533-8.533v-8.533c0-4.71,3.823-8.533,8.533-8.533c4.71,0,8.533,3.823,8.533,8.533  v8.533C238.938,200.989,235.115,204.812,230.405,204.812z"/>
<path d="M230.405,247.477c-4.71,0-8.533-3.823-8.533-8.533v-8.533c0-4.71,3.823-8.533,8.533-8.533c4.71,0,8.533,3.823,8.533,8.533  v8.533C238.938,243.654,235.115,247.477,230.405,247.477z"/>
<path d="M230.405,290.142c-4.71,0-8.533-3.823-8.533-8.533v-8.533c0-4.71,3.823-8.533,8.533-8.533c4.71,0,8.533,3.823,8.533,8.533  v8.533C238.938,286.319,235.115,290.142,230.405,290.142z"/>
<path d="M42.678,443.737c-4.71,0-8.533-3.823-8.533-8.533V17.085c0-9.429,7.637-17.066,17.066-17.066h255.991  c9.429,0,17.066,7.637,17.066,17.066v12.97c0,4.71-3.823,8.533-8.533,8.533c-4.71,0-8.533-3.823-8.533-8.533v-12.97H51.211v418.119  C51.211,439.914,47.388,443.737,42.678,443.737z"/>
<path d="M315.736,443.737c-4.71,0-8.533-3.823-8.533-8.533v-209.23c0-4.71,3.823-8.533,8.533-8.533c4.71,0,8.533,3.823,8.533,8.533  v209.23C324.269,439.914,320.446,443.737,315.736,443.737z"/>
<path d="M332.802,477.869c-4.71,0-8.533-3.823-8.533-8.533v-25.599H34.145v25.599c0,4.71-3.823,8.533-8.533,8.533  s-8.533-3.823-8.533-8.533v-25.599c0-9.429,7.637-17.066,17.066-17.066h290.124c9.429,0,17.066,7.637,17.066,17.066v25.599  C341.335,474.046,337.512,477.869,332.802,477.869z"/>
<path d="M76.81,264.543H42.678v-17.066h25.599v-25.599H42.678v-17.066H76.81c4.71,0,8.533,3.823,8.533,8.533v42.665  C85.343,260.72,81.52,264.543,76.81,264.543z"/>
<path d="M384,256.01c-6.144,0.009-12.271-0.444-18.346-1.365c-19.694-2.893-38.441-10.308-54.782-21.674  c-1.963-1.365-4.096-2.901-6.058-4.437c-25.889-20.223-42.896-49.722-47.444-82.259c-0.922-6.041-1.374-12.151-1.365-18.261  c0.009-6.11,0.435-12.211,1.28-18.261C267.37,39.783,332.264-8.753,402.235,1.324s118.507,74.98,108.429,144.951  c-4.693,32.537-21.717,62.018-47.555,82.344C440.6,246.444,412.705,256.104,384,256.01z M384,17.085  c-55.149-0.017-101.936,40.481-109.82,95.058c-0.734,5.256-1.101,10.564-1.109,15.871c0,5.282,0.393,10.564,1.195,15.786  c4.028,28.261,18.901,53.852,41.471,71.336c1.707,1.365,3.413,2.645,5.12,3.755c14.173,9.856,30.446,16.281,47.529,18.773  c5.163,0.819,10.385,1.246,15.616,1.28c61.267,0,110.93-49.662,110.93-110.93S445.259,17.085,384,17.085z"/>
<path d="M384,187.746c-10.351,0.06-20.522-2.688-29.439-7.936l-2.304-1.28c-1.766-1.109-3.473-2.304-5.12-3.584  c-1.527-1.16-2.978-2.415-4.352-3.755c-11.81-11.255-18.5-26.862-18.517-43.177c-0.06-8.857,1.894-17.612,5.717-25.599  c14.088-29.832,49.688-42.597,79.511-28.517c12.518,5.913,22.604,15.991,28.517,28.517c10.914,23.031,6.007,50.439-12.202,68.264  c-1.442,1.468-2.978,2.833-4.608,4.096c-1.792,1.365-3.328,2.56-5.035,3.584l-2.816,1.621  C404.437,185.152,394.299,187.839,384,187.746z M384,85.349c-16.529,0.102-31.547,9.642-38.655,24.575  c-2.679,5.649-4.053,11.835-4.011,18.09c0.017,11.724,4.864,22.928,13.397,30.975c0.913,0.879,1.886,1.707,2.901,2.475l3.499,2.475  l1.963,1.109c12.928,7.398,28.799,7.398,41.727,0l2.475-1.451l3.413-2.475c1.084-0.845,2.108-1.758,3.072-2.731  c8.192-7.987,12.834-18.935,12.885-30.378c0.017-6.289-1.382-12.501-4.096-18.175C415.53,94.898,400.511,85.358,384,85.349z"/>
<path d="M384,153.613c-4.71,0-8.533-3.823-8.533-8.533v-34.132c0-4.71,3.823-8.533,8.533-8.533s8.533,3.823,8.533,8.533v34.132  C392.533,149.791,388.71,153.613,384,153.613z"/>
<g>
</g>
<g>
</g>
<g>
</g>
<g>
</g>
<g>
</g>
<g>
</g>
<g>
</g>
<g>
</g>
<g>
</g>
<g>
</g>
<g>
</g>
<g>
</g>
<g>
</g>
<g>
</g>
<g>
</g>
</svg>
