<?xml version="1.0" encoding="iso-8859-1"?>
<!-- Generator: Adobe Illustrator 19.0.0, SVG Export Plug-In . SVG Version: 6.00 Build 0)  -->
<svg xmlns="http://www.w3.org/2000/svg" xmlns:xlink="http://www.w3.org/1999/xlink" version="1.1" id="Layer_1" x="0px" y="0px" viewBox="0 0 512 512" style="enable-background:new 0 0 512 512;" xml:space="preserve">
<path style="fill:#607D8B;" d="M43.178,213.373v42.661h34.129v-42.661H43.178z"/>
<path style="fill:#00838F;" d="M266.039,112.949c-0.043-0.657-0.043-1.305,0-1.962l0.512-3.072c0-1.962,0.683-3.925,1.109-5.802  s1.28-5.375,2.048-8.02c0-1.109,0.683-2.218,1.109-3.328c0.427-1.109,0.853-2.645,1.365-3.925  c2.039-5.896,4.582-11.604,7.594-17.064c1.195-2.048,2.389-4.095,3.669-6.058c1.28-1.962,2.56-3.925,3.925-5.802l0.512-0.683  c1.195-1.706,2.474-3.328,3.84-4.949c0,0,0,0,0.512-0.597c1.416-1.817,2.918-3.549,4.522-5.205l0,0  c1.647-1.766,3.353-3.473,5.119-5.119c1.45-1.45,2.986-2.816,4.522-4.095c3.14-2.56,6.416-4.957,9.812-7.167V17.133  c0-4.71-3.822-8.532-8.532-8.532H51.71c-4.71,0-8.532,3.822-8.532,8.532v196.241h34.129v42.661H43.178V435.21h273.03V226.001  c-1.877-1.28-3.754-2.645-5.546-4.095s-2.901-2.304-4.351-3.584c-1.45-1.28-2.73-2.389-4.095-3.754  c-2.747-2.688-5.341-5.537-7.764-8.532c-1.024-1.109-1.962-2.304-2.901-3.498c-1.638-1.911-3.174-3.908-4.607-5.973  c-0.964-1.28-1.843-2.619-2.645-4.01c-1.075-1.544-2.073-3.14-2.986-4.778c-2.15-3.609-4.087-7.338-5.802-11.177  c-0.597-1.365-1.195-2.73-1.706-4.095c-0.512-1.365-1.45-3.498-2.048-5.29c-0.597-1.792-1.45-4.437-2.133-6.655  c-0.964-3.31-1.766-6.672-2.389-10.068c-0.435-1.911-0.751-3.848-0.939-5.802c-0.58-2.679-1.007-5.384-1.28-8.106  c0-2.816,0-5.717,0-8.532c0-2.816,0-5.802,0-8.532C265.229,117.309,265.57,115.116,266.039,112.949z M162.629,54.674  c5.409-2.252,11.203-3.413,17.064-3.413c28.327,0,51.193,26.706,51.193,59.725H128.5C127.57,87.071,141,64.913,162.629,54.674z"/>
<path style="fill:#00BCD4;" d="M231.91,112.949c-0.043-0.657-0.043-1.305,0-1.962l0.512-3.072c0-1.962,0.683-3.925,1.109-5.802  c0.427-1.877,1.28-5.375,2.048-8.02c0-1.109,0.683-2.218,1.109-3.328c0.427-1.109,0.853-2.645,1.365-3.925  c2.039-5.896,4.582-11.604,7.594-17.064c1.195-2.048,2.389-4.095,3.669-6.058c1.28-1.962,2.56-3.925,3.925-5.802l0.512-0.683  c1.195-1.706,2.474-3.328,3.839-4.949c0,0,0,0,0.512-0.597c1.416-1.817,2.918-3.549,4.522-5.205l0,0  c1.647-1.766,3.353-3.473,5.119-5.119c1.45-1.45,2.986-2.816,4.522-4.095c3.14-2.56,6.416-4.957,9.812-7.167V17.133  c0-4.71-3.822-8.532-8.532-8.532H51.71c-4.71,0-8.532,3.822-8.532,8.532v196.241h34.129v42.661H43.178V435.21H282.08V226.001  c-1.877-1.28-3.754-2.645-5.546-4.095s-2.901-2.304-4.351-3.584c-1.45-1.28-2.73-2.389-4.095-3.754  c-2.747-2.688-5.341-5.537-7.764-8.532c-1.024-1.109-1.962-2.304-2.901-3.498c-1.638-1.911-3.174-3.908-4.607-5.973  c-0.964-1.28-1.843-2.619-2.645-4.01c-1.075-1.544-2.073-3.14-2.986-4.778c-2.15-3.609-4.087-7.338-5.802-11.177  c-0.597-1.365-1.195-2.73-1.706-4.095c-0.512-1.365-1.45-3.498-2.048-5.29c-0.597-1.792-1.45-4.437-2.133-6.655  c-0.964-3.31-1.766-6.672-2.389-10.068c-0.435-1.911-0.751-3.848-0.939-5.802c-0.58-2.679-1.007-5.384-1.28-8.106  c0-2.816,0-5.717,0-8.532c0-2.816,0-5.802,0-8.532C231.1,117.309,231.441,115.116,231.91,112.949z M128.5,110.987  c-0.93-23.916,12.5-46.074,34.129-56.312c5.409-2.252,11.203-3.413,17.064-3.413c28.327,0,51.193,26.706,51.193,59.725H128.5z"/>
<path style="fill:#D84315;" d="M503.917,128.051c0,2.133,0,4.181,0,6.229s0,1.962,0,2.986c0,1.024,0,3.242-0.512,4.863  c-0.512,1.621,0,2.901-0.597,4.351c-0.171,1.468-0.427,2.918-0.768,4.351c-0.256,1.638-0.597,3.259-1.024,4.863  c-0.307,1.527-0.708,3.037-1.194,4.522c0,1.28-0.683,2.56-1.109,3.839l-1.536,4.607c-0.683,1.792-1.28,3.498-2.048,5.205  c-2.056,4.983-4.479,9.803-7.252,14.419c-0.623,1.203-1.305,2.372-2.048,3.498l-2.645,4.01c-1.024,1.45-2.048,2.901-3.157,4.266  c-3.66,4.744-7.688,9.189-12.03,13.31c-3.063,3.046-6.305,5.896-9.727,8.532c-1.792,1.365-3.583,2.73-5.461,4.01l-5.119,3.413  c-1.126,0.742-2.295,1.433-3.498,2.048c-2.133,1.28-4.266,2.389-6.484,3.584c-2.218,1.195-2.901,1.45-4.437,2.048l-4.351,1.877  c-1.561,0.683-3.157,1.288-4.778,1.792l-4.522,1.45l0,0c-1.536,0.546-3.106,0.998-4.693,1.365c-2.304,0.674-4.633,1.212-6.996,1.621  c-2.363,0.52-4.761,0.921-7.167,1.195h-0.597c-2.218,0-4.437,0.512-6.74,0.683h-1.28c-2.449,0-4.923,0-7.423,0  c-5.717,0.009-11.416-0.418-17.064-1.28l-4.522-0.768l-4.266-0.256l0,0l-4.266-1.109c-2.901-0.683-5.717-1.621-8.532-2.56  l-4.266-1.621l-4.095-1.706l-4.437-1.792c-5.956-2.816-11.664-6.126-17.064-9.897c-1.877-1.28-3.754-2.645-5.546-4.095  c-1.792-1.45-2.901-2.304-4.351-3.584c-1.45-1.28-2.816-2.474-4.095-3.754c-2.747-2.688-5.341-5.537-7.764-8.532  c-1.041-1.109-2.005-2.278-2.901-3.498c-1.638-1.911-3.174-3.908-4.607-5.973c-0.939-1.28-1.792-2.645-2.645-4.01  c-0.853-1.365-2.048-3.157-2.986-4.778c-2.15-3.609-4.087-7.338-5.802-11.177c-0.597-1.365-1.195-2.73-1.706-4.095  c-0.768-1.732-1.45-3.49-2.048-5.29c-0.768-2.218-1.45-4.437-2.133-6.655c-0.683-2.218-1.706-6.655-2.389-10.068  c0-1.962-0.683-3.839-0.939-5.802c-0.256-1.962-0.768-5.631-0.939-8.532c-0.171-2.901,0-5.717,0-8.532c0-2.816,0-5.802,0-8.532  c0.094-2.176,0.324-4.343,0.683-6.484c0.137-1.689,0.367-3.37,0.683-5.034c0-1.962,0.683-3.925,1.109-5.802  c0.427-1.877,1.28-5.375,2.048-8.02c0-1.109,0.683-2.218,1.109-3.328s0.853-2.645,1.365-3.925  c2.039-5.896,4.582-11.604,7.594-17.064c1.194-2.048,2.389-4.095,3.669-6.058c1.28-1.962,2.56-3.925,3.925-5.802l0.512-0.683  c1.194-1.706,2.474-3.328,3.84-4.949c0,0,0,0,0.512-0.597c1.45-1.792,2.901-3.498,4.522-5.205l0,0  c1.621-1.706,3.328-3.498,5.119-5.119s2.986-2.816,4.522-4.095c3.097-2.44,6.314-4.718,9.641-6.826  c0.256-0.222,0.538-0.392,0.853-0.512c1.877-1.365,3.754-2.56,5.717-3.754l1.28-0.768c2.398-1.468,4.88-2.807,7.423-4.01h0.427  l7.764-3.925l0,0c2.474-1.024,5.119-1.962,7.764-2.816c2.645-0.853,6.143-1.877,9.3-2.645l4.351-1.024l4.863-0.768h1.365l0,0h2.901  l5.717-1.28c2.816,0,5.717,0,8.532,0c2.816,0,5.461,0,8.532,0h1.28c2.73,0,5.375,0,8.02,0.853h0.683l7.167,1.28l1.962,0.512  c2.304,0.512,4.693,1.195,6.911,1.877l6.826,2.218l2.73,1.109c2.133,0.768,4.181,1.706,6.229,2.645  c2.543,1.118,5.017,2.363,7.423,3.754c2.474,1.365,4.863,2.73,7.167,4.266c3.959,2.602,7.747,5.452,11.348,8.532l3.072,2.645  l4.949,4.607c1.877,1.877,3.669,3.754,5.375,5.717c0.324,0.247,0.589,0.572,0.768,0.939c1.689,1.851,3.285,3.788,4.778,5.802  c1.45,1.877,2.816,3.754,4.181,5.717c0.444,0.597,0.845,1.22,1.194,1.877c1.109,1.621,2.133,3.328,3.157,5.034  c2.508,4.317,4.727,8.788,6.655,13.396c0.768,1.706,1.45,3.584,2.133,5.375s1.194,3.328,1.706,5.034v0.853l1.28,4.351  c0,1.45,0.768,2.986,1.109,4.522c0.341,1.536,0.853,4.095,1.194,6.143c0.341,2.048,0.683,4.437,0.939,6.655  c0.085,1.391,0.085,2.79,0,4.181c0,1.024,0,1.962,0,2.986S503.917,125.918,503.917,128.051z"/>
<path style="fill:#FF5722;" d="M469.788,128.051c0.051,32.124-12.909,62.908-35.921,85.322c-3.063,3.046-6.305,5.896-9.727,8.532  c-3.549,2.79-7.252,5.384-11.092,7.764l-2.986,1.706c-13.097,7.722-27.602,12.764-42.661,14.846l-4.522-0.768l-4.01-0.768l0,0  l-4.266-1.109c-2.901-0.683-5.717-1.621-8.532-2.56l-4.266-1.621l-4.095-1.706l-4.437-1.792c-5.956-2.816-11.664-6.126-17.064-9.897  c-1.877-1.28-3.754-2.645-5.546-4.095c-1.792-1.45-2.901-2.304-4.351-3.584c-1.45-1.28-2.816-2.474-4.095-3.754  c-2.747-2.688-5.341-5.537-7.764-8.532c-1.041-1.109-2.005-2.278-2.901-3.498c-1.638-1.911-3.174-3.908-4.607-5.973  c-0.939-1.28-1.792-2.645-2.645-4.01c-0.853-1.365-2.048-3.157-2.986-4.778c-2.15-3.609-4.087-7.338-5.802-11.177  c-0.597-1.365-1.195-2.73-1.706-4.095c-0.768-1.732-1.45-3.49-2.048-5.29c-0.768-2.218-1.45-4.437-2.133-6.655  c-0.683-2.218-1.706-6.655-2.389-10.068c0-1.962-0.683-3.839-0.939-5.802c-0.256-1.962-0.768-5.631-0.939-8.532  c-0.171-2.901,0-5.717,0-8.532c0-2.816,0-5.802,0-8.532c0.094-2.176,0.324-4.343,0.683-6.484c0.137-1.689,0.367-3.37,0.683-5.034  c0-1.962,0.683-3.925,1.109-5.802c0.427-1.877,1.28-5.375,2.048-8.02c0-1.109,0.683-2.218,1.109-3.328s0.853-2.645,1.365-3.925  c2.039-5.896,4.582-11.604,7.594-17.064c1.194-2.048,2.389-4.095,3.669-6.058c1.28-1.962,2.56-3.925,3.925-5.802l0.512-0.683  c1.194-1.706,2.474-3.328,3.84-4.949c0,0,0,0,0.512-0.597c1.45-1.792,2.901-3.498,4.522-5.205l0,0  c1.621-1.706,3.328-3.498,5.119-5.119s2.986-2.816,4.522-4.095c3.097-2.44,6.314-4.718,9.641-6.826  c0.256-0.222,0.538-0.392,0.853-0.512c1.877-1.365,3.754-2.56,5.717-3.754l1.28-0.768c2.398-1.468,4.88-2.807,7.423-4.01h0.427  l7.764-3.925l0,0c2.474-1.024,5.119-1.962,7.764-2.816c2.645-0.853,6.143-1.877,9.3-2.645l4.351-1.024l4.863-0.768h1.365l0,0  c39.581,5.776,73.693,30.895,90.953,66.978C465.889,92.847,469.822,110.338,469.788,128.051z"/>
<path style="fill:#37474F;" d="M350.337,477.871v25.597H9.049v-25.597c0-4.71,3.822-8.532,8.532-8.532h324.223  C346.523,469.339,350.337,473.161,350.337,477.871z"/>
<path id="SVGCleanerId_0" style="fill:#37474F;" d="M333.273,443.742v25.597H26.114v-25.597c0-4.71,3.822-8.532,8.532-8.532h290.095  C329.459,435.21,333.273,439.033,333.273,443.742z"/>
<g>
	<path id="SVGCleanerId_0_1_" style="fill:#37474F;" d="M333.273,443.742v25.597H26.114v-25.597c0-4.71,3.822-8.532,8.532-8.532   h290.095C329.459,435.21,333.273,439.033,333.273,443.742z"/>
</g>
<path style="fill:#607D8B;" d="M316.209,477.871v25.597H9.049v-25.597c-0.026-4.394,3.302-8.089,7.679-8.532H308.53  C312.907,469.774,316.234,473.469,316.209,477.871z"/>
<path id="SVGCleanerId_1" style="fill:#607D8B;" d="M299.144,443.742v25.597H26.114v-25.597c-0.026-4.368,3.251-8.054,7.594-8.532  H291.55C295.893,435.688,299.178,439.374,299.144,443.742z"/>
<g>
	<path id="SVGCleanerId_1_1_" style="fill:#607D8B;" d="M299.144,443.742v25.597H26.114v-25.597   c-0.026-4.368,3.251-8.054,7.594-8.532H291.55C295.893,435.688,299.178,439.374,299.144,443.742z"/>
</g>
<path d="M350.337,512H9.049c-4.71,0-8.532-3.822-8.532-8.532v-25.597c0-9.428,7.636-17.064,17.064-17.064h324.223  c9.428,0,17.064,7.636,17.064,17.064v25.597C358.87,508.178,355.056,512,350.337,512z M17.582,494.936h324.223v-17.064H17.582  L17.582,494.936L17.582,494.936z"/>
<rect x="171.161" y="8.617" width="17.064" height="42.661"/>
<path style="fill:#CFD8DC;" d="M230.887,110.987H128.5c0-33.02,22.866-59.725,51.193-59.725S230.887,77.967,230.887,110.987z"/>
<path d="M230.887,119.519H128.5c-4.71,0-8.532-3.822-8.532-8.532c0-37.627,26.791-68.258,59.725-68.258s59.725,30.631,59.725,68.258  C239.419,115.697,235.605,119.519,230.887,119.519z M137.63,102.455h84.127c-3.413-24.146-20.989-42.661-42.064-42.661  S141.043,78.308,137.63,102.455z"/>
<path d="M162.629,162.18c-4.71,0-8.532-3.822-8.532-8.532v-8.532c0-4.71,3.822-8.532,8.532-8.532c4.71,0,8.532,3.822,8.532,8.532  v8.532C171.161,158.358,167.347,162.18,162.629,162.18z"/>
<path d="M162.629,204.841c-4.71,0-8.532-3.822-8.532-8.532v-8.532c0-4.71,3.822-8.532,8.532-8.532c4.71,0,8.532,3.822,8.532,8.532  v8.532C171.161,201.019,167.347,204.841,162.629,204.841z"/>
<path d="M162.629,247.502c-4.71,0-8.532-3.822-8.532-8.532v-8.532c0-4.71,3.822-8.532,8.532-8.532c4.71,0,8.532,3.822,8.532,8.532  v8.532C171.161,243.679,167.347,247.502,162.629,247.502z"/>
<path d="M162.629,290.163c-4.71,0-8.532-3.822-8.532-8.532v-8.532c0-4.71,3.822-8.532,8.532-8.532c4.71,0,8.532,3.822,8.532,8.532  v8.532C171.161,286.34,167.347,290.163,162.629,290.163z"/>
<path d="M128.5,162.18c-4.71,0-8.532-3.822-8.532-8.532v-8.532c0-4.71,3.822-8.532,8.532-8.532c4.71,0,8.532,3.822,8.532,8.532  v8.532C137.032,158.358,133.218,162.18,128.5,162.18z"/>
<path d="M128.5,204.841c-4.71,0-8.532-3.822-8.532-8.532v-8.532c0-4.71,3.822-8.532,8.532-8.532c4.71,0,8.532,3.822,8.532,8.532  v8.532C137.032,201.019,133.218,204.841,128.5,204.841z"/>
<path d="M128.5,247.502c-4.71,0-8.532-3.822-8.532-8.532v-8.532c0-4.71,3.822-8.532,8.532-8.532c4.71,0,8.532,3.822,8.532,8.532  v8.532C137.032,243.679,133.218,247.502,128.5,247.502z"/>
<path d="M128.5,290.163c-4.71,0-8.532-3.822-8.532-8.532v-8.532c0-4.71,3.822-8.532,8.532-8.532c4.71,0,8.532,3.822,8.532,8.532  v8.532C137.032,286.34,133.218,290.163,128.5,290.163z"/>
<path d="M196.758,162.18c-4.71,0-8.532-3.822-8.532-8.532v-8.532c0-4.71,3.822-8.532,8.532-8.532c4.71,0,8.532,3.822,8.532,8.532  v8.532C205.29,158.358,201.476,162.18,196.758,162.18z"/>
<path d="M196.758,204.841c-4.71,0-8.532-3.822-8.532-8.532v-8.532c0-4.71,3.822-8.532,8.532-8.532c4.71,0,8.532,3.822,8.532,8.532  v8.532C205.29,201.019,201.476,204.841,196.758,204.841z"/>
<path d="M196.758,247.502c-4.71,0-8.532-3.822-8.532-8.532v-8.532c0-4.71,3.822-8.532,8.532-8.532c4.71,0,8.532,3.822,8.532,8.532  v8.532C205.29,243.679,201.476,247.502,196.758,247.502z"/>
<path d="M196.758,290.163c-4.71,0-8.532-3.822-8.532-8.532v-8.532c0-4.71,3.822-8.532,8.532-8.532c4.71,0,8.532,3.822,8.532,8.532  v8.532C205.29,286.34,201.476,290.163,196.758,290.163z"/>
<path d="M230.887,162.18c-4.71,0-8.532-3.822-8.532-8.532v-8.532c0-4.71,3.822-8.532,8.532-8.532c4.71,0,8.532,3.822,8.532,8.532  v8.532C239.419,158.358,235.605,162.18,230.887,162.18z"/>
<path d="M230.887,204.841c-4.71,0-8.532-3.822-8.532-8.532v-8.532c0-4.71,3.822-8.532,8.532-8.532c4.71,0,8.532,3.822,8.532,8.532  v8.532C239.419,201.019,235.605,204.841,230.887,204.841z"/>
<path d="M230.887,247.502c-4.71,0-8.532-3.822-8.532-8.532v-8.532c0-4.71,3.822-8.532,8.532-8.532c4.71,0,8.532,3.822,8.532,8.532  v8.532C239.419,243.679,235.605,247.502,230.887,247.502z"/>
<path d="M230.887,290.163c-4.71,0-8.532-3.822-8.532-8.532v-8.532c0-4.71,3.822-8.532,8.532-8.532c4.71,0,8.532,3.822,8.532,8.532  v8.532C239.419,286.34,235.605,290.163,230.887,290.163z"/>
<path d="M316.209,443.742H43.178c-4.71,0-8.532-3.822-8.532-8.532V256.034c0-4.71,3.822-8.532,8.532-8.532h25.597v-25.597H43.178  c-4.71,0-8.532-3.822-8.532-8.532V17.133c0-9.428,7.636-17.064,17.064-17.064h255.966c9.428,0,17.064,7.636,17.064,17.064v12.969  c-0.009,2.79-1.374,5.401-3.669,6.996c-2.961,2.159-5.81,4.462-8.532,6.911c-1.45,1.195-2.816,2.389-4.01,3.669  c-1.195,1.28-3.413,3.242-4.863,4.778l0,0l0,0c-1.604,1.502-3.114,3.097-4.522,4.778l-0.597,0.683l-0.597,0.683  c-0.768,0.939-1.877,2.389-2.986,3.839l-0.597,0.768c-1.28,1.792-2.474,3.498-3.583,5.29c-1.109,1.792-2.474,4.01-3.584,5.973  c-2.73,4.889-5.043,10-6.911,15.273c-0.427,1.195-0.768,2.048-1.024,2.901v0.853c-0.512,1.28-0.768,2.218-1.024,3.157  c-0.683,2.304-1.28,4.778-1.877,7.338c-0.597,2.56-0.683,3.584-1.024,5.375l-0.512,3.072c0.034,0.623,0.034,1.254,0,1.877  c-0.529,1.706-0.956,3.447-1.28,5.205v0.427c0,2.56,0,5.205,0,7.85s0,5.29,0,7.85c0.137,2.577,0.418,5.136,0.853,7.679  c0.171,1.86,0.461,3.72,0.853,5.546c0.606,3.225,1.374,6.408,2.304,9.556c0.597,1.877,1.28,4.01,1.962,6.143  c0.683,2.133,1.109,3.157,1.792,4.693s1.109,2.73,1.621,3.925c1.587,3.575,3.379,7.048,5.375,10.409  c0.785,1.433,1.638,2.833,2.56,4.181l0.512,0.768c0.657,1.092,1.365,2.142,2.133,3.157c1.305,1.86,2.696,3.652,4.181,5.375  c1.109,1.365,1.877,2.389,2.73,3.242c2.295,2.696,4.752,5.256,7.338,7.679c1.365,1.365,2.474,2.304,3.669,3.328l2.901,2.389  l1.536,1.195c1.536,1.28,3.242,2.474,4.949,3.669c2.355,1.587,3.754,4.241,3.754,7.082V435.21  C324.579,439.86,320.859,443.649,316.209,443.742z M51.71,426.678h255.966V230.438l-2.389-1.877l-1.365-1.109l-3.242-2.73  c-1.621-1.45-3.072-2.73-4.437-4.095c-3.003-2.679-5.853-5.529-8.532-8.532c-0.939-0.939-1.962-2.304-3.072-3.669  c-1.723-2.048-3.353-4.189-4.863-6.399c-1.041-1.399-2.014-2.85-2.901-4.351c-1.195-1.621-2.218-3.413-3.157-5.119  c-2.304-3.857-4.386-7.85-6.228-11.945c-0.768-1.706-1.365-3.157-1.877-4.607c-0.512-1.45-1.45-3.584-2.133-5.546  c-0.683-1.962-1.45-4.522-2.218-6.826c-1.067-3.652-1.954-7.355-2.645-11.092c-0.486-2.167-0.828-4.36-1.024-6.57  c-0.486-2.824-0.802-5.674-0.939-8.532c0-2.816,0-5.973,0-9.129c0-3.157,0-6.143,0-9.129c0.102-2.261,0.333-4.505,0.683-6.74  c0-0.683,0-1.365,0-2.133l0.597-3.498c0-2.218,0.768-4.266,1.194-6.314c0.427-2.048,1.365-5.717,2.133-8.532  c0.427-1.45,0.853-2.73,1.365-4.01c0.512-1.28,0.939-2.816,1.365-4.01c2.176-6.101,4.863-12.005,8.02-17.662  c1.365-2.304,2.645-4.522,4.01-6.57c1.365-2.048,2.645-4.095,4.181-6.143l0.512-0.683c1.195-1.792,2.645-3.584,4.181-5.375  l0.768-0.939c1.365-1.792,2.901-3.498,4.522-5.205c1.809-1.997,3.72-3.908,5.717-5.717c1.365-1.365,3.072-2.901,4.778-4.351  s4.863-3.925,6.996-5.631v-8.532H51.71v187.708h25.597c4.71,0,8.532,3.822,8.532,8.532v42.661c0,4.71-3.822,8.532-8.532,8.532H51.71  L51.71,426.678L51.71,426.678z"/>
<path d="M43.178,264.566c-4.71,0-8.532-3.822-8.532-8.532v-42.661c0-4.71,3.822-8.532,8.532-8.532s8.532,3.822,8.532,8.532v42.661  C51.71,260.744,47.897,264.566,43.178,264.566z"/>
<path id="SVGCleanerId_2" d="M333.273,477.871H26.114c-4.71,0-8.532-3.822-8.532-8.532v-25.597c0-9.428,7.636-17.064,17.064-17.064  h290.095c9.428,0,17.064,7.636,17.064,17.064v25.597C341.805,474.049,337.991,477.871,333.273,477.871z M34.646,460.807h290.095  v-17.064H34.646L34.646,460.807L34.646,460.807z"/>
<g>
	<path id="SVGCleanerId_2_1_" d="M333.273,477.871H26.114c-4.71,0-8.532-3.822-8.532-8.532v-25.597   c0-9.428,7.636-17.064,17.064-17.064h290.095c9.428,0,17.064,7.636,17.064,17.064v25.597   C341.805,474.049,337.991,477.871,333.273,477.871z M34.646,460.807h290.095v-17.064H34.646L34.646,460.807L34.646,460.807z"/>
</g>
<path d="M384.466,256.034c-6.143,0.009-12.269-0.444-18.344-1.365h-1.28l-3.754-0.683l-3.84-0.683h-0.683l0,0h-0.853l-3.754-1.024  c-2.645-0.597-5.631-1.621-8.532-2.56l-5.034-2.218l-4.522-1.877l-4.01-1.792c-6.459-3.02-12.653-6.595-18.515-10.665  c-1.962-1.365-4.095-2.901-6.058-4.437l-1.365-1.109l-3.242-2.73c-1.621-1.365-3.157-2.73-4.522-4.095  c-3.003-2.679-5.853-5.529-8.532-8.532c-1.194-1.263-2.304-2.602-3.328-4.01c-1.638-1.937-3.183-3.959-4.607-6.058  c-0.939-1.28-1.877-2.816-2.816-4.266c-0.939-1.45-2.218-3.413-3.242-5.205c-2.304-3.857-4.386-7.85-6.229-11.945  c-0.768-1.706-1.365-3.157-1.877-4.607c-0.811-1.809-1.519-3.66-2.133-5.546c-0.768-2.218-1.45-4.522-2.218-6.826  c-1.024-3.754-1.877-7.252-2.645-10.921c-0.768-3.669-0.768-4.437-1.024-6.399c-0.256-1.962-0.768-5.973-1.024-9.044  c-0.256-3.072,0-5.973,0-9.129c0-3.157,0-6.314,0-9.385c0.102-2.176,0.324-4.334,0.683-6.484c0-0.683,0-1.365,0-2.133l0.597-3.498  c0-2.218,0.768-4.266,1.195-6.314c0.427-2.048,1.365-5.717,2.133-8.532c0.427-1.45,0.853-2.73,1.365-4.01  c0.512-1.28,0.939-2.816,1.365-4.01c2.176-6.101,4.863-12.005,8.02-17.662c1.365-2.304,2.645-4.522,4.01-6.57  s2.73-4.181,4.181-6.143l0.512-0.683c1.194-1.792,2.645-3.584,4.181-5.375l0.853-1.024c1.45-1.706,2.816-3.413,4.437-5.034l0,0l0,0  c1.792-1.877,3.669-3.754,5.546-5.546c1.877-1.792,3.072-2.901,4.778-4.351c3.242-2.816,6.638-5.469,10.153-7.935l1.45-0.939  c1.792-1.28,3.669-2.474,5.546-3.669l1.28-0.768c2.543-1.553,5.162-2.978,7.85-4.266h0.683l8.532-3.669h0.768  c2.474-1.024,5.119-1.962,7.764-2.816s7.082-3.157,10.409-3.925l11.262-2.133l3.669-0.512c1.706,0,3.754-0.427,5.802-0.512  c5.99-0.546,12.013-0.546,18.003,0h1.45c2.816,0,5.546,0.427,8.532,0.939h0.939l7.167,1.28l2.816,0.683  c1.962,0,4.607,1.195,6.996,1.877l7.082,2.304l3.242,1.28c2.218,0.853,4.351,1.792,6.484,2.73c2.773,1.212,5.478,2.585,8.106,4.095  c2.56,1.45,5.119,2.901,7.679,4.607c4.232,2.551,8.285,5.401,12.116,8.532l3.328,2.901l4.607,4.351  c2.389,2.389,4.266,4.266,5.973,6.229c0.572,0.538,1.092,1.143,1.536,1.792c1.706,1.877,3.328,3.925,4.778,5.887  c1.451,1.962,2.901,3.839,4.351,5.887c0.555,0.742,1.067,1.51,1.536,2.304c1.109,1.621,2.133,3.328,3.157,5.034  c2.73,4.667,5.153,9.513,7.252,14.505c0.597,1.28,1.194,2.901,1.792,4.522l0.853,2.389c0.512,1.45,1.024,2.816,1.45,4.266v1.28  l2.389,9.044c0.512,2.304,0.939,4.437,1.28,6.57c0.341,2.133,0.683,4.522,1.024,6.911c0.077,1.561,0.077,3.131,0,4.693  c0,0.683,0,1.45,0,2.133v1.109c0,2.133,0,4.437,0,6.655s0,4.437,0,6.57c0,0.768,0,1.877,0,2.986v1.962c0,1.28,0,2.56-0.427,3.839  s0,2.901-0.597,4.522c-0.188,1.638-0.469,3.259-0.853,4.863c-0.282,1.698-0.648,3.379-1.109,5.034  c-0.35,1.758-0.802,3.498-1.365,5.205c0,0.768-0.597,2.218-1.024,3.669s-1.024,3.242-1.621,4.778l-0.512,1.45  c-0.597,1.45-1.109,2.901-1.792,4.351c-2.176,5.273-4.744,10.375-7.679,15.273c-0.665,1.288-1.408,2.543-2.218,3.754l-2.048,3.157  l-0.597,0.939c-1.28,1.792-2.389,3.413-3.669,4.949c-3.737,4.966-7.841,9.641-12.286,13.993c-3.302,3.285-6.809,6.365-10.495,9.215  c-1.962,1.536-3.925,2.986-5.887,4.351l-5.119,3.413c-1.433,0.964-2.909,1.843-4.437,2.645l-4.778,2.73l-2.986,1.536l-3.839,1.706  l-4.181,1.792c-1.783,0.776-3.609,1.459-5.461,2.048l-4.522,1.45l0,0c-1.817,0.648-3.669,1.186-5.546,1.621  c-2.38,0.708-4.804,1.271-7.252,1.706c-2.389,0.512-5.034,0.939-7.679,1.28l0,0c-2.304,0-4.607,0.512-7.082,0.768h-2.218  C389.841,256.034,387.111,256.034,384.466,256.034z M360.491,236.325l3.925,0.683l2.986,0.512h1.365  c7.432,1.314,14.983,1.8,22.525,1.45h1.195c2.133,0,4.095,0,6.058-0.597h0.939c2.125-0.23,4.232-0.572,6.314-1.024  c2.133-0.367,4.241-0.853,6.314-1.45c1.442-0.316,2.867-0.717,4.266-1.195l0,0h0.597l4.01-1.28c1.391-0.435,2.756-0.947,4.095-1.536  l4.181-1.792l3.157-1.45l2.389-1.195l4.693-2.645c1.109-0.572,2.193-1.195,3.242-1.877l4.778-3.242  c1.877-1.28,3.498-2.56,5.205-3.839c3.003-2.406,5.853-5,8.532-7.764c3.95-3.839,7.602-7.978,10.921-12.372  c1.194-1.45,2.133-2.73,2.986-4.095l0.512-0.853l1.792-2.816c0.614-0.913,1.186-1.851,1.706-2.816  c2.927-4.599,5.495-9.42,7.679-14.419c0.597-1.365,1.024-2.474,1.45-3.669l0.512-1.365l1.365-4.095c0-1.28,0.683-2.389,1.024-3.498  c0.452-1.374,0.828-2.764,1.109-4.181c0-1.621,0.683-2.986,0.939-4.351c0.299-1.322,0.529-2.662,0.683-4.01  c0-1.792,0.427-3.072,0.597-4.351c0.171-1.28,0-2.133,0-2.986l0.853-1.621c0-0.768,0-1.45,0-2.048c0-2.304,0-4.266,0-6.229  c0-1.962,0-4.01,0-5.973v-0.853c0,0,0-0.683,0-1.109c-0.034-0.452-0.034-0.913,0-1.365c0.068-1.049,0.068-2.107,0-3.157  c0-2.218-0.512-4.181-0.853-6.058c-0.341-1.877-0.768-4.095-1.195-6.058l-2.218-8.532l7.935-3.242l-8.532,2.474  c0-1.195-0.768-2.304-1.195-3.498l-0.768-2.048c-0.512-1.28-0.939-2.56-1.536-3.754c-1.8-4.343-3.874-8.558-6.229-12.628  c-0.853-1.45-1.792-2.986-2.816-4.522l-0.597-1.024l-0.512-0.768c-1.365-1.962-2.645-3.669-4.01-5.461  c-1.357-1.834-2.807-3.601-4.351-5.29l-0.683-0.853l0,0c-1.536-1.792-3.242-3.584-4.949-5.29l-4.607-4.266l-3.328-2.304  c-3.387-2.884-6.979-5.503-10.751-7.85c-2.389-1.536-4.522-2.816-6.826-4.01c-2.184-1.263-4.428-2.406-6.74-3.413  c-1.962-0.939-3.84-1.792-5.717-2.474l-1.024-0.427l-1.706-0.683l-6.399-2.048c-2.133-0.683-4.266-1.28-6.314-1.706l-2.133-0.512  l-5.802-1.195h-0.768c-2.389,0-4.693-0.597-7.167-0.768h-1.109c-5.222-0.444-10.478-0.444-15.699,0l-4.949,0.427h-2.56  l-10.409,2.048c-2.901,0.683-5.717,1.45-8.532,2.474c-2.816,1.024-4.949,1.706-7.167,2.645h-0.597l-6.484,2.901h-0.683  c-2.312,1.092-4.565,2.321-6.74,3.669l-1.365,0.853c-1.621,1.024-3.328,2.048-5.034,3.328l-1.109,0.683l0,0  c-2.952,2.099-5.802,4.351-8.532,6.74c-1.45,1.195-2.816,2.389-4.01,3.669c-1.195,1.28-3.413,3.328-4.863,4.863l0,0  c-1.45,1.536-2.73,3.072-4.095,4.693l-0.427,0.512l-0.597,0.683c-0.768,0.939-1.877,2.389-2.986,3.839l-0.597,0.768  c-1.365,1.792-2.56,3.669-3.754,5.461c-1.195,1.792-2.304,3.754-3.413,5.717c-2.73,4.889-5.043,10-6.911,15.273  c-0.427,1.195-0.768,2.048-1.024,2.901v0.853c-0.512,1.28-0.768,2.218-1.024,3.157c-0.683,2.304-1.28,4.778-1.877,7.338  c-0.597,2.56-0.683,3.584-1.024,5.375l-0.512,3.072c0.034,0.623,0.034,1.254,0,1.877c-0.802,1.971-1.459,3.993-1.962,6.058  c0,2.986,0,5.631,0,8.532c0,2.901,0,5.29,0,7.85s0.512,5.461,0.853,7.935c0.341,2.474,0.512,3.413,0.768,5.034  c0.683,3.584,1.45,6.655,2.304,9.812s1.28,4.01,1.962,6.143c0.52,1.536,1.118,3.046,1.792,4.522c0.683,1.706,1.194,2.901,1.706,4.01  c1.587,3.575,3.379,7.048,5.375,10.409c0.939,1.536,1.877,3.072,2.73,4.437c0.853,1.365,1.621,2.645,2.389,3.669  c1.305,1.86,2.696,3.652,4.181,5.375c0.845,1.135,1.758,2.218,2.73,3.242c2.295,2.696,4.752,5.256,7.338,7.679  c1.28,1.28,2.56,2.389,3.754,3.498l2.73,2.304l1.536,1.195c1.536,1.28,3.242,2.474,4.949,3.669  c5.017,3.515,10.332,6.595,15.87,9.215l3.754,1.706l3.669,1.536l4.095,1.536c2.56,0.853,5.034,1.706,7.594,2.304l3.498,0.939h0.853  L360.491,236.325z"/>
<path d="M384.466,187.777c-10.35,0.06-20.52-2.688-29.436-7.935l-2.304-1.28c-1.766-1.109-3.473-2.304-5.119-3.584  c-1.527-1.16-2.978-2.415-4.351-3.754c-11.809-11.254-18.498-26.859-18.515-43.173c-0.06-8.856,1.894-17.61,5.717-25.597  c5.222-10.921,13.643-19.999,24.146-26.023c3.976-2.526,9.249-1.357,11.774,2.619c2.526,3.976,1.357,9.249-2.619,11.774  c-0.205,0.128-0.41,0.247-0.623,0.358c-7.44,4.403-13.387,10.947-17.064,18.771c-2.773,5.631-4.232,11.817-4.266,18.088  c0.017,11.723,4.863,22.926,13.396,30.972c0.913,0.879,1.886,1.706,2.901,2.474l3.498,2.474l1.962,1.109  c12.926,7.397,28.796,7.397,41.722,0l2.474-1.45l3.413-2.474c1.084-0.845,2.107-1.758,3.072-2.73  c8.191-7.986,12.832-18.933,12.884-30.375c0.017-6.288-1.382-12.5-4.095-18.174c-3.669-7.807-9.616-14.326-17.064-18.686  c-3.976-2.526-5.153-7.798-2.619-11.774c2.38-3.746,7.227-5.034,11.152-2.986c10.435,6.049,18.796,15.128,23.975,26.023  c10.913,23.028,6.007,50.434-12.201,68.258c-1.442,1.468-2.978,2.833-4.607,4.095c-1.792,1.365-3.328,2.56-5.034,3.584l-2.816,1.621  C404.909,185.183,394.773,187.87,384.466,187.777z"/>
<path d="M384.466,110.987c-4.71,0-8.532-3.822-8.532-8.532V68.326c0-4.71,3.822-8.532,8.532-8.532c4.71,0,8.532,3.822,8.532,8.532  v34.129C392.998,107.164,389.184,110.987,384.466,110.987z"/>
<g>
</g>
<g>
</g>
<g>
</g>
<g>
</g>
<g>
</g>
<g>
</g>
<g>
</g>
<g>
</g>
<g>
</g>
<g>
</g>
<g>
</g>
<g>
</g>
<g>
</g>
<g>
</g>
<g>
</g>
</svg>
