<?xml version="1.0" encoding="iso-8859-1"?>
<!-- Generator: Adobe Illustrator 19.0.0, SVG Export Plug-In . SVG Version: 6.00 Build 0)  -->
<svg xmlns="http://www.w3.org/2000/svg" xmlns:xlink="http://www.w3.org/1999/xlink" version="1.1" id="Layer_1" x="0px" y="0px" viewBox="0 0 512 512" style="enable-background:new 0 0 512 512;" xml:space="preserve">
<path style="fill:#4E342E;" d="M17.067,98.206h477.867c4.71,0,8.533,3.823,8.533,8.533v358.4c0,4.71-3.823,8.533-8.533,8.533H17.067  c-4.71,0-8.533-3.823-8.533-8.533v-358.4C8.533,102.029,12.356,98.206,17.067,98.206z"/>
<path style="fill:#795548;" d="M17.067,98.206H460.8c4.71,0,8.533,3.823,8.533,8.533v358.4c0,4.71-3.823,8.533-8.533,8.533H17.067  c-4.71,0-8.533-3.823-8.533-8.533v-358.4C8.533,102.029,12.356,98.206,17.067,98.206z"/>
<g>
	<path style="fill:#0377BC;" d="M51.2,132.339h162.133c4.71,0,8.533,3.823,8.533,8.533v290.133c0,4.71-3.823,8.533-8.533,8.533H51.2   c-4.71,0-8.533-3.823-8.533-8.533V140.873C42.667,136.162,46.49,132.339,51.2,132.339z"/>
	<path style="fill:#0377BC;" d="M298.667,132.339H460.8c4.71,0,8.533,3.823,8.533,8.533v290.133c0,4.71-3.823,8.533-8.533,8.533   H298.667c-4.71,0-8.533-3.823-8.533-8.533V140.873C290.133,136.162,293.956,132.339,298.667,132.339z"/>
</g>
<g>
	<path style="fill:#02A9F4;" d="M50.005,132.339h138.923c4.369,0.367,7.637,4.164,7.339,8.533v290.133   c0.299,4.369-2.97,8.166-7.339,8.533H50.005c-4.369-0.367-7.637-4.164-7.339-8.533V140.873   C42.368,136.504,45.636,132.706,50.005,132.339z"/>
	<path style="fill:#02A9F4;" d="M297.472,132.339h138.923c4.369,0.367,7.637,4.164,7.339,8.533v290.133   c0.299,4.369-2.97,8.166-7.339,8.533H297.472c-4.369-0.367-7.637-4.164-7.339-8.533V140.873   C289.835,136.504,293.103,132.706,297.472,132.339z"/>
</g>
<path style="fill:#C52828;" d="M375.467,157.939c0,65.98-53.487,119.467-119.467,119.467c-5.717,0.009-11.418-0.418-17.067-1.28  c-58.761-8.482-102.374-58.82-102.4-118.187c-0.017-59.401,43.614-109.79,102.4-118.272c5.658-0.785,11.358-1.186,17.067-1.195  C321.98,38.473,375.467,91.96,375.467,157.939z"/>
<path style="fill:#F44335;" d="M341.333,157.939c-0.026,59.366-43.639,109.705-102.4,118.187  c-58.761-8.482-102.374-58.82-102.4-118.187c-0.017-59.401,43.614-109.79,102.4-118.272  C297.719,48.158,341.35,98.547,341.333,157.939z"/>
<g>
	<path style="fill:#FDD834;" d="M267.776,175.006h-23.552c-3.763,0.111-6.98-2.662-7.424-6.4l-6.4-79.957   c-0.196-3.951,2.859-7.313,6.81-7.509c0.23-0.009,0.469-0.009,0.7,0h36.267c3.959-0.145,7.279,2.944,7.424,6.895   c0.009,0.205,0.009,0.41,0,0.614l-6.4,79.957C274.756,172.344,271.539,175.125,267.776,175.006z"/>
	<path style="fill:#FDD834;" d="M251.477,209.139h9.045c6.929,0,12.544,5.615,12.544,12.544v9.045   c0,6.929-5.615,12.544-12.544,12.544h-9.045c-6.929,0-12.544-5.615-12.544-12.544v-9.045   C238.933,214.754,244.548,209.139,251.477,209.139z"/>
</g>
<path d="M494.933,482.206H17.067C7.637,482.206,0,474.569,0,465.139v-358.4c0-9.429,7.637-17.067,17.067-17.067h135.509  c4.71-0.017,8.55,3.789,8.567,8.499c0.009,1.51-0.393,2.995-1.143,4.301c-9.83,16.828-14.985,35.977-14.933,55.467  c0,2.645,0,5.205,0,7.765c2.355,31.3,17.86,60.134,42.667,79.36c3.302,2.611,6.75,5.026,10.325,7.253  c8.243,5.12,17.143,9.114,26.453,11.861c20.651,6.204,42.667,6.204,63.317,0c9.37-2.731,18.33-6.724,26.624-11.861  c3.396-2.236,6.673-4.659,9.813-7.253c24.764-19.191,40.269-47.949,42.667-79.189c0-2.731,0-5.291,0-7.936  c0.06-19.49-5.103-38.639-14.933-55.467c-2.355-4.079-0.956-9.301,3.123-11.657c1.306-0.751,2.79-1.152,4.301-1.143h135.509  c9.429,0,17.067,7.637,17.067,17.067v358.4C512,474.569,504.363,482.206,494.933,482.206z M17.067,106.739v358.4h477.867v-358.4  H373.248c7.142,16.119,10.803,33.57,10.752,51.2c0,3.157,0,6.229,0,9.301c-2.645,35.883-20.267,68.992-48.555,91.221  c-3.797,3.063-7.757,5.914-11.861,8.533c-9.574,5.948-19.908,10.573-30.72,13.739c-23.876,7.168-49.34,7.168-73.216,0  c-10.752-3.183-21.035-7.808-30.549-13.739c-4.105-2.62-8.064-5.47-11.861-8.533c-28.587-22.144-46.473-55.339-49.237-91.392  c0-2.901,0-5.973,0-9.131c-0.051-17.63,3.618-35.081,10.752-51.2C138.752,106.739,17.067,106.739,17.067,106.739z"/>
<path d="M256,482.206c-4.71,0-8.533-3.823-8.533-8.533V277.406c0-4.71,3.823-8.533,8.533-8.533c4.71,0,8.533,3.823,8.533,8.533  v196.267C264.533,478.392,260.71,482.206,256,482.206z"/>
<path d="M213.333,448.073H51.2c-9.429,0-17.067-7.637-17.067-17.067V140.873c0-9.429,7.637-17.067,17.067-17.067h88.064  c4.71-0.102,8.619,3.627,8.721,8.337c0.017,0.666-0.051,1.331-0.188,1.988c-1.758,7.817-2.671,15.795-2.731,23.808  c0,2.645,0,5.205,0,7.765c2.355,31.3,17.86,60.134,42.667,79.36c3.302,2.611,6.75,5.026,10.325,7.253  c8.243,5.12,17.143,9.114,26.453,11.861c3.763,1.092,6.298,4.617,6.144,8.533v158.293c0,9.429-7.637,17.067-17.067,17.067  C213.504,448.081,213.419,448.081,213.333,448.073z M51.2,140.873v290.133h162.133V278.601c-8.593-3.021-16.836-6.963-24.576-11.776  c-4.105-2.62-8.064-5.47-11.861-8.533c-28.416-22.17-46.165-55.287-48.896-91.221c0-2.901,0-5.973,0-9.131  c-0.009-5.709,0.367-11.409,1.109-17.067H51.2z"/>
<path d="M460.8,448.073H298.667c-9.429,0-17.067-7.637-17.067-17.067V272.371c-0.154-3.917,2.381-7.441,6.144-8.533  c9.31-2.748,18.21-6.741,26.453-11.861c3.482-2.125,6.844-4.429,10.069-6.912c24.764-19.191,40.269-47.949,42.667-79.189  c0-2.731,0-5.291,0-7.936c0-8.004-0.862-15.983-2.56-23.808c-0.99-4.608,1.937-9.148,6.545-10.138  c0.649-0.137,1.314-0.205,1.988-0.188H460.8c9.429,0,17.067,7.637,17.067,17.067v290.133  C477.867,440.435,470.229,448.073,460.8,448.073z M298.667,278.601v152.405H460.8V140.873h-77.909  c0.742,5.658,1.118,11.358,1.109,17.067c0,3.157,0,6.229,0,9.301c-2.645,35.883-20.267,68.992-48.555,91.221  c-3.797,3.063-7.757,5.914-11.861,8.533C315.725,271.765,307.371,275.657,298.667,278.601z"/>
<path d="M324.267,311.539c-1.843,0-3.644-0.597-5.12-1.707l-34.133-25.6c-3.772-2.825-4.531-8.175-1.707-11.947  s8.175-4.531,11.947-1.707l34.133,25.6c3.772,2.825,4.531,8.175,1.707,11.947C329.481,310.276,326.955,311.539,324.267,311.539z"/>
<path d="M76.8,175.006c-4.71-0.026-8.516-3.866-8.491-8.576c0.009-1.101,0.222-2.185,0.64-3.2c0.41-1.05,1.015-2.005,1.792-2.816  c0.828-0.751,1.783-1.357,2.816-1.792c2.057-0.947,4.429-0.947,6.485,0c1.05,0.41,2.005,1.015,2.816,1.792  c1.562,1.638,2.441,3.797,2.475,6.059c0.017,2.27-0.879,4.446-2.475,6.059c-0.828,0.751-1.783,1.357-2.816,1.792  C79.027,174.801,77.918,175.04,76.8,175.006z"/>
<path d="M136.533,175.006h-25.6c-4.71,0-8.533-3.823-8.533-8.533c0-4.71,3.823-8.533,8.533-8.533h25.6  c4.71,0,8.533,3.823,8.533,8.533C145.067,171.183,141.244,175.006,136.533,175.006z"/>
<path d="M256,285.939c-23.748-0.051-47.019-6.665-67.243-19.115c-4.105-2.62-8.064-5.47-11.861-8.533  c-28.416-22.17-46.165-55.287-48.896-91.221c0-2.901,0-5.973,0-9.131c-0.077-70.69,57.165-128.06,127.855-128.145  c45.841-0.043,88.209,24.422,111.078,64.145c11.281,19.439,17.169,41.532,17.067,64c0,3.157,0,6.229,0,9.301  c-2.645,35.883-20.267,68.992-48.555,91.221c-3.797,3.063-7.757,5.914-11.861,8.533C303.241,279.445,279.851,285.999,256,285.939z   M256,47.006c-39.603,0.026-76.194,21.163-96,55.467c-9.83,16.828-14.985,35.977-14.933,55.467c0,2.645,0,5.205,0,7.765  c2.355,31.3,17.86,60.134,42.667,79.36c3.302,2.611,6.75,5.026,10.325,7.253c8.243,5.12,17.143,9.114,26.453,11.861  c20.651,6.204,42.667,6.204,63.317,0c9.37-2.731,18.33-6.724,26.624-11.861c3.396-2.236,6.673-4.659,9.813-7.253  c24.764-19.191,40.269-47.949,42.667-79.189c0-2.731,0-5.291,0-7.936c0.06-19.49-5.103-38.639-14.933-55.467  C332.194,68.177,295.603,47.032,256,47.006z"/>
<path d="M260.523,251.806h-9.045c-11.639,0-21.077-9.438-21.077-21.077v-9.045c0-11.639,9.438-21.077,21.077-21.077h9.045  c11.639,0,21.077,9.438,21.077,21.077l0,0v9.045C281.6,242.368,272.162,251.806,260.523,251.806L260.523,251.806z M251.477,217.673  c-2.219,0-4.011,1.792-4.011,4.011v9.045c0,2.219,1.792,4.011,4.011,4.011h9.045c2.219,0,4.011-1.792,4.011-4.011v-9.045  c0-2.219-1.792-4.011-4.011-4.011H251.477z"/>
<path d="M267.776,183.539h-23.552c-8.252,0.128-15.198-6.118-15.957-14.336l-6.4-79.531c-0.35-4.233,1.101-8.422,4.011-11.52  c3.055-3.465,7.415-5.478,12.032-5.547h36.181c4.557-0.017,8.917,1.869,12.032,5.205c3.004,3.183,4.463,7.509,4.011,11.861  l-6.4,79.872C282.812,177.626,275.908,183.684,267.776,183.539z M245.333,166.473h21.589l6.144-76.8h-34.133L245.333,166.473z"/>
<g>
</g>
<g>
</g>
<g>
</g>
<g>
</g>
<g>
</g>
<g>
</g>
<g>
</g>
<g>
</g>
<g>
</g>
<g>
</g>
<g>
</g>
<g>
</g>
<g>
</g>
<g>
</g>
<g>
</g>
</svg>
