<?xml version="1.0" encoding="iso-8859-1"?>
<!-- Generator: Adobe Illustrator 19.0.0, SVG Export Plug-In . SVG Version: 6.00 Build 0)  -->
<svg xmlns="http://www.w3.org/2000/svg" xmlns:xlink="http://www.w3.org/1999/xlink" version="1.1" id="Layer_1" x="0px" y="0px" viewBox="0 0 512 512" style="enable-background:new 0 0 512 512;" xml:space="preserve">
<path style="fill:#4E342E;" d="M17.067,98.206h477.867c4.71,0,8.533,3.823,8.533,8.533v358.4c0,4.71-3.823,8.533-8.533,8.533H17.067  c-4.71,0-8.533-3.823-8.533-8.533v-358.4C8.533,102.029,12.356,98.206,17.067,98.206z"/>
<path style="fill:#795548;" d="M17.067,98.206H460.8c4.71,0,8.533,3.823,8.533,8.533v358.4c0,4.71-3.823,8.533-8.533,8.533H17.067  c-4.71,0-8.533-3.823-8.533-8.533v-358.4C8.533,102.029,12.356,98.206,17.067,98.206z"/>
<g>
	<path style="fill:#0377BC;" d="M51.2,132.339h162.133c4.71,0,8.533,3.823,8.533,8.533v290.133c0,4.71-3.823,8.533-8.533,8.533H51.2   c-4.71,0-8.533-3.823-8.533-8.533V140.873C42.667,136.162,46.49,132.339,51.2,132.339z"/>
	<path style="fill:#0377BC;" d="M298.667,132.339H460.8c4.71,0,8.533,3.823,8.533,8.533v290.133c0,4.71-3.823,8.533-8.533,8.533   H298.667c-4.71,0-8.533-3.823-8.533-8.533V140.873C290.133,136.162,293.956,132.339,298.667,132.339z"/>
</g>
<g>
	<path style="fill:#02A9F4;" d="M50.005,132.339h138.923c4.369,0.367,7.637,4.164,7.339,8.533v290.133   c0.299,4.369-2.97,8.166-7.339,8.533H50.005c-4.369-0.367-7.637-4.164-7.339-8.533V140.873   C42.368,136.504,45.636,132.706,50.005,132.339z"/>
	<path style="fill:#02A9F4;" d="M297.472,132.339h138.923c4.369,0.367,7.637,4.164,7.339,8.533v290.133   c0.299,4.369-2.97,8.166-7.339,8.533H297.472c-4.369-0.367-7.637-4.164-7.339-8.533V140.873   C289.835,136.504,293.103,132.706,297.472,132.339z"/>
</g>
<path style="fill:#2E7D32;" d="M375.467,157.939c0,65.98-53.487,119.467-119.467,119.467c-2.901,0-5.803,0-8.533,0  c-2.731,0-5.547-0.512-8.533-0.939c-2.987-0.427-6.059-0.939-8.533-1.621c-2.475-0.683-4.779-1.109-7.083-1.792l0,0l-3.584-1.109  c-2.005-0.597-3.968-1.306-5.888-2.133h-0.512c-2.645-1.024-5.291-2.133-7.936-3.413c-8.277-3.942-16.068-8.841-23.211-14.592  c-28.809-22.63-45.636-57.233-45.653-93.867c0.009-5.709,0.41-11.409,1.195-17.067c0.947-6.537,2.423-12.988,4.437-19.285  l1.28-3.755c0.452-1.707,0.998-3.388,1.621-5.035c0.597-1.451,1.195-2.987,1.877-4.352c0.683-1.63,1.451-3.226,2.304-4.779  c0.597-1.28,1.28-2.56,1.963-3.755c3.166-5.572,6.818-10.854,10.923-15.787l2.901-3.499c0.99-1.306,2.074-2.534,3.243-3.669  c1.024-1.195,2.133-2.304,3.243-3.413c1.109-1.109,2.219-2.219,3.413-3.243c8.499-7.987,18.167-14.635,28.672-19.712l4.779-2.219  c1.613-0.768,3.268-1.451,4.949-2.048l5.035-1.792c6.69-2.244,13.577-3.866,20.565-4.864l0,0c2.594-0.538,5.214-0.939,7.851-1.195  c0.452-0.085,0.913-0.085,1.365,0c2.645,0,5.205,0,7.851,0C321.98,38.473,375.467,91.96,375.467,157.939z"/>
<path style="fill:#4CAF50;" d="M341.333,157.939c-0.026,59.366-43.639,109.705-102.4,118.187c-2.987,0-6.059-0.939-8.533-1.621  c-2.475-0.683-4.779-1.109-7.083-1.792l0,0l-3.584-1.109c-2.005-0.597-3.968-1.306-5.888-2.133h-0.512  c-2.645-1.024-5.291-2.133-7.936-3.413c-8.26-3.84-16.051-8.619-23.211-14.251c-28.809-22.63-45.636-57.233-45.653-93.867  c0.009-5.709,0.41-11.409,1.195-17.067c0.947-6.537,2.423-12.988,4.437-19.285l1.28-3.755c0.452-1.707,0.998-3.388,1.621-5.035  c0.597-1.451,1.195-2.987,1.877-4.352c0.683-1.63,1.451-3.226,2.304-4.779c0.597-1.28,1.28-2.56,1.963-3.755  c3.166-5.572,6.818-10.854,10.923-15.787l2.901-3.499c0.99-1.306,2.074-2.534,3.243-3.669c1.024-1.195,2.133-2.304,3.243-3.413  c1.109-1.109,2.219-2.219,3.413-3.243c8.499-7.987,18.167-14.635,28.672-19.712l4.779-2.219c1.613-0.768,3.268-1.451,4.949-2.048  l5.035-1.792c6.69-2.244,13.577-3.866,20.565-4.864l0,0C297.719,48.158,341.35,98.547,341.333,157.939z"/>
<path style="fill:#FFB301;" d="M204.8,132.339h102.4c9.429,0,17.067,7.637,17.067,17.067v51.2c0,9.429-7.637,17.067-17.067,17.067  H204.8c-9.429,0-17.067-7.637-17.067-17.067v-51.2C187.733,139.985,195.371,132.339,204.8,132.339z"/>
<path style="fill:#FEC108;" d="M204.8,132.339h68.267c9.429,0,17.067,7.637,17.067,17.067v51.2c0,9.429-7.637,17.067-17.067,17.067  H204.8c-9.429,0-17.067-7.637-17.067-17.067v-51.2C187.733,139.985,195.371,132.339,204.8,132.339z"/>
<path d="M494.933,482.206H17.067C7.637,482.206,0,474.569,0,465.139v-358.4c0-9.429,7.637-17.067,17.067-17.067h135.509  c4.71-0.017,8.55,3.789,8.567,8.499c0.009,1.51-0.393,2.995-1.143,4.301c-9.83,16.828-14.985,35.977-14.933,55.467  c0,2.645,0,5.205,0,7.765c2.355,31.3,17.86,60.134,42.667,79.36c3.302,2.611,6.75,5.026,10.325,7.253  c8.243,5.12,17.143,9.114,26.453,11.861c20.651,6.204,42.667,6.204,63.317,0c9.37-2.731,18.33-6.724,26.624-11.861  c3.396-2.236,6.673-4.659,9.813-7.253c24.764-19.191,40.269-47.949,42.667-79.189c0-2.731,0-5.291,0-7.936  c0.06-19.49-5.103-38.639-14.933-55.467c-2.355-4.079-0.956-9.301,3.123-11.657c1.306-0.751,2.79-1.152,4.301-1.143h135.509  c9.429,0,17.067,7.637,17.067,17.067v358.4C512,474.569,504.363,482.206,494.933,482.206z M17.067,106.739v358.4h477.867v-358.4  H373.248c7.142,16.119,10.803,33.57,10.752,51.2c0,3.157,0,6.229,0,9.301c-2.645,35.883-20.267,68.992-48.555,91.221  c-3.797,3.063-7.757,5.914-11.861,8.533c-9.574,5.948-19.908,10.573-30.72,13.739c-23.876,7.168-49.34,7.168-73.216,0  c-10.752-3.183-21.035-7.808-30.549-13.739c-4.105-2.62-8.064-5.47-11.861-8.533c-28.587-22.144-46.473-55.339-49.237-91.392  c0-2.901,0-5.973,0-9.131c-0.051-17.63,3.618-35.081,10.752-51.2C138.752,106.739,17.067,106.739,17.067,106.739z"/>
<path d="M256,482.206c-4.71,0-8.533-3.823-8.533-8.533V277.406c0-4.71,3.823-8.533,8.533-8.533c4.71,0,8.533,3.823,8.533,8.533  v196.267C264.533,478.392,260.71,482.206,256,482.206z"/>
<path d="M213.333,448.073H51.2c-9.429,0-17.067-7.637-17.067-17.067V140.873c0-9.429,7.637-17.067,17.067-17.067h88.064  c4.71-0.102,8.619,3.627,8.721,8.337c0.017,0.666-0.051,1.331-0.188,1.988c-1.758,7.817-2.671,15.795-2.731,23.808  c0,2.645,0,5.205,0,7.765c2.355,31.3,17.86,60.134,42.667,79.36c3.302,2.611,6.75,5.026,10.325,7.253  c8.243,5.12,17.143,9.114,26.453,11.861c3.763,1.092,6.298,4.617,6.144,8.533v158.293c0,9.429-7.637,17.067-17.067,17.067  C213.504,448.081,213.419,448.081,213.333,448.073z M51.2,140.873v290.133h162.133V278.601c-8.593-3.021-16.836-6.963-24.576-11.776  c-4.105-2.62-8.064-5.47-11.861-8.533c-28.416-22.17-46.165-55.287-48.896-91.221c0-2.901,0-5.973,0-9.131  c-0.009-5.709,0.367-11.409,1.109-17.067H51.2z"/>
<path d="M460.8,448.073H298.667c-9.429,0-17.067-7.637-17.067-17.067V272.371c-0.154-3.917,2.381-7.441,6.144-8.533  c9.31-2.748,18.21-6.741,26.453-11.861c3.482-2.125,6.844-4.429,10.069-6.912c24.764-19.191,40.269-47.949,42.667-79.189  c0-2.731,0-5.291,0-7.936c0-8.004-0.862-15.983-2.56-23.808c-0.99-4.608,1.937-9.148,6.545-10.138  c0.649-0.137,1.314-0.205,1.988-0.188H460.8c9.429,0,17.067,7.637,17.067,17.067v290.133  C477.867,440.435,470.229,448.073,460.8,448.073z M298.667,278.601v152.405H460.8V140.873h-77.909  c0.742,5.658,1.118,11.358,1.109,17.067c0,3.157,0,6.229,0,9.301c-2.645,35.883-20.267,68.992-48.555,91.221  c-3.797,3.063-7.757,5.914-11.861,8.533C315.725,271.765,307.371,275.657,298.667,278.601z"/>
<path d="M324.267,311.539c-1.843,0-3.644-0.597-5.12-1.707l-34.133-25.6c-3.772-2.825-4.531-8.175-1.707-11.947  s8.175-4.531,11.947-1.707l34.133,25.6c3.772,2.825,4.531,8.175,1.707,11.947C329.481,310.276,326.955,311.539,324.267,311.539z"/>
<path d="M76.8,175.006c-4.71-0.026-8.516-3.866-8.491-8.576c0.009-1.101,0.222-2.185,0.64-3.2c0.41-1.05,1.015-2.005,1.792-2.816  c0.828-0.751,1.783-1.357,2.816-1.792c3.174-1.34,6.844-0.631,9.301,1.792c1.562,1.638,2.441,3.797,2.475,6.059  c0.017,2.27-0.879,4.446-2.475,6.059c-0.828,0.751-1.783,1.357-2.816,1.792C79.027,174.801,77.918,175.04,76.8,175.006z"/>
<path d="M136.533,175.006h-25.6c-4.71,0-8.533-3.823-8.533-8.533c0-4.71,3.823-8.533,8.533-8.533h25.6  c4.71,0,8.533,3.823,8.533,8.533C145.067,171.183,141.244,175.006,136.533,175.006z"/>
<path d="M256,285.939c-23.748-0.051-47.019-6.665-67.243-19.115c-4.105-2.62-8.064-5.47-11.861-8.533  c-28.416-22.17-46.165-55.287-48.896-91.221c0-2.901,0-5.973,0-9.131c-0.077-70.69,57.165-128.06,127.855-128.145  c45.841-0.043,88.209,24.422,111.078,64.145c11.281,19.439,17.169,41.532,17.067,64c0,3.157,0,6.229,0,9.301  c-2.645,35.883-20.267,68.992-48.555,91.221c-3.797,3.063-7.757,5.914-11.861,8.533C303.241,279.445,279.851,285.999,256,285.939z   M256,47.006c-39.603,0.026-76.194,21.163-96,55.467c-9.83,16.828-14.985,35.977-14.933,55.467c0,2.645,0,5.205,0,7.765  c2.355,31.3,17.86,60.134,42.667,79.36c3.302,2.611,6.75,5.026,10.325,7.253c8.243,5.12,17.143,9.114,26.453,11.861  c20.651,6.204,42.667,6.204,63.317,0c9.37-2.731,18.33-6.724,26.624-11.861c3.396-2.236,6.673-4.659,9.813-7.253  c24.764-19.191,40.269-47.949,42.667-79.189c0-2.731,0-5.291,0-7.936c0.06-19.49-5.103-38.639-14.933-55.467  C332.194,68.177,295.603,47.032,256,47.006z"/>
<path d="M307.2,226.206H204.8c-14.14,0-25.6-11.46-25.6-25.6v-51.2c0-14.14,11.46-25.6,25.6-25.6h102.4  c14.14,0,25.6,11.46,25.6,25.6v51.2C332.8,214.746,321.34,226.206,307.2,226.206z M204.8,140.873c-4.71,0-8.533,3.823-8.533,8.533  v51.2c0,4.71,3.823,8.533,8.533,8.533h102.4c4.71,0,8.533-3.823,8.533-8.533v-51.2c0-4.71-3.823-8.533-8.533-8.533H204.8z"/>
<path d="M290.133,140.873h-68.267c-4.71,0-8.533-3.823-8.533-8.533v-17.067c-0.009-23.561,19.081-42.675,42.65-42.684  c10.411-0.009,20.463,3.797,28.262,10.684c3.251,3.413,3.115,8.815-0.299,12.066c-2.978,2.833-7.552,3.14-10.88,0.734  c-10.539-9.429-26.718-8.525-36.147,2.014c-4.224,4.727-6.545,10.846-6.519,17.186v8.533h61.099  c1.664,0.282,3.209,1.058,4.437,2.219l0.683,0.683c2.637,3.166,2.637,7.757,0,10.923c-0.563,0.666-1.229,1.237-1.963,1.707  C293.325,140.275,291.755,140.804,290.133,140.873z"/>
<path d="M256,192.073c-4.71,0-8.533-3.823-8.533-8.533v-17.067c0-4.71,3.823-8.533,8.533-8.533c4.71,0,8.533,3.823,8.533,8.533  v17.067C264.533,188.258,260.71,192.073,256,192.073z"/>
<path d="M264.533,175.006h-17.067c-4.71,0-8.533-3.823-8.533-8.533c0-4.71,3.823-8.533,8.533-8.533h17.067  c4.71,0,8.533,3.823,8.533,8.533C273.067,171.183,269.244,175.006,264.533,175.006z"/>
<g>
</g>
<g>
</g>
<g>
</g>
<g>
</g>
<g>
</g>
<g>
</g>
<g>
</g>
<g>
</g>
<g>
</g>
<g>
</g>
<g>
</g>
<g>
</g>
<g>
</g>
<g>
</g>
<g>
</g>
</svg>
