<?xml version="1.0" encoding="iso-8859-1"?>
<!-- Generator: Adobe Illustrator 19.0.0, SVG Export Plug-In . SVG Version: 6.00 Build 0)  -->
<svg xmlns="http://www.w3.org/2000/svg" xmlns:xlink="http://www.w3.org/1999/xlink" version="1.1" id="Layer_1" x="0px" y="0px" viewBox="0 0 512 512" style="enable-background:new 0 0 512 512;" xml:space="preserve">
<path style="fill:#4E342E;" d="M17.067,98.217h477.867c4.71,0,8.533,3.823,8.533,8.533v358.4c0,4.71-3.823,8.533-8.533,8.533H17.067  c-4.71,0-8.533-3.823-8.533-8.533v-358.4C8.533,102.031,12.356,98.217,17.067,98.217z"/>
<path style="fill:#795548;" d="M17.067,98.217H460.8c4.71,0,8.533,3.823,8.533,8.533v358.4c0,4.71-3.823,8.533-8.533,8.533H17.067  c-4.71,0-8.533-3.823-8.533-8.533v-358.4C8.533,102.031,12.356,98.217,17.067,98.217z"/>
<g>
	<path style="fill:#0377BC;" d="M51.2,132.35h162.133c4.71,0,8.533,3.823,8.533,8.533v290.133c0,4.71-3.823,8.533-8.533,8.533H51.2   c-4.71,0-8.533-3.823-8.533-8.533V140.883C42.667,136.164,46.49,132.35,51.2,132.35z"/>
	<path style="fill:#0377BC;" d="M298.667,132.35H460.8c4.71,0,8.533,3.823,8.533,8.533v290.133c0,4.71-3.823,8.533-8.533,8.533   H298.667c-4.71,0-8.533-3.823-8.533-8.533V140.883C290.133,136.164,293.956,132.35,298.667,132.35z"/>
</g>
<g>
	<path style="fill:#02A9F4;" d="M50.005,132.35h138.923c4.369,0.367,7.637,4.164,7.339,8.533v290.133   c0.299,4.369-2.97,8.166-7.339,8.533H50.005c-4.369-0.367-7.637-4.164-7.339-8.533V140.883   C42.368,136.506,45.636,132.708,50.005,132.35z"/>
	<path style="fill:#02A9F4;" d="M297.472,132.35h138.923c4.369,0.367,7.637,4.164,7.339,8.533v290.133   c0.299,4.369-2.97,8.166-7.339,8.533H297.472c-4.369-0.367-7.637-4.164-7.339-8.533V140.883   C289.835,136.506,293.103,132.708,297.472,132.35z"/>
</g>
<path style="fill:#2E7D32;" d="M375.467,157.95c0,65.98-53.487,119.467-119.467,119.467c-2.901,0-5.803,0-8.533,0  c-2.731,0-5.547-0.512-8.533-0.939c-2.987-0.427-6.059-0.939-8.533-1.621c-2.475-0.683-4.779-1.109-7.083-1.792l0,0l-3.584-1.109  c-2.005-0.597-3.968-1.306-5.888-2.133h-0.512c-2.645-1.024-5.291-2.133-7.936-3.413c-8.277-3.942-16.068-8.841-23.211-14.592  c-28.809-22.63-45.636-57.233-45.653-93.867c0.009-5.709,0.41-11.409,1.195-17.067c0.947-6.537,2.423-12.988,4.437-19.285  l1.28-3.755c0.452-1.707,0.998-3.388,1.621-5.035c0.597-1.451,1.195-2.987,1.877-4.352c0.683-1.63,1.451-3.226,2.304-4.779  c0.597-1.28,1.28-2.56,1.963-3.755c3.166-5.572,6.818-10.854,10.923-15.787l2.901-3.499c0.99-1.306,2.074-2.534,3.243-3.669  c1.024-1.195,2.133-2.304,3.243-3.413c1.109-1.109,2.219-2.219,3.413-3.243c8.499-7.987,18.167-14.635,28.672-19.712l4.779-2.219  c1.613-0.768,3.268-1.451,4.949-2.048l5.035-1.792c6.69-2.244,13.577-3.866,20.565-4.864l0,0c2.594-0.538,5.214-0.939,7.851-1.195  c0.452-0.085,0.913-0.085,1.365,0c2.645,0,5.205,0,7.851,0C321.98,38.483,375.467,91.97,375.467,157.95z"/>
<path style="fill:#4CAF50;" d="M341.333,157.95c-0.026,59.366-43.639,109.705-102.4,118.187c-2.987,0-6.059-0.939-8.533-1.621  c-2.475-0.683-4.779-1.109-7.083-1.792l0,0l-3.584-1.109c-2.005-0.597-3.968-1.306-5.888-2.133h-0.512  c-2.645-1.024-5.291-2.133-7.936-3.413c-8.26-3.84-16.051-8.619-23.211-14.251c-28.809-22.63-45.636-57.233-45.653-93.867  c0.009-5.709,0.41-11.409,1.195-17.067c0.947-6.537,2.423-12.988,4.437-19.285l1.28-3.755c0.452-1.707,0.998-3.388,1.621-5.035  c0.597-1.451,1.195-2.987,1.877-4.352c0.683-1.63,1.451-3.226,2.304-4.779c0.597-1.28,1.28-2.56,1.963-3.755  c3.166-5.572,6.818-10.854,10.923-15.787l2.901-3.499c0.99-1.306,2.074-2.534,3.243-3.669c1.024-1.195,2.133-2.304,3.243-3.413  c1.109-1.109,2.219-2.219,3.413-3.243c8.499-7.987,18.167-14.635,28.672-19.712l4.779-2.219c1.613-0.768,3.268-1.451,4.949-2.048  l5.035-1.792c6.69-2.244,13.577-3.866,20.565-4.864l0,0C297.719,48.16,341.35,98.55,341.333,157.95z"/>
<path style="fill:#FFB301;" d="M204.8,132.35h102.4c9.429,0,17.067,7.637,17.067,17.067v51.2c0,9.429-7.637,17.067-17.067,17.067  H204.8c-9.429,0-17.067-7.637-17.067-17.067v-51.2C187.733,139.987,195.371,132.35,204.8,132.35z"/>
<path style="fill:#FEC108;" d="M204.8,132.35h68.267c9.429,0,17.067,7.637,17.067,17.067v51.2c0,9.429-7.637,17.067-17.067,17.067  H204.8c-9.429,0-17.067-7.637-17.067-17.067v-51.2C187.733,139.987,195.371,132.35,204.8,132.35z"/>
<path d="M494.933,482.217H17.067C7.637,482.217,0,474.579,0,465.15v-358.4c0-9.429,7.637-17.067,17.067-17.067h135.509  c4.71-0.017,8.55,3.789,8.567,8.499c0.009,1.51-0.393,2.995-1.143,4.301c-9.839,16.828-14.993,35.977-14.933,55.467  c0,2.645,0,5.205,0,7.765c2.355,31.3,17.86,60.134,42.667,79.36c3.302,2.611,6.75,5.026,10.325,7.253  c8.243,5.129,17.143,9.114,26.453,11.861c20.651,6.204,42.667,6.204,63.317,0c9.37-2.731,18.33-6.724,26.624-11.861  c3.396-2.244,6.673-4.659,9.813-7.253c24.764-19.191,40.269-47.949,42.667-79.189c0-2.731,0-5.291,0-7.936  c0.051-19.49-5.103-38.639-14.933-55.467c-2.355-4.079-0.956-9.301,3.123-11.657c1.306-0.751,2.79-1.152,4.301-1.143h135.509  c9.429,0,17.067,7.637,17.067,17.067v358.4C512,474.571,504.363,482.217,494.933,482.217z M17.067,106.75v358.4h477.867v-358.4  h-121.6c7.1,16.128,10.735,33.579,10.667,51.2c0,3.157,0,6.229,0,9.301c-2.645,35.883-20.267,68.992-48.555,91.221  c-3.789,3.063-7.748,5.914-11.861,8.533c-9.574,5.948-19.908,10.573-30.72,13.739c-23.876,7.168-49.34,7.168-73.216,0  c-10.752-3.183-21.035-7.808-30.549-13.739c-4.113-2.62-8.073-5.47-11.861-8.533c-28.587-22.144-46.473-55.339-49.237-91.392  c0-2.901,0-5.973,0-9.131c-0.077-17.63,3.558-35.072,10.667-51.2L17.067,106.75L17.067,106.75z"/>
<path d="M256,482.217c-4.71,0-8.533-3.823-8.533-8.533V277.417c0-4.71,3.823-8.533,8.533-8.533c4.71,0,8.533,3.823,8.533,8.533  v196.267C264.533,478.394,260.71,482.217,256,482.217z"/>
<path d="M213.333,448.083H51.2c-9.429,0-17.067-7.637-17.067-17.067V140.883c0-9.429,7.637-17.067,17.067-17.067h88.064  c4.71-0.102,8.619,3.627,8.721,8.337c0.017,0.666-0.051,1.331-0.188,1.988c-1.749,7.817-2.671,15.795-2.731,23.808  c0,2.645,0,5.205,0,7.765c2.355,31.3,17.86,60.134,42.667,79.36c3.302,2.611,6.75,5.026,10.325,7.253  c8.243,5.129,17.143,9.114,26.453,11.861c3.763,1.092,6.298,4.617,6.144,8.533v158.293c0,9.429-7.637,17.067-17.067,17.067  C213.504,448.083,213.419,448.083,213.333,448.083z M51.2,140.883v290.133h162.133V278.611c-8.593-3.021-16.836-6.963-24.576-11.776  c-4.113-2.62-8.073-5.47-11.861-8.533c-28.416-22.17-46.165-55.287-48.896-91.221c0-2.901,0-5.973,0-9.131  c-0.009-5.709,0.367-11.409,1.109-17.067L51.2,140.883L51.2,140.883z"/>
<path d="M460.8,448.083H298.667c-9.429,0-17.067-7.637-17.067-17.067V272.382c-0.154-3.917,2.381-7.441,6.144-8.533  c9.31-2.748,18.21-6.733,26.453-11.861c3.473-2.125,6.835-4.429,10.069-6.912c24.764-19.191,40.269-47.949,42.667-79.189  c0-2.731,0-5.291,0-7.936c-0.009-8.004-0.862-15.983-2.56-23.808c-0.99-4.608,1.937-9.148,6.545-10.138  c0.649-0.137,1.314-0.205,1.988-0.188H460.8c9.429,0,17.067,7.637,17.067,17.067v290.133  C477.867,440.438,470.229,448.083,460.8,448.083z M298.667,278.611v152.405H460.8V140.883h-77.909  c0.742,5.658,1.118,11.358,1.109,17.067c0,3.157,0,6.229,0,9.301c-2.645,35.883-20.267,68.992-48.555,91.221  c-3.789,3.063-7.748,5.914-11.861,8.533C315.733,271.776,307.371,275.667,298.667,278.611z"/>
<path d="M324.267,311.55c-1.843,0-3.644-0.597-5.12-1.707l-34.133-25.6c-3.772-2.825-4.531-8.175-1.707-11.947  c2.824-3.772,8.175-4.531,11.947-1.707l34.133,25.6c3.772,2.825,4.531,8.175,1.707,11.947  C329.481,310.279,326.955,311.55,324.267,311.55z"/>
<path d="M76.8,175.017c-1.118-0.017-2.219-0.247-3.243-0.683c-1.033-0.435-1.988-1.041-2.816-1.792  c-1.596-1.613-2.492-3.797-2.475-6.059c0.017-1.118,0.247-2.219,0.683-3.243c0.435-1.033,1.041-1.988,1.792-2.816  c3.319-3.345,8.721-3.371,12.066-0.051c1.63,1.613,2.534,3.814,2.526,6.11c-0.017,1.118-0.247,2.219-0.683,3.243  c-0.777,2.142-2.466,3.831-4.608,4.608C79.019,174.769,77.918,175,76.8,175.017z"/>
<path d="M136.533,175.017h-25.6c-4.71,0-8.533-3.823-8.533-8.533c0-4.71,3.823-8.533,8.533-8.533h25.6  c4.71,0,8.533,3.823,8.533,8.533C145.067,171.194,141.244,175.017,136.533,175.017z"/>
<path d="M290.133,175.017c-4.71,0-8.533-3.823-8.533-8.533c0-4.71,3.823-8.533,8.533-8.533c4.71,0,8.533,3.823,8.533,8.533  c-0.017,1.118-0.247,2.219-0.683,3.243c-0.435,1.033-1.041,1.988-1.792,2.816C294.579,174.138,292.403,175.025,290.133,175.017z"/>
<path d="M256,285.95c-23.748-0.051-47.019-6.665-67.243-19.115c-4.113-2.62-8.073-5.47-11.861-8.533  c-28.416-22.17-46.165-55.287-48.896-91.221c0-2.901,0-5.973,0-9.131c-0.102-22.468,5.786-44.561,17.067-64  c35.268-61.269,113.527-82.347,174.788-47.078C359.586,69.741,384.051,112.109,384,157.95c0,3.157,0,6.229,0,9.301  c-2.645,35.883-20.267,68.992-48.555,91.221c-3.789,3.063-7.748,5.914-11.861,8.533C303.249,279.456,279.851,286.01,256,285.95z   M256,47.017c-39.603,0.026-76.194,21.163-96,55.467c-9.839,16.828-14.993,35.977-14.933,55.467c0,2.645,0,5.205,0,7.765  c2.355,31.3,17.86,60.134,42.667,79.36c3.302,2.611,6.75,5.026,10.325,7.253c8.243,5.129,17.143,9.114,26.453,11.861  c20.651,6.204,42.667,6.204,63.317,0c9.37-2.731,18.33-6.724,26.624-11.861c3.396-2.244,6.673-4.659,9.813-7.253  c24.764-19.191,40.269-47.949,42.667-79.189c0-2.731,0-5.291,0-7.936c0.051-19.49-5.103-38.639-14.933-55.467  C332.194,68.179,295.603,47.042,256,47.017z"/>
<path d="M307.2,226.217H204.8c-14.14,0-25.6-11.46-25.6-25.6v-51.2c0-14.14,11.46-25.6,25.6-25.6h102.4  c14.14,0,25.6,11.46,25.6,25.6v51.2C332.8,214.748,321.34,226.217,307.2,226.217z M204.8,140.883c-4.71,0-8.533,3.823-8.533,8.533  v51.2c0,4.71,3.823,8.533,8.533,8.533h102.4c4.71,0,8.533-3.823,8.533-8.533v-51.2c0-4.71-3.823-8.533-8.533-8.533H204.8z"/>
<path d="M290.133,140.883h-68.267c-4.71,0-8.533-3.823-8.533-8.533v-17.067c0-23.561,19.106-42.667,42.667-42.667  c23.561,0,42.667,19.106,42.667,42.667v5.035c0,4.352,0,9.557,0,11.861c0,4.71-3.823,8.533-8.533,8.533V140.883z M230.4,123.817  h51.2c0-1.195,0-2.389,0-3.499v-5.035c0-14.14-11.46-25.6-25.6-25.6c-14.14,0-25.6,11.46-25.6,25.6V123.817z"/>
<path d="M256,192.083c-4.71,0-8.533-3.823-8.533-8.533v-17.067c0-4.71,3.823-8.533,8.533-8.533c4.71,0,8.533,3.823,8.533,8.533  v17.067C264.533,188.26,260.71,192.083,256,192.083z"/>
<path d="M264.533,175.017h-17.067c-4.71,0-8.533-3.823-8.533-8.533c0-4.71,3.823-8.533,8.533-8.533h17.067  c4.71,0,8.533,3.823,8.533,8.533C273.067,171.194,269.244,175.017,264.533,175.017z"/>
<g>
</g>
<g>
</g>
<g>
</g>
<g>
</g>
<g>
</g>
<g>
</g>
<g>
</g>
<g>
</g>
<g>
</g>
<g>
</g>
<g>
</g>
<g>
</g>
<g>
</g>
<g>
</g>
<g>
</g>
</svg>
