<?xml version="1.0" encoding="iso-8859-1"?>
<!-- Generator: Adobe Illustrator 19.0.0, SVG Export Plug-In . SVG Version: 6.00 Build 0)  -->
<svg xmlns="http://www.w3.org/2000/svg" xmlns:xlink="http://www.w3.org/1999/xlink" version="1.1" id="Layer_1" x="0px" y="0px" viewBox="0 0 512 512" style="enable-background:new 0 0 512 512;" xml:space="preserve">
<path style="fill:#37474F;" d="M285.867,219.392v249.941c0,18.85-15.283,34.133-34.133,34.133H64  c-18.85,0-34.133-15.283-34.133-34.133V128c0-18.85,15.283-34.133,34.133-34.133h184.149  C234.598,139.486,249.412,188.8,285.867,219.392z"/>
<path style="fill:#607D8B;" d="M251.733,219.392v249.941c0,18.85-15.283,34.133-34.133,34.133H64  c-18.85,0-34.133-15.283-34.133-34.133V128c0-18.85,15.283-34.133,34.133-34.133h150.016  C200.465,139.486,215.279,188.8,251.733,219.392z"/>
<g>
	<path style="fill:#6A1B9A;" d="M209.067,179.2c0,28.279-22.921,51.2-51.2,51.2c-5.82,0.017-11.597-0.998-17.067-2.987   c-26.624-9.515-40.499-38.818-30.985-65.442c5.163-14.447,16.538-25.822,30.985-30.985c5.47-1.988,11.247-3.004,17.067-2.987   C186.146,128,209.067,150.921,209.067,179.2z"/>
	<path style="fill:#6A1B9A;" d="M251.733,366.933c0,51.84-42.027,93.867-93.867,93.867S64,418.773,64,366.933   s42.027-93.867,93.867-93.867S251.733,315.093,251.733,366.933z"/>
</g>
<g>
	<path style="fill:#9D27B0;" d="M174.933,179.2c-0.026,21.675-13.696,40.986-34.133,48.213   c-26.624-9.515-40.499-38.818-30.985-65.442c5.163-14.447,16.538-25.822,30.985-30.985   C161.237,138.214,174.908,157.525,174.933,179.2z"/>
	<path style="fill:#9D27B0;" d="M217.6,366.933c0.017,45.269-32.282,84.096-76.8,92.331c-50.995-9.344-84.762-58.249-75.418-109.244   c7.031-38.366,37.052-68.395,75.418-75.418C185.318,282.837,217.617,321.664,217.6,366.933z"/>
</g>
<circle style="fill:#6A1B9A;" cx="157.867" cy="366.933" r="25.6"/>
<path d="M251.733,512H64c-23.561,0-42.667-19.106-42.667-42.667V128c0-23.561,19.106-42.667,42.667-42.667h184.149  c4.71-0.205,8.687,3.447,8.892,8.158c0.043,0.964-0.077,1.929-0.358,2.85c-12.595,42.359,1.152,88.149,34.987,116.565  c1.954,1.621,3.072,4.036,3.072,6.571v249.856c0,23.561-19.098,42.667-42.667,42.667C251.964,512,251.844,512,251.733,512z   M64,102.4c-14.14,0-25.6,11.46-25.6,25.6v341.333c0,14.14,11.46,25.6,25.6,25.6l0,0h187.733c14.14,0,25.6-11.46,25.6-25.6l0,0  V223.317c-33.903-30.319-49.169-76.348-40.107-120.917H64z"/>
<path d="M157.867,238.933c-32.99,0-59.733-26.743-59.733-59.733s26.743-59.733,59.733-59.733S217.6,146.21,217.6,179.2  S190.857,238.933,157.867,238.933z M157.867,136.533c-23.561,0-42.667,19.106-42.667,42.667s19.106,42.667,42.667,42.667  s42.667-19.106,42.667-42.667S181.436,136.533,157.867,136.533z"/>
<path d="M157.867,469.333c-56.55,0-102.4-45.85-102.4-102.4s45.85-102.4,102.4-102.4s102.4,45.85,102.4,102.4  S214.417,469.333,157.867,469.333z M157.867,281.6c-47.13,0-85.333,38.204-85.333,85.333s38.204,85.333,85.333,85.333  s85.333-38.204,85.333-85.333S204.996,281.6,157.867,281.6z"/>
<path d="M157.867,401.067c-18.85,0-34.133-15.283-34.133-34.133s15.283-34.133,34.133-34.133S192,348.083,192,366.933  S176.717,401.067,157.867,401.067z M157.867,349.867c-9.429,0-17.067,7.637-17.067,17.067S148.437,384,157.867,384  c9.429,0,17.067-7.637,17.067-17.067S167.296,349.867,157.867,349.867z"/>
<path d="M157.867,187.733c-2.27,0.017-4.446-0.879-6.059-2.475c-0.751-0.828-1.357-1.783-1.792-2.816  c-0.435-1.024-0.666-2.125-0.683-3.243c-0.017-2.27,0.879-4.446,2.475-6.059c0.811-0.777,1.766-1.382,2.816-1.792  c3.174-1.34,6.844-0.631,9.301,1.792c1.562,1.638,2.441,3.797,2.475,6.059c-0.017,1.118-0.247,2.219-0.683,3.243  c-0.435,1.033-1.041,1.988-1.792,2.816C162.313,186.854,160.137,187.75,157.867,187.733z"/>
<path style="fill:#AD1457;" d="M482.133,128c0,65.98-53.487,119.467-119.467,119.467c-5.709,0-11.409-0.401-17.067-1.195  c-65.323-9.31-110.729-69.803-101.419-135.125C251.674,58.547,293.001,17.22,345.6,9.728c5.658-0.785,11.358-1.186,17.067-1.195  C428.646,8.533,482.133,62.02,482.133,128z"/>
<path style="fill:#E91E63;" d="M448,128c0.017,59.401-43.614,109.79-102.4,118.272c-65.323-9.31-110.729-69.803-101.419-135.125  C251.674,58.547,293.001,17.22,345.6,9.728C404.386,18.21,448.017,68.599,448,128z"/>
<path d="M362.667,256c-70.69,0-128-57.31-128-128s57.31-128,128-128s128,57.31,128,128S433.357,256,362.667,256z M362.667,17.067  c-61.269,0-110.933,49.664-110.933,110.933s49.664,110.933,110.933,110.933S473.6,189.269,473.6,128S423.936,17.067,362.667,17.067z  "/>
<path style="fill:#FFEB3A;" d="M354.133,62.123l-13.483,11.349L311.467,102.4H282.88c-3.157,0.094-5.641,2.731-5.547,5.879  c0,0,0,0,0,0.009v39.424c-0.094,3.157,2.389,5.794,5.538,5.888c0,0,0,0,0.009,0h28.587l29.184,30.037l13.483,11.349  c2.492,1.698,5.888,1.05,7.586-1.442c0.631-0.93,0.964-2.039,0.947-3.166V66.731c0.051-3.012-2.355-5.504-5.367-5.555  C356.173,61.158,355.064,61.491,354.133,62.123z"/>
<path d="M357.12,204.8c-3.132-0.085-6.135-1.229-8.533-3.243l-13.312-11.52l-27.392-27.904H282.88  c-7.868-0.094-14.174-6.554-14.08-14.421l0,0v-39.424c-0.094-7.868,6.212-14.327,14.08-14.421l0,0h25.088l26.709-26.453  l13.568-11.776l0,0c4.028-3.379,9.634-4.139,14.421-1.963c5.214,2.287,8.567,7.45,8.533,13.141v123.563  c0.009,5.683-3.337,10.837-8.533,13.141C360.926,204.331,359.04,204.766,357.12,204.8z M285.867,145.067h25.6  c2.313-0.017,4.531,0.913,6.144,2.56l29.184,30.037l7.339,6.4V73.131l-7.936,6.827l-28.757,28.501  c-1.587,1.579-3.738,2.466-5.973,2.475h-25.6V145.067z"/>
<path d="M396.8,164.352c-4.71-0.026-8.508-3.874-8.482-8.585c0.017-3.251,1.886-6.212,4.813-7.629  c10.795-5.291,15.258-18.321,9.967-29.116c-2.125-4.335-5.632-7.842-9.967-9.967c-4.506-1.382-7.04-6.153-5.658-10.658  c1.382-4.506,6.153-7.04,10.658-5.658c0.828,0.256,1.613,0.631,2.33,1.126c19.319,9.301,27.452,32.503,18.15,51.823  c-3.814,7.936-10.214,14.336-18.15,18.15C399.3,164.275,398.046,164.454,396.8,164.352z"/>
<path d="M411.563,187.733c-4.71-0.051-8.491-3.917-8.431-8.636c0.043-3.388,2.074-6.426,5.188-7.748  c18.193-6.818,30.49-23.927,31.147-43.349c-0.657-19.422-12.954-36.531-31.147-43.349c-4.361-1.818-6.426-6.818-4.608-11.179  c1.818-4.361,6.818-6.426,11.179-4.608l0,0c24.576,9.463,41.02,32.811,41.643,59.136c-0.674,26.317-17.152,49.63-41.728,59.051  C413.781,187.486,412.681,187.716,411.563,187.733z"/>
<g>
</g>
<g>
</g>
<g>
</g>
<g>
</g>
<g>
</g>
<g>
</g>
<g>
</g>
<g>
</g>
<g>
</g>
<g>
</g>
<g>
</g>
<g>
</g>
<g>
</g>
<g>
</g>
<g>
</g>
</svg>
