<?xml version="1.0" encoding="iso-8859-1"?>
<!-- Generator: Adobe Illustrator 19.0.0, SVG Export Plug-In . SVG Version: 6.00 Build 0)  -->
<svg xmlns="http://www.w3.org/2000/svg" xmlns:xlink="http://www.w3.org/1999/xlink" version="1.1" id="Layer_1" x="0px" y="0px" viewBox="0 0 512 512" style="enable-background:new 0 0 512 512;" xml:space="preserve">
<path style="fill:#FDD834;" d="M482.133,128c0,25.412-8.098,50.159-23.125,70.656c-6.434,8.713-14.012,16.521-22.528,23.211  c-3.55,2.79-7.253,5.385-11.093,7.765c-18.825,11.699-40.559,17.877-62.72,17.835c-5.709-0.009-11.409-0.41-17.067-1.195  c-16.23-2.475-31.778-8.286-45.653-17.067c-3.84-2.381-7.543-4.975-11.093-7.765c-8.516-6.69-16.094-14.498-22.528-23.211  c-38.827-53.35-27.051-128.068,26.3-166.895c15.65-11.383,33.826-18.807,52.975-21.606c5.658-0.785,11.358-1.186,17.067-1.195  C428.646,8.533,482.133,62.02,482.133,128z"/>
<path style="fill:#FFEB3A;" d="M448,128c0,25.412-8.098,50.159-23.125,70.656c-6.434,8.713-14.012,16.521-22.528,23.211  c-3.55,2.79-7.253,5.385-11.093,7.765c-13.875,8.781-29.423,14.592-45.653,17.067c-16.23-2.475-31.778-8.286-45.653-17.067  c-3.84-2.381-7.543-4.975-11.093-7.765c-8.516-6.69-16.094-14.498-22.528-23.211c-39.04-53.188-27.563-127.957,25.634-166.997  c15.812-11.605,34.236-19.132,53.641-21.931C404.386,18.21,448.017,68.599,448,128z"/>
<path style="fill:#37474F;" d="M285.867,219.392v249.941c0,18.85-15.283,34.133-34.133,34.133H64  c-18.85,0-34.133-15.283-34.133-34.133V128c0-18.85,15.283-34.133,34.133-34.133h184.149  C234.598,139.486,249.412,188.8,285.867,219.392z"/>
<path style="fill:#607D8B;" d="M251.733,219.392v249.941c0,18.85-15.283,34.133-34.133,34.133H64  c-18.85,0-34.133-15.283-34.133-34.133V128c0-18.85,15.283-34.133,34.133-34.133h150.016  C200.465,139.486,215.279,188.8,251.733,219.392z"/>
<g>
	<path style="fill:#6A1B9A;" d="M209.067,179.2c0,28.279-22.921,51.2-51.2,51.2c-5.82,0.017-11.597-0.998-17.067-2.987   c-26.624-9.515-40.499-38.818-30.985-65.442c5.163-14.447,16.538-25.822,30.985-30.985c5.47-1.988,11.247-3.004,17.067-2.987   C186.146,128,209.067,150.921,209.067,179.2z"/>
	<path style="fill:#6A1B9A;" d="M251.733,366.933c0,51.84-42.027,93.867-93.867,93.867S64,418.773,64,366.933   s42.027-93.867,93.867-93.867S251.733,315.093,251.733,366.933z"/>
</g>
<g>
	<path style="fill:#9D27B0;" d="M174.933,179.2c-0.026,21.675-13.696,40.986-34.133,48.213   c-26.624-9.515-40.499-38.818-30.985-65.442c5.163-14.447,16.538-25.822,30.985-30.985   C161.237,138.214,174.908,157.525,174.933,179.2z"/>
	<path style="fill:#9D27B0;" d="M217.6,366.933c0.017,45.269-32.282,84.096-76.8,92.331c-50.995-9.344-84.762-58.249-75.418-109.244   c7.031-38.366,37.052-68.395,75.418-75.418C185.318,282.837,217.617,321.664,217.6,366.933z"/>
</g>
<circle style="fill:#6A1B9A;" cx="157.867" cy="366.933" r="25.6"/>
<path d="M251.733,512H64c-23.561,0-42.667-19.106-42.667-42.667V128c0-23.561,19.106-42.667,42.667-42.667h184.149  c4.71-0.205,8.687,3.447,8.892,8.158c0.043,0.964-0.077,1.929-0.358,2.85c-12.595,42.359,1.152,88.149,34.987,116.565  c1.954,1.621,3.072,4.036,3.072,6.571v249.856c0,23.561-19.098,42.667-42.667,42.667C251.964,512,251.844,512,251.733,512z   M64,102.4c-14.14,0-25.6,11.46-25.6,25.6v341.333c0,14.14,11.46,25.6,25.6,25.6l0,0h187.733c14.14,0,25.6-11.46,25.6-25.6l0,0  V223.317c-33.903-30.319-49.169-76.348-40.107-120.917H64z"/>
<path d="M157.867,238.933c-32.99,0-59.733-26.743-59.733-59.733s26.743-59.733,59.733-59.733S217.6,146.21,217.6,179.2  S190.857,238.933,157.867,238.933z M157.867,136.533c-23.561,0-42.667,19.106-42.667,42.667s19.106,42.667,42.667,42.667  s42.667-19.106,42.667-42.667S181.436,136.533,157.867,136.533z"/>
<path d="M157.867,469.333c-56.55,0-102.4-45.85-102.4-102.4s45.85-102.4,102.4-102.4s102.4,45.85,102.4,102.4  S214.417,469.333,157.867,469.333z M157.867,281.6c-47.13,0-85.333,38.204-85.333,85.333s38.204,85.333,85.333,85.333  s85.333-38.204,85.333-85.333S204.996,281.6,157.867,281.6z"/>
<path d="M157.867,401.067c-18.85,0-34.133-15.283-34.133-34.133s15.283-34.133,34.133-34.133S192,348.083,192,366.933  S176.717,401.067,157.867,401.067z M157.867,349.867c-9.429,0-17.067,7.637-17.067,17.067S148.437,384,157.867,384  c9.429,0,17.067-7.637,17.067-17.067S167.296,349.867,157.867,349.867z"/>
<path d="M157.867,187.733c-2.27,0.017-4.446-0.879-6.059-2.475c-0.751-0.828-1.357-1.783-1.792-2.816  c-0.435-1.024-0.666-2.125-0.683-3.243c-0.017-2.27,0.879-4.446,2.475-6.059l1.28-1.024c0.478-0.324,0.99-0.58,1.536-0.768  c0.512-0.256,1.058-0.427,1.621-0.512c1.067-0.247,2.176-0.247,3.243,0c0.563,0.085,1.109,0.256,1.621,0.512  c0.529,0.171,1.015,0.427,1.451,0.768c0.486,0.299,0.947,0.64,1.365,1.024c1.562,1.638,2.441,3.797,2.475,6.059  c-0.017,1.118-0.247,2.219-0.683,3.243c-0.435,1.033-1.041,1.988-1.792,2.816C162.313,186.854,160.137,187.75,157.867,187.733z"/>
<path d="M362.667,256c-70.69,0-128-57.31-128-128s57.31-128,128-128s128,57.31,128,128S433.357,256,362.667,256z M362.667,17.067  c-61.269,0-110.933,49.664-110.933,110.933s49.664,110.933,110.933,110.933S473.6,189.269,473.6,128S423.936,17.067,362.667,17.067z  "/>
<path style="fill:#AD1457;" d="M413.867,119.467H396.8c-4.71,0-8.533,3.823-8.533,8.533v68.267c0,4.71-3.823,8.533-8.533,8.533  H345.6c-4.71,0-8.533-3.823-8.533-8.533V128c0-4.71-3.823-8.533-8.533-8.533h-17.067c-4.71,0.026-8.559-3.772-8.585-8.482  c-0.017-2.295,0.896-4.497,2.526-6.11l51.2-51.2c3.319-3.345,8.721-3.371,12.066-0.051c0.017,0.017,0.034,0.034,0.051,0.051  l51.2,51.2c3.345,3.319,3.371,8.721,0.051,12.066C418.364,118.571,416.162,119.484,413.867,119.467z"/>
<path style="fill:#E91E63;" d="M388.267,93.867H371.2c-4.71,0-8.533,3.823-8.533,8.533v68.267c0,4.71-3.823,8.533-8.533,8.533  h-17.067V128c0-4.71-3.823-8.533-8.533-8.533h-17.067V102.4c0.017-1.024-0.188-2.048-0.597-2.987l45.739-45.739  c3.319-3.345,8.721-3.371,12.066-0.051c0.017,0.017,0.034,0.034,0.051,0.051l25.6,25.6c3.345,3.319,3.371,8.721,0.051,12.066  C392.764,92.971,390.562,93.884,388.267,93.867z"/>
<path d="M379.733,213.333H345.6c-9.429,0-17.067-7.637-17.067-17.067V128h-17.067c-9.429-0.043-17.033-7.714-16.998-17.135  c0.017-4.48,1.801-8.781,4.966-11.964l51.2-51.2l0,0c6.665-6.665,17.468-6.673,24.132-0.017c0.009,0.009,0.009,0.009,0.017,0.017  l51.2,51.2c6.647,6.682,6.613,17.493-0.068,24.132c-3.2,3.183-7.535,4.966-12.049,4.966H396.8v68.267  C396.8,205.696,389.163,213.333,379.733,213.333z M362.667,59.733l-51.2,51.2h17.067c9.429,0,17.067,7.637,17.067,17.067v68.267  h34.133V128c0-9.429,7.637-17.067,17.067-17.067h17.067L362.667,59.733z"/>
<g>
</g>
<g>
</g>
<g>
</g>
<g>
</g>
<g>
</g>
<g>
</g>
<g>
</g>
<g>
</g>
<g>
</g>
<g>
</g>
<g>
</g>
<g>
</g>
<g>
</g>
<g>
</g>
<g>
</g>
</svg>
