<?xml version="1.0" encoding="iso-8859-1"?>
<!-- Generator: Adobe Illustrator 19.0.0, SVG Export Plug-In . SVG Version: 6.00 Build 0)  -->
<svg xmlns="http://www.w3.org/2000/svg" xmlns:xlink="http://www.w3.org/1999/xlink" version="1.1" id="Layer_1" x="0px" y="0px" viewBox="0 0 512 512" style="enable-background:new 0 0 512 512;" xml:space="preserve">
<path style="fill:#0377BC;" d="M482.133,128c0,2.901,0,5.717,0,8.533c-0.777,11.691-3.311,23.194-7.509,34.133  c-6.187,16.068-15.761,30.626-28.075,42.667c-3.063,3.046-6.306,5.897-9.728,8.533c-3.55,2.79-7.253,5.385-11.093,7.765  l-2.987,1.707c-18.21,10.675-38.963,16.247-60.075,16.128c-5.717,0.009-11.418-0.418-17.067-1.28  c-15.061-2.082-29.568-7.125-42.667-14.848l-2.987-1.707c-3.84-2.381-7.543-4.975-11.093-7.765  c-3.422-2.637-6.665-5.487-9.728-8.533c-12.314-12.041-21.888-26.598-28.075-42.667c-4.318-10.914-6.963-22.426-7.851-34.133  c0-2.816,0-5.632,0-8.533c-0.034-17.715,3.9-35.209,11.52-51.2c17.143-36.173,51.26-61.355,90.88-67.072  c5.658-0.785,11.358-1.186,17.067-1.195C428.646,8.533,482.133,62.02,482.133,128z"/>
<path style="fill:#02A9F4;" d="M448,128c0,2.901,0,5.717,0,8.533c-0.777,11.691-3.311,23.194-7.509,34.133  c-6.187,16.068-15.761,30.626-28.075,42.667c-3.063,3.046-6.306,5.897-9.728,8.533c-3.55,2.79-7.253,5.385-11.093,7.765  l-2.987,1.707c-13.099,7.723-27.605,12.766-42.667,14.848c-15.061-2.082-29.568-7.125-42.667-14.848l-2.987-1.707  c-3.84-2.381-7.543-4.975-11.093-7.765c-3.422-2.637-6.665-5.487-9.728-8.533c-12.314-12.041-21.888-26.598-28.075-42.667  c-4.437-10.897-7.194-22.409-8.192-34.133c0-2.816,0-5.632,0-8.533c-0.034-17.715,3.9-35.209,11.52-51.2  c17.143-36.173,51.26-61.355,90.88-67.072c39.62,5.717,73.737,30.899,90.88,67.072C444.1,92.791,448.034,110.285,448,128z"/>
<g>
	<path style="fill:#8BC34A;" d="M328.533,85.333L328.533,85.333c9.429,0,17.067,7.637,17.067,17.067v51.2   c0,9.429-7.637,17.067-17.067,17.067l0,0c-9.429,0-17.067-7.637-17.067-17.067v-51.2C311.467,92.971,319.113,85.333,328.533,85.333   z"/>
	<path style="fill:#8BC34A;" d="M396.8,85.333L396.8,85.333c9.429,0,17.067,7.637,17.067,17.067v51.2   c0,9.429-7.637,17.067-17.067,17.067l0,0c-9.429,0-17.067-7.637-17.067-17.067v-51.2C379.733,92.971,387.379,85.333,396.8,85.333z"/>
</g>
<path d="M328.533,179.2c-14.14,0-25.6-11.46-25.6-25.6v-51.2c0-14.14,11.46-25.6,25.6-25.6s25.6,11.46,25.6,25.6v51.2  C354.133,167.74,342.673,179.2,328.533,179.2z M328.533,93.867c-4.71,0-8.533,3.823-8.533,8.533v51.2  c0,4.71,3.823,8.533,8.533,8.533s8.533-3.823,8.533-8.533v-51.2C337.067,97.69,333.244,93.867,328.533,93.867z"/>
<path d="M396.8,179.2c-14.14,0-25.6-11.46-25.6-25.6v-51.2c0-14.14,11.46-25.6,25.6-25.6s25.6,11.46,25.6,25.6v51.2  C422.4,167.74,410.94,179.2,396.8,179.2z M396.8,93.867c-4.71,0-8.533,3.823-8.533,8.533v51.2c0,4.71,3.823,8.533,8.533,8.533  s8.533-3.823,8.533-8.533v-51.2C405.333,97.69,401.51,93.867,396.8,93.867z"/>
<path style="fill:#37474F;" d="M285.867,219.392v249.941c0,18.85-15.283,34.133-34.133,34.133H64  c-18.85,0-34.133-15.283-34.133-34.133V128c0-18.85,15.283-34.133,34.133-34.133h184.149  C234.598,139.486,249.412,188.8,285.867,219.392z"/>
<path style="fill:#607D8B;" d="M251.733,219.392v249.941c0,18.85-15.283,34.133-34.133,34.133H64  c-18.85,0-34.133-15.283-34.133-34.133V128c0-18.85,15.283-34.133,34.133-34.133h150.016  C200.465,139.486,215.279,188.8,251.733,219.392z"/>
<path d="M251.733,512H64c-23.561,0-42.667-19.106-42.667-42.667V128c0-23.561,19.106-42.667,42.667-42.667h184.149  c4.71-0.205,8.687,3.447,8.892,8.158c0.043,0.964-0.077,1.929-0.358,2.85c-12.595,42.359,1.152,88.149,34.987,116.565  c1.954,1.621,3.072,4.036,3.072,6.571v249.856c0,23.561-19.098,42.667-42.667,42.667C251.964,512,251.844,512,251.733,512z   M64,102.4c-14.14,0-25.6,11.46-25.6,25.6v341.333c0,14.14,11.46,25.6,25.6,25.6l0,0h187.733c14.14,0,25.6-11.46,25.6-25.6l0,0  V223.317c-33.903-30.319-49.169-76.348-40.107-120.917H64z"/>
<g>
	<path style="fill:#6A1B9A;" d="M209.067,179.2c0,28.279-22.921,51.2-51.2,51.2c-5.82,0.017-11.597-0.998-17.067-2.987   c-26.624-9.515-40.499-38.818-30.985-65.442c5.163-14.447,16.538-25.822,30.985-30.985c5.47-1.988,11.247-3.004,17.067-2.987   C186.146,128,209.067,150.921,209.067,179.2z"/>
	<path style="fill:#6A1B9A;" d="M251.733,366.933c0,51.84-42.027,93.867-93.867,93.867S64,418.773,64,366.933   s42.027-93.867,93.867-93.867S251.733,315.093,251.733,366.933z"/>
</g>
<g>
	<path style="fill:#9D27B0;" d="M174.933,179.2c-0.026,21.675-13.696,40.986-34.133,48.213   c-26.624-9.515-40.499-38.818-30.985-65.442c5.163-14.447,16.538-25.822,30.985-30.985   C161.237,138.214,174.908,157.525,174.933,179.2z"/>
	<path style="fill:#9D27B0;" d="M217.6,366.933c0.017,45.269-32.282,84.096-76.8,92.331c-50.995-9.344-84.762-58.249-75.418-109.244   c7.031-38.366,37.052-68.395,75.418-75.418C185.318,282.837,217.617,321.664,217.6,366.933z"/>
</g>
<path d="M157.867,238.933c-32.99,0-59.733-26.743-59.733-59.733s26.743-59.733,59.733-59.733S217.6,146.21,217.6,179.2  S190.857,238.933,157.867,238.933z M157.867,136.533c-23.561,0-42.667,19.106-42.667,42.667s19.106,42.667,42.667,42.667  s42.667-19.106,42.667-42.667S181.436,136.533,157.867,136.533z"/>
<path d="M157.867,469.333c-56.55,0-102.4-45.85-102.4-102.4s45.85-102.4,102.4-102.4s102.4,45.85,102.4,102.4  S214.417,469.333,157.867,469.333z M157.867,281.6c-47.13,0-85.333,38.204-85.333,85.333s38.204,85.333,85.333,85.333  s85.333-38.204,85.333-85.333S204.996,281.6,157.867,281.6z"/>
<circle style="fill:#6A1B9A;" cx="157.867" cy="366.933" r="25.6"/>
<path d="M157.867,401.067c-18.85,0-34.133-15.283-34.133-34.133s15.283-34.133,34.133-34.133S192,348.083,192,366.933  S176.717,401.067,157.867,401.067z M157.867,349.867c-9.429,0-17.067,7.637-17.067,17.067S148.437,384,157.867,384  c9.429,0,17.067-7.637,17.067-17.067S167.296,349.867,157.867,349.867z"/>
<path d="M157.867,187.733c-2.27,0.017-4.446-0.879-6.059-2.475c-0.751-0.828-1.357-1.783-1.792-2.816  c-0.435-1.024-0.666-2.125-0.683-3.243c0.034-2.261,0.913-4.42,2.475-6.059c2.458-2.423,6.127-3.132,9.301-1.792  c1.033,0.435,1.988,1.041,2.816,1.792c1.562,1.638,2.441,3.797,2.475,6.059c0.017,2.27-0.879,4.446-2.475,6.059  C162.313,186.854,160.137,187.75,157.867,187.733z"/>
<path d="M362.667,256c-70.69,0-128-57.31-128-128s57.31-128,128-128s128,57.31,128,128S433.357,256,362.667,256z M362.667,17.067  c-61.269,0-110.933,49.664-110.933,110.933s49.664,110.933,110.933,110.933S473.6,189.269,473.6,128S423.936,17.067,362.667,17.067z  "/>
<g>
</g>
<g>
</g>
<g>
</g>
<g>
</g>
<g>
</g>
<g>
</g>
<g>
</g>
<g>
</g>
<g>
</g>
<g>
</g>
<g>
</g>
<g>
</g>
<g>
</g>
<g>
</g>
<g>
</g>
</svg>
