<?xml version="1.0" encoding="iso-8859-1"?>
<!-- Generator: Adobe Illustrator 19.0.0, SVG Export Plug-In . SVG Version: 6.00 Build 0)  -->
<svg xmlns="http://www.w3.org/2000/svg" xmlns:xlink="http://www.w3.org/1999/xlink" version="1.1" id="Layer_1" x="0px" y="0px" viewBox="0 0 512.005 512.005" style="enable-background:new 0 0 512.005 512.005;" xml:space="preserve">
<path style="fill:#F57C00;" d="M431.266,303.053L273.06,197.554l-12.367-8.529c-2.849-1.876-6.533-1.876-9.382,0l-12.367,8.529  L80.739,303.053c-2.405,1.586-3.855,4.281-3.838,7.164v12.452c0,4.708,3.821,8.529,8.529,8.529c4.708,0,8.529,3.821,8.529,8.529  v153.516c0,4.708,3.821,8.529,8.529,8.529h17.057c4.708,0,8.529-3.821,8.529-8.529V390.898c0-4.708,3.821-8.529,8.529-8.529h59.701  c4.708,0,8.529,3.821,8.529,8.529v102.344c0,4.708,3.821,8.529,8.529,8.529h196.159c4.708,0,8.529-3.821,8.529-8.529V339.726  c0-4.708,3.821-8.529,8.529-8.529s8.529-3.821,8.529-8.529v-12.452C435.113,307.335,433.671,304.64,431.266,303.053z"/>
<path style="fill:#FF9801;" d="M400.989,310.217v12.452c0,4.708-3.821,8.529-8.529,8.529s-8.529,3.821-8.529,8.529v153.516  c0,4.708-3.821,8.529-8.529,8.529H213.359c-4.708,0-8.529-3.821-8.529-8.529V390.898c0-4.708-3.821-8.529-8.529-8.529h-59.701  c-4.708,0-8.529,3.821-8.529,8.529v102.344c0,4.708-3.821,8.529-8.529,8.529h-17.057c-4.708,0-8.529-3.821-8.529-8.529V339.726  c0-4.708-3.821-8.529-8.529-8.529s-8.529-3.821-8.529-8.529v-12.452c-0.017-2.883,1.433-5.578,3.838-7.164l158.206-105.499  l158.206,105.499C399.557,304.64,400.998,307.335,400.989,310.217z"/>
<path style="fill:#2E7D32;" d="M375.403,128.216c0,65.943-53.458,119.401-119.401,119.401c-2.9,0-5.799,0-8.529,0  s-5.544-0.512-8.529-0.938c-2.985-0.426-6.055-0.938-8.529-1.62c-2.473-0.682-4.776-1.109-7.079-1.791l0,0l-3.582-1.109  c-2.004-0.597-3.966-1.305-5.885-2.132h-0.512c-2.644-1.023-5.288-2.132-7.932-3.411c-8.273-3.94-16.059-8.836-23.198-14.584  c-28.793-22.618-45.611-57.202-45.628-93.815c0.009-5.706,0.409-11.403,1.194-17.057c0.947-6.533,2.422-12.981,4.435-19.275  l1.279-3.753c0.452-1.706,0.998-3.386,1.62-5.032c0.597-1.45,1.194-2.985,1.876-4.35c0.682-1.629,1.45-3.224,2.303-4.776  c0.597-1.279,1.279-2.559,1.962-3.753c3.164-5.569,6.814-10.848,10.917-15.778l2.9-3.497c0.989-1.305,2.072-2.533,3.241-3.667  c1.023-1.194,2.132-2.303,3.241-3.411c1.109-1.109,2.217-2.217,3.411-3.241c8.495-7.983,18.157-14.627,28.656-19.701l4.776-2.217  c1.612-0.768,3.266-1.45,4.947-2.047l5.032-1.791c6.686-2.243,13.569-3.863,20.554-4.861l0,0c2.593-0.537,5.211-0.938,7.846-1.194  c0.452-0.085,0.913-0.085,1.365,0c2.644,0,5.202,0,7.846,0C321.946,8.815,375.403,62.273,375.403,128.216z"/>
<path style="fill:#4CAF50;" d="M341.289,128.216c-0.026,59.334-43.615,109.644-102.344,118.122c-2.985,0-6.055-0.938-8.529-1.62  s-4.776-1.109-7.079-1.791l0,0l-3.582-1.109c-2.004-0.597-3.966-1.305-5.885-2.132h-0.512c-2.644-1.023-5.288-2.132-7.932-3.411  c-8.256-3.838-16.042-8.614-23.198-14.243c-28.793-22.618-45.611-57.202-45.628-93.815c0.009-5.706,0.409-11.403,1.194-17.057  c0.947-6.533,2.422-12.981,4.435-19.275l1.279-3.753c0.452-1.706,0.998-3.386,1.62-5.032c0.597-1.45,1.194-2.985,1.876-4.35  c0.682-1.629,1.45-3.224,2.303-4.776c0.597-1.279,1.279-2.559,1.962-3.753c3.164-5.569,6.814-10.848,10.917-15.778l2.9-3.497  c0.989-1.305,2.072-2.533,3.241-3.667c1.023-1.194,2.132-2.303,3.241-3.411c1.109-1.109,2.217-2.217,3.411-3.241  c8.495-7.983,18.157-14.627,28.656-19.701l4.776-2.217c1.612-0.768,3.266-1.45,4.947-2.047l5.032-1.791  c6.686-2.243,13.569-3.863,20.554-4.861l0,0C297.699,18.495,341.297,68.857,341.289,128.216z"/>
<path style="fill:#FFB301;" d="M204.831,102.63h102.344c9.424,0,17.057,7.633,17.057,17.057v51.172  c0,9.424-7.633,17.057-17.057,17.057H204.831c-9.424,0-17.057-7.633-17.057-17.057v-51.172  C187.773,110.272,195.407,102.63,204.831,102.63z"/>
<path style="fill:#FEC108;" d="M204.831,102.63h68.229c9.424,0,17.057,7.633,17.057,17.057v51.172  c0,9.424-7.633,17.057-17.057,17.057h-68.229c-9.424,0-17.057-7.633-17.057-17.057v-51.172  C187.773,110.272,195.407,102.63,204.831,102.63z"/>
<path d="M409.518,512.005H213.359c-9.424,0-17.057-7.633-17.057-17.057V392.604h-59.701v102.344c0,9.424-7.633,17.057-17.057,17.057  h-17.057c-9.424,0-17.057-7.633-17.057-17.057V341.432c-9.424,0-17.057-7.633-17.057-17.057v-12.452  c-0.017-5.723,2.832-11.07,7.59-14.243l112.663-74.967c2.806-1.8,6.405-1.8,9.211,0c35.761,21.629,80.57,21.629,116.331,0  c2.806-1.8,6.405-1.8,9.211,0l112.578,74.967c4.793,3.156,7.676,8.503,7.676,14.243v12.452c0,9.424-7.633,17.057-17.057,17.057  v153.516C426.575,504.372,418.934,512.005,409.518,512.005L409.518,512.005z M136.602,375.547h59.701  c9.424,0,17.057,7.633,17.057,17.057v102.344h196.159V341.432c0-9.424,7.633-17.057,17.057-17.057v-12.452l0,0l-108.143-72.067  c-38.882,21.347-85.977,21.347-124.859,0L85.43,311.838v12.537c9.424,0,17.057,7.633,17.057,17.057v153.516h17.057V392.604  C119.544,383.188,127.177,375.547,136.602,375.547z"/>
<path d="M128.073,341.432c-2.269,0.017-4.443-0.878-6.055-2.473c-0.751-0.827-1.356-1.783-1.791-2.814  c-0.435-1.023-0.665-2.124-0.682-3.241c0-4.708,3.821-8.529,8.529-8.529s8.529,3.821,8.529,8.529  c0.017,2.269-0.878,4.443-2.473,6.055c-0.827,0.751-1.782,1.356-2.814,1.791C130.282,341.193,129.182,341.424,128.073,341.432z"/>
<path d="M366.875,341.432H153.659c-4.708,0-8.529-3.821-8.529-8.529s3.821-8.529,8.529-8.529h213.216  c4.708,0,8.529,3.821,8.529,8.529S371.583,341.432,366.875,341.432z"/>
<path d="M256.003,256.146c-23.744,0.034-47.027-6.584-67.206-19.104c-4.102-2.618-8.06-5.467-11.855-8.529  c-55.547-43.667-65.176-124.092-21.518-179.639s124.092-65.176,179.639-21.518s65.176,124.092,21.518,179.639  c-6.294,8-13.509,15.224-21.518,21.518c-3.787,3.062-7.744,5.91-11.855,8.529C303.029,249.57,279.746,256.188,256.003,256.146z   M256.003,17.344c-61.236,0.222-110.693,50.038-110.472,111.273c0.119,33.825,15.676,65.739,42.242,86.677  c3.301,2.601,6.746,5.023,10.32,7.249c39.445,24.119,89.713,21.228,126.139-7.249c48.093-37.901,56.349-107.614,18.447-155.707  C321.741,33.019,289.819,17.472,256.003,17.344z"/>
<path d="M307.174,196.445H204.831c-14.132,0-25.586-11.454-25.586-25.586v-51.172c0-14.132,11.454-25.586,25.586-25.586h102.344  c14.132,0,25.586,11.454,25.586,25.586v51.172C332.76,184.991,321.306,196.445,307.174,196.445z M204.831,111.159  c-4.708,0-8.529,3.821-8.529,8.529v51.172c0,4.708,3.821,8.529,8.529,8.529h102.344c4.708,0,8.529-3.821,8.529-8.529v-51.172  c0-4.708-3.821-8.529-8.529-8.529C307.174,111.159,204.831,111.159,204.831,111.159z"/>
<path d="M290.117,111.159h-68.229c-4.708,0-8.529-3.821-8.529-8.529V85.573c-0.009-23.548,19.07-42.652,42.626-42.66  c10.405-0.009,20.452,3.795,28.247,10.678c3.249,3.411,3.113,8.81-0.298,12.059c-2.977,2.832-7.548,3.139-10.874,0.733  c-10.533-9.424-26.703-8.52-36.127,2.013c-4.222,4.725-6.541,10.84-6.516,17.177v8.529h61.065c1.663,0.281,3.207,1.058,4.435,2.217  l0.682,0.682c2.635,3.164,2.635,7.753,0,10.917c-0.563,0.665-1.228,1.237-1.962,1.706  C293.307,110.562,291.738,111.09,290.117,111.159z"/>
<path d="M256.003,162.331c-4.708,0-8.529-3.821-8.529-8.529v-17.057c0-4.708,3.821-8.529,8.529-8.529  c4.708,0,8.529,3.821,8.529,8.529v17.057C264.531,158.518,260.71,162.331,256.003,162.331z"/>
<path d="M264.531,145.273h-17.057c-4.708,0-8.529-3.821-8.529-8.529s3.821-8.529,8.529-8.529h17.057  c4.708,0,8.529,3.821,8.529,8.529C273.06,141.461,269.239,145.273,264.531,145.273z"/>
<g>
</g>
<g>
</g>
<g>
</g>
<g>
</g>
<g>
</g>
<g>
</g>
<g>
</g>
<g>
</g>
<g>
</g>
<g>
</g>
<g>
</g>
<g>
</g>
<g>
</g>
<g>
</g>
<g>
</g>
</svg>
