<?xml version="1.0" encoding="iso-8859-1"?>
<!-- Generator: Adobe Illustrator 19.0.0, SVG Export Plug-In . SVG Version: 6.00 Build 0)  -->
<svg xmlns="http://www.w3.org/2000/svg" xmlns:xlink="http://www.w3.org/1999/xlink" version="1.1" id="Layer_1" x="0px" y="0px" viewBox="0 0 512.005 512.005" style="enable-background:new 0 0 512.005 512.005;" xml:space="preserve">
<path style="fill:#F57C00;" d="M431.266,303.053L273.06,197.554l-12.367-8.529c-2.849-1.876-6.533-1.876-9.382,0l-12.367,8.529  L80.739,303.053c-2.405,1.586-3.855,4.281-3.838,7.164v12.452c0,4.708,3.821,8.529,8.529,8.529c4.708,0,8.529,3.821,8.529,8.529  v153.516c0,4.708,3.821,8.529,8.529,8.529h17.057c4.708,0,8.529-3.821,8.529-8.529V390.898c0-4.708,3.821-8.529,8.529-8.529h59.701  c4.708,0,8.529,3.821,8.529,8.529v102.344c0,4.708,3.821,8.529,8.529,8.529h196.159c4.708,0,8.529-3.821,8.529-8.529V339.726  c0-4.708,3.821-8.529,8.529-8.529s8.529-3.821,8.529-8.529v-12.452C435.113,307.335,433.671,304.64,431.266,303.053z"/>
<path style="fill:#FF9801;" d="M400.989,310.217v12.452c0,4.708-3.821,8.529-8.529,8.529s-8.529,3.821-8.529,8.529v153.516  c0,4.708-3.821,8.529-8.529,8.529H213.359c-4.708,0-8.529-3.821-8.529-8.529V390.898c0-4.708-3.821-8.529-8.529-8.529h-59.701  c-4.708,0-8.529,3.821-8.529,8.529v102.344c0,4.708-3.821,8.529-8.529,8.529h-17.057c-4.708,0-8.529-3.821-8.529-8.529V339.726  c0-4.708-3.821-8.529-8.529-8.529s-8.529-3.821-8.529-8.529v-12.452c-0.017-2.883,1.433-5.578,3.838-7.164l158.206-105.499  l158.206,105.499C399.557,304.64,400.998,307.335,400.989,310.217z"/>
<path d="M409.518,512.005H213.359c-9.424,0-17.057-7.633-17.057-17.057V392.604h-59.701v102.344c0,9.424-7.633,17.057-17.057,17.057  h-17.057c-9.424,0-17.057-7.633-17.057-17.057V341.432c-9.424,0-17.057-7.633-17.057-17.057v-12.452  c-0.017-5.723,2.832-11.07,7.59-14.243l112.663-74.967c2.806-1.8,6.405-1.8,9.211,0c35.761,21.629,80.57,21.629,116.331,0  c2.806-1.8,6.405-1.8,9.211,0l112.578,74.967c4.793,3.156,7.676,8.503,7.676,14.243v12.452c0,9.424-7.633,17.057-17.057,17.057  v153.516C426.575,504.372,418.934,512.005,409.518,512.005L409.518,512.005z M136.602,375.547h59.701  c9.424,0,17.057,7.633,17.057,17.057v102.344h196.159V341.432c0-9.424,7.633-17.057,17.057-17.057v-12.452l0,0l-108.143-72.067  c-38.882,21.347-85.977,21.347-124.859,0L85.43,311.838v12.537c9.424,0,17.057,7.633,17.057,17.057v153.516h17.057V392.604  C119.544,383.188,127.177,375.547,136.602,375.547z"/>
<path d="M128.073,341.432c-4.708,0-8.529-3.821-8.529-8.529c0.034-2.26,0.913-4.418,2.473-6.055  c0.827-0.751,1.782-1.356,2.814-1.791c2.072-0.853,4.409-0.853,6.482,0c1.032,0.435,1.987,1.04,2.814,1.791  c1.561,1.638,2.439,3.795,2.473,6.055C136.602,337.62,132.781,341.432,128.073,341.432z"/>
<path d="M366.875,341.432H153.659c-4.708,0-8.529-3.821-8.529-8.529s3.821-8.529,8.529-8.529h213.216  c4.708,0,8.529,3.821,8.529,8.529S371.583,341.432,366.875,341.432z"/>
<path style="fill:#AD1457;" d="M375.403,128.216c-0.017,36.613-16.836,71.197-45.628,93.815c-3.548,2.789-7.249,5.382-11.087,7.761  c-18.814,11.693-40.537,17.868-62.686,17.825c-5.706-0.009-11.403-0.409-17.057-1.194c-16.221-2.473-31.761-8.281-45.628-17.057  c-3.838-2.379-7.539-4.972-11.087-7.761c-51.632-41.014-60.238-116.126-19.224-167.758c18.84-23.71,45.986-39.385,75.939-43.837  c5.654-0.785,11.352-1.185,17.057-1.194C321.946,8.815,375.403,62.273,375.403,128.216z"/>
<path style="fill:#E91E63;" d="M341.289,128.216c-0.017,36.613-16.836,71.197-45.628,93.815c-3.548,2.789-7.249,5.382-11.087,7.761  c-13.868,8.776-29.407,14.584-45.628,17.057c-16.221-2.473-31.761-8.281-45.628-17.057c-3.838-2.379-7.539-4.972-11.087-7.761  c-51.837-40.767-60.801-115.836-20.034-167.665c18.942-24.085,46.421-39.965,76.749-44.357  C297.699,18.495,341.297,68.857,341.289,128.216z"/>
<path d="M256.003,256.146c-23.744,0.034-47.027-6.584-67.206-19.104c-4.102-2.618-8.06-5.467-11.855-8.529  c-55.547-43.667-65.176-124.092-21.518-179.639s124.092-65.176,179.639-21.518s65.176,124.092,21.518,179.639  c-6.294,8-13.509,15.224-21.518,21.518c-3.787,3.062-7.744,5.91-11.855,8.529C303.029,249.57,279.746,256.188,256.003,256.146z   M256.003,17.344c-61.236,0.222-110.693,50.038-110.472,111.273c0.119,33.825,15.676,65.739,42.242,86.677  c3.301,2.601,6.746,5.023,10.32,7.249c39.445,24.119,89.713,21.228,126.139-7.249c48.093-37.901,56.349-107.614,18.447-155.707  C321.741,33.019,289.819,17.472,256.003,17.344z"/>
<path style="fill:#CFD8DC;" d="M322.185,114.144L322.185,114.144c-8.29-2.968-12.605-12.102-9.637-20.392  c0.179-0.486,0.375-0.972,0.597-1.441l0,0c3.77-7.966,0.367-17.467-7.599-21.236c-4.315-2.038-9.322-2.038-13.637,0  c-7.966,3.77-17.467,0.367-21.236-7.599c-0.222-0.469-0.418-0.955-0.597-1.441l0,0c-2.977-8.29-12.111-12.597-20.401-9.62  c-4.486,1.612-8.008,5.134-9.62,9.62l0,0c-2.968,8.29-12.102,12.605-20.392,9.637c-0.486-0.179-0.972-0.375-1.441-0.597  c-7.966-3.77-17.467-0.367-21.236,7.599c-2.038,4.315-2.038,9.322,0,13.637l2.388,5.117c2.942,5.799,0.623,12.878-5.168,15.821  c-1.936,0.981-4.094,1.407-6.26,1.237c-11.599,4.435-11.77,24.477,0,30.021c5.544-1.68,11.403,1.45,13.083,6.993  c0.751,2.482,0.554,5.151-0.546,7.505l-3.497,7.335c-3.77,7.966-0.367,17.467,7.599,21.236c4.315,2.038,9.322,2.038,13.637,0  c7.949-3.795,17.467-0.426,21.262,7.522c0.213,0.443,0.401,0.887,0.571,1.348c4.478,8.29,14.823,11.386,23.113,6.908  c2.925-1.578,5.33-3.983,6.908-6.908l0,0c2.968-8.29,12.102-12.605,20.392-9.637c0.486,0.179,0.972,0.375,1.441,0.597  c7.966,3.77,17.467,0.367,21.236-7.599c2.038-4.315,2.038-9.322,0-13.637l0,0c-3.77-7.966-0.367-17.467,7.599-21.236  c0.469-0.222,0.955-0.418,1.441-0.597c8.409-2.635,13.126-11.454,10.49-19.863C331.114,119.491,327.208,115.585,322.185,114.144z   M281.162,133.248c-2.772,13.859-16.247,22.84-30.106,20.076c-13.859-2.772-22.84-16.247-20.076-30.106  c2.021-10.132,9.944-18.047,20.076-20.076c13.859-2.772,27.334,6.217,30.106,20.076  C281.819,126.527,281.819,129.939,281.162,133.248z"/>
<path d="M255.15,213.502c-9.603,0.298-18.507-5.032-22.771-13.646c-0.648-2.277-2.277-4.153-4.435-5.117  c-1.902-0.861-4.068-0.861-5.97,0c-12.222,5.774-26.814,0.537-32.579-11.684c-3.096-6.559-3.121-14.14-0.085-20.725l3.497-7.335  c0.461-0.981,0.051-2.149-0.93-2.61c-0.426-0.205-0.913-0.247-1.373-0.119c-2.03,0.631-4.222,0.478-6.141-0.426  c-8.895-4.674-14.226-14.106-13.646-24.136c-0.094-9.424,5.544-17.961,14.243-21.577c1.168-0.435,2.422-0.614,3.667-0.512  c1.134,0.068,2.234-0.443,2.9-1.365c0.58-0.972,0.58-2.183,0-3.156l-2.388-5.117c-5.825-12.196-0.657-26.806,11.539-32.631  c6.712-3.207,14.516-3.181,21.211,0.051c3.701,1.748,8.128,0.171,9.876-3.531c0.102-0.213,0.188-0.426,0.273-0.648  c4.58-12.716,18.609-19.309,31.326-14.729c6.857,2.473,12.256,7.872,14.729,14.729l0,0c1.399,3.855,5.654,5.842,9.501,4.452  c0.222-0.077,0.435-0.171,0.648-0.273c12.23-5.765,26.814-0.529,32.579,11.701c3.121,6.61,3.121,14.268,0,20.878  c-1.748,3.701-0.171,8.128,3.531,9.876c0.213,0.102,0.426,0.188,0.648,0.273c12.716,4.58,19.309,18.61,14.729,31.326  c-2.473,6.857-7.872,12.256-14.729,14.729c-3.855,1.399-5.842,5.654-4.452,9.501c0.077,0.222,0.171,0.435,0.273,0.648  c5.765,12.23,0.529,26.814-11.701,32.579c-6.61,3.121-14.268,3.121-20.878,0c-3.701-1.748-8.128-0.171-9.876,3.531  c-0.102,0.213-0.188,0.426-0.273,0.648c-3.838,8.776-12.512,14.439-22.089,14.413L255.15,213.502L255.15,213.502z M225.044,177.085  c10.345,0.017,19.565,6.541,23.027,16.29c1.774,2.141,4.478,3.292,7.249,3.07c2.789,0.188,5.45-1.194,6.908-3.582  c2.456-6.149,7.326-11.019,13.475-13.475c6.396-2.661,13.62-2.473,19.872,0.512c3.727,1.706,8.128,0.068,9.834-3.659  c0.904-1.979,0.896-4.264-0.026-6.234c-5.782-12.222-0.554-26.814,11.667-32.588c0.733-0.341,1.475-0.657,2.235-0.93  c3.838-1.433,5.791-5.706,4.358-9.544c-0.751-2.013-2.337-3.599-4.358-4.358c-12.733-4.546-19.369-18.55-14.831-31.283  c0.273-0.759,0.58-1.51,0.93-2.235c1.68-3.736,0.009-8.128-3.727-9.808c-1.936-0.87-4.145-0.87-6.081,0  c-12.222,5.782-26.814,0.554-32.588-11.667c-0.341-0.733-0.657-1.475-0.93-2.235l0,0c-1.433-3.838-5.706-5.791-9.544-4.358  c-2.013,0.751-3.599,2.337-4.358,4.358c-4.546,12.733-18.55,19.369-31.283,14.831c-0.759-0.273-1.51-0.58-2.234-0.93  c-3.787-1.561-8.128,0.239-9.689,4.026c-0.708,1.706-0.751,3.616-0.119,5.356l2.388,5.032c4.785,10.141,0.435,22.234-9.706,27.019  c-2.311,1.092-4.802,1.731-7.352,1.893c-1.527,1.475-2.388,3.505-2.388,5.629c-0.171,2.465,0.588,4.895,2.132,6.823  c10.482-0.682,19.531,7.266,20.213,17.748c0.213,3.292-0.435,6.576-1.876,9.544l-3.497,7.335c-1.646,3.753,0.06,8.128,3.812,9.774  c1.945,0.853,4.153,0.836,6.081-0.051c3.284-1.535,6.866-2.328,10.49-2.303H225.044z"/>
<path d="M256.003,162.331c-18.84,0.06-34.166-15.164-34.225-34.004c-0.06-18.84,15.164-34.166,34.004-34.225  c18.84-0.06,34.166,15.164,34.225,34.004c0.009,2.269-0.213,4.537-0.657,6.763l0,0c-2.678,13.578-13.288,24.187-26.865,26.865  C260.344,162.134,258.177,162.339,256.003,162.331z M256.003,111.159c-1.134-0.102-2.277-0.102-3.411,0  c-9.177,2.124-14.891,11.292-12.767,20.469c2.124,9.177,11.292,14.891,20.469,12.767c6.345-1.467,11.292-6.422,12.767-12.767l0,0  c1.885-9.228-4.068-18.243-13.296-20.128C258.527,111.253,257.265,111.133,256.003,111.159z"/>
<g>
</g>
<g>
</g>
<g>
</g>
<g>
</g>
<g>
</g>
<g>
</g>
<g>
</g>
<g>
</g>
<g>
</g>
<g>
</g>
<g>
</g>
<g>
</g>
<g>
</g>
<g>
</g>
<g>
</g>
</svg>
