<?xml version="1.0" encoding="iso-8859-1"?>
<!-- Generator: Adobe Illustrator 19.0.0, SVG Export Plug-In . SVG Version: 6.00 Build 0)  -->
<svg xmlns="http://www.w3.org/2000/svg" xmlns:xlink="http://www.w3.org/1999/xlink" version="1.1" id="Layer_1" x="0px" y="0px" viewBox="0 0 512.001 512.001" style="enable-background:new 0 0 512.001 512.001;" xml:space="preserve">
<path style="fill:#00838F;" d="M416.63,172.136c-6.376-6.41-15.03-10.037-24.069-10.071c-6.009-0.009-11.906,1.613-17.07,4.694  h-0.768c-11.872,40.772-43.785,72.625-84.582,84.412c-11.096,3.201-22.592,4.814-34.14,4.78c-5.71-0.009-11.411-0.41-17.07-1.195  c-5.77-0.802-11.471-1.997-17.07-3.585c-40.661-11.71-72.548-43.332-84.582-83.899c-5.317-3.414-11.514-5.223-17.838-5.206  c-6.009-0.009-11.906,1.613-17.07,4.694c-10.524,6.077-17.027,17.292-17.07,29.446v273.121c0.043,12.154,6.546,23.369,17.07,29.446  c10.515,6.265,23.625,6.265,34.14,0c10.524-6.077,17.027-17.292,17.07-29.446c0.043,12.154,6.546,23.369,17.07,29.446  c10.515,6.265,23.625,6.265,34.14,0c10.524-6.077,17.027-17.292,17.07-29.446c0.043,12.154,6.546,23.369,17.07,29.446  c10.515,6.265,23.625,6.265,34.14,0c10.524-6.077,17.027-17.292,17.07-29.446c0.043,12.154,6.546,23.369,17.07,29.446  c10.515,6.265,23.625,6.265,34.14,0c10.524-6.077,17.027-17.292,17.07-29.446c0.043,12.154,6.546,23.369,17.07,29.446  c5.164,3.081,11.061,4.703,17.07,4.694c18.854,0,34.14-15.286,34.14-34.14V196.205C426.667,187.166,423.04,178.512,416.63,172.136z"/>
<path style="fill:#00BCD4;" d="M392.561,196.205v273.121c-0.043,12.154-6.546,23.369-17.07,29.446  c-10.524-6.077-17.027-17.292-17.07-29.446c-0.043,12.154-6.546,23.369-17.07,29.446c-10.515,6.265-23.625,6.265-34.14,0  c-10.524-6.077-17.027-17.292-17.07-29.446c-0.043,12.154-6.546,23.369-17.07,29.446c-10.515,6.265-23.625,6.265-34.14,0  c-10.524-6.077-17.027-17.292-17.07-29.446c-0.043,12.154-6.546,23.369-17.07,29.446c-10.515,6.265-23.625,6.265-34.14,0  c-10.524-6.077-17.027-17.292-17.07-29.446c-0.043,12.154-6.546,23.369-17.07,29.446c-10.515,6.265-23.625,6.265-34.14,0  c-10.524-6.077-17.027-17.292-17.07-29.446V196.205c0.043-12.154,6.546-23.369,17.07-29.446c5.164-3.081,11.061-4.703,17.07-4.694  c6.324-0.017,12.521,1.792,17.838,5.206c12.034,40.567,43.921,72.189,84.582,83.899c5.599,1.588,11.3,2.782,17.07,3.585  c5.659,0.785,11.36,1.186,17.07,1.195c11.548,0.034,23.045-1.579,34.14-4.78c40.687-11.71,72.582-43.375,84.582-83.985h0.768  c2.578,1.442,4.942,3.252,6.999,5.377C388.797,178.836,392.416,187.311,392.561,196.205z"/>
<path style="fill:#F57C00;" d="M375.491,132.192c0,2.987,0,5.889,0,8.535c-1.92,29.932-14.552,58.166-35.591,79.547  c-3.064,3.047-6.316,5.898-9.73,8.535c-3.551,2.876-7.255,5.556-11.096,8.023l-3.329,2.048  c-17.958,11.096-38.638,17.002-59.745,17.07c-5.718-0.009-11.428-0.461-17.07-1.366c-15.15-2.279-29.668-7.622-42.675-15.704  l-2.987-1.792c-3.841-2.467-7.545-5.147-11.096-8.023c-3.414-2.637-6.666-5.488-9.73-8.535  c-21.141-21.303-33.901-49.512-35.933-79.461c0-2.902,0-5.804,0-8.535c-0.043-18.291,3.892-36.376,11.522-53.003  c18.589-43.11,61.017-71.054,107.968-71.097c46.729,0.444,88.91,28.089,107.968,70.755  C371.599,95.816,375.534,113.901,375.491,132.192z"/>
<path style="fill:#FF9801;" d="M341.351,132.192c0,2.987,0,5.889,0,8.535c-1.92,29.932-14.552,58.166-35.591,79.547  c-3.064,3.047-6.316,5.898-9.73,8.535c-3.551,2.876-7.255,5.556-11.096,8.023l-3.329,2.048  c-13.033,7.963-27.551,13.195-42.675,15.363c-15.124-2.168-29.642-7.4-42.675-15.363l-2.987-1.792  c-3.841-2.467-7.545-5.147-11.096-8.023c-3.414-2.637-6.666-5.488-9.73-8.535c-21.141-21.303-33.901-49.512-35.933-79.461  c0-2.902,0-5.804,0-8.535c-0.043-18.291,3.892-36.376,11.522-53.003c16.558-37.136,50.749-63.39,90.898-69.817  c40.072,6.35,74.246,32.476,90.898,69.475C337.459,95.816,341.394,113.901,341.351,132.192z"/>
<circle style="fill:#FFEB3A;" cx="256.001" cy="136.46" r="34.14"/>
<path d="M119.44,512.001c-23.565,0-42.675-19.11-42.675-42.675V196.205c0-23.565,19.11-42.675,42.675-42.675  c7.955-0.009,15.747,2.27,22.447,6.572c1.733,1.11,3.004,2.808,3.585,4.78c3.38,11.394,8.501,22.191,15.192,32.006  c0.947,1.417,1.451,3.081,1.451,4.78v62.818c0,4.711-3.824,8.535-8.535,8.535c-4.711,0-8.535-3.824-8.535-8.535v-60.257  c-6.324-9.713-11.343-20.22-14.936-31.238c-3.329-1.605-6.973-2.424-10.669-2.39c-14.143,0-25.605,11.463-25.605,25.605v273.121  c0,14.143,11.463,25.605,25.605,25.605s25.605-11.463,25.605-25.605l0,0V298.625c0-4.711,3.824-8.535,8.535-8.535  c4.711,0,8.535,3.824,8.535,8.535v170.701C162.115,492.9,143.014,512.001,119.44,512.001z"/>
<path d="M187.72,512.001c-23.565,0-42.675-19.11-42.675-42.675V298.625c0-4.711,3.824-8.535,8.535-8.535  c4.711,0,8.535,3.824,8.535,8.535v170.701c0,14.143,11.463,25.605,25.605,25.605c14.143,0,25.605-11.463,25.605-25.605l0,0V341.301  c0-4.711,3.824-8.535,8.535-8.535c4.711,0,8.535,3.824,8.535,8.535v128.026C230.396,492.9,211.294,512.001,187.72,512.001z"/>
<path d="M221.861,307.16c-4.711,0-8.535-3.824-8.535-8.535v-41.224c-19.306-6.623-36.837-17.599-51.21-32.092v39.176  c0,4.711-3.824,8.535-8.535,8.535c-4.711,0-8.535-3.824-8.535-8.535v-62.818c-0.009-4.711,3.798-8.544,8.518-8.552  c2.851-0.009,5.514,1.408,7.101,3.772c15.167,22.311,37.665,38.613,63.586,46.089c3.764,1.092,6.299,4.617,6.145,8.535v47.113  C230.396,303.337,226.572,307.16,221.861,307.16z"/>
<path d="M256.001,512.001c-23.565,0-42.675-19.11-42.675-42.675V332.766c0-4.711,3.824-8.535,8.535-8.535  c4.711,0,8.535,3.824,8.535,8.535v136.561c0,14.143,11.463,25.605,25.605,25.605c14.143,0,25.605-11.463,25.605-25.605l0,0V332.766  c0-4.711,3.824-8.535,8.535-8.535c4.711,0,8.535,3.824,8.535,8.535v136.561C298.676,492.9,279.574,512.001,256.001,512.001z"/>
<path d="M290.141,307.16c-4.711,0-8.535-3.824-8.535-8.535V262.01c-16.908,3.303-34.302,3.303-51.21,0v28.08  c0,4.711-3.824,8.535-8.535,8.535c-4.711,0-8.535-3.824-8.535-8.535v-38.92c-0.179-4.711,3.499-8.672,8.211-8.851  c0.888-0.034,1.775,0.068,2.629,0.316c20.783,5.898,42.803,5.898,63.586,0c4.524-1.323,9.261,1.272,10.592,5.795  c0.256,0.888,0.376,1.818,0.333,2.74v47.455C298.676,303.337,294.852,307.16,290.141,307.16z"/>
<path d="M324.281,512.001c-23.565,0-42.675-19.11-42.675-42.675V332.766h17.07v136.561c0,14.143,11.463,25.605,25.605,25.605  s25.605-11.463,25.605-25.605l0,0V315.695h17.07v153.631C366.956,492.9,347.855,512.001,324.281,512.001z"/>
<path d="M290.141,307.16c-4.711,0-8.535-3.824-8.535-8.535v-47.455c-0.154-3.918,2.381-7.443,6.145-8.535  c25.921-7.477,48.419-23.779,63.586-46.089c2.629-3.909,7.929-4.95,11.847-2.322c2.364,1.588,3.781,4.25,3.772,7.101v63.159  c0,4.711-3.824,8.535-8.535,8.535s-8.535-3.824-8.535-8.535v-39.09c-14.373,14.493-31.904,25.469-51.21,32.092v41.139  C298.676,303.337,294.852,307.16,290.141,307.16L290.141,307.16z"/>
<path d="M392.561,512.001c-23.565,0-42.675-19.11-42.675-42.675V298.625c0-4.711,3.824-8.535,8.535-8.535s8.535,3.824,8.535,8.535  v170.701c0,14.143,11.463,25.605,25.605,25.605s25.605-11.463,25.605-25.605l0,0V196.205c0.026-6.768-2.68-13.263-7.511-18.009  c-7.562-7.579-19.033-9.653-28.763-5.206c-3.576,11.027-8.603,21.534-14.936,31.238v51.722c0,4.711-3.824,8.535-8.535,8.535  s-8.535-3.824-8.535-8.535v-54.283c0-1.698,0.504-3.363,1.451-4.78c6.854-9.815,12.128-20.646,15.619-32.092  c0.58-2.014,1.886-3.747,3.67-4.865c20.22-12.111,46.431-5.548,58.542,14.672c3.918,6.529,6.009,13.989,6.068,21.602v273.121  C435.237,492.9,416.135,512.001,392.561,512.001z"/>
<path d="M85.3,452.256H51.16c-4.711,0-8.535-3.824-8.535-8.535c0-4.711,3.824-8.535,8.535-8.535H85.3  c4.711,0,8.535,3.824,8.535,8.535C93.835,448.432,90.011,452.256,85.3,452.256z"/>
<path d="M443.772,452.256h-17.07c-4.711,0-8.535-3.824-8.535-8.535c0-4.711,3.824-8.535,8.535-8.535h17.07  c4.711,0,8.535-3.824,8.535-8.535v-17.07c0-4.711,3.824-8.535,8.535-8.535c4.711,0,8.535,3.824,8.535,8.535v17.07  C469.377,440.794,457.914,452.256,443.772,452.256z"/>
<path d="M256.001,264.485c-43.879,0.051-84.915-21.696-109.505-58.038c-7.554-11.309-13.315-23.719-17.07-36.786  C108.805,99.571,148.912,26.033,219.01,5.413s143.628,19.485,164.248,89.584c7.169,24.376,7.169,50.297,0,74.665  c-12.905,43.452-47.13,77.293-90.728,89.703C280.658,262.795,268.359,264.519,256.001,264.485z M256.001,16.969  c-63.637-0.043-115.257,51.509-115.3,115.146c-0.034,51.466,34.063,96.719,83.55,110.862c47.899,13.75,99.211-4.839,127.172-46.089  c6.819-9.824,12.06-20.646,15.534-32.092c17.958-61.102-17.01-125.183-78.113-143.15C278.183,18.514,267.122,16.935,256.001,16.969z  "/>
<path d="M256.001,179.135c-23.565,0-42.675-19.11-42.675-42.675s19.11-42.675,42.675-42.675s42.675,19.11,42.675,42.675  S279.574,179.135,256.001,179.135z M256.001,110.854c-14.143,0-25.605,11.463-25.605,25.605c0,14.143,11.463,25.605,25.605,25.605  c14.143,0,25.605-11.463,25.605-25.605S270.143,110.854,256.001,110.854z"/>
<path d="M256.001,110.854c-4.711,0-8.535-3.824-8.535-8.535V52.645c0-4.711,3.824-8.535,8.535-8.535  c4.711,0,8.535,3.824,8.535,8.535v49.674C264.536,107.031,260.712,110.854,256.001,110.854z"/>
<path d="M304.224,193.218c-2.27,0.017-4.447-0.879-6.06-2.475l-22.618-22.618c-3.064-3.576-2.646-8.97,0.93-12.034  c3.192-2.74,7.912-2.74,11.104,0l22.618,22.618c3.346,3.32,3.371,8.723,0.051,12.069c-1.613,1.63-3.815,2.535-6.111,2.526  L304.224,193.218z"/>
<g>
</g>
<g>
</g>
<g>
</g>
<g>
</g>
<g>
</g>
<g>
</g>
<g>
</g>
<g>
</g>
<g>
</g>
<g>
</g>
<g>
</g>
<g>
</g>
<g>
</g>
<g>
</g>
<g>
</g>
</svg>
