<?xml version="1.0" encoding="iso-8859-1"?>
<!-- Generator: Adobe Illustrator 19.0.0, SVG Export Plug-In . SVG Version: 6.00 Build 0)  -->
<svg xmlns="http://www.w3.org/2000/svg" xmlns:xlink="http://www.w3.org/1999/xlink" version="1.1" id="Layer_1" x="0px" y="0px" viewBox="0 0 512.001 512.001" style="enable-background:new 0 0 512.001 512.001;" xml:space="preserve">
<path style="fill:#00838F;" d="M416.63,172.136c-6.376-6.41-15.03-10.037-24.069-10.071c-6.009-0.009-11.906,1.613-17.07,4.694  h-0.768c-11.872,40.772-43.785,72.625-84.582,84.412c-11.096,3.201-22.592,4.814-34.14,4.78c-5.71-0.009-11.411-0.41-17.07-1.195  c-5.77-0.802-11.471-1.997-17.07-3.585c-40.661-11.71-72.548-43.332-84.582-83.899c-5.317-3.414-11.514-5.223-17.838-5.206  c-6.009-0.009-11.906,1.613-17.07,4.694c-10.524,6.077-17.027,17.292-17.07,29.446v273.121c0.043,12.154,6.546,23.369,17.07,29.446  c10.515,6.265,23.625,6.265,34.14,0c10.524-6.077,17.027-17.292,17.07-29.446c0.043,12.154,6.546,23.369,17.07,29.446  c10.515,6.265,23.625,6.265,34.14,0c10.524-6.077,17.027-17.292,17.07-29.446c0.043,12.154,6.546,23.369,17.07,29.446  c10.515,6.265,23.625,6.265,34.14,0c10.524-6.077,17.027-17.292,17.07-29.446c0.043,12.154,6.546,23.369,17.07,29.446  c10.515,6.265,23.625,6.265,34.14,0c10.524-6.077,17.027-17.292,17.07-29.446c0.043,12.154,6.546,23.369,17.07,29.446  c5.164,3.081,11.061,4.703,17.07,4.694c18.854,0,34.14-15.286,34.14-34.14V196.205C426.667,187.166,423.04,178.512,416.63,172.136z"/>
<path style="fill:#00BCD4;" d="M392.561,196.205v273.121c-0.043,12.154-6.546,23.369-17.07,29.446  c-10.524-6.077-17.027-17.292-17.07-29.446c-0.043,12.154-6.546,23.369-17.07,29.446c-10.515,6.265-23.625,6.265-34.14,0  c-10.524-6.077-17.027-17.292-17.07-29.446c-0.043,12.154-6.546,23.369-17.07,29.446c-10.515,6.265-23.625,6.265-34.14,0  c-10.524-6.077-17.027-17.292-17.07-29.446c-0.043,12.154-6.546,23.369-17.07,29.446c-10.515,6.265-23.625,6.265-34.14,0  c-10.524-6.077-17.027-17.292-17.07-29.446c-0.043,12.154-6.546,23.369-17.07,29.446c-10.515,6.265-23.625,6.265-34.14,0  c-10.524-6.077-17.027-17.292-17.07-29.446V196.205c0.043-12.154,6.546-23.369,17.07-29.446c5.164-3.081,11.061-4.703,17.07-4.694  c6.324-0.017,12.521,1.792,17.838,5.206c12.034,40.567,43.921,72.189,84.582,83.899c5.599,1.588,11.3,2.782,17.07,3.585  c5.659,0.785,11.36,1.186,17.07,1.195c11.548,0.034,23.045-1.579,34.14-4.78c40.687-11.71,72.582-43.375,84.582-83.985h0.768  c2.578,1.442,4.942,3.252,6.999,5.377C388.797,178.836,392.416,187.311,392.561,196.205z"/>
<path style="fill:#1566C0;" d="M375.491,132.192c0.154,33.065-12.76,64.841-35.932,88.423c-3.064,3.047-6.316,5.898-9.73,8.535  c-3.551,2.876-7.255,5.556-11.096,8.023l-2.987,1.707c-17.958,11.096-38.638,17.002-59.745,17.07  c-5.718-0.009-11.428-0.461-17.07-1.366c-15.15-2.279-29.668-7.622-42.675-15.704l-2.987-1.792  c-3.841-2.467-7.545-5.147-11.096-8.023c-3.414-2.637-6.666-5.488-9.73-8.535c-36.487-37.58-46.175-93.698-24.41-141.34  c18.692-42.974,61.102-70.773,107.968-70.755c46.729,0.444,88.91,28.089,107.968,70.755  C371.599,95.816,375.534,113.901,375.491,132.192z"/>
<path style="fill:#2296F3;" d="M341.351,132.192c0.154,33.065-12.76,64.841-35.933,88.423c-3.064,3.047-6.316,5.898-9.73,8.535  c-3.551,2.876-7.255,5.556-11.096,8.023l-2.987,1.707c-13.033,7.963-27.551,13.195-42.675,15.363  c-15.124-2.168-29.642-7.4-42.675-15.363l-2.987-1.792c-3.841-2.467-7.545-5.147-11.096-8.023c-3.414-2.637-6.666-5.488-9.73-8.535  c-36.487-37.58-46.175-93.698-24.41-141.34c16.652-36.999,50.826-63.125,90.898-69.475c40.072,6.35,74.246,32.476,90.898,69.475  C337.459,95.816,341.394,113.901,341.351,132.192z"/>
<path d="M119.44,512.001c-23.565,0-42.675-19.11-42.675-42.675V196.205c0-23.565,19.11-42.675,42.675-42.675  c7.955-0.009,15.747,2.27,22.447,6.572c1.733,1.11,3.004,2.808,3.585,4.78c3.38,11.394,8.501,22.191,15.192,32.006  c0.947,1.417,1.451,3.081,1.451,4.78v62.818c0,4.711-3.824,8.535-8.535,8.535c-4.711,0-8.535-3.824-8.535-8.535v-60.257  c-6.324-9.713-11.343-20.22-14.936-31.238c-3.329-1.605-6.973-2.424-10.669-2.39c-14.143,0-25.605,11.463-25.605,25.605v273.121  c0,14.143,11.463,25.605,25.605,25.605s25.605-11.463,25.605-25.605l0,0V298.625c0-4.711,3.824-8.535,8.535-8.535  c4.711,0,8.535,3.824,8.535,8.535v170.701C162.115,492.9,143.014,512.001,119.44,512.001z"/>
<path d="M187.72,512.001c-23.565,0-42.675-19.11-42.675-42.675V298.625c0-4.711,3.824-8.535,8.535-8.535  c4.711,0,8.535,3.824,8.535,8.535v170.701c0,14.143,11.463,25.605,25.605,25.605c14.143,0,25.605-11.463,25.605-25.605l0,0V341.301  c0-4.711,3.824-8.535,8.535-8.535c4.711,0,8.535,3.824,8.535,8.535v128.026C230.396,492.9,211.294,512.001,187.72,512.001z"/>
<path d="M221.861,307.16c-4.711,0-8.535-3.824-8.535-8.535v-41.224c-19.306-6.623-36.837-17.599-51.21-32.092v39.176  c0,4.711-3.824,8.535-8.535,8.535c-4.711,0-8.535-3.824-8.535-8.535v-62.818c-0.009-4.711,3.798-8.544,8.518-8.552  c2.851-0.009,5.514,1.408,7.101,3.772c15.167,22.311,37.665,38.613,63.586,46.089c3.764,1.092,6.299,4.617,6.145,8.535v47.113  C230.396,303.337,226.572,307.16,221.861,307.16z"/>
<path d="M256.001,512.001c-23.565,0-42.675-19.11-42.675-42.675V332.766c0-4.711,3.824-8.535,8.535-8.535  c4.711,0,8.535,3.824,8.535,8.535v136.561c0,14.143,11.463,25.605,25.605,25.605c14.143,0,25.605-11.463,25.605-25.605l0,0V332.766  c0-4.711,3.824-8.535,8.535-8.535c4.711,0,8.535,3.824,8.535,8.535v136.561C298.676,492.9,279.574,512.001,256.001,512.001z"/>
<path d="M290.141,307.16c-4.711,0-8.535-3.824-8.535-8.535V262.01c-16.908,3.303-34.302,3.303-51.21,0v28.08  c0,4.711-3.824,8.535-8.535,8.535c-4.711,0-8.535-3.824-8.535-8.535v-38.92c-0.179-4.711,3.499-8.672,8.211-8.851  c0.888-0.034,1.775,0.068,2.629,0.316c20.783,5.898,42.803,5.898,63.586,0c4.524-1.323,9.261,1.272,10.592,5.795  c0.256,0.888,0.376,1.818,0.333,2.74v47.455C298.676,303.337,294.852,307.16,290.141,307.16z"/>
<path d="M324.281,512.001c-23.565,0-42.675-19.11-42.675-42.675V332.766h17.07v136.561c0,14.143,11.463,25.605,25.605,25.605  s25.605-11.463,25.605-25.605l0,0V315.695h17.07v153.631C366.956,492.9,347.855,512.001,324.281,512.001z"/>
<path d="M290.141,307.16c-4.711,0-8.535-3.824-8.535-8.535v-47.455c-0.154-3.918,2.381-7.443,6.145-8.535  c25.921-7.477,48.419-23.779,63.586-46.089c2.629-3.909,7.929-4.95,11.847-2.322c2.364,1.588,3.781,4.25,3.772,7.101v63.159  c0,4.711-3.824,8.535-8.535,8.535s-8.535-3.824-8.535-8.535v-39.09c-14.373,14.493-31.904,25.469-51.21,32.092v41.139  C298.676,303.337,294.852,307.16,290.141,307.16L290.141,307.16z"/>
<path d="M392.561,512.001c-23.565,0-42.675-19.11-42.675-42.675V298.625c0-4.711,3.824-8.535,8.535-8.535s8.535,3.824,8.535,8.535  v170.701c0,14.143,11.463,25.605,25.605,25.605s25.605-11.463,25.605-25.605l0,0V196.205c0.026-6.768-2.68-13.263-7.511-18.009  c-7.562-7.579-19.033-9.653-28.763-5.206c-3.576,11.027-8.603,21.534-14.936,31.238v51.722c0,4.711-3.824,8.535-8.535,8.535  s-8.535-3.824-8.535-8.535v-54.283c0-1.698,0.504-3.363,1.451-4.78c6.854-9.815,12.128-20.646,15.619-32.092  c0.58-2.014,1.886-3.747,3.67-4.865c20.22-12.111,46.431-5.548,58.542,14.672c3.918,6.529,6.009,13.989,6.068,21.602v273.121  C435.237,492.9,416.135,512.001,392.561,512.001z"/>
<path d="M85.3,452.256H51.16c-4.711,0-8.535-3.824-8.535-8.535c0-4.711,3.824-8.535,8.535-8.535H85.3  c4.711,0,8.535,3.824,8.535,8.535C93.835,448.432,90.011,452.256,85.3,452.256z"/>
<path d="M443.772,452.256h-17.07c-4.711,0-8.535-3.824-8.535-8.535c0-4.711,3.824-8.535,8.535-8.535h17.07  c4.711,0,8.535-3.824,8.535-8.535v-17.07c0-4.711,3.824-8.535,8.535-8.535c4.711,0,8.535,3.824,8.535,8.535v17.07  C469.377,440.794,457.914,452.256,443.772,452.256z"/>
<path d="M256.001,264.485c-43.879,0.051-84.915-21.696-109.505-58.038c-7.554-11.309-13.315-23.719-17.07-36.786  C108.805,99.571,148.912,26.033,219.01,5.413s143.628,19.485,164.248,89.584c7.169,24.376,7.169,50.297,0,74.665  c-12.905,43.452-47.13,77.293-90.728,89.703C280.658,262.795,268.359,264.519,256.001,264.485z M256.001,16.969  c-63.637-0.043-115.257,51.509-115.3,115.146c-0.034,51.466,34.063,96.719,83.55,110.862c47.899,13.75,99.211-4.839,127.172-46.089  c6.819-9.824,12.06-20.646,15.534-32.092c17.958-61.102-17.01-125.183-78.113-143.15C278.183,18.514,267.122,16.935,256.001,16.969z  "/>
<path d="M256.001,226.078c-4.711,0-8.535-3.824-8.535-8.535V42.574c0-4.711,3.824-8.535,8.535-8.535  c4.711,0,8.535,3.824,8.535,8.535v174.968C264.536,222.254,260.712,226.078,256.001,226.078z"/>
<path d="M256.001,77.397c-1.698,0-3.363-0.504-4.78-1.451l-25.605-17.07c-4.029-2.637-5.155-8.049-2.518-12.077  c2.637-4.029,8.049-5.155,12.077-2.518l25.605,17.07c4.165,2.202,5.761,7.366,3.568,11.531  C262.735,75.938,259.44,77.721,256.001,77.397z"/>
<path d="M256.001,77.397c-4.711,0.06-8.578-3.713-8.637-8.433c-0.034-2.876,1.383-5.582,3.772-7.187l25.605-17.07  c3.858-2.714,9.184-1.784,11.889,2.074c2.714,3.858,1.784,9.184-2.074,11.889c-0.06,0.043-0.111,0.077-0.171,0.119l-25.605,17.07  C259.381,76.842,257.716,77.38,256.001,77.397z"/>
<path d="M230.396,217.286c-4.711,0.06-8.578-3.713-8.637-8.433c-0.034-2.876,1.383-5.582,3.772-7.187l25.605-17.07  c3.858-2.714,9.184-1.784,11.889,2.074c2.714,3.858,1.784,9.184-2.074,11.889c-0.06,0.043-0.111,0.077-0.171,0.119l-25.605,17.07  C233.775,216.732,232.111,217.269,230.396,217.286z"/>
<path d="M281.606,217.286c-1.698,0-3.363-0.504-4.78-1.451l-25.605-17.07c-3.918-2.612-4.984-7.912-2.364-11.838  c2.612-3.918,7.912-4.984,11.838-2.364c0.06,0.043,0.119,0.077,0.171,0.119l25.605,17.07c3.866,2.697,4.814,8.014,2.117,11.881  C286.991,215.921,284.388,217.278,281.606,217.286z"/>
<path d="M341.351,138.593H170.65c-4.711,0-8.535-3.824-8.535-8.535c0-4.711,3.824-8.535,8.535-8.535h170.701  c4.711,0,8.535,3.824,8.535,8.535C349.886,134.77,346.062,138.593,341.351,138.593z"/>
<path d="M179.185,166.332c-4.711-0.026-8.518-3.866-8.492-8.578c0.009-1.656,0.495-3.269,1.408-4.652l17.07-25.605  c2.834-3.764,8.185-4.524,11.949-1.69c3.474,2.612,4.43,7.425,2.219,11.164l-17.07,25.605  C184.682,164.932,182.027,166.341,179.185,166.332z"/>
<path d="M196.255,140.727c-2.859-0.017-5.514-1.459-7.084-3.841l-17.07-25.605c-2.834-3.764-2.074-9.115,1.69-11.949  c3.764-2.834,9.115-2.074,11.949,1.69c0.188,0.256,0.367,0.512,0.529,0.785l17.07,25.605c2.637,3.909,1.613,9.209-2.287,11.847  C199.635,140.224,197.962,140.727,196.255,140.727z"/>
<path d="M332.816,166.332c-2.859-0.017-5.514-1.459-7.084-3.841l-17.07-25.605c-2.834-3.764-2.074-9.115,1.69-11.949  c3.764-2.834,9.115-2.074,11.949,1.69c0.188,0.256,0.367,0.512,0.529,0.785l17.07,25.605c2.637,3.909,1.613,9.209-2.287,11.847  C336.196,165.829,334.523,166.332,332.816,166.332z"/>
<path d="M315.746,140.727c-4.711-0.026-8.518-3.866-8.492-8.578c0.009-1.656,0.495-3.269,1.408-4.652l17.07-25.605  c2.834-3.764,8.185-4.524,11.949-1.69c3.474,2.612,4.43,7.425,2.219,11.164l-17.07,25.605  C321.243,139.327,318.588,140.736,315.746,140.727z"/>
<path d="M298.676,182.378c-2.313,0.017-4.532-0.913-6.145-2.561l-85.35-87.484c-3.303-3.371-3.243-8.774,0.128-12.077  c3.371-3.303,8.774-3.243,12.077,0.128l85.35,87.484c3.303,3.363,3.243,8.774-0.119,12.069c-1.605,1.579-3.772,2.45-6.026,2.441  H298.676z"/>
<path d="M213.325,182.378c-4.711,0.026-8.561-3.772-8.586-8.484c-0.017-2.253,0.862-4.421,2.441-6.026l85.35-87.484  c3.303-3.371,8.706-3.431,12.077-0.128c3.371,3.303,3.431,8.706,0.128,12.077l-85.35,87.484  C217.789,181.448,215.604,182.37,213.325,182.378z"/>
<g>
</g>
<g>
</g>
<g>
</g>
<g>
</g>
<g>
</g>
<g>
</g>
<g>
</g>
<g>
</g>
<g>
</g>
<g>
</g>
<g>
</g>
<g>
</g>
<g>
</g>
<g>
</g>
<g>
</g>
</svg>
