<?xml version="1.0" encoding="iso-8859-1"?>
<!-- Generator: Adobe Illustrator 19.0.0, SVG Export Plug-In . SVG Version: 6.00 Build 0)  -->
<svg xmlns="http://www.w3.org/2000/svg" xmlns:xlink="http://www.w3.org/1999/xlink" version="1.1" id="Layer_1" x="0px" y="0px" viewBox="0 0 512.003 512.003" style="enable-background:new 0 0 512.003 512.003;" xml:space="preserve">
<path style="fill:#FFB301;" d="M416.652,172.089c-6.377-6.411-15.032-10.039-24.072-10.073c-6.009-0.009-11.908,1.613-17.072,4.695  h-0.768c-11.874,40.777-43.791,72.634-84.594,84.423c-11.097,3.201-22.595,4.814-34.145,4.78c-5.711-0.009-11.413-0.41-17.072-1.195  c-5.77-0.802-11.473-1.997-17.072-3.585c-40.666-11.712-72.558-43.338-84.594-83.911c-5.318-3.414-11.515-5.224-17.841-5.207  c-6.009-0.009-11.908,1.613-17.072,4.695c-10.525,6.078-17.03,17.294-17.072,29.45v273.158c0.043,12.156,6.547,23.372,17.072,29.45  c10.517,6.266,23.628,6.266,34.145,0c10.525-6.078,17.03-17.294,17.072-29.45c0.043,12.156,6.547,23.372,17.072,29.45  c10.517,6.266,23.628,6.266,34.145,0c10.525-6.078,17.03-17.294,17.072-29.45c0.043,12.156,6.547,23.372,17.072,29.45  c10.517,6.266,23.628,6.266,34.145,0c10.525-6.078,17.03-17.294,17.072-29.45c0.043,12.156,6.547,23.372,17.072,29.45  c10.517,6.266,23.628,6.266,34.145,0c10.525-6.078,17.03-17.294,17.072-29.45c0.043,12.156,6.547,23.372,17.072,29.45  c5.164,3.082,11.063,4.703,17.072,4.695c18.856,0,34.145-15.288,34.145-34.145V196.161  C426.691,187.122,423.063,178.466,416.652,172.089z"/>
<path style="fill:#FEC108;" d="M392.58,196.161v273.158c-0.043,12.156-6.547,23.372-17.072,29.45  c-10.525-6.078-17.03-17.294-17.072-29.45c-0.043,12.156-6.547,23.372-17.072,29.45c-10.517,6.266-23.628,6.266-34.145,0  c-10.525-6.078-17.03-17.294-17.072-29.45c-0.043,12.156-6.547,23.372-17.072,29.45c-10.517,6.266-23.628,6.266-34.145,0  c-10.525-6.078-17.03-17.294-17.072-29.45c-0.043,12.156-6.547,23.372-17.072,29.45c-10.517,6.266-23.628,6.266-34.145,0  c-10.525-6.078-17.03-17.294-17.072-29.45c-0.043,12.156-6.547,23.372-17.072,29.45c-10.517,6.266-23.628,6.266-34.145,0  c-10.525-6.078-17.03-17.294-17.072-29.45V196.161c0.043-12.156,6.547-23.372,17.072-29.45c5.164-3.082,11.063-4.703,17.072-4.695  c6.325-0.017,12.523,1.793,17.841,5.207c12.036,40.572,43.927,72.199,84.594,83.911c5.6,1.588,11.302,2.783,17.072,3.585  c5.659,0.785,11.362,1.187,17.072,1.195c11.549,0.034,23.048-1.579,34.145-4.78c40.692-11.712,72.592-43.381,84.594-83.996h0.768  c2.578,1.443,4.942,3.252,7,5.378C388.816,178.782,392.435,187.267,392.58,196.161z"/>
<path style="fill:#FDD834;" d="M375.508,127.872c0,25.421-8.101,50.176-23.133,70.68c-6.436,8.715-14.016,16.526-22.535,23.218  c-3.551,2.791-7.256,5.386-11.097,7.768c-18.831,11.703-40.572,17.883-62.741,17.841c-5.711-0.009-11.413-0.41-17.072-1.195  c-16.236-2.476-31.789-8.289-45.669-17.072c-3.841-2.382-7.546-4.977-11.097-7.768c-8.519-6.692-16.099-14.503-22.536-23.218  c-38.84-53.368-27.06-128.111,26.309-166.951c15.655-11.387,33.837-18.814,52.993-21.614c5.659-0.785,11.362-1.187,17.072-1.195  C322.003,8.365,375.508,61.87,375.508,127.872z"/>
<path style="fill:#FFEB3A;" d="M341.363,127.872c0,25.421-8.101,50.176-23.133,70.68c-6.436,8.715-14.016,16.526-22.535,23.218  c-3.551,2.791-7.256,5.386-11.097,7.768c-13.88,8.784-29.433,14.597-45.669,17.072c-16.236-2.476-31.789-8.289-45.669-17.072  c-3.841-2.382-7.546-4.977-11.097-7.768c-8.519-6.692-16.099-14.503-22.536-23.218c-39.053-53.206-27.572-128,25.643-167.053  c15.818-11.609,34.247-19.138,53.658-21.938C297.735,18.045,341.38,68.452,341.363,127.872z"/>
<path style="fill:#F57C00;" d="M295.695,127.872c-3.355-6.069-7.683-11.549-12.804-16.219c-11.336-11.31-17.695-26.667-17.67-42.681  v-2.39c0.222-5.267,1.11-10.491,2.646-15.536c-9.211,5.053-16.919,12.446-22.365,21.426c-1.972,3.116-3.602,6.436-4.866,9.902  c-2.535,6.709-3.867,13.82-3.927,20.999c-0.043,0.171-0.043,0.341,0,0.512c0.026,11.831,3.491,23.398,9.987,33.291  c-10.704-6.248-17.661-17.346-18.609-29.706c-5.856,3.423-10.901,8.084-14.768,13.658c-1.016,1.263-1.869,2.638-2.561,4.097  c-3.986,7.051-6.052,15.032-5.975,23.133c-0.009,17.533,9.595,33.658,25.011,41.998l0,0c23.159,12.582,52.13,4.012,64.713-19.147  c1.204-2.211,2.228-4.516,3.065-6.889c1.793-5.13,2.715-10.525,2.732-15.963C300.296,141.274,298.716,134.283,295.695,127.872z"/>
<path style="fill:#FF9801;" d="M272.647,142.81c-0.026,5.403-0.948,10.773-2.732,15.877c-6.138,17.38-21.707,29.697-40.035,31.669  l0,0c-15.45-8.323-25.088-24.448-25.096-41.998c-0.051-8.109,2.04-16.091,6.061-23.133c0.691-1.46,1.545-2.834,2.561-4.097  c3.816-5.557,8.801-10.218,14.597-13.658c0.948,12.36,7.904,23.457,18.609,29.706c-6.496-9.893-9.962-21.46-9.987-33.291  c-0.043-0.171-0.043-0.341,0-0.512c0.06-7.179,1.391-14.29,3.927-20.999c2.936,8.852,7.913,16.893,14.512,23.474l0,0  c5.147,4.652,9.475,10.132,12.804,16.219C271.008,128.529,272.638,135.623,272.647,142.81z"/>
<path id="SVGCleanerId_0" d="M153.567,272.987c-4.712,0-8.536-3.824-8.536-8.536v-62.826c0-4.712,3.824-8.536,8.536-8.536  c4.712,0,8.536,3.824,8.536,8.536v62.826C162.103,269.163,158.279,272.987,153.567,272.987z"/>
<path id="SVGCleanerId_1" d="M153.567,477.855c-4.712,0-8.536-3.824-8.536-8.536V298.596c0-4.712,3.824-8.536,8.536-8.536  c4.712,0,8.536,3.824,8.536,8.536v170.724C162.103,474.031,158.279,477.855,153.567,477.855z"/>
<g>
	<path id="SVGCleanerId_1_1_" d="M153.567,477.855c-4.712,0-8.536-3.824-8.536-8.536V298.596c0-4.712,3.824-8.536,8.536-8.536   c4.712,0,8.536,3.824,8.536,8.536v170.724C162.103,474.031,158.279,477.855,153.567,477.855z"/>
</g>
<path d="M221.857,477.855c-4.712,0-8.536-3.824-8.536-8.536V341.276c0-4.712,3.824-8.536,8.536-8.536  c4.712,0,8.536,3.824,8.536,8.536v128.043C230.393,474.031,226.569,477.855,221.857,477.855z"/>
<path d="M221.857,307.132c-4.712,0-8.536-3.824-8.536-8.536v-47.461c0-4.712,3.824-8.536,8.536-8.536  c4.712,0,8.536,3.824,8.536,8.536v47.461C230.393,303.307,226.569,307.132,221.857,307.132z"/>
<g>
	<path id="SVGCleanerId_0_1_" d="M153.567,272.987c-4.712,0-8.536-3.824-8.536-8.536v-62.826c0-4.712,3.824-8.536,8.536-8.536   c4.712,0,8.536,3.824,8.536,8.536v62.826C162.103,269.163,158.279,272.987,153.567,272.987z"/>
</g>
<path d="M221.857,477.855c-4.712,0-8.536-3.824-8.536-8.536V332.74c0-4.712,3.824-8.536,8.536-8.536  c4.712,0,8.536,3.824,8.536,8.536v136.579C230.393,474.031,226.569,477.855,221.857,477.855z"/>
<path d="M290.146,477.855c-4.712,0-8.536-3.824-8.536-8.536V332.74c0-4.712,3.824-8.536,8.536-8.536  c4.712,0,8.536,3.824,8.536,8.536v136.579C298.682,474.031,294.858,477.855,290.146,477.855z"/>
<path id="SVGCleanerId_2" d="M290.146,307.132c-4.712,0-8.536-3.824-8.536-8.536v-47.461c0-4.712,3.824-8.536,8.536-8.536  c4.712,0,8.536,3.824,8.536,8.536v47.461C298.682,303.307,294.858,307.132,290.146,307.132z"/>
<path d="M221.857,298.596c-4.712,0-8.536-3.824-8.536-8.536v-38.925c0-4.712,3.824-8.536,8.536-8.536  c4.712,0,8.536,3.824,8.536,8.536v38.925C230.393,294.771,226.569,298.596,221.857,298.596z"/>
<rect x="281.61" y="332.74" width="17.072" height="136.579"/>
<rect x="349.899" y="315.668" width="17.072" height="153.651"/>
<path d="M358.435,272.987c-4.712,0-8.536-3.824-8.536-8.536v-62.826c0-4.712,3.824-8.536,8.536-8.536  c4.712,0,8.536,3.824,8.536,8.536v62.826C366.972,269.163,363.147,272.987,358.435,272.987z"/>
<g>
	<path id="SVGCleanerId_2_1_" d="M290.146,307.132c-4.712,0-8.536-3.824-8.536-8.536v-47.461c0-4.712,3.824-8.536,8.536-8.536   c4.712,0,8.536,3.824,8.536,8.536v47.461C298.682,303.307,294.858,307.132,290.146,307.132z"/>
</g>
<path d="M392.58,512c-13.436,0-26.087-6.325-34.145-17.072c-14.144,18.856-40.897,22.681-59.753,8.536  c-3.235-2.424-6.112-5.301-8.536-8.536c-14.144,18.856-40.897,22.681-59.753,8.536c-3.235-2.424-6.112-5.301-8.536-8.536  c-14.144,18.856-40.897,22.681-59.753,8.536c-3.235-2.424-6.112-5.301-8.536-8.536c-14.144,18.856-40.897,22.681-59.753,8.536  c-10.747-8.058-17.072-20.709-17.072-34.145V196.161c0-23.568,19.113-42.681,42.681-42.681c7.956-0.009,15.749,2.271,22.45,6.573  c1.733,1.11,3.005,2.808,3.585,4.78c11.234,37.764,40.931,67.197,78.789,78.106c47.905,13.752,99.225-4.84,127.189-46.095  c6.82-9.825,12.062-20.649,15.536-32.096c0.58-2.015,1.887-3.747,3.671-4.866c20.222-12.113,46.437-5.549,58.55,14.674  c3.918,6.53,6.009,13.991,6.069,21.605v273.158C435.261,492.888,416.157,512,392.58,512z M366.972,469.319  c0,14.144,11.464,25.609,25.609,25.609c14.144,0,25.609-11.464,25.609-25.609l0,0V196.161c0.026-6.769-2.68-13.265-7.512-18.011  c-7.563-7.58-19.036-9.654-28.767-5.207c-3.85,11.874-9.364,23.142-16.389,33.462c-41.085,60.487-123.425,76.211-183.912,35.126  c-24.311-16.509-42.433-40.641-51.516-68.588c-3.329-1.605-6.974-2.424-10.67-2.39c-14.144,0-25.609,11.464-25.609,25.609v273.158  c0,14.144,11.464,25.609,25.609,25.609s25.609-11.464,25.609-25.609l0,0c0-4.712,3.824-8.536,8.536-8.536  c4.712,0,8.536,3.824,8.536,8.536c0,14.144,11.464,25.609,25.609,25.609c14.144,0,25.609-11.464,25.609-25.609l0,0  c0-4.712,3.824-8.536,8.536-8.536c4.712,0,8.536,3.824,8.536,8.536c0,14.144,11.464,25.609,25.609,25.609  c14.144,0,25.609-11.464,25.609-25.609l0,0c0-4.712,3.824-8.536,8.536-8.536c4.712,0,8.536,3.824,8.536,8.536  c0,14.144,11.464,25.609,25.609,25.609c14.144,0,25.609-11.464,25.609-25.609l0,0c0-4.712,3.824-8.536,8.536-8.536  C363.147,460.783,366.972,464.607,366.972,469.319z"/>
<path d="M358.435,477.855c-4.712,0-8.536-3.824-8.536-8.536V298.596c0-4.712,3.824-8.536,8.536-8.536  c4.712,0,8.536,3.824,8.536,8.536v170.724C366.972,474.031,363.147,477.855,358.435,477.855z"/>
<path d="M358.435,264.451c-4.712,0-8.536-3.824-8.536-8.536v-54.29c0-4.712,3.824-8.536,8.536-8.536  c4.712,0,8.536,3.824,8.536,8.536v54.29C366.972,260.627,363.147,264.451,358.435,264.451z"/>
<path d="M85.278,452.247H51.133c-4.712,0-8.536-3.824-8.536-8.536c0-4.712,3.824-8.536,8.536-8.536h34.145  c4.712,0,8.536,3.824,8.536,8.536C93.814,448.423,89.99,452.247,85.278,452.247z"/>
<path d="M443.797,452.247h-17.072c-4.712,0-8.536-3.824-8.536-8.536c0-4.712,3.824-8.536,8.536-8.536h17.072  c4.712,0,8.536-3.824,8.536-8.536v-17.072c0-4.712,3.824-8.536,8.536-8.536c4.712,0,8.536,3.824,8.536,8.536v17.072  C469.406,440.783,457.942,452.247,443.797,452.247z"/>
<path d="M252.587,204.698c-31.114-0.051-56.296-25.318-56.245-56.433c0.034-19.702,10.354-37.952,27.222-48.136  c1.4-0.888,3.039-1.306,4.695-1.195c1.69-23.244,15.024-44.055,35.425-55.314c4.123-2.288,9.322-0.794,11.601,3.329  c1.127,2.032,1.374,4.439,0.691,6.658c-1.315,4.319-2.066,8.801-2.219,13.316v1.878c-0.06,13.752,5.42,26.949,15.194,36.62  c5.83,5.344,10.704,11.635,14.426,18.609c6.445,13.496,7.273,28.997,2.305,43.108C297.709,189.623,276.445,204.663,252.587,204.698z   M223.052,122.58c-14.238,16.355-12.523,41.161,3.841,55.4c7.128,6.206,16.253,9.629,25.694,9.646  c21.639,0.051,39.215-17.456,39.266-39.096c0-0.06,0-0.111,0-0.171c0.034-5.907-1.28-11.746-3.841-17.072  c-2.911-5.216-6.658-9.911-11.097-13.914c-12.352-12.266-19.565-28.784-20.145-46.181c-1.426,1.793-2.74,3.671-3.927,5.634  c-10.423,17.166-10.021,38.797,1.024,55.571c3.466,3.21,3.679,8.613,0.469,12.079c-3.21,3.466-8.613,3.679-12.079,0.469  c-8.69-5.164-15.459-13.009-19.292-22.365H223.052z"/>
<path d="M256.001,264.451c-43.885,0.051-84.926-21.699-109.519-58.046c-7.555-11.31-13.316-23.722-17.072-36.791  C108.735,99.523,148.787,25.95,218.877,5.275c2.928-0.862,5.89-1.63,8.869-2.288c3.158-0.683,6.317-1.28,9.646-1.793h0.512  c2.988-0.427,5.975-0.768,8.963-0.939c5.233-0.341,10.474-0.341,15.707,0l9.304,0.768l5.463,0.512  c3.244,0.512,6.402,1.195,9.475,1.963c59.634,14.059,101.7,67.376,101.495,128.64c-0.009,12.659-1.818,25.241-5.378,37.388  c-12.813,43.406-46.906,77.278-90.398,89.801C280.662,262.761,268.362,264.485,256.001,264.451z M240.38,18.011h-0.512  c-2.817,0-5.719,0.939-8.536,1.537c-62.169,13.641-101.504,75.093-87.863,137.253c9.065,41.324,40.043,74.35,80.692,86.053  c47.905,13.752,99.225-4.84,127.189-46.095c6.846-9.791,12.113-20.589,15.621-32.011c3.107-10.593,4.686-21.571,4.695-32.608  c0.094-53.505-36.808-99.976-88.947-111.995c-2.732-0.683-5.463-1.28-8.536-1.707l-4.353-0.598l-8.536-0.768  c-4.49-0.273-8.997-0.273-13.487,0c-2.732,0-5.207,0-7.683,0.768L240.38,18.011z"/>
<g>
</g>
<g>
</g>
<g>
</g>
<g>
</g>
<g>
</g>
<g>
</g>
<g>
</g>
<g>
</g>
<g>
</g>
<g>
</g>
<g>
</g>
<g>
</g>
<g>
</g>
<g>
</g>
<g>
</g>
</svg>
