<?xml version="1.0" encoding="iso-8859-1"?>
<!-- Generator: Adobe Illustrator 19.0.0, SVG Export Plug-In . SVG Version: 6.00 Build 0)  -->
<svg xmlns="http://www.w3.org/2000/svg" xmlns:xlink="http://www.w3.org/1999/xlink" version="1.1" id="Layer_1" x="0px" y="0px" viewBox="0 0 511.999 511.999" style="enable-background:new 0 0 511.999 511.999;" xml:space="preserve">
<path style="fill:#CFD8DC;" d="M256,247.712H76.967V145.408c0-9.421,7.63-17.051,17.051-17.051h42.627  c0,25.389,8.091,50.112,23.104,70.59c6.428,8.704,13.999,16.505,22.507,23.189c3.547,2.788,7.247,5.38,11.083,7.758  C212.145,241.583,233.859,247.755,256,247.712z"/>
<path style="fill:#607D8B;" d="M435.032,145.408v102.305H256c22.14,0.043,43.855-6.13,62.661-17.818  c3.836-2.379,7.536-4.97,11.083-7.758c8.508-6.684,16.079-14.485,22.507-23.189c15.013-20.478,23.104-45.202,23.104-70.59h42.627  C427.402,128.357,435.032,135.987,435.032,145.408z"/>
<path style="fill:#CFD8DC;" d="M400.931,145.408v102.305H221.898c22.14,0.043,43.855-6.13,62.661-17.818  c3.836-2.379,7.536-4.97,11.083-7.758c8.508-6.684,16.079-14.485,22.507-23.189c15.013-20.478,23.104-45.202,23.104-70.59h42.627  C393.301,128.357,400.931,135.987,400.931,145.408z"/>
<rect x="76.984" y="247.747" style="fill:#424242;" width="358.066" height="204.609"/>
<rect x="76.984" y="247.747" style="fill:#9E9E9E;" width="323.964" height="204.609"/>
<path style="fill:#607D8B;" d="M435.032,452.321v34.102c0,9.421-7.63,17.051-17.051,17.051H94.017  c-9.421,0-17.051-7.63-17.051-17.051v-34.102H435.032z"/>
<path style="fill:#CFD8DC;" d="M400.931,452.321v34.102c0.384,8.952-6.488,16.548-15.431,17.051H92.398  c-8.943-0.503-15.815-8.099-15.431-17.051v-34.102H400.931z"/>
<g>
	<path style="fill:#37474F;" d="M159.748,198.947c-6.027,12.771-21.271,18.244-34.042,12.217   c-12.771-6.027-18.244-21.271-12.217-34.042c4.229-8.96,13.248-14.672,23.155-14.664c1.722,0,3.436,0.171,5.115,0.512   C145.664,175.895,151.751,188.069,159.748,198.947z"/>
	<path style="fill:#37474F;" d="M400.931,188.035c-0.034,14.127-11.509,25.551-25.636,25.516   c-9.855-0.026-18.816-5.703-23.044-14.604c7.997-10.878,14.084-23.053,17.989-35.977c1.68-0.341,3.393-0.512,5.115-0.512   C389.481,162.459,400.931,173.908,400.931,188.035z"/>
	<path style="fill:#37474F;" d="M141.589,94.256c-3.299,11.066-4.962,22.558-4.945,34.102h-34.102v-17.051   c0-9.421,7.63-17.051,17.051-17.051H141.589z"/>
	<path style="fill:#37474F;" d="M409.456,111.306v17.051h-34.102c0.017-11.543-1.645-23.036-4.945-34.102h21.995   C401.826,94.256,409.456,101.886,409.456,111.306z"/>
</g>
<path style="fill:#4527A0;" d="M119.594,281.814h272.812c4.706,0,8.525,3.819,8.525,8.525v119.355c0,4.706-3.819,8.525-8.525,8.525  H119.594c-4.706,0-8.525-3.819-8.525-8.525V290.339C111.068,285.633,114.888,281.814,119.594,281.814z"/>
<path style="fill:#673AB7;" d="M119.594,281.814h238.711c4.706,0,8.525,3.819,8.525,8.525v119.355c0,4.706-3.819,8.525-8.525,8.525  H119.594c-4.706,0-8.525-3.819-8.525-8.525V290.339C111.068,285.633,114.888,281.814,119.594,281.814z"/>
<path style="fill:#F57C00;" d="M375.355,128.357c0,2.899,0,5.712,0,8.525c-0.776,11.68-3.308,23.172-7.502,34.102  c-6.181,16.062-15.746,30.598-28.048,42.627c-3.061,3.044-6.3,5.891-9.719,8.525c-3.547,2.788-7.247,5.38-11.083,7.758l-2.984,1.705  c-18.193,10.665-38.927,16.232-60.019,16.113c-5.712,0.009-11.407-0.418-17.051-1.279c-15.047-2.08-29.54-7.119-42.627-14.834  l-2.984-1.705c-3.836-2.379-7.536-4.97-11.083-7.758c-3.419-2.634-6.658-5.482-9.719-8.525  c-12.302-12.029-21.868-26.565-28.048-42.627c-4.314-10.904-6.957-22.405-7.843-34.102c0-2.813,0-5.627,0-8.525  c-0.034-17.699,3.896-35.176,11.509-51.152c17.127-36.139,51.212-61.297,90.795-67.009C244.601,9.411,250.296,9.01,256,9.002  C321.918,9.002,375.355,62.439,375.355,128.357z"/>
<path style="fill:#FF9801;" d="M341.253,128.357c0,2.899,0,5.712,0,8.525c-0.776,11.68-3.308,23.172-7.502,34.102  c-6.181,16.062-15.746,30.598-28.049,42.627c-3.061,3.044-6.3,5.891-9.719,8.525c-3.547,2.788-7.247,5.38-11.083,7.758l-2.984,1.705  c-13.086,7.715-27.58,12.754-42.627,14.834c-15.047-2.08-29.54-7.119-42.627-14.834l-2.984-1.705  c-3.836-2.379-7.536-4.97-11.083-7.758c-3.419-2.634-6.658-5.482-9.719-8.525c-12.302-12.029-21.868-26.565-28.048-42.627  c-4.433-10.887-7.187-22.388-8.184-34.102c0-2.813,0-5.627,0-8.525c-0.034-17.699,3.896-35.176,11.509-51.152  c17.127-36.139,51.212-61.297,90.795-67.009c39.583,5.712,73.668,30.87,90.795,67.009  C337.357,93.181,341.287,110.658,341.253,128.357z"/>
<circle style="fill:#FFEB3A;" cx="256.017" cy="128.391" r="34.102"/>
<path d="M417.982,511.999H94.017c-14.127,0-25.576-11.45-25.576-25.576V145.408c0-14.127,11.45-25.576,25.576-25.576h42.627  c4.706,0,8.525,3.819,8.525,8.525c0,23.581,7.528,46.549,21.484,65.56c6.053,8.074,13.163,15.303,21.143,21.484  c3.308,2.6,6.752,5.021,10.316,7.247c49.183,30.333,113.413,17.792,147.574-28.816c13.811-19.029,21.22-41.962,21.143-65.475  c0-4.706,3.819-8.525,8.525-8.525h42.627c14.127,0,25.576,11.45,25.576,25.576v341.015  C443.558,500.55,432.108,511.999,417.982,511.999z M94.017,136.883c-4.706,0-8.525,3.819-8.525,8.525v341.015  c0,4.706,3.819,8.525,8.525,8.525h323.964c4.706,0,8.525-3.819,8.525-8.525V145.408c0-4.706-3.819-8.525-8.525-8.525H383.88  c-1.62,24.238-10.103,47.503-24.468,67.095c-9.779,13.24-21.987,24.493-35.977,33.164c-41.178,25.423-93.182,25.423-134.36,0  c-4.109-2.617-8.065-5.465-11.85-8.525c-9.088-7.161-17.17-15.499-24.042-24.809c-14.544-19.472-23.24-42.687-25.065-66.924  L94.017,136.883L94.017,136.883z"/>
<rect x="76.984" y="239.221" width="349.54" height="17.051"/>
<rect x="76.984" y="443.83" width="349.54" height="17.051"/>
<path d="M136.644,222.136c-18.833-0.017-34.084-15.303-34.067-34.136s15.303-34.084,34.136-34.067c2.268,0,4.527,0.23,6.752,0.682  c3.078,0.622,5.567,2.882,6.479,5.883c3.726,12.038,9.497,23.342,17.051,33.419c1.799,2.481,2.123,5.738,0.853,8.525  C162.203,214.549,150.004,222.247,136.644,222.136z M135.451,170.984c-9.421,0.332-16.786,8.227-16.454,17.648  c0.332,9.421,8.227,16.786,17.648,16.454c4.945,0,9.634-2.148,12.873-5.883C143.678,190.413,138.946,180.933,135.451,170.984z"/>
<path d="M375.355,222.136c-13.197,0.017-25.218-7.588-30.862-19.523c-1.27-2.788-0.946-6.044,0.853-8.525  c7.553-10.077,13.325-21.382,17.051-33.419c0.912-3.001,3.402-5.26,6.479-5.883c18.372-4.143,36.625,7.383,40.777,25.755  c4.143,18.372-7.383,36.625-25.755,40.777C381.092,221.949,378.228,222.222,375.355,222.136z M362.482,199.203  c3.24,3.734,7.929,5.883,12.873,5.883c9.421,0.332,17.315-7.033,17.648-16.454c0.332-9.421-7.033-17.315-16.454-17.648  C373.044,180.933,368.321,190.413,362.482,199.203z"/>
<path d="M136.644,136.883h-34.102c-4.706,0-8.525-3.819-8.525-8.525v-17.051c0-14.127,11.45-25.576,25.576-25.576h21.995  c4.706-0.205,8.679,3.444,8.883,8.15c0.043,0.963-0.077,1.927-0.358,2.847c-3.18,10.247-4.842,20.904-4.945,31.629  C145.17,133.063,141.35,136.883,136.644,136.883z M111.068,119.832h17.051c0.384-5.729,1.151-11.424,2.302-17.051h-10.827  c-4.706,0-8.525,3.819-8.525,8.525V119.832z"/>
<path d="M409.456,136.883h-34.102c-4.706,0-8.525-3.819-8.525-8.525c0.009-10.708-1.543-21.365-4.604-31.629  c-1.373-4.501,1.168-9.267,5.678-10.64c0.921-0.281,1.884-0.401,2.847-0.358h21.654c14.127,0,25.576,11.45,25.576,25.576v17.051  C417.982,133.063,414.162,136.883,409.456,136.883z M383.88,119.832h17.051v-8.525c0-4.706-3.819-8.525-8.525-8.525h-11.083  C382.559,108.399,383.411,114.094,383.88,119.832z"/>
<path d="M392.406,426.745H119.594c-9.421,0-17.051-7.63-17.051-17.051V290.339c0-9.421,7.63-17.051,17.051-17.051h272.812  c9.421,0,17.051,7.63,17.051,17.051v119.355C409.456,419.115,401.826,426.745,392.406,426.745z M119.594,290.339v119.355h272.812  V290.339H119.594z"/>
<path d="M225.052,392.644c-3.061,0.009-5.891-1.611-7.417-4.263c-6.829-10.529-8.398-23.624-4.263-35.466  c1.057-2.498,2.344-4.894,3.836-7.161l1.108-1.79c1.176-1.969,2.063-4.092,2.643-6.309c0.887-3.41,0.887-6.991,0-10.401  c-0.435-2.055-1.338-3.981-2.643-5.627c-2.95-3.674-2.362-9.037,1.313-11.987c3.368-2.703,8.227-2.464,11.305,0.563  c3.206,3.726,5.456,8.176,6.565,12.959c1.611,6.206,1.611,12.72,0,18.926c-0.98,3.743-2.472,7.323-4.433,10.657l-1.279,2.131  c-0.946,1.407-1.773,2.89-2.472,4.433c-2.063,7.025-0.938,14.595,3.069,20.717c2.31,4.075,0.904,9.25-3.154,11.595  C227.951,392.311,226.51,392.661,225.052,392.644z"/>
<path d="M293.255,392.644c-3.061,0.009-5.891-1.611-7.417-4.263c-6.829-10.529-8.397-23.624-4.263-35.466  c1.057-2.498,2.344-4.894,3.836-7.161l1.108-1.79c1.176-1.969,2.063-4.092,2.643-6.309c0.887-3.41,0.887-6.991,0-10.401  c-0.435-2.055-1.338-3.981-2.643-5.627c-3.359-3.299-3.41-8.696-0.119-12.055c3.299-3.359,8.696-3.41,12.055-0.119  c0.239,0.239,0.469,0.486,0.673,0.75c3.206,3.726,5.456,8.176,6.565,12.959c1.611,6.206,1.611,12.72,0,18.926  c-0.98,3.743-2.472,7.323-4.433,10.657l-1.279,2.131c-0.946,1.407-1.773,2.89-2.472,4.433c-2.063,7.025-0.938,14.595,3.069,20.717  c2.31,4.075,0.904,9.25-3.154,11.595C296.154,392.311,294.713,392.661,293.255,392.644z"/>
<path d="M259.154,392.644c-3.061,0.009-5.891-1.611-7.417-4.263c-6.829-10.529-8.397-23.624-4.263-35.466  c1.057-2.498,2.344-4.894,3.836-7.161l1.108-1.79c1.176-1.969,2.063-4.092,2.643-6.309c0.887-3.41,0.887-6.991,0-10.401  c-0.435-2.055-1.338-3.981-2.643-5.627c-2.95-3.674-2.362-9.037,1.313-11.987c3.368-2.703,8.227-2.464,11.305,0.563  c3.206,3.726,5.456,8.176,6.565,12.959c1.611,6.206,1.611,12.72,0,18.926c-0.98,3.743-2.472,7.323-4.433,10.657l-1.279,2.131  c-0.946,1.407-1.773,2.89-2.472,4.433c-2.063,7.025-0.938,14.595,3.069,20.717c2.31,4.075,0.904,9.25-3.154,11.595  C262.053,392.311,260.612,392.661,259.154,392.644z"/>
<path d="M256,256.238c-23.735,0.034-47.009-6.582-67.18-19.097c-4.109-2.617-8.065-5.465-11.85-8.525  c-9.088-7.161-17.17-15.499-24.042-24.809c-23.743-32.294-30.973-73.864-19.523-112.279  c20.094-67.709,91.273-106.303,158.981-86.209c41.467,12.311,73.898,44.741,86.209,86.209c11.535,38.458,4.331,80.096-19.438,112.45  c-9.779,13.24-21.987,24.493-35.977,33.164C303.008,249.656,279.734,256.272,256,256.238z M256,17.527  c-61.212,0-110.83,49.618-110.83,110.83c0,23.581,7.528,46.549,21.484,65.56c6.053,8.074,13.163,15.303,21.143,21.484  c3.308,2.6,6.752,5.021,10.316,7.247c49.183,30.333,113.413,17.792,147.574-28.816c20.589-27.938,26.898-63.906,17.051-97.189  C348.466,49.642,305.123,17.51,256,17.527z"/>
<path d="M256,170.984c-23.539,0-42.627-19.088-42.627-42.627S232.461,85.73,256,85.73s42.627,19.088,42.627,42.627  S279.538,170.984,256,170.984z M256,102.781c-14.127,0-25.576,11.45-25.576,25.576s11.45,25.576,25.576,25.576  c14.127,0,25.576-11.45,25.576-25.576S270.126,102.781,256,102.781z"/>
<path d="M256,102.781c-4.706,0-8.525-3.819-8.525-8.525V44.638c0-4.706,3.819-8.525,8.525-8.525c4.706,0,8.525,3.819,8.525,8.525  v49.618C264.525,98.962,260.706,102.781,256,102.781z"/>
<path d="M304.168,185.051c-2.268,0.017-4.442-0.878-6.053-2.472l-22.592-22.592c-3.061-3.572-2.643-8.96,0.929-12.021  c3.189-2.737,7.903-2.737,11.091,0l22.592,22.592c3.342,3.316,3.368,8.713,0.051,12.055c-1.611,1.628-3.811,2.532-6.104,2.524  L304.168,185.051z"/>
<g>
</g>
<g>
</g>
<g>
</g>
<g>
</g>
<g>
</g>
<g>
</g>
<g>
</g>
<g>
</g>
<g>
</g>
<g>
</g>
<g>
</g>
<g>
</g>
<g>
</g>
<g>
</g>
<g>
</g>
</svg>
