<?xml version="1.0" encoding="iso-8859-1"?>
<!-- Generator: Adobe Illustrator 19.0.0, SVG Export Plug-In . SVG Version: 6.00 Build 0)  -->
<svg xmlns="http://www.w3.org/2000/svg" xmlns:xlink="http://www.w3.org/1999/xlink" version="1.1" id="Layer_1" x="0px" y="0px" viewBox="0 0 512 512" style="enable-background:new 0 0 512 512;" xml:space="preserve">
<path style="fill:#C52828;" d="M493.382,255.395h-88.623c-7.363-10.529-16.198-19.931-26.252-27.927h-1.676l-2.048-2.793  c-58.135-42.44-139.664-29.724-182.104,28.402c-0.559,0.763-1.108,1.536-1.657,2.318h-51.386  c-72.052,0-130.327,54.086-130.327,121.018v27.927c0,5.139,4.17,9.309,9.309,9.309h55.855c5.139,0,9.309-4.17,9.309-9.309v-27.927  c0-25.693,24.948-46.545,55.855-46.545h27.927c0,71.978,58.349,130.327,130.327,130.327s130.327-58.349,130.327-130.327h65.164  c5.139,0,9.309-4.171,9.309-9.309v-55.855C502.691,259.565,498.52,255.395,493.382,255.395z"/>
<path style="fill:#F44335;" d="M474.764,255.395v37.236c0,5.139-4.17,9.309-9.309,9.309h-65.164  c-0.047,71.978-58.433,130.29-130.411,130.243c-27.695-0.019-54.663-8.853-76.995-25.237  c-16.477-22.323-25.349-49.338-25.321-77.079h-27.927c-30.906,0-55.855,20.852-55.855,46.545v27.927c0,5.139-4.17,9.309-9.309,9.309  H18.618c-5.139,0-9.309-4.17-9.309-9.309v-27.927c0-66.932,58.275-121.018,130.327-121.018h51.386  c41.165-59.048,122.405-73.542,181.443-32.377c0.782,0.54,1.555,1.089,2.318,1.657l2.048,2.793h1.676  c10.054,7.997,18.888,17.399,26.252,27.927H474.764z"/>
<polyline style="fill:#C52828;" points="251.345,208.849 251.345,162.304 335.127,162.304 335.127,208.849 "/>
<g>
	<polyline style="fill:#F44335;" points="251.345,208.849 251.345,162.304 297.891,162.304 297.891,208.849  "/>
	<path style="fill:#F44335;" d="M269.964,152.995v-78.01c-0.316-13.154,10.1-24.073,23.263-24.39h0.009l0,0   c13.154,0.307,23.58,11.217,23.273,24.381v0.009v78.01"/>
	<path style="fill:#F44335;" d="M186.182,143.686c-20.564,0-37.236-16.673-37.236-37.236s16.673-37.236,37.236-37.236   c13.777,0,35.095,7.54,41.519,18.618h42.263v37.236H227.7C221.277,136.145,199.959,143.686,186.182,143.686z"/>
	<path style="fill:#F44335;" d="M400.291,143.686c20.564,0,37.236-16.673,37.236-37.236s-16.673-37.236-37.236-37.236   c-13.777,0-35.095,7.54-41.519,18.618h-42.263v37.236h42.263C365.196,136.145,386.513,143.686,400.291,143.686z"/>
</g>
<path d="M297.891,469.504c-73.626,0.168-134.73-56.869-139.636-130.327h-18.618c-25.693,0-46.545,16.663-46.545,37.236v27.927  c0,10.287-8.332,18.618-18.618,18.618H18.618C8.332,422.958,0,414.627,0,404.34v-27.927c0-71.866,62.65-130.327,139.636-130.327  h46.545c46.275-61.691,133.8-74.203,195.491-27.927c10.584,7.941,19.987,17.343,27.927,27.927h83.782  c10.287,0,18.618,8.332,18.618,18.618v55.855c0,10.287-8.332,18.618-18.618,18.618h-55.855  C432.621,412.635,371.517,469.671,297.891,469.504z M139.636,320.558h27.927c5.139,0,9.309,4.171,9.309,9.309  c0,66.839,54.179,121.018,121.018,121.018s121.018-54.179,121.018-121.018c0-5.139,4.17-9.309,9.309-9.309h65.164v-55.855h-88.623  c-3.044-0.009-5.893-1.499-7.633-4.003c-38.251-54.803-113.692-68.226-168.504-29.966c-11.674,8.145-21.821,18.292-29.966,29.966  c-1.741,2.504-4.589,3.994-7.633,4.003h-51.386c-66.746,0-121.018,50.083-121.018,111.709v27.927h55.855v-27.927  C74.473,345.6,103.703,320.558,139.636,320.558z"/>
<path d="M344.436,208.849h-18.618v-37.236h-65.164v37.236h-18.618v-46.545c0-5.139,4.17-9.309,9.309-9.309h83.782  c5.139,0,9.309,4.17,9.309,9.309V208.849z"/>
<path d="M325.818,152.995H307.2V75.078c0-7.708-6.256-13.964-13.964-13.964s-13.964,6.256-13.964,13.964v77.917h-18.618V75.078  c0-17.994,14.587-32.582,32.582-32.582c17.994,0,32.582,14.587,32.582,32.582V152.995z"/>
<path d="M186.182,152.995c-25.702,0-46.545-20.843-46.545-46.545s20.843-46.545,46.545-46.545  c17.296,0.195,33.885,6.833,46.545,18.618h37.236c5.139,0,9.309,4.17,9.309,9.309v37.236c0,5.139-4.17,9.309-9.309,9.309h-37.236  C220.067,146.162,203.478,152.799,186.182,152.995z M186.182,78.522c-15.425,0-27.927,12.502-27.927,27.927  s12.502,27.927,27.927,27.927c12.567,0,29.417-7.075,33.513-13.964c1.666-2.895,4.757-4.664,8.099-4.655h32.861V97.14H227.7  c-3.342,0.009-6.433-1.759-8.099-4.655C215.599,85.597,198.749,78.522,186.182,78.522z"/>
<path d="M400.291,152.995c-17.296-0.195-33.885-6.833-46.545-18.618h-37.236c-5.139,0-9.309-4.17-9.309-9.309V87.831  c0-5.139,4.171-9.309,9.309-9.309h37.236c12.66-11.785,29.249-18.423,46.545-18.618c25.702,0,46.545,20.843,46.545,46.545  S425.993,152.995,400.291,152.995z M325.818,115.758h32.954c3.342-0.009,6.433,1.759,8.099,4.655  c4.003,6.889,20.945,13.964,33.513,13.964c15.425,0,27.927-12.502,27.927-27.927s-12.502-27.927-27.927-27.927  c-12.567,0-29.417,7.075-33.513,13.964c-1.666,2.895-4.757,4.664-8.099,4.655h-32.954V115.758z"/>
<path style="fill:#FEC108;" d="M344.436,352.209c0.009,28.793-23.319,52.14-52.103,52.159c-28.793,0.009-52.14-23.319-52.159-52.103  c-0.009-18.33,9.607-35.309,25.321-44.73c1.052,13.47,8.63,25.572,20.294,32.396c-7.149-10.752-10.938-23.394-10.892-36.305  c0,0,0,0,0-0.652c0.261-23.72,13.284-45.456,34.071-56.879c-1.676,5.502-2.616,11.199-2.793,16.943c0,0.745,0,1.583,0,2.42  c-0.019,17.455,6.917,34.202,19.27,46.545l0,0c5.595,5.139,10.287,11.18,13.871,17.873  C342.668,336.84,344.418,344.473,344.436,352.209z"/>
<path d="M292.305,413.649c-33.932-0.056-61.393-27.611-61.338-61.542c0.037-21.485,11.292-41.388,29.687-52.494  c1.527-0.959,3.314-1.415,5.12-1.303c0.884-11.916,4.617-23.44,10.892-33.606c6.842-11.143,16.468-20.322,27.927-26.624  c4.496-2.495,10.166-0.866,12.651,3.631c1.229,2.216,1.499,4.841,0.754,7.261c-1.434,4.71-2.253,9.598-2.42,14.522v2.048  c-0.065,14.997,5.911,29.389,16.57,39.936l0,0c6.358,5.818,11.674,12.688,15.732,20.294c7.038,14.718,7.941,31.623,2.513,47.011  C341.644,397.33,318.371,413.705,292.305,413.649z M260.096,324.096c-15.5,17.864-13.582,44.907,4.282,60.407  s44.907,13.582,60.407-4.282c11.245-12.958,13.666-31.39,6.153-46.815c-3.174-5.688-7.261-10.817-12.102-15.174l0,0  c-13.47-13.377-21.336-31.39-21.969-50.362c-1.564,1.955-2.988,4.003-4.282,6.144c-11.366,18.721-10.929,42.31,1.117,60.602  c3.826,3.472,4.124,9.393,0.652,13.219c-3.472,3.826-9.393,4.124-13.219,0.652C271.658,342.863,264.266,334.299,260.096,324.096z"/>
<g>
</g>
<g>
</g>
<g>
</g>
<g>
</g>
<g>
</g>
<g>
</g>
<g>
</g>
<g>
</g>
<g>
</g>
<g>
</g>
<g>
</g>
<g>
</g>
<g>
</g>
<g>
</g>
<g>
</g>
</svg>
