<?xml version="1.0" encoding="iso-8859-1"?>
<!-- Generator: Adobe Illustrator 19.0.0, SVG Export Plug-In . SVG Version: 6.00 Build 0)  -->
<svg xmlns="http://www.w3.org/2000/svg" xmlns:xlink="http://www.w3.org/1999/xlink" version="1.1" id="Layer_1" x="0px" y="0px" viewBox="0 0 512 512" style="enable-background:new 0 0 512 512;" xml:space="preserve">
<g>
	<path style="fill:#0377BC;" d="M376.832,227.467l-2.048-2.793l3.724,2.793H376.832z"/>
	<path style="fill:#0377BC;" d="M493.382,255.395h-88.623c-7.363-10.529-16.198-19.931-26.252-27.927h-1.676l-2.048-2.793   c-58.135-42.44-139.664-29.724-182.104,28.402c-0.559,0.763-1.108,1.536-1.657,2.318h-51.386   c-72.052,0-130.327,54.086-130.327,121.018v27.927c0,5.139,4.17,9.309,9.309,9.309h55.855c5.139,0,9.309-4.17,9.309-9.309v-27.927   c0-25.693,24.948-46.545,55.855-46.545h27.927c0,71.978,58.349,130.327,130.327,130.327s130.327-58.349,130.327-130.327h65.164   c5.139,0,9.309-4.171,9.309-9.309v-55.855C502.691,259.565,498.52,255.395,493.382,255.395z"/>
</g>
<path style="fill:#02A9F4;" d="M474.764,255.395v37.236c0,5.139-4.17,9.309-9.309,9.309h-65.164  c-0.047,71.978-58.433,130.29-130.411,130.243c-27.695-0.019-54.663-8.853-76.995-25.237  c-16.477-22.323-25.349-49.338-25.321-77.079h-27.927c-30.906,0-55.855,20.852-55.855,46.545v27.927c0,5.139-4.17,9.309-9.309,9.309  H18.618c-5.139,0-9.309-4.17-9.309-9.309v-27.927c0-66.932,58.275-121.018,130.327-121.018h51.386  c41.165-59.048,122.405-73.542,181.443-32.377c0.782,0.54,1.555,1.089,2.318,1.657l2.048,2.793h1.676  c10.054,7.997,18.888,17.399,26.252,27.927H474.764z"/>
<polyline style="fill:#0377BC;" points="251.345,208.849 251.345,162.304 335.127,162.304 335.127,208.849 "/>
<g>
	<polyline style="fill:#02A9F4;" points="251.345,208.849 251.345,162.304 297.891,162.304 297.891,208.849  "/>
	<path style="fill:#02A9F4;" d="M269.964,152.995v-78.01c-0.316-13.154,10.1-24.073,23.263-24.39h0.009l0,0   c13.154,0.307,23.58,11.217,23.273,24.381v0.009v78.01"/>
	<path style="fill:#02A9F4;" d="M186.182,143.686c-20.564,0-37.236-16.673-37.236-37.236s16.673-37.236,37.236-37.236   c13.777,0,35.095,7.54,41.519,18.618h42.263v37.236H227.7C221.277,136.145,199.959,143.686,186.182,143.686z"/>
	<path style="fill:#02A9F4;" d="M400.291,143.686c20.564,0,37.236-16.673,37.236-37.236s-16.673-37.236-37.236-37.236   c-13.777,0-35.095,7.54-41.519,18.618h-42.263v37.236h42.263C365.196,136.145,386.513,143.686,400.291,143.686z"/>
</g>
<path d="M297.891,469.504c-73.626,0.168-134.73-56.869-139.636-130.327h-18.618c-25.693,0-46.545,16.663-46.545,37.236v27.927  c0,10.287-8.332,18.618-18.618,18.618H18.618C8.332,422.958,0,414.627,0,404.34v-27.927c0-71.866,62.65-130.327,139.636-130.327  h46.545c46.275-61.691,133.8-74.203,195.491-27.927c10.584,7.941,19.987,17.343,27.927,27.927h83.782  c10.287,0,18.618,8.332,18.618,18.618v55.855c0,10.287-8.332,18.618-18.618,18.618h-55.855  C432.621,412.635,371.517,469.671,297.891,469.504z M139.636,320.558h27.927c5.139,0,9.309,4.171,9.309,9.309  c0,66.839,54.179,121.018,121.018,121.018s121.018-54.179,121.018-121.018c0-5.139,4.17-9.309,9.309-9.309h65.164v-55.855h-88.623  c-3.044-0.009-5.893-1.499-7.633-4.003c-38.251-54.803-113.692-68.226-168.504-29.966c-11.674,8.145-21.821,18.292-29.966,29.966  c-1.741,2.504-4.589,3.994-7.633,4.003h-51.386c-66.746,0-121.018,50.083-121.018,111.709v27.927h55.855v-27.927  C74.473,345.6,103.703,320.558,139.636,320.558z"/>
<path d="M344.436,208.849h-18.618v-37.236h-65.164v37.236h-18.618v-46.545c0-5.139,4.17-9.309,9.309-9.309h83.782  c5.139,0,9.309,4.17,9.309,9.309V208.849z"/>
<path d="M325.818,152.995H307.2V75.078c0-7.708-6.256-13.964-13.964-13.964s-13.964,6.256-13.964,13.964v77.917h-18.618V75.078  c0-17.994,14.587-32.582,32.582-32.582c17.994,0,32.582,14.587,32.582,32.582V152.995z"/>
<path d="M297.891,432.267c-5.139,0-9.309-4.171-9.309-9.309V236.777c0-5.139,4.17-9.309,9.309-9.309c5.139,0,9.309,4.17,9.309,9.309  v186.182C307.2,428.097,303.03,432.267,297.891,432.267z"/>
<path d="M297.891,274.013c-1.825-0.019-3.603-0.568-5.12-1.583l-27.927-18.618c-4.422-2.616-5.893-8.322-3.277-12.753  c2.616-4.422,8.322-5.893,12.753-3.277c0.298,0.177,0.586,0.363,0.856,0.577l27.927,18.618c4.264,2.867,5.399,8.648,2.532,12.921  C303.905,272.477,301,274.022,297.891,274.013z"/>
<path d="M297.891,274.013c-5.139,0.009-9.318-4.143-9.328-9.29c-0.009-3.109,1.536-6.014,4.115-7.745l27.927-18.618  c4.105-3.091,9.942-2.262,13.033,1.843c3.091,4.105,2.262,9.942-1.843,13.033c-0.279,0.205-0.559,0.4-0.856,0.577l-27.927,18.618  C301.494,273.445,299.715,273.994,297.891,274.013z"/>
<path d="M269.964,422.958c-5.139,0.009-9.318-4.143-9.328-9.29c-0.009-3.109,1.536-6.014,4.115-7.745l27.927-18.618  c4.422-2.616,10.138-1.154,12.753,3.277c2.411,4.087,1.368,9.328-2.42,12.176l-27.927,18.618  C273.566,422.391,271.788,422.94,269.964,422.958z"/>
<path d="M325.818,422.958c-1.825-0.019-3.603-0.568-5.12-1.583l-27.927-18.618c-4.422-2.616-5.893-8.322-3.277-12.753  c2.616-4.431,8.322-5.893,12.753-3.277c0.298,0.177,0.586,0.363,0.856,0.577l27.927,18.618c4.264,2.867,5.399,8.648,2.532,12.921  C331.832,421.422,328.927,422.968,325.818,422.958z"/>
<path d="M390.982,339.177H204.8c-5.139,0-9.309-4.171-9.309-9.309c0-5.139,4.17-9.309,9.309-9.309h186.182  c5.139,0,9.309,4.171,9.309,9.309C400.291,335.006,396.12,339.177,390.982,339.177z"/>
<path d="M214.109,367.104c-5.139-0.028-9.29-4.217-9.263-9.356c0.009-1.806,0.54-3.565,1.536-5.073l18.618-27.927  c2.616-4.422,8.322-5.893,12.753-3.277c4.422,2.616,5.893,8.322,3.277,12.753c-0.177,0.298-0.363,0.586-0.577,0.856l-18.618,27.927  C220.104,365.577,217.209,367.104,214.109,367.104z"/>
<path d="M232.727,339.177c-3.119-0.019-6.014-1.592-7.727-4.189l-18.618-27.927c-3.091-4.105-2.262-9.942,1.843-13.033  c4.105-3.091,9.942-2.262,13.033,1.843c0.205,0.279,0.4,0.559,0.577,0.856l18.618,27.927c2.877,4.264,1.759,10.044-2.495,12.921  C236.414,338.627,234.589,339.177,232.727,339.177z"/>
<path d="M381.673,367.104c-3.119-0.019-6.014-1.592-7.727-4.189l-18.618-27.927c-3.091-4.105-2.262-9.942,1.843-13.033  c4.105-3.091,9.942-2.262,13.033,1.843c0.205,0.279,0.4,0.559,0.577,0.856l18.618,27.927c2.876,4.264,1.759,10.044-2.495,12.921  C385.359,366.555,383.535,367.104,381.673,367.104z"/>
<path d="M363.055,339.177c-5.139-0.028-9.29-4.217-9.263-9.356c0.009-1.806,0.54-3.565,1.536-5.073l18.618-27.927  c2.616-4.422,8.322-5.893,12.753-3.277c4.431,2.616,5.893,8.322,3.277,12.753c-0.177,0.298-0.363,0.586-0.577,0.856l-18.618,27.927  C369.05,337.65,366.154,339.177,363.055,339.177z"/>
<path d="M344.436,385.722c-2.476,0.019-4.85-0.959-6.609-2.7l-93.091-93.091c-3.342-3.901-2.886-9.784,1.015-13.126  c3.482-2.988,8.63-2.988,12.111,0l93.091,93.091c3.603,3.668,3.537,9.56-0.13,13.163  C349.119,384.735,346.829,385.685,344.436,385.722z"/>
<path d="M251.345,385.722c-5.139,0.028-9.337-4.115-9.365-9.253c-0.019-2.504,0.977-4.906,2.755-6.665l93.091-93.091  c3.901-3.342,9.784-2.886,13.126,1.015c2.988,3.482,2.988,8.63,0,12.111l-93.091,93.091  C256.14,384.679,253.803,385.685,251.345,385.722z"/>
<path d="M186.182,152.995c-25.702,0-46.545-20.843-46.545-46.545s20.843-46.545,46.545-46.545  c17.296,0.195,33.885,6.833,46.545,18.618h37.236c5.139,0,9.309,4.17,9.309,9.309v37.236c0,5.139-4.17,9.309-9.309,9.309h-37.236  C220.067,146.162,203.478,152.799,186.182,152.995z M186.182,78.522c-15.425,0-27.927,12.502-27.927,27.927  s12.502,27.927,27.927,27.927c12.567,0,29.417-7.075,33.513-13.964c1.666-2.895,4.757-4.664,8.099-4.655h32.861V97.14H227.7  c-3.342,0.009-6.433-1.759-8.099-4.655C215.599,85.597,198.749,78.522,186.182,78.522z"/>
<path d="M400.291,152.995c-17.296-0.195-33.885-6.833-46.545-18.618h-37.236c-5.139,0-9.309-4.17-9.309-9.309V87.831  c0-5.139,4.171-9.309,9.309-9.309h37.236c12.66-11.785,29.249-18.423,46.545-18.618c25.702,0,46.545,20.843,46.545,46.545  S425.993,152.995,400.291,152.995z M325.818,115.758h32.954c3.342-0.009,6.433,1.759,8.099,4.655  c4.003,6.889,20.945,13.964,33.513,13.964c15.425,0,27.927-12.502,27.927-27.927s-12.502-27.927-27.927-27.927  c-12.567,0-29.417,7.075-33.513,13.964c-1.666,2.895-4.757,4.664-8.099,4.655h-32.954V115.758z"/>
<g>
</g>
<g>
</g>
<g>
</g>
<g>
</g>
<g>
</g>
<g>
</g>
<g>
</g>
<g>
</g>
<g>
</g>
<g>
</g>
<g>
</g>
<g>
</g>
<g>
</g>
<g>
</g>
<g>
</g>
</svg>
