<?xml version="1.0" encoding="iso-8859-1"?>
<!-- Generator: Adobe Illustrator 19.0.0, SVG Export Plug-In . SVG Version: 6.00 Build 0)  -->
<svg xmlns="http://www.w3.org/2000/svg" xmlns:xlink="http://www.w3.org/1999/xlink" version="1.1" id="Layer_1" x="0px" y="0px" viewBox="0 0 512 512" style="enable-background:new 0 0 512 512;" xml:space="preserve">
<path style="fill:#D84315;" d="M503.359,128.166c0.051,32.114-12.905,62.889-35.91,85.296c-3.062,3.045-6.303,5.894-9.724,8.53  c-3.548,2.789-7.25,5.382-11.089,7.762l-2.985,1.706c-18.1,10.611-38.725,16.181-59.707,16.121  c-5.715,0.009-11.413-0.418-17.059-1.279c-15.055-2.081-29.555-7.122-42.648-14.842l-2.985-1.706  c-3.838-2.38-7.54-4.973-11.089-7.762c-3.42-2.636-6.662-5.485-9.724-8.53c-47.126-46.137-47.928-121.744-1.791-168.87  c18.33-18.723,42.307-30.894,68.237-34.647c5.655-0.785,11.353-1.186,17.059-1.194C449.896,8.751,503.359,62.215,503.359,128.166z"/>
<path style="fill:#FF5722;" d="M469.241,128.166c0.051,32.114-12.905,62.889-35.91,85.296c-3.062,3.045-6.303,5.894-9.724,8.53  c-3.548,2.789-7.25,5.382-11.089,7.762l-2.985,1.706c-13.093,7.719-27.593,12.76-42.648,14.842  c-15.055-2.081-29.555-7.122-42.648-14.842l-2.985-1.706c-3.838-2.38-7.54-4.973-11.089-7.762c-3.42-2.636-6.662-5.485-9.724-8.53  c-47.126-46.137-47.928-121.744-1.791-168.87c18.33-18.723,42.307-30.894,68.237-34.647c39.603,5.715,73.705,30.886,90.841,67.043  C465.343,92.973,469.275,110.459,469.241,128.166z"/>
<path style="fill:#607D8B;" d="M366.885,246.302v231.58c0,14.134-11.455,25.589-25.589,25.589H34.229  c-7.276,0.051-14.219-3.062-19.021-8.53h291.969c14.134,0,25.589-11.455,25.589-25.589l0,0v-231.58l0.682-1.535  C344.026,241.244,355.302,244.638,366.885,246.302z"/>
<path style="fill:#CFD8DC;" d="M333.449,236.237l-0.682,1.535v231.58c0,14.134-11.455,25.589-25.589,25.589l0,0H15.208  c-4.214-4.683-6.551-10.756-6.568-17.059V170.814c0-14.134,11.455-25.589,25.589-25.589h231.58  c5.723,39.552,30.86,73.611,66.958,90.755C332.767,235.981,332.767,236.237,333.449,236.237z"/>
<path d="M341.296,512H34.229c-18.842,0-34.119-15.277-34.119-34.119V170.814c0-18.842,15.277-34.119,34.119-34.119h231.58  c4.282-0.043,7.933,3.096,8.53,7.335c7.046,48.602,45.224,86.781,93.826,93.826c4.239,0.597,7.378,4.248,7.336,8.53v231.494  c0,18.842-15.277,34.119-34.119,34.119C341.356,512,341.322,512,341.296,512z M34.229,153.755c-9.425,0-17.059,7.634-17.059,17.059  v307.067c0,9.425,7.634,17.059,17.059,17.059h307.067c9.425,0,17.059-7.634,17.059-17.059V253.466  c-50.205-10.27-89.442-49.506-99.711-99.711L34.229,153.755L34.229,153.755z"/>
<path d="M383.944,256.111c-6.141,0.009-12.266-0.444-18.339-1.365c-22.169-3.233-43.1-12.197-60.731-26.015  c-25.93-20.224-42.964-49.745-47.51-82.311c-0.921-6.039-1.373-12.146-1.365-18.253c0.009-6.107,0.435-12.206,1.279-18.253  C267.25,39.961,332.033-8.675,401.993,1.296c63.128,8.99,109.998,63.102,109.896,126.87  C511.889,198.826,454.604,256.111,383.944,256.111z M383.944,17.281c-55.042,0.205-101.682,40.575-109.776,95.02  c-0.734,5.254-1.1,10.56-1.109,15.865c-0.009,5.28,0.392,10.56,1.194,15.78c7.045,48.602,45.224,86.781,93.826,93.826  c5.246,0.827,10.551,1.262,15.865,1.279c61.243,0,110.885-49.642,110.885-110.885S445.187,17.281,383.944,17.281z"/>
<path d="M51.289,196.403h-8.53c-4.708,0-8.53-3.821-8.53-8.53c0-4.708,3.821-8.53,8.53-8.53h8.53c4.708,0,8.53,3.821,8.53,8.53  C59.818,192.582,55.997,196.403,51.289,196.403z"/>
<path d="M187.763,196.403H85.407c-4.708,0-8.53-3.821-8.53-8.53c0-4.708,3.821-8.53,8.53-8.53h102.356c4.708,0,8.53,3.821,8.53,8.53  C196.292,192.582,192.471,196.403,187.763,196.403z"/>
<path d="M383.944,187.874c-10.346,0.06-20.514-2.687-29.427-7.933l-2.303-1.279c-1.8-1.126-3.531-2.354-5.203-3.668  c-1.527-1.186-2.985-2.465-4.35-3.838c-11.779-11.191-18.441-26.74-18.424-42.989c-0.06-8.854,1.894-17.605,5.715-25.589  c5.22-10.918,13.639-19.993,24.139-26.015c3.975-2.525,9.246-1.356,11.771,2.619s1.356,9.246-2.619,11.771  c-0.205,0.128-0.409,0.247-0.623,0.358c-7.438,4.401-13.383,10.944-17.059,18.765c-2.772,5.63-4.231,11.814-4.265,18.083  c0.017,11.72,4.862,22.919,13.392,30.963c0.913,0.887,1.877,1.714,2.9,2.474c1.109,0.853,2.132,1.621,3.497,2.474l1.962,1.109  c12.922,7.395,28.788,7.395,41.71,0l2.474-1.45l3.412-2.474c1.083-0.844,2.107-1.749,3.071-2.729  c12.888-12.743,16.309-32.251,8.53-48.619c-3.668-7.805-9.613-14.321-17.059-18.68c-3.975-2.525-5.152-7.796-2.619-11.771  c2.38-3.745,7.225-5.032,11.148-2.985c10.543,6.03,18.996,15.14,24.224,26.101c10.909,23.021,6.005,50.419-12.197,68.237  c-1.441,1.467-2.977,2.832-4.606,4.094c-1.791,1.365-3.327,2.474-5.033,3.582l-2.815,1.621  C404.381,185.289,394.248,187.967,383.944,187.874z"/>
<path d="M383.944,111.107c-4.708,0-8.53-3.821-8.53-8.53V68.459c0-4.708,3.821-8.53,8.53-8.53s8.53,3.821,8.53,8.53v34.119  C392.474,107.286,388.653,111.107,383.944,111.107z"/>
<path style="fill:#F4F4F4;" d="M281.589,341.407v25.589c0,4.708-3.821,8.53-8.53,8.53H102.466c-4.708,0-8.53-3.821-8.53-8.53  v-25.589H281.589z"/>
<path d="M273.059,384.055H102.466c-9.425,0-17.059-7.634-17.059-17.059v-25.589c0-4.708,3.821-8.53,8.53-8.53h187.652  c4.708,0,8.53,3.821,8.53,8.53v25.589C290.118,376.421,282.484,384.055,273.059,384.055z M102.466,349.937v17.059h170.593v-17.059  H102.466z"/>
<path style="fill:#37474F;" d="M281.589,307.288v34.119H93.937v-34.119c0-4.708,3.821-8.53,8.53-8.53h170.593  C277.767,298.759,281.589,302.58,281.589,307.288z"/>
<path d="M281.589,349.937H93.937c-4.708,0-8.53-3.821-8.53-8.53v-34.119c0-9.425,7.634-17.059,17.059-17.059h170.593  c9.425,0,17.059,7.634,17.059,17.059v34.119C290.118,346.115,286.297,349.937,281.589,349.937z M102.466,332.877h170.593v-25.589  H102.466C102.466,307.288,102.466,332.877,102.466,332.877z"/>
<path d="M136.585,349.937c-4.708,0-8.53-3.821-8.53-8.53v-8.53c0-4.708,3.821-8.53,8.53-8.53s8.53,3.821,8.53,8.53v8.53  C145.115,346.115,141.293,349.937,136.585,349.937z"/>
<path d="M170.703,349.937c-4.708,0-8.53-3.821-8.53-8.53v-8.53c0-4.708,3.821-8.53,8.53-8.53s8.53,3.821,8.53,8.53v8.53  C179.233,346.115,175.412,349.937,170.703,349.937z"/>
<path d="M204.822,349.937c-4.708,0-8.53-3.821-8.53-8.53v-8.53c0-4.708,3.821-8.53,8.53-8.53s8.53,3.821,8.53,8.53v8.53  C213.352,346.115,209.53,349.937,204.822,349.937z"/>
<path d="M238.941,349.937c-4.708,0-8.53-3.821-8.53-8.53v-8.53c0-4.708,3.821-8.53,8.53-8.53s8.53,3.821,8.53,8.53v8.53  C247.47,346.115,243.649,349.937,238.941,349.937z"/>
<g>
</g>
<g>
</g>
<g>
</g>
<g>
</g>
<g>
</g>
<g>
</g>
<g>
</g>
<g>
</g>
<g>
</g>
<g>
</g>
<g>
</g>
<g>
</g>
<g>
</g>
<g>
</g>
<g>
</g>
</svg>
