<?xml version="1.0" encoding="iso-8859-1"?>
<!-- Generator: Adobe Illustrator 19.0.0, SVG Export Plug-In . SVG Version: 6.00 Build 0)  -->
<svg xmlns="http://www.w3.org/2000/svg" xmlns:xlink="http://www.w3.org/1999/xlink" version="1.1" id="Layer_1" x="0px" y="0px" viewBox="0 0 512 512" style="enable-background:new 0 0 512 512;" xml:space="preserve">
<path style="fill:#1566C0;" d="M503.359,128.166c0.051,32.114-12.905,62.889-35.91,85.296c-3.062,3.045-6.303,5.894-9.724,8.53  c-3.548,2.789-7.25,5.382-11.089,7.762l-2.985,1.706c-18.1,10.611-38.725,16.181-59.707,16.121  c-5.715,0.009-11.413-0.418-17.059-1.279c-15.055-2.081-29.555-7.122-42.648-14.842l-2.985-1.706  c-3.838-2.38-7.54-4.973-11.089-7.762c-3.42-2.636-6.662-5.485-9.724-8.53c-47.126-46.137-47.928-121.744-1.791-168.87  c18.33-18.723,42.307-30.894,68.237-34.647c5.655-0.785,11.353-1.186,17.059-1.194C449.896,8.751,503.359,62.215,503.359,128.166z"/>
<path style="fill:#2296F3;" d="M469.241,128.166c0.051,32.114-12.905,62.889-35.91,85.296c-3.062,3.045-6.303,5.894-9.724,8.53  c-3.548,2.789-7.25,5.382-11.089,7.762l-2.985,1.706c-13.093,7.719-27.593,12.76-42.648,14.842  c-15.055-2.081-29.555-7.122-42.648-14.842l-2.985-1.706c-3.838-2.38-7.54-4.973-11.089-7.762c-3.42-2.636-6.662-5.485-9.724-8.53  c-47.126-46.137-47.928-121.744-1.791-168.87c18.33-18.723,42.307-30.894,68.237-34.647c39.603,5.715,73.705,30.886,90.841,67.043  C465.343,92.973,469.275,110.459,469.241,128.166z"/>
<path style="fill:#607D8B;" d="M366.885,246.302v231.58c0,14.134-11.455,25.589-25.589,25.589H34.229  c-7.276,0.051-14.219-3.062-19.021-8.53h291.969c14.134,0,25.589-11.455,25.589-25.589l0,0v-231.58l0.682-1.535  C344.026,241.244,355.302,244.638,366.885,246.302z"/>
<path style="fill:#CFD8DC;" d="M333.449,236.237l-0.682,1.535v231.58c0,14.134-11.455,25.589-25.589,25.589l0,0H15.208  c-4.214-4.683-6.551-10.756-6.568-17.059V170.814c0-14.134,11.455-25.589,25.589-25.589h231.58  c5.723,39.552,30.86,73.611,66.958,90.755C332.767,235.981,332.767,236.237,333.449,236.237z"/>
<path d="M341.296,512H34.229c-18.842,0-34.119-15.277-34.119-34.119V170.814c0-18.842,15.277-34.119,34.119-34.119h231.58  c4.282-0.043,7.933,3.096,8.53,7.335c7.046,48.602,45.224,86.781,93.826,93.826c4.239,0.597,7.378,4.248,7.336,8.53v231.494  c0,18.842-15.277,34.119-34.119,34.119C341.356,512,341.322,512,341.296,512z M34.229,153.755c-9.425,0-17.059,7.634-17.059,17.059  v307.067c0,9.425,7.634,17.059,17.059,17.059h307.067c9.425,0,17.059-7.634,17.059-17.059V253.466  c-50.205-10.27-89.442-49.506-99.711-99.711L34.229,153.755L34.229,153.755z"/>
<path d="M383.944,256.111c-6.141,0.009-12.266-0.444-18.339-1.365c-22.169-3.233-43.1-12.197-60.731-26.015  c-25.93-20.224-42.964-49.745-47.51-82.311c-0.921-6.039-1.373-12.146-1.365-18.253c0.009-6.107,0.435-12.206,1.279-18.253  C267.25,39.961,332.033-8.675,401.993,1.296c63.128,8.99,109.998,63.102,109.896,126.87  C511.889,198.826,454.604,256.111,383.944,256.111z M383.944,17.281c-55.042,0.205-101.682,40.575-109.776,95.02  c-0.734,5.254-1.1,10.56-1.109,15.865c-0.009,5.28,0.392,10.56,1.194,15.78c7.045,48.602,45.224,86.781,93.826,93.826  c5.246,0.827,10.551,1.262,15.865,1.279c61.243,0,110.885-49.642,110.885-110.885S445.187,17.281,383.944,17.281z"/>
<path d="M51.289,196.403h-8.53c-4.708,0-8.53-3.821-8.53-8.53c0-4.708,3.821-8.53,8.53-8.53h8.53c4.708,0,8.53,3.821,8.53,8.53  C59.818,192.582,55.997,196.403,51.289,196.403z"/>
<path d="M187.763,196.403H85.407c-4.708,0-8.53-3.821-8.53-8.53c0-4.708,3.821-8.53,8.53-8.53h102.356c4.708,0,8.53,3.821,8.53,8.53  C196.292,192.582,192.471,196.403,187.763,196.403z"/>
<path d="M383.944,187.874c-10.346,0.06-20.514-2.687-29.427-7.933l-2.303-1.279c-1.8-1.126-3.531-2.354-5.203-3.668  c-1.527-1.186-2.985-2.465-4.35-3.838c-11.779-11.191-18.441-26.74-18.424-42.989c-0.06-8.854,1.894-17.605,5.715-25.589  c14.082-29.82,49.668-42.58,79.479-28.506c12.513,5.911,22.595,15.985,28.506,28.506c10.909,23.021,6.005,50.419-12.197,68.237  c-1.441,1.467-2.977,2.832-4.606,4.094c-1.791,1.365-3.327,2.474-5.033,3.582l-2.815,1.621  C404.381,185.289,394.248,187.967,383.944,187.874z M383.944,85.518c-16.556-0.009-31.619,9.57-38.639,24.565  c-2.678,5.647-4.052,11.831-4.009,18.083c0.017,11.72,4.862,22.919,13.392,30.963c0.913,0.887,1.877,1.714,2.9,2.474  c1.109,0.853,2.132,1.621,3.497,2.474l1.962,1.109c12.922,7.395,28.788,7.395,41.71,0l2.474-1.45l3.412-2.474  c1.083-0.844,2.107-1.749,3.071-2.729c12.888-12.743,16.309-32.251,8.53-48.619C415.223,95.097,400.338,85.612,383.944,85.518z"/>
<path d="M383.944,153.755c-4.708,0-8.53-3.821-8.53-8.53v-34.119c0-4.708,3.821-8.53,8.53-8.53s8.53,3.821,8.53,8.53v34.119  C392.474,149.934,388.653,153.755,383.944,153.755z"/>
<path style="fill:#00695C;" d="M315.707,349.937c0,51.86-28.66,93.826-63.972,93.826H123.79c-35.313,0-63.972-41.966-63.972-93.826  s28.66-93.826,63.972-93.826h127.945C287.048,256.111,315.707,298.076,315.707,349.937z"/>
<path style="fill:#009688;" d="M281.589,349.937c0,51.86-28.66,93.826-63.972,93.826H123.79c-35.313,0-63.972-41.966-63.972-93.826  s28.66-93.826,63.972-93.826h93.826C252.929,256.111,281.589,298.076,281.589,349.937z"/>
<g>
	<path style="fill:#37474F;" d="M136.585,307.288h17.059c4.708,0,8.53,3.821,8.53,8.53v68.237c0,4.708-3.821,8.53-8.53,8.53h-17.059   c-4.708,0-8.53-3.821-8.53-8.53v-68.237C128.055,311.11,131.877,307.288,136.585,307.288z"/>
	<path style="fill:#37474F;" d="M221.881,307.288h17.059c4.708,0,8.53,3.821,8.53,8.53v68.237c0,4.708-3.821,8.53-8.53,8.53h-17.059   c-4.708,0-8.53-3.821-8.53-8.53v-68.237C213.352,311.11,217.173,307.288,221.881,307.288z"/>
</g>
<path d="M126.52,452.292h-1.877c-40.857,0-73.355-45.889-73.355-102.356s32.498-102.356,72.502-102.356h127.177h0.768l0,0  c40.004,0,72.502,45.889,72.502,102.356s-32.498,102.356-72.502,102.356H126.52z M125.582,435.233h126.153  c30.536,0,55.443-38.298,55.443-85.296s-24.907-85.296-55.443-85.296H123.79c-30.536,0-55.443,38.298-55.443,85.296  s24.907,85.296,55.443,85.296H125.582z"/>
<path d="M153.644,401.115h-17.059c-9.425,0-17.059-7.634-17.059-17.059v-68.237c0-9.425,7.634-17.059,17.059-17.059h17.059  c9.425,0,17.059,7.634,17.059,17.059v68.237C170.703,393.48,163.069,401.115,153.644,401.115z M136.585,315.818v68.237h17.059  v-68.237H136.585z"/>
<path d="M238.941,401.115h-17.059c-9.425,0-17.059-7.634-17.059-17.059v-68.237c0-9.425,7.634-17.059,17.059-17.059h17.059  c9.425,0,17.059,7.634,17.059,17.059v68.237C256,393.48,248.366,401.115,238.941,401.115z M221.881,315.818v68.237h17.059v-68.237  H221.881z"/>
<g>
</g>
<g>
</g>
<g>
</g>
<g>
</g>
<g>
</g>
<g>
</g>
<g>
</g>
<g>
</g>
<g>
</g>
<g>
</g>
<g>
</g>
<g>
</g>
<g>
</g>
<g>
</g>
<g>
</g>
</svg>
