<?xml version="1.0" encoding="iso-8859-1"?>
<!-- Generator: Adobe Illustrator 19.0.0, SVG Export Plug-In . SVG Version: 6.00 Build 0)  -->
<svg xmlns="http://www.w3.org/2000/svg" xmlns:xlink="http://www.w3.org/1999/xlink" version="1.1" id="Layer_1" x="0px" y="0px" viewBox="0 0 512 512" style="enable-background:new 0 0 512 512;" xml:space="preserve">
<path style="fill:#00838F;" d="M503.467,256c0,136.67-110.797,247.467-247.467,247.467c-5.717,0-11.435,0-17.067-0.683  C102.639,492.638,0.375,373.922,10.522,237.628C19.61,115.447,116.745,18.313,238.933,9.216c5.632-0.683,11.349-0.683,17.067-0.683  C392.67,8.533,503.467,119.33,503.467,256z"/>
<path style="fill:#00BCD4;" d="M469.333,256c-0.051,130.014-100.693,237.815-230.4,246.784  C102.639,492.638,0.375,373.922,10.522,237.628C19.61,115.447,116.745,18.313,238.933,9.216  C368.64,18.185,469.282,125.986,469.333,256z"/>
<path d="M256,512C114.611,512,0,397.389,0,256S114.611,0,256,0s256,114.611,256,256S397.389,512,256,512z M256,17.067  C124.041,17.067,17.067,124.041,17.067,256S124.041,494.933,256,494.933S494.933,387.96,494.933,256S387.96,17.067,256,17.067z"/>
<path d="M60.501,247.467h-0.768c-4.685-0.41-8.158-4.531-7.765-9.216c8.414-99.157,87.049-177.826,186.197-186.283  c4.693-0.444,8.858,3.004,9.293,7.697c0.009,0.026,0.009,0.043,0.009,0.068c0.393,4.685-3.081,8.806-7.765,9.216  c-90.863,7.731-162.935,79.804-170.667,170.667C68.676,244.062,64.956,247.484,60.501,247.467z"/>
<path d="M94.805,247.467h-0.939c-4.685-0.495-8.09-4.693-7.595-9.378v-0.009c8.704-79.957,71.851-143.104,151.808-151.808  c4.71-0.495,8.934,2.927,9.429,7.637s-2.927,8.934-7.637,9.429l0,0c-71.902,7.859-128.674,64.631-136.533,136.533  C102.861,244.215,99.174,247.492,94.805,247.467z"/>
<path d="M129.109,247.467H128c-4.659-0.623-7.945-4.89-7.339-9.557c8.149-61.03,56.141-109.056,117.163-117.248  c4.71-0.64,9.045,2.671,9.685,7.381c0.64,4.71-2.671,9.045-7.381,9.685c-53.291,7.202-95.198,49.109-102.4,102.4  C137.122,244.403,133.427,247.552,129.109,247.467z"/>
<path d="M452.267,246.699c-4.429,0.017-8.132-3.354-8.533-7.765C436.002,148.07,363.93,75.998,273.067,68.267  c-4.685-0.41-8.158-4.531-7.765-9.216c0.358-4.702,4.463-8.218,9.165-7.859c0.017,0.009,0.034,0.009,0.051,0.009  C373.7,59.614,452.386,138.3,460.8,237.483c0.393,4.685-3.081,8.806-7.765,9.216H452.267z"/>
<path d="M418.133,246.699c-4.395,0.026-8.09-3.302-8.533-7.68c-7.817-71.936-64.606-128.751-136.533-136.619  c-4.71-0.495-8.132-4.719-7.637-9.429c0.495-4.71,4.719-8.132,9.429-7.637c80.017,8.713,143.181,71.953,151.808,151.979  c0.495,4.685-2.901,8.892-7.586,9.387h-0.009H418.133z"/>
<path d="M384,246.699c-4.429,0.017-8.132-3.354-8.533-7.765c-7.202-53.291-49.109-95.198-102.4-102.4  c-4.71-0.64-8.021-4.975-7.381-9.685c0.64-4.71,4.975-8.021,9.685-7.381c60.937,8.439,108.698,56.593,116.651,117.589  c0.606,4.668-2.679,8.934-7.339,9.557L384,246.699z"/>
<path d="M238.933,460.032h-0.768c-99.123-8.448-177.749-87.074-186.197-186.197c-0.444-4.693,3.004-8.858,7.697-9.293  c0.026-0.009,0.043-0.009,0.068-0.009c4.685-0.393,8.806,3.081,9.216,7.765c7.731,90.863,79.804,162.935,170.667,170.667  c4.71,0.188,8.38,4.164,8.192,8.875C247.62,456.55,243.644,460.22,238.933,460.032z"/>
<path d="M238.933,425.813h-0.853c-79.991-8.713-143.147-71.902-151.808-151.893c-0.495-4.71,2.927-8.934,7.637-9.429  c4.71-0.495,8.934,2.927,9.429,7.637c7.859,71.902,64.631,128.674,136.533,136.533c4.71,0.239,8.346,4.25,8.107,8.96  c-0.239,4.71-4.25,8.346-8.96,8.107L238.933,425.813z"/>
<path d="M238.933,391.424h-1.109c-61.022-8.192-109.013-56.218-117.163-117.248c-0.64-4.71,2.671-9.045,7.381-9.685  c4.71-0.64,9.045,2.671,9.685,7.381l0,0c7.202,53.291,49.109,95.198,102.4,102.4c4.71,0.307,8.286,4.378,7.979,9.088  c-0.307,4.71-4.378,8.286-9.088,7.979L238.933,391.424z"/>
<path d="M273.749,460.8c-4.71,0.188-8.687-3.482-8.875-8.192c-0.188-4.71,3.482-8.687,8.192-8.875  c90.863-7.731,162.935-79.804,170.667-170.667c0.41-4.685,4.531-8.158,9.216-7.765c4.702,0.358,8.218,4.463,7.859,9.165  c0,0.017,0,0.034-0.009,0.051C452.386,373.7,373.7,452.386,274.517,460.8H273.749z"/>
<path d="M273.749,426.667c-4.71,0.239-8.721-3.396-8.96-8.107c-0.239-4.71,3.396-8.721,8.107-8.96  c71.97-7.782,128.828-64.58,136.704-136.533c0.495-4.71,4.719-8.132,9.429-7.637c4.71,0.495,8.132,4.719,7.637,9.429  c-8.713,80.017-71.953,143.181-151.979,151.808H273.749z"/>
<path d="M273.749,392.533c-4.71,0.188-8.687-3.482-8.875-8.192c-0.188-4.71,3.482-8.687,8.192-8.875  c53.291-7.202,95.198-49.109,102.4-102.4c0.64-4.71,4.975-8.021,9.685-7.381c4.71,0.64,8.021,4.975,7.381,9.685  c-8.405,60.971-56.559,108.774-117.589,116.736L273.749,392.533z"/>
<path d="M214.016,311.125c-2.748-0.009-5.316-1.348-6.912-3.584c-11.025-13.141-13.662-31.377-6.827-47.104  c1.783-3.337,3.891-6.485,6.315-9.387l1.877-2.475c2.108-2.79,3.746-5.905,4.864-9.216c1.741-4.745,1.92-9.916,0.512-14.763  c-1.015-3.268-2.867-6.212-5.376-8.533c-3.558-3.115-3.925-8.516-0.811-12.075c3.115-3.558,8.516-3.925,12.075-0.811  c4.975,4.395,8.67,10.052,10.667,16.384c2.569,8.371,2.355,17.357-0.597,25.6c-1.903,4.941-4.582,9.549-7.936,13.653l-2.133,2.816  c-1.707,2.014-3.226,4.181-4.523,6.485c-3.678,10.103-1.587,21.402,5.461,29.525c2.731,3.84,1.835,9.165-2.005,11.904  c-1.434,1.024-3.149,1.57-4.907,1.579L214.016,311.125z"/>
<path d="M256.683,311.125c-2.748-0.009-5.316-1.348-6.912-3.584c-11.025-13.141-13.662-31.377-6.827-47.104  c1.783-3.337,3.891-6.485,6.315-9.387l1.877-2.475c2.108-2.79,3.746-5.905,4.864-9.216c1.741-4.745,1.92-9.916,0.512-14.763  c-1.015-3.268-2.867-6.212-5.376-8.533c-3.558-3.115-3.925-8.516-0.811-12.075c3.115-3.558,8.516-3.925,12.075-0.811  c4.975,4.395,8.67,10.052,10.667,16.384c2.569,8.371,2.355,17.357-0.597,25.6c-1.903,4.941-4.582,9.549-7.936,13.653l-2.133,2.816  c-1.707,2.014-3.226,4.181-4.523,6.485c-3.678,10.103-1.587,21.402,5.461,29.525c2.731,3.84,1.835,9.165-2.005,11.904  c-1.434,1.024-3.149,1.57-4.907,1.579L256.683,311.125z"/>
<path d="M297.984,311.125c-2.842-0.06-5.461-1.536-6.997-3.925c-11.025-13.141-13.662-31.377-6.827-47.104  c1.783-3.328,3.9-6.477,6.315-9.387l1.877-2.475c2.082-2.79,3.695-5.905,4.779-9.216c1.715-4.719,1.894-9.856,0.512-14.677  c-1.015-3.268-2.867-6.212-5.376-8.533c-3.558-3.115-3.925-8.516-0.811-12.075c3.115-3.558,8.516-3.925,12.075-0.811  c4.907,4.471,8.508,10.197,10.411,16.555c2.569,8.371,2.355,17.357-0.597,25.6c-1.681,5.026-4.164,9.754-7.339,13.995l-2.133,2.731  c-1.707,2.014-3.217,4.19-4.523,6.485c-3.678,10.103-1.587,21.402,5.461,29.525c2.731,3.84,1.835,9.165-2.005,11.904  c-1.434,1.024-3.149,1.57-4.907,1.579L297.984,311.125z"/>
<g>
</g>
<g>
</g>
<g>
</g>
<g>
</g>
<g>
</g>
<g>
</g>
<g>
</g>
<g>
</g>
<g>
</g>
<g>
</g>
<g>
</g>
<g>
</g>
<g>
</g>
<g>
</g>
<g>
</g>
</svg>
