<?xml version="1.0" encoding="iso-8859-1"?>
<!-- Generator: Adobe Illustrator 19.0.0, SVG Export Plug-In . SVG Version: 6.00 Build 0)  -->
<svg xmlns="http://www.w3.org/2000/svg" xmlns:xlink="http://www.w3.org/1999/xlink" version="1.1" id="Layer_1" x="0px" y="0px" viewBox="0 0 512 512" style="enable-background:new 0 0 512 512;" xml:space="preserve">
<path style="fill:#00838F;" d="M503.467,256c0,136.67-110.797,247.467-247.467,247.467c-5.717,0-11.435,0-17.067-0.683  C102.639,492.638,0.375,373.922,10.522,237.628C19.61,115.447,116.745,18.313,238.933,9.216c5.632-0.683,11.349-0.683,17.067-0.683  C392.67,8.533,503.467,119.33,503.467,256z"/>
<path style="fill:#00BCD4;" d="M469.333,256c-0.051,130.014-100.693,237.815-230.4,246.784  C102.639,492.638,0.375,373.922,10.522,237.628C19.61,115.447,116.745,18.313,238.933,9.216  C368.64,18.185,469.282,125.986,469.333,256z"/>
<path d="M256,512C114.611,512,0,397.389,0,256S114.611,0,256,0s256,114.611,256,256S397.389,512,256,512z M256,17.067  C124.041,17.067,17.067,124.041,17.067,256S124.041,494.933,256,494.933S494.933,387.96,494.933,256S387.96,17.067,256,17.067z"/>
<path d="M60.501,247.467h-0.768c-4.685-0.41-8.158-4.531-7.765-9.216c8.414-99.157,87.049-177.826,186.197-186.283  c4.693-0.444,8.858,3.004,9.293,7.697c0.009,0.026,0.009,0.043,0.009,0.068c0.393,4.685-3.081,8.806-7.765,9.216  c-90.863,7.731-162.935,79.804-170.667,170.667C68.676,244.062,64.956,247.484,60.501,247.467z"/>
<path d="M94.805,247.467h-0.939c-4.685-0.495-8.09-4.693-7.595-9.378v-0.009c8.704-79.957,71.851-143.104,151.808-151.808  c4.71-0.495,8.934,2.927,9.429,7.637s-2.927,8.934-7.637,9.429l0,0c-71.902,7.859-128.674,64.631-136.533,136.533  C102.861,244.215,99.174,247.492,94.805,247.467z"/>
<path d="M129.109,247.467H128c-4.659-0.623-7.945-4.89-7.339-9.557c8.149-61.03,56.141-109.056,117.163-117.248  c4.71-0.64,9.045,2.671,9.685,7.381c0.64,4.71-2.671,9.045-7.381,9.685c-53.291,7.202-95.198,49.109-102.4,102.4  C137.122,244.403,133.427,247.552,129.109,247.467z"/>
<path d="M452.267,246.699c-4.429,0.017-8.132-3.354-8.533-7.765C436.002,148.07,363.93,75.998,273.067,68.267  c-4.685-0.41-8.158-4.531-7.765-9.216c0.358-4.702,4.463-8.218,9.165-7.859c0.017,0.009,0.034,0.009,0.051,0.009  C373.7,59.614,452.386,138.3,460.8,237.483c0.393,4.685-3.081,8.806-7.765,9.216H452.267z"/>
<path d="M418.133,246.699c-4.395,0.026-8.09-3.302-8.533-7.68c-7.817-71.936-64.606-128.751-136.533-136.619  c-4.71-0.495-8.132-4.719-7.637-9.429c0.495-4.71,4.719-8.132,9.429-7.637c80.017,8.713,143.181,71.953,151.808,151.979  c0.495,4.685-2.901,8.892-7.586,9.387h-0.009H418.133z"/>
<path d="M384,246.699c-4.429,0.017-8.132-3.354-8.533-7.765c-7.202-53.291-49.109-95.198-102.4-102.4  c-4.71-0.64-8.021-4.975-7.381-9.685c0.64-4.71,4.975-8.021,9.685-7.381c60.937,8.439,108.698,56.593,116.651,117.589  c0.606,4.668-2.679,8.934-7.339,9.557L384,246.699z"/>
<path d="M238.933,460.032h-0.768c-99.123-8.448-177.749-87.074-186.197-186.197c-0.401-4.71,3.098-8.858,7.808-9.259  s8.858,3.098,9.259,7.808c7.731,90.863,79.804,162.935,170.667,170.667c4.71,0.188,8.38,4.164,8.192,8.875  c-0.188,4.71-4.164,8.38-8.875,8.192L238.933,460.032z"/>
<path d="M238.933,425.813h-0.853c-79.991-8.713-143.147-71.902-151.808-151.893c-0.495-4.71,2.927-8.934,7.637-9.429  c4.71-0.495,8.934,2.927,9.429,7.637c7.859,71.902,64.631,128.674,136.533,136.533c4.71,0.239,8.346,4.25,8.107,8.96  c-0.239,4.71-4.25,8.346-8.96,8.107L238.933,425.813z"/>
<path d="M238.933,391.424h-1.109c-61.022-8.192-109.013-56.218-117.163-117.248c-0.64-4.71,2.671-9.045,7.381-9.685  c4.71-0.64,9.045,2.671,9.685,7.381l0,0c7.202,53.291,49.109,95.198,102.4,102.4c4.71,0.307,8.286,4.378,7.979,9.088  c-0.307,4.71-4.378,8.286-9.088,7.979L238.933,391.424z"/>
<path d="M273.749,460.8c-4.71,0.188-8.687-3.482-8.875-8.192c-0.188-4.71,3.482-8.687,8.192-8.875  c90.863-7.731,162.935-79.804,170.667-170.667c0.41-4.685,4.531-8.158,9.216-7.765c4.702,0.358,8.218,4.463,7.859,9.165  c0,0.017,0,0.034-0.009,0.051C452.386,373.7,373.7,452.386,274.517,460.8H273.749z"/>
<path d="M273.749,426.667c-4.71,0.239-8.721-3.396-8.96-8.107c-0.239-4.71,3.396-8.721,8.107-8.96  c71.97-7.782,128.828-64.58,136.704-136.533c0.495-4.71,4.719-8.132,9.429-7.637c4.71,0.495,8.132,4.719,7.637,9.429  c-8.713,80.017-71.953,143.181-151.979,151.808H273.749z"/>
<path d="M273.749,392.533c-4.71,0.188-8.687-3.482-8.875-8.192c-0.188-4.71,3.482-8.687,8.192-8.875  c53.291-7.202,95.198-49.109,102.4-102.4c0.64-4.71,4.975-8.021,9.685-7.381c4.71,0.64,8.021,4.975,7.381,9.685  c-8.405,60.971-56.559,108.774-117.589,116.736L273.749,392.533z"/>
<path style="fill:#F57C00;" d="M298.667,251.563c-3.354-6.067-7.68-11.546-12.8-16.213c-11.332-11.307-17.69-26.658-17.664-42.667  v-2.219c0.222-5.265,1.109-10.487,2.645-15.531c-9.037,5.086-16.597,12.442-21.931,21.333c-1.971,3.115-3.601,6.434-4.864,9.899  c-2.534,6.707-3.866,13.815-3.925,20.992c-0.043,0.171-0.043,0.341,0,0.512c0.026,11.827,3.49,23.39,9.984,33.28  c-10.701-6.246-17.655-17.34-18.603-29.696c-5.794,3.439-10.778,8.098-14.592,13.653c-1.015,1.263-1.869,2.637-2.56,4.096  c-4.019,7.04-6.11,15.019-6.059,23.125c-0.009,17.527,9.591,33.647,25.003,41.984l0,0c23.151,12.578,52.113,4.011,64.691-19.14  c1.203-2.21,2.227-4.514,3.063-6.886c1.792-5.129,2.714-10.522,2.731-15.957C303.625,264.977,301.875,257.954,298.667,251.563z"/>
<path style="fill:#FF9801;" d="M276.053,266.667c-0.111,5.419-1.118,10.786-2.987,15.872c-6.135,17.374-21.7,29.687-40.021,31.659  l0,0c-15.351-8.388-24.875-24.499-24.832-41.984c-0.051-8.107,2.039-16.085,6.059-23.125c0.691-1.459,1.545-2.833,2.56-4.096  c3.814-5.555,8.798-10.214,14.592-13.653c0.947,12.356,7.902,23.45,18.603,29.696c-6.494-9.89-9.958-21.453-9.984-33.28  c-0.043-0.171-0.043-0.341,0-0.512c0.06-7.177,1.391-14.285,3.925-20.992c2.935,8.849,7.91,16.887,14.507,23.467l0,0  c5.146,4.651,9.472,10.129,12.8,16.213C274.415,252.39,276.045,259.482,276.053,266.667z"/>
<path d="M256,328.533c-31.104-0.102-56.235-25.395-56.141-56.499c0.06-19.661,10.377-37.871,27.213-48.034  c1.399-0.879,3.038-1.297,4.693-1.195c1.69-23.236,15.019-44.041,35.413-55.296c4.122-2.287,9.318-0.794,11.597,3.328  c1.126,2.031,1.374,4.437,0.691,6.656c-1.306,4.326-2.057,8.798-2.219,13.312v1.877c-0.06,13.747,5.419,26.94,15.189,36.608l0,0  c5.76,5.214,10.607,11.358,14.336,18.176c6.443,13.491,7.27,28.988,2.304,43.093C301.244,313.207,279.962,328.431,256,328.533z   M226.475,246.443c-14.234,16.35-12.518,41.148,3.84,55.381c7.125,6.204,16.247,9.626,25.685,9.643  c21.632,0.051,39.202-17.451,39.253-39.083c0-0.06,0-0.111,0-0.171c0.034-5.905-1.28-11.742-3.84-17.067  c-2.884-5.18-6.605-9.847-11.008-13.824l0,0c-12.297-12.254-19.473-28.732-20.053-46.08c-1.425,1.792-2.739,3.669-3.925,5.632  c-10.317,17.007-10.018,38.409,0.768,55.125c2.569,3.951,1.442,9.233-2.509,11.802c-2.697,1.749-6.144,1.843-8.926,0.23  C237.193,263.074,230.434,255.514,226.475,246.443z"/>
<g>
</g>
<g>
</g>
<g>
</g>
<g>
</g>
<g>
</g>
<g>
</g>
<g>
</g>
<g>
</g>
<g>
</g>
<g>
</g>
<g>
</g>
<g>
</g>
<g>
</g>
<g>
</g>
<g>
</g>
</svg>
