<?xml version="1.0" encoding="iso-8859-1"?>
<!-- Generator: Adobe Illustrator 19.0.0, SVG Export Plug-In . SVG Version: 6.00 Build 0)  -->
<svg xmlns="http://www.w3.org/2000/svg" xmlns:xlink="http://www.w3.org/1999/xlink" version="1.1" id="Layer_1" x="0px" y="0px" viewBox="0 0 512 512" style="enable-background:new 0 0 512 512;" xml:space="preserve">
<path style="fill:#0377BC;" d="M503.467,64v238.933H8.533V64c0-18.85,15.283-34.133,34.133-34.133h426.667  C488.184,29.867,503.467,45.15,503.467,64z"/>
<path style="fill:#02A9F4;" d="M469.333,64v238.933H8.533V64C7.91,45.824,22.101,30.558,40.277,29.867h397.312  C455.765,30.558,469.956,45.824,469.333,64z"/>
<polygon style="fill:#FDD834;" points="332.8,166.4 315.733,166.4 315.733,243.2 281.6,243.2 281.6,166.4 298.667,166.4   238.933,113.323 256,98.133 "/>
<polygon style="fill:#FFEB3A;" points="298.667,166.4 281.6,166.4 281.6,243.2 273.067,243.2 273.067,200.533 238.933,200.533   238.933,243.2 196.267,243.2 196.267,166.4 179.2,166.4 238.933,113.323 "/>
<path d="M315.733,251.733h-42.667c-4.71,0-8.533-3.823-8.533-8.533v-34.133h-17.067V243.2c0,4.71-3.823,8.533-8.533,8.533h-42.667  c-4.71,0-8.533-3.823-8.533-8.533v-68.267H179.2c-4.71-0.009-8.525-3.831-8.525-8.542c0-2.441,1.058-4.77,2.893-6.391l76.8-68.267  c3.234-2.884,8.115-2.884,11.349,0l76.8,68.267c3.533,3.115,3.874,8.508,0.759,12.041c-1.638,1.86-4.002,2.91-6.477,2.893h-8.533  V243.2C324.267,247.91,320.444,251.733,315.733,251.733z M281.6,234.667h25.6V166.4c0.009-3.081,1.673-5.914,4.352-7.424  L256,109.568l-55.552,49.408c2.679,1.51,4.343,4.343,4.352,7.424v68.267h25.6v-34.133c0-4.71,3.823-8.533,8.533-8.533h34.133  c4.71,0,8.533,3.823,8.533,8.533V234.667z"/>
<path d="M503.467,311.467H8.533c-4.71,0-8.533-3.823-8.533-8.533V64c0-23.561,19.106-42.667,42.667-42.667h426.667  C492.894,21.333,512,40.439,512,64v238.933C512,307.644,508.177,311.467,503.467,311.467z M17.067,294.4h477.867V64  c0-14.14-11.46-25.6-25.6-25.6H42.667c-14.14,0-25.6,11.46-25.6,25.6V294.4z"/>
<g>
	<path style="fill:#37474F;" d="M503.467,302.933v51.2c0,18.85-15.283,34.133-34.133,34.133H42.667   c-18.85,0-34.133-15.283-34.133-34.133v-51.2H503.467z"/>
	<path style="fill:#37474F;" d="M325.205,448H186.795c12.066-17.553,18.364-38.434,18.005-59.733h102.4   C306.842,409.566,313.139,430.447,325.205,448z"/>
	<path style="fill:#37474F;" d="M85.333,448h341.333c9.429,0,17.067,7.637,17.067,17.067l0,0c0,9.429-7.637,17.067-17.067,17.067   H85.333c-9.429,0-17.067-7.637-17.067-17.067l0,0C68.267,455.637,75.904,448,85.333,448z"/>
</g>
<g>
	<path style="fill:#607D8B;" d="M469.333,302.933v51.2c0.623,18.176-13.568,33.442-31.744,34.133H40.277   c-18.176-0.691-32.367-15.957-31.744-34.133v-51.2H469.333z"/>
	<path style="fill:#607D8B;" d="M291.072,448h-94.805c8.567-18.731,12.851-39.134,12.544-59.733h69.803   C278.281,408.858,282.539,429.261,291.072,448z"/>
	<path style="fill:#607D8B;" d="M409.6,465.067L409.6,465.067c0.384,8.986-6.545,16.606-15.531,17.067H83.797   c-8.986-0.461-15.915-8.081-15.531-17.067l0,0c-0.384-8.986,6.545-16.606,15.531-17.067h310.272   C403.055,448.461,409.984,456.081,409.6,465.067z"/>
</g>
<path d="M469.333,396.8H42.667C19.106,396.8,0,377.694,0,354.133v-51.2c0-4.71,3.823-8.533,8.533-8.533h494.933  c4.71,0,8.533,3.823,8.533,8.533v51.2C512,377.694,492.894,396.8,469.333,396.8z M17.067,311.467v42.667  c0,14.14,11.46,25.6,25.6,25.6h426.667c14.14,0,25.6-11.46,25.6-25.6v-42.667H17.067z"/>
<path d="M325.205,456.533H186.795c-4.71,0.026-8.55-3.772-8.576-8.491c-0.009-1.937,0.64-3.814,1.835-5.333  c10.897-16.034,16.563-35.055,16.213-54.443c0-4.71,3.823-8.533,8.533-8.533h102.4c4.71,0,8.533,3.823,8.533,8.533  c-0.307,19.473,5.444,38.562,16.469,54.613c2.825,3.772,2.065,9.122-1.707,11.947C328.977,455.97,327.108,456.576,325.205,456.533z   M202.155,439.467h107.691c-6.417-13.38-10.214-27.861-11.179-42.667h-85.333C212.369,411.605,208.58,426.095,202.155,439.467z"/>
<path d="M426.667,490.667H85.333c-14.14,0-25.6-11.46-25.6-25.6c0-14.14,11.46-25.6,25.6-25.6h341.333c14.14,0,25.6,11.46,25.6,25.6  C452.267,479.206,440.806,490.667,426.667,490.667z M85.333,456.533c-4.71,0-8.533,3.823-8.533,8.533s3.823,8.533,8.533,8.533  h341.333c4.71,0,8.533-3.823,8.533-8.533s-3.823-8.533-8.533-8.533H85.333z"/>
<path d="M51.2,72.533h-8.533c-4.71,0-8.533-3.823-8.533-8.533c0-4.71,3.823-8.533,8.533-8.533H51.2c4.71,0,8.533,3.823,8.533,8.533  C59.733,68.71,55.91,72.533,51.2,72.533z"/>
<path d="M204.8,72.533H85.333c-4.71,0-8.533-3.823-8.533-8.533c0-4.71,3.823-8.533,8.533-8.533H204.8  c4.71,0,8.533,3.823,8.533,8.533C213.333,68.71,209.51,72.533,204.8,72.533z"/>
<path d="M264.533,354.133h-17.067c-4.71,0-8.533-3.823-8.533-8.533c0-4.71,3.823-8.533,8.533-8.533h17.067  c4.71,0,8.533,3.823,8.533,8.533C273.067,350.31,269.244,354.133,264.533,354.133z"/>
<g>
</g>
<g>
</g>
<g>
</g>
<g>
</g>
<g>
</g>
<g>
</g>
<g>
</g>
<g>
</g>
<g>
</g>
<g>
</g>
<g>
</g>
<g>
</g>
<g>
</g>
<g>
</g>
<g>
</g>
</svg>
