<?xml version="1.0" encoding="iso-8859-1"?>
<!-- Generator: Adobe Illustrator 19.0.0, SVG Export Plug-In . SVG Version: 6.00 Build 0)  -->
<svg xmlns="http://www.w3.org/2000/svg" xmlns:xlink="http://www.w3.org/1999/xlink" version="1.1" id="Layer_1" x="0px" y="0px" viewBox="0 0 512 512" style="enable-background:new 0 0 512 512;" xml:space="preserve">
<g>
	<path style="fill:#37474F;" d="M384,42.667v51.2H128v-51.2c0-18.85,15.283-34.133,34.133-34.133h187.733   C368.717,8.533,384,23.817,384,42.667z"/>
	<path style="fill:#37474F;" d="M384,366.933v102.4c0,18.85-15.283,34.133-34.133,34.133H162.133   c-18.85,0-34.133-15.283-34.133-34.133v-102.4H384z"/>
</g>
<g>
	<path style="fill:#607D8B;" d="M349.867,42.667v51.2H136.533v-51.2c0-18.859,12.715-34.133,28.416-34.133h156.501   C337.152,8.533,349.867,23.808,349.867,42.667z"/>
	<path style="fill:#607D8B;" d="M349.867,366.933v102.4c0,18.859-12.715,34.133-28.416,34.133H164.949   c-15.701,0-28.416-15.275-28.416-34.133v-102.4H349.867z"/>
</g>
<path d="M392.533,102.4H119.467V42.667C119.467,19.106,138.573,0,162.133,0h187.733c23.561,0,42.667,19.106,42.667,42.667V102.4z   M136.533,85.333h238.933V42.667c0-14.14-11.46-25.6-25.6-25.6H162.133c-14.14,0-25.6,11.46-25.6,25.6V85.333z"/>
<path d="M349.867,512H162.133c-23.561,0-42.667-19.106-42.667-42.667V358.4h273.067v110.933  C392.533,492.894,373.427,512,349.867,512z M136.533,375.467v93.867c0,14.14,11.46,25.6,25.6,25.6l0,0h187.733  c14.14,0,25.6-11.46,25.6-25.6l0,0v-93.867H136.533z"/>
<circle style="fill:#37474F;" cx="256" cy="435.2" r="34.133"/>
<path d="M256,477.867c-23.561,0-42.667-19.106-42.667-42.667s19.106-42.667,42.667-42.667c23.561,0,42.667,19.106,42.667,42.667  S279.561,477.867,256,477.867z M256,409.6c-14.14,0-25.6,11.46-25.6,25.6c0,14.14,11.46,25.6,25.6,25.6  c14.14,0,25.6-11.46,25.6-25.6C281.6,421.06,270.14,409.6,256,409.6z"/>
<rect x="128" y="93.867" style="fill:#0377BC;" width="256" height="273.067"/>
<rect x="128" y="93.867" style="fill:#02A9F4;" width="221.867" height="273.067"/>
<path d="M392.533,375.467H119.467V85.333h273.067V375.467z M136.533,358.4h238.933v-256H136.533V358.4z"/>
<path d="M281.6,59.733h-51.2c-4.71,0-8.533-3.823-8.533-8.533s3.823-8.533,8.533-8.533h51.2c4.71,0,8.533,3.823,8.533,8.533  S286.31,59.733,281.6,59.733z"/>
<polygon style="fill:#FDD834;" points="256,153.6 238.933,168.789 179.2,221.867 196.267,221.867 196.267,298.667 238.933,298.667   238.933,256 273.067,256 273.067,298.667 281.6,298.667 315.733,298.667 315.733,221.867 332.8,221.867 "/>
<polygon style="fill:#FFEB3A;" points="298.667,221.867 281.6,221.867 281.6,298.667 273.067,298.667 273.067,256 238.933,256   238.933,298.667 196.267,298.667 196.267,221.867 179.2,221.867 238.933,168.789 "/>
<path d="M315.733,307.2h-42.667c-4.71,0-8.533-3.823-8.533-8.533v-34.133h-17.067v34.133c0,4.71-3.823,8.533-8.533,8.533h-42.667  c-4.71,0-8.533-3.823-8.533-8.533V230.4H179.2c-4.71-0.009-8.525-3.831-8.525-8.542c0-2.441,1.058-4.77,2.893-6.391l76.8-68.267  c3.234-2.884,8.115-2.884,11.349,0l76.8,68.267c3.533,3.115,3.874,8.508,0.759,12.041c-1.638,1.86-4.002,2.91-6.477,2.893h-8.533  v68.267C324.267,303.377,320.444,307.2,315.733,307.2z M281.6,290.133h25.6v-68.267c0.009-3.081,1.673-5.914,4.352-7.424  L256,165.035l-55.552,49.408c2.679,1.51,4.343,4.343,4.352,7.424v68.267h25.6V256c0-4.71,3.823-8.533,8.533-8.533h34.133  c4.71,0,8.533,3.823,8.533,8.533V290.133z"/>
<g>
</g>
<g>
</g>
<g>
</g>
<g>
</g>
<g>
</g>
<g>
</g>
<g>
</g>
<g>
</g>
<g>
</g>
<g>
</g>
<g>
</g>
<g>
</g>
<g>
</g>
<g>
</g>
<g>
</g>
</svg>
