<?xml version="1.0" encoding="iso-8859-1"?>
<!-- Generator: Adobe Illustrator 19.0.0, SVG Export Plug-In . SVG Version: 6.00 Build 0)  -->
<svg xmlns="http://www.w3.org/2000/svg" xmlns:xlink="http://www.w3.org/1999/xlink" version="1.1" id="Layer_1" x="0px" y="0px" viewBox="0 0 512.005 512.005" style="enable-background:new 0 0 512.005 512.005;" xml:space="preserve">
<path style="fill:#F57C00;" d="M431.266,304.759L273.06,199.345l-12.367-8.529c-2.849-1.876-6.533-1.876-9.382,0l-12.367,8.529  L80.739,304.759c-2.405,1.586-3.855,4.281-3.838,7.164v12.452c0,4.708,3.821,8.529,8.529,8.529c4.708,0,8.529,3.821,8.529,8.529  v153.516c0,4.708,3.821,8.529,8.529,8.529h17.057c4.708,0,8.529-3.821,8.529-8.529V392.604c0-4.708,3.821-8.529,8.529-8.529h59.701  c4.708,0,8.529,3.821,8.529,8.529v102.344c0,4.708,3.821,8.529,8.529,8.529h196.159c4.708,0,8.529-3.821,8.529-8.529V341.432  c0-4.708,3.821-8.529,8.529-8.529s8.529-3.821,8.529-8.529v-12.452C435.113,309.04,433.671,306.345,431.266,304.759z"/>
<path style="fill:#FF9801;" d="M400.989,311.923v12.452c0,4.708-3.821,8.529-8.529,8.529s-8.529,3.821-8.529,8.529v153.516  c0,4.708-3.821,8.529-8.529,8.529H213.359c-4.708,0-8.529-3.821-8.529-8.529V392.604c0-4.708-3.821-8.529-8.529-8.529h-59.701  c-4.708,0-8.529,3.821-8.529,8.529v102.344c0,4.708-3.821,8.529-8.529,8.529h-17.057c-4.708,0-8.529-3.821-8.529-8.529V341.432  c0-4.708-3.821-8.529-8.529-8.529s-8.529-3.821-8.529-8.529v-12.452c-0.017-2.883,1.433-5.578,3.838-7.164l158.206-105.414  l158.206,105.414C399.557,306.345,400.998,309.04,400.989,311.923z"/>
<path d="M409.518,512.005H213.359c-9.424,0-17.057-7.633-17.057-17.057V392.604h-59.701v102.344c0,9.424-7.633,17.057-17.057,17.057  h-17.057c-9.424,0-17.057-7.633-17.057-17.057V341.432c-9.424,0-17.057-7.633-17.057-17.057v-12.452  c-0.017-5.723,2.832-11.07,7.59-14.243l112.663-74.967c2.806-1.8,6.405-1.8,9.211,0c35.761,21.629,80.57,21.629,116.331,0  c2.806-1.8,6.405-1.8,9.211,0l112.578,74.967c4.793,3.156,7.676,8.503,7.676,14.243v12.452c0,9.424-7.633,17.057-17.057,17.057  v153.516C426.575,504.372,418.934,512.005,409.518,512.005L409.518,512.005z M136.602,375.547h59.701  c9.424,0,17.057,7.633,17.057,17.057v102.344h196.159V341.432c0-9.424,7.633-17.057,17.057-17.057v-12.452l0,0l-108.143-72.067  c-38.882,21.347-85.977,21.347-124.859,0L85.43,311.838v12.537c9.424,0,17.057,7.633,17.057,17.057v153.516h17.057V392.604  C119.544,383.188,127.177,375.547,136.602,375.547z"/>
<path d="M128.073,341.432c-1.117-0.017-2.217-0.247-3.241-0.682c-1.032-0.435-1.987-1.041-2.814-1.791  c-1.595-1.612-2.49-3.787-2.473-6.055c-0.017-2.269,0.878-4.443,2.473-6.055c2.456-2.422,6.124-3.13,9.296-1.791  c1.032,0.435,1.987,1.04,2.814,1.791c1.561,1.638,2.439,3.795,2.473,6.055c0.026,1.117-0.205,2.226-0.682,3.241  c-0.435,1.032-1.04,1.987-1.791,2.814C132.516,340.554,130.333,341.449,128.073,341.432z"/>
<path d="M366.875,341.432H153.659c-4.708,0-8.529-3.821-8.529-8.529s3.821-8.529,8.529-8.529h213.216  c4.708,0,8.529,3.821,8.529,8.529S371.583,341.432,366.875,341.432z"/>
<path style="fill:#FDD834;" d="M375.403,128.216c-0.017,36.613-16.836,71.197-45.628,93.815c-3.548,2.789-7.249,5.382-11.087,7.761  c-18.814,11.693-40.537,17.868-62.686,17.825c-5.706-0.009-11.403-0.409-17.057-1.194c-16.221-2.473-31.761-8.281-45.628-17.057  c-3.838-2.379-7.539-4.972-11.087-7.761c-51.632-41.014-60.238-116.126-19.224-167.758c18.84-23.71,45.986-39.385,75.939-43.837  c5.654-0.785,11.352-1.185,17.057-1.194C321.946,8.815,375.403,62.273,375.403,128.216z"/>
<path style="fill:#FFEB3A;" d="M341.289,128.216c-0.017,36.613-16.836,71.197-45.628,93.815c-3.548,2.789-7.249,5.382-11.087,7.761  c-13.868,8.776-29.407,14.584-45.628,17.057c-16.221-2.473-31.761-8.281-45.628-17.057c-3.838-2.379-7.539-4.972-11.087-7.761  c-51.837-40.767-60.801-115.836-20.034-167.665c18.942-24.085,46.421-39.965,76.749-44.357  C297.699,18.495,341.297,68.857,341.289,128.216z"/>
<path d="M256.003,256.146c-23.744,0.034-47.027-6.584-67.206-19.104c-4.102-2.618-8.06-5.467-11.855-8.529  c-55.547-43.667-65.176-124.092-21.518-179.639s124.092-65.176,179.639-21.518s65.176,124.092,21.518,179.639  c-6.294,8-13.509,15.224-21.518,21.518c-3.787,3.062-7.744,5.91-11.855,8.529C303.029,249.57,279.746,256.188,256.003,256.146z   M256.003,17.344c-61.236,0.222-110.693,50.038-110.472,111.273c0.119,33.825,15.676,65.739,42.242,86.677  c3.301,2.601,6.746,5.023,10.32,7.249c39.445,24.119,89.713,21.228,126.139-7.249c48.093-37.901,56.349-107.614,18.447-155.707  C321.741,33.019,289.819,17.472,256.003,17.344z"/>
<path style="fill:#AD1457;" d="M329.605,92.737c-1.979-4.708-4.878-8.972-8.529-12.537c-3.531-3.693-7.804-6.593-12.537-8.529  c-9.799-4.213-20.904-4.213-30.703,0l-1.706,0.768c-4.034,1.945-7.693,4.571-10.831,7.761c-3.966,4.239-7.138,9.143-9.382,14.499  c-2.243-5.356-5.416-10.26-9.382-14.499c-2.243-2.371-4.827-4.384-7.676-5.97c-1.527-1.023-3.156-1.876-4.861-2.559  c-9.799-4.213-20.904-4.213-30.703,0l-1.706,0.768c-4.077,1.868-7.753,4.503-10.831,7.761c-3.65,3.565-6.55,7.829-8.529,12.537  c-2.03,4.887-3.045,10.141-2.985,15.437c-0.026,5.305,1.049,10.567,3.156,15.437l1.194,2.217l55.351,62.089l13.816,15.522  c1.527,1.791,4.222,2.004,6.013,0.469c0.171-0.145,0.324-0.298,0.469-0.469l69.167-77.696l1.194-2.217  c2.098-4.844,3.173-10.072,3.156-15.352C332.769,102.869,331.694,97.615,329.605,92.737z"/>
<path style="fill:#E91E63;" d="M298.646,108.174c0.026,5.305-1.049,10.567-3.156,15.437l-1.194,2.217l-55.351,62.089l-55.351-62.174  l-1.194-2.217c-2.098-4.844-3.173-10.072-3.156-15.352c-0.009-5.305,1.066-10.558,3.156-15.437  c1.979-4.708,4.878-8.972,8.529-12.537c3.079-3.258,6.755-5.893,10.831-7.761l1.706-0.768c9.799-4.213,20.904-4.213,30.703,0  c1.706,0.682,3.335,1.535,4.861,2.559c2.849,1.586,5.433,3.599,7.676,5.97c3.966,4.239,7.138,9.143,9.382,14.499  c2.243-5.356,5.416-10.26,9.382-14.499c3.139-3.19,6.797-5.817,10.831-7.761c4.077,1.868,7.753,4.503,10.831,7.761  c3.65,3.565,6.55,7.829,8.529,12.537C297.69,97.632,298.705,102.877,298.646,108.174z"/>
<path d="M256.003,213.502c-3.684,0-7.198-1.586-9.637-4.35l-69.082-77.696c-0.384-0.452-0.733-0.938-1.023-1.45l-1.279-1.791  l-0.426-0.938c-7.633-18.081-3.548-38.993,10.32-52.878c4.35-4.418,9.544-7.932,15.266-10.32c11.94-5.032,25.415-5.032,37.355,0  c5.723,2.388,10.917,5.893,15.266,10.32c1.185,1.177,2.294,2.431,3.326,3.753c1.058-1.348,2.192-2.635,3.411-3.838  c4.35-4.426,9.544-7.932,15.266-10.32c11.94-5.032,25.415-5.032,37.355,0c11.522,4.895,20.69,14.064,25.586,25.586  c5.049,12,5.049,25.526,0,37.526l-0.682,1.109l-1.279,2.217c-0.29,0.512-0.64,0.998-1.023,1.45l-69.082,77.696  C263.115,212.18,259.619,213.605,256.003,213.502z M190.588,120.796l65.415,73.517l66.012-74.626  c1.467-3.659,2.217-7.573,2.217-11.514c0.034-4.153-0.776-8.281-2.388-12.111c-1.535-3.71-3.795-7.07-6.652-9.893  c-2.78-2.883-6.115-5.177-9.808-6.738c-7.684-3.284-16.366-3.284-24.051,0c-3.684,1.535-7.019,3.795-9.808,6.652  c-3.173,3.471-5.74,7.446-7.59,11.77c-1.791,4.358-6.772,6.439-11.13,4.648c-2.107-0.87-3.778-2.542-4.648-4.648  c-1.834-4.281-4.367-8.23-7.505-11.684c-2.917-2.9-6.396-5.168-10.234-6.652c-7.684-3.284-16.366-3.284-24.051,0  c-3.684,1.535-7.019,3.804-9.808,6.652c-2.857,2.823-5.117,6.183-6.652,9.893c-1.527,3.855-2.252,7.974-2.132,12.111  c0,3.94,0.751,7.855,2.217,11.514L190.588,120.796z"/>
<g>
</g>
<g>
</g>
<g>
</g>
<g>
</g>
<g>
</g>
<g>
</g>
<g>
</g>
<g>
</g>
<g>
</g>
<g>
</g>
<g>
</g>
<g>
</g>
<g>
</g>
<g>
</g>
<g>
</g>
</svg>
