<?xml version="1.0" encoding="iso-8859-1"?>
<!-- Generator: Adobe Illustrator 19.0.0, SVG Export Plug-In . SVG Version: 6.00 Build 0)  -->
<svg xmlns="http://www.w3.org/2000/svg" xmlns:xlink="http://www.w3.org/1999/xlink" version="1.1" id="Layer_1" x="0px" y="0px" viewBox="0 0 512 512" style="enable-background:new 0 0 512 512;" xml:space="preserve">
<path style="fill:#FDD834;" d="M418.133,171.349c-0.196,38.938-14.473,76.493-40.192,105.728  c-7.083,8.533-14.933,15.701-21.845,24.064c-7.066,8.465-13.483,17.451-19.2,26.88c-7.057,11.153-12.783,23.1-17.067,35.584  c-2.79,9.387-4.173,19.132-4.096,28.928c0,4.71-3.823,8.533-8.533,8.533H204.8c-4.71,0-8.533-3.823-8.533-8.533  c0.026-9.916-1.442-19.789-4.352-29.269c-4.284-12.484-10.01-24.431-17.067-35.584c-5.717-9.429-12.134-18.415-19.2-26.88  c-6.912-8.533-14.763-15.787-21.845-24.064c-25.549-29.184-39.731-66.594-39.936-105.387  C94.601,88.636,156.774,19.405,238.933,9.813c5.658-0.777,11.358-1.203,17.067-1.28C345.284,9.779,417.263,82.057,418.133,171.349z"/>
<path style="fill:#FFEB3A;" d="M384,171.349c-0.196,38.938-14.473,76.493-40.192,105.728c-7.083,8.533-14.933,15.701-21.845,24.064  c-7.066,8.465-13.483,17.451-19.2,26.88c-7.057,11.153-12.783,23.1-17.067,35.584c-2.79,9.387-4.173,19.132-4.096,28.928  c0,4.71-3.823,8.533-8.533,8.533H204.8c-4.71,0-8.533-3.823-8.533-8.533c0.026-9.916-1.442-19.789-4.352-29.269  c-4.284-12.484-10.01-24.431-17.067-35.584c-5.717-9.429-12.134-18.415-19.2-26.88c-6.912-8.533-14.763-15.787-21.845-24.064  c-25.549-29.184-39.731-66.594-39.936-105.387C94.601,88.636,156.774,19.405,238.933,9.813  C321.092,19.405,383.266,88.636,384,171.349z"/>
<g>
	<path style="fill:#607D8B;" d="M213.333,401.067h85.333l0,0v25.6c0,4.71-3.823,8.533-8.533,8.533h-68.267   c-4.71,0-8.533-3.823-8.533-8.533V401.067L213.333,401.067z"/>
	<path style="fill:#607D8B;" d="M230.4,435.2h51.2l0,0v25.6c0,4.71-3.823,8.533-8.533,8.533h-34.133   c-4.71,0-8.533-3.823-8.533-8.533V435.2L230.4,435.2z"/>
	<path style="fill:#607D8B;" d="M238.933,469.333h34.133l0,0v25.6c0,4.71-3.823,8.533-8.533,8.533h-17.067   c-4.71,0-8.533-3.823-8.533-8.533V469.333L238.933,469.333z"/>
</g>
<g>
	<path style="fill:#CFD8DC;" d="M213.333,401.067h59.733l0,0v25.6c0,4.71-3.823,8.533-8.533,8.533h-42.667   c-4.71,0-8.533-3.823-8.533-8.533V401.067L213.333,401.067z"/>
	<path style="fill:#CFD8DC;" d="M230.4,435.2H256l0,0v25.6c0,4.71-3.823,8.533-8.533,8.533h-8.533c-4.71,0-8.533-3.823-8.533-8.533   V435.2L230.4,435.2z"/>
</g>
<path d="M307.2,409.6H204.8c-9.233,0-16.794-7.33-17.067-16.555c0.034-9.079-1.289-18.108-3.925-26.795  c-3.994-11.964-9.378-23.424-16.043-34.133c-5.495-8.977-11.657-17.536-18.432-25.6c-3.669-4.437-7.595-8.533-11.776-12.971  c-4.181-4.437-6.741-7.168-9.984-10.923c-26.974-30.822-41.967-70.315-42.24-111.275C86.263,79.01,159.462,3.635,251.733,0l0,0  h8.533l0,0c92.271,3.635,165.47,79.01,166.4,171.349c-0.35,41.071-15.497,80.64-42.667,111.445  c-3.243,3.755-6.656,7.339-9.984,10.923s-8.107,8.533-11.776,13.056c-6.767,8.064-12.928,16.623-18.432,25.6  c-6.665,10.709-12.049,22.17-16.043,34.133c-2.475,8.627-3.652,17.57-3.499,26.539C323.994,402.27,316.433,409.6,307.2,409.6z   M256,17.067c-84.514,1.382-152.593,69.76-153.6,154.283c0.247,36.881,13.756,72.439,38.059,100.181  c3.072,3.584,6.315,6.997,9.557,10.325c3.243,3.328,8.533,8.96,12.544,13.909c7.313,8.764,13.961,18.065,19.883,27.819  c7.33,11.75,13.261,24.329,17.664,37.461c3.123,10.206,4.71,20.813,4.693,31.488h102.4c-0.026-10.641,1.553-21.231,4.693-31.403  c4.403-13.133,10.334-25.711,17.664-37.461c6.059-9.771,12.851-19.072,20.309-27.819c4.011-4.949,8.533-9.472,12.544-13.909  c4.011-4.437,6.4-6.827,9.472-10.325c24.201-27.81,37.581-63.403,37.717-100.267C408.593,86.827,340.514,18.449,256,17.067z"/>
<path d="M290.133,443.733h-68.267c-9.429,0-17.067-7.637-17.067-17.067v-34.133h102.4v34.133  C307.2,436.096,299.563,443.733,290.133,443.733z M221.867,409.6v17.067h68.267V409.6H221.867z"/>
<path d="M273.067,477.867h-34.133c-9.429,0-17.067-7.637-17.067-17.067v-34.133h68.267V460.8  C290.133,470.229,282.496,477.867,273.067,477.867z M238.933,443.733V460.8h34.133v-17.067H238.933z"/>
<path d="M264.533,512h-17.067c-9.429,0-17.067-7.637-17.067-17.067V460.8h51.2v34.133C281.6,504.363,273.963,512,264.533,512z   M247.467,477.867v17.067h17.067v-17.067H247.467z"/>
<path d="M238.933,401.067c-4.71,0-8.533-3.823-8.533-8.533v-48.555c-8.533-5.973-25.6-21.163-25.6-42.667V281.6  c0-4.71,3.823-8.533,8.533-8.533s8.533,3.823,8.533,8.533v20.053c0,17.067,21.163,30.464,21.419,30.549  c2.594,1.536,4.181,4.326,4.181,7.339v52.992C247.467,397.244,243.644,401.067,238.933,401.067z"/>
<path d="M273.067,401.067c-4.71,0-8.533-3.823-8.533-8.533v-53.077c0-3.012,1.587-5.803,4.181-7.339  c0,0,21.419-13.056,21.419-30.635V281.6c0-4.71,3.823-8.533,8.533-8.533c4.71,0,8.533,3.823,8.533,8.533v20.053  c0,21.333-17.067,36.437-25.6,42.667v48.213C281.6,397.244,277.777,401.067,273.067,401.067z"/>
<path d="M256,213.333c-10.351,0.06-20.523-2.688-29.44-7.936l-2.304-1.28c-1.766-1.109-3.473-2.304-5.12-3.584  c-1.527-1.161-2.978-2.415-4.352-3.755c-11.81-11.255-18.5-26.863-18.517-43.179c-0.06-8.858,1.894-17.613,5.717-25.6  c14.08-29.833,49.69-42.598,79.514-28.518c12.518,5.914,22.605,15.991,28.518,28.518c10.914,23.031,6.007,50.441-12.203,68.267  c-1.442,1.468-2.978,2.833-4.608,4.096c-1.792,1.365-3.328,2.56-5.035,3.584l-2.816,1.621  C276.446,210.739,266.308,213.427,256,213.333z M256,110.933c-16.529,0.102-31.548,9.643-38.656,24.576  c-2.679,5.649-4.053,11.836-4.011,18.091c0.017,11.725,4.864,22.929,13.397,30.976c0.913,0.879,1.886,1.707,2.901,2.475l3.499,2.475  l1.963,1.109c12.928,7.398,28.8,7.398,41.728,0l2.475-1.451l3.413-2.475c1.084-0.845,2.108-1.758,3.072-2.731  c8.192-7.987,12.834-18.935,12.885-30.379c0.017-6.289-1.382-12.501-4.096-18.176C287.539,120.482,272.512,110.942,256,110.933z"/>
<path d="M256,179.2c-4.71,0-8.533-3.823-8.533-8.533v-34.133c0-4.71,3.823-8.533,8.533-8.533c4.71,0,8.533,3.823,8.533,8.533v34.133  C264.533,175.377,260.71,179.2,256,179.2z"/>
<g>
</g>
<g>
</g>
<g>
</g>
<g>
</g>
<g>
</g>
<g>
</g>
<g>
</g>
<g>
</g>
<g>
</g>
<g>
</g>
<g>
</g>
<g>
</g>
<g>
</g>
<g>
</g>
<g>
</g>
</svg>
