<?xml version="1.0" encoding="iso-8859-1"?>
<!-- Generator: Adobe Illustrator 19.0.0, SVG Export Plug-In . SVG Version: 6.00 Build 0)  -->
<svg xmlns="http://www.w3.org/2000/svg" xmlns:xlink="http://www.w3.org/1999/xlink" version="1.1" id="Layer_1" x="0px" y="0px" viewBox="0 0 512 512" style="enable-background:new 0 0 512 512;" xml:space="preserve">
<path style="fill:#0377BC;" d="M375.467,145.066c0,2.901,0,5.717,0,8.533c-0.777,11.691-3.311,23.194-7.509,34.133  c-6.187,16.068-15.761,30.626-28.075,42.667c-3.063,3.046-6.306,5.897-9.728,8.533c-3.55,2.79-7.253,5.385-11.093,7.765  l-2.987,1.707c-18.21,10.675-38.963,16.247-60.075,16.128c-5.717,0.009-11.418-0.418-17.067-1.28  c-15.061-2.082-29.568-7.125-42.667-14.848l-2.987-1.707c-3.84-2.381-7.543-4.975-11.093-7.765  c-3.422-2.637-6.665-5.487-9.728-8.533c-12.314-12.041-21.888-26.598-28.075-42.667c-4.318-10.914-6.963-22.426-7.851-34.133  c0-2.816,0-5.632,0-8.533c-0.034-17.715,3.9-35.209,11.52-51.2c17.143-36.173,51.26-61.355,90.88-67.072  C244.591,26,250.291,25.599,256,25.599C321.98,25.599,375.467,79.086,375.467,145.066z"/>
<path style="fill:#02A9F4;" d="M341.333,145.066c0,2.901,0,5.717,0,8.533c-0.777,11.691-3.311,23.194-7.509,34.133  c-6.187,16.068-15.761,30.626-28.075,42.667c-3.063,3.046-6.306,5.897-9.728,8.533c-3.55,2.79-7.253,5.385-11.093,7.765  l-2.987,1.707c-13.099,7.723-27.605,12.766-42.667,14.848c-15.061-2.082-29.568-7.125-42.667-14.848l-2.987-1.707  c-3.84-2.381-7.543-4.975-11.093-7.765c-3.422-2.637-6.665-5.487-9.728-8.533c-12.314-12.041-21.888-26.598-28.075-42.667  c-4.437-10.897-7.194-22.409-8.192-34.133c0-2.816,0-5.632,0-8.533c-0.034-17.715,3.9-35.209,11.52-51.2  c17.143-36.173,51.26-61.355,90.88-67.072c39.62,5.717,73.737,30.899,90.88,67.072C337.434,109.857,341.367,127.351,341.333,145.066  z"/>
<path style="fill:#607D8B;" d="M503.467,255.999v179.2c0,9.429-7.637,17.067-17.067,17.067h-34.133  c9.429,0,17.067-7.637,17.067-17.067v-179.2c0-9.429-7.637-17.067-17.067-17.067H486.4  C495.829,238.933,503.467,246.57,503.467,255.999z"/>
<path style="fill:#CFD8DC;" d="M469.333,255.999v179.2c0,9.429-7.637,17.067-17.067,17.067H25.6  c-9.429,0-17.067-7.637-17.067-17.067v-179.2c0-9.429,7.637-17.067,17.067-17.067h156.587c3.55,2.79,7.253,5.385,11.093,7.765  l2.987,1.707c13.099,7.723,27.605,12.766,42.667,14.848c5.649,0.862,11.349,1.289,17.067,1.28  c20.992,0.06,41.626-5.513,59.733-16.128l2.987-1.707c3.84-2.381,7.543-4.975,11.093-7.765h122.453  C461.696,238.933,469.333,246.57,469.333,255.999z"/>
<circle style="fill:#009688;" cx="256" cy="349.866" r="34.133"/>
<polygon style="fill:#F44335;" points="358.4,324.266 358.4,375.466 392.533,349.866 "/>
<path style="fill:#37474F;" d="M42.667,452.266h435.2l0,0v17.067c0,9.429-7.637,17.067-17.067,17.067H59.733  c-9.429,0-17.067-7.637-17.067-17.067V452.266L42.667,452.266z"/>
<g>
	<circle style="fill:#009688;" cx="64" cy="354.133" r="21.333"/>
	<circle style="fill:#009688;" cx="140.8" cy="354.133" r="21.333"/>
</g>
<path d="M486.4,460.799H25.6c-14.14,0-25.6-11.46-25.6-25.6v-179.2c0-14.14,11.46-25.6,25.6-25.6h156.587  c1.911-0.017,3.78,0.614,5.291,1.792c3.302,2.603,6.75,5.026,10.325,7.253l2.304,1.365c34.364,19.678,76.57,19.678,110.933,0  l2.731-1.536c3.627-2.167,7.134-4.531,10.496-7.083c1.51-1.178,3.379-1.809,5.291-1.792H486.4c14.14,0,25.6,11.46,25.6,25.6v179.2  C512,449.339,500.54,460.799,486.4,460.799z M25.6,247.466c-4.71,0-8.533,3.823-8.533,8.533v179.2c0,4.71,3.823,8.533,8.533,8.533  h460.8c4.71,0,8.533-3.823,8.533-8.533v-179.2c0-4.71-3.823-8.533-8.533-8.533H332.8c-2.987,2.304-6.144,4.437-9.472,6.485  c-1.186,0.742-2.415,1.434-3.669,2.048c-39.552,23.04-88.448,23.04-128,0l-3.243-1.877c-3.243-2.048-6.4-4.181-9.387-6.4  L25.6,247.466z"/>
<path d="M256,392.533c-23.561,0-42.667-19.106-42.667-42.667s19.106-42.667,42.667-42.667c23.561,0,42.667,19.106,42.667,42.667  S279.561,392.533,256,392.533z M256,324.266c-14.14,0-25.6,11.46-25.6,25.6c0,14.14,11.46,25.6,25.6,25.6  c14.14,0,25.6-11.46,25.6-25.6C281.6,335.726,270.14,324.266,256,324.266z"/>
<path d="M256,324.266c-4.71,0-8.533-3.823-8.533-8.533v-17.067c0-4.71,3.823-8.533,8.533-8.533c4.71,0,8.533,3.823,8.533,8.533  v17.067C264.533,320.443,260.71,324.266,256,324.266z"/>
<path d="M256,409.599c-4.71,0-8.533-3.823-8.533-8.533v-17.067c0-4.71,3.823-8.533,8.533-8.533c4.71,0,8.533,3.823,8.533,8.533  v17.067C264.533,405.776,260.71,409.599,256,409.599z"/>
<path d="M221.867,358.399H204.8c-4.71,0-8.533-3.823-8.533-8.533s3.823-8.533,8.533-8.533h17.067c4.71,0,8.533,3.823,8.533,8.533  S226.577,358.399,221.867,358.399z"/>
<path d="M307.2,358.399h-17.067c-4.71,0-8.533-3.823-8.533-8.533s3.823-8.533,8.533-8.533H307.2c4.71,0,8.533,3.823,8.533,8.533  S311.91,358.399,307.2,358.399z"/>
<path d="M64,383.999c-16.495,0-29.867-13.372-29.867-29.867c0-16.495,13.372-29.867,29.867-29.867s29.867,13.372,29.867,29.867  C93.867,370.627,80.495,383.999,64,383.999z M64,341.333c-7.066,0-12.8,5.726-12.8,12.8s5.734,12.8,12.8,12.8  c7.066,0,12.8-5.734,12.8-12.8C76.8,347.067,71.066,341.333,64,341.333z"/>
<path d="M140.8,383.999c-16.495,0-29.867-13.372-29.867-29.867c0-16.495,13.372-29.867,29.867-29.867s29.867,13.372,29.867,29.867  C170.667,370.627,157.295,383.999,140.8,383.999z M140.8,341.333c-7.066,0-12.8,5.734-12.8,12.8c0,7.066,5.734,12.8,12.8,12.8  s12.8-5.734,12.8-12.8C153.6,347.067,147.866,341.333,140.8,341.333z"/>
<path d="M358.4,383.999c-4.71,0-8.533-3.823-8.533-8.533v-51.2c0-4.71,3.823-8.533,8.533-8.533c1.843,0,3.644,0.597,5.12,1.707  l34.133,25.6c3.772,2.825,4.531,8.175,1.707,11.947c-0.486,0.649-1.058,1.22-1.707,1.707l-34.133,25.6  C362.044,383.402,360.243,383.999,358.4,383.999z M366.933,341.333v17.067l11.349-8.533L366.933,341.333z"/>
<path d="M435.2,375.466c-4.71,0-8.533-3.823-8.533-8.533v-34.133c0-4.71,3.823-8.533,8.533-8.533s8.533,3.823,8.533,8.533v34.133  C443.733,371.643,439.91,375.466,435.2,375.466z"/>
<path d="M469.333,375.466c-4.71,0-8.533-3.823-8.533-8.533v-34.133c0-4.71,3.823-8.533,8.533-8.533c4.71,0,8.533,3.823,8.533,8.533  v34.133C477.867,371.643,474.044,375.466,469.333,375.466z"/>
<path d="M460.8,494.933H59.733c-14.14,0-25.6-11.46-25.6-25.6v-17.067c0-4.71,3.823-8.533,8.533-8.533h435.2  c4.71,0,8.533,3.823,8.533,8.533v17.067C486.4,483.472,474.94,494.933,460.8,494.933z M51.2,460.799v8.533  c0,4.71,3.823,8.533,8.533,8.533H460.8c4.71,0,8.533-3.823,8.533-8.533v-8.533H51.2z"/>
<path d="M256,273.066c-22.502,0.111-44.621-5.786-64.085-17.067l-3.243-1.877c-4.079-2.62-8.013-5.47-11.776-8.533  c-3.686-2.85-7.194-5.922-10.496-9.216c-13.124-12.86-23.313-28.407-29.867-45.568c-4.676-11.733-7.552-24.107-8.533-36.693  c0-2.816,0-5.888,0-9.045c-0.051-18.987,4.173-37.743,12.373-54.869c30.319-63.863,106.675-91.051,170.53-60.723  c26.633,12.646,48.077,34.091,60.723,60.723c8.201,17.126,12.433,35.883,12.373,54.869c0,3.157,0,6.229,0,9.301  c-0.998,12.501-3.874,24.789-8.533,36.437c-6.596,17.237-16.845,32.836-30.037,45.739c-3.302,3.294-6.81,6.366-10.496,9.216  c-3.763,3.055-7.697,5.905-11.776,8.533c-1.186,0.742-2.415,1.434-3.669,2.048C300.177,267.434,278.272,273.202,256,273.066z   M256,34.133c-42.82,0.137-81.792,24.772-100.267,63.403c-7.083,14.839-10.735,31.087-10.667,47.531c0,2.645,0,5.205,0,7.765  c0.717,10.931,3.072,21.692,6.997,31.915c5.751,14.925,14.652,28.433,26.112,39.595c2.816,2.807,5.803,5.436,8.96,7.851  c3.337,2.611,6.81,5.035,10.411,7.253l2.304,1.365c34.364,19.678,76.57,19.678,110.933,0l2.731-1.536  c3.712-2.159,7.305-4.523,10.752-7.083c3.157-2.423,6.144-5.043,8.96-7.851c11.469-11.187,20.378-24.721,26.112-39.68  c4.105-10.086,6.665-20.727,7.595-31.573c0-2.816,0-5.376,0-8.021c0.068-16.444-3.575-32.691-10.667-47.531  C337.792,58.905,298.82,34.261,256,34.133z"/>
<path d="M51.2,281.599h-8.533c-4.71,0-8.533-3.823-8.533-8.533s3.823-8.533,8.533-8.533H51.2c4.71,0,8.533,3.823,8.533,8.533  C59.733,277.776,55.91,281.599,51.2,281.599z"/>
<path d="M170.667,281.599H85.333c-4.71,0-8.533-3.823-8.533-8.533s3.823-8.533,8.533-8.533h85.333c4.71,0,8.533,3.823,8.533,8.533  C179.2,277.776,175.377,281.599,170.667,281.599z"/>
<path d="M68.267,494.933c-4.71-0.017-8.516-3.857-8.499-8.567c0.009-2.27,0.922-4.437,2.526-6.025l34.901-34.133  c3.371-3.302,8.772-3.243,12.075,0.128s3.243,8.772-0.128,12.075l0,0L74.24,492.543C72.636,494.088,70.494,494.941,68.267,494.933z"/>
<path d="M111.872,494.933c-4.71-0.017-8.516-3.857-8.499-8.567c0.009-2.261,0.922-4.429,2.526-6.025l34.901-34.133  c3.371-3.302,8.772-3.243,12.075,0.128s3.243,8.772-0.128,12.075l0,0l-34.901,34.133  C116.241,494.088,114.099,494.941,111.872,494.933z"/>
<path d="M155.563,494.933c-4.71-0.017-8.516-3.857-8.499-8.567c0.009-2.261,0.922-4.429,2.526-6.025l34.901-34.133  c2.884-3.729,8.243-4.412,11.972-1.527c3.729,2.884,4.412,8.243,1.527,11.972c-0.495,0.64-1.075,1.203-1.724,1.673l-34.901,34.133  C159.821,493.994,157.739,494.873,155.563,494.933z"/>
<path d="M199.168,494.933c-4.71-0.017-8.516-3.857-8.499-8.567c0.009-2.261,0.922-4.429,2.526-6.025l34.901-34.133  c3.371-3.302,8.772-3.243,12.075,0.128c3.302,3.371,3.243,8.772-0.128,12.075l0,0l-34.901,34.133  C203.537,494.088,201.395,494.941,199.168,494.933z"/>
<path d="M242.773,494.933c-4.71-0.017-8.516-3.857-8.499-8.567c0.009-2.261,0.922-4.429,2.526-6.025l34.901-34.133  c3.371-3.302,8.772-3.243,12.075,0.128c3.302,3.371,3.243,8.772-0.128,12.075l0,0l-34.901,34.133  C247.142,494.088,245.001,494.941,242.773,494.933z"/>
<path d="M286.464,494.933c-4.71-0.017-8.516-3.857-8.499-8.567c0.009-2.261,0.922-4.429,2.526-6.025l34.901-34.133  c3.371-3.302,8.772-3.243,12.075,0.128c3.302,3.371,3.243,8.772-0.128,12.075l0,0l-34.901,34.133  C290.833,494.088,288.691,494.941,286.464,494.933z"/>
<path d="M330.069,494.933c-4.71-0.017-8.516-3.857-8.499-8.567c0.009-2.261,0.922-4.429,2.526-6.025l34.901-34.133  c3.371-3.302,8.772-3.243,12.075,0.128c3.302,3.371,3.243,8.772-0.128,12.075l0,0l-34.901,34.133  C334.438,494.088,332.297,494.941,330.069,494.933z"/>
<path d="M373.76,494.933c-4.71-0.017-8.516-3.857-8.499-8.567c0.009-2.261,0.922-4.429,2.526-6.025l34.901-34.133  c3.371-3.302,8.772-3.243,12.075,0.128c3.302,3.371,3.243,8.772-0.128,12.075l0,0l-34.901,34.133  C378.129,494.088,375.987,494.941,373.76,494.933z"/>
<path d="M417.365,494.933c-4.71-0.017-8.516-3.857-8.499-8.567c0.009-2.261,0.922-4.429,2.526-6.025l34.901-34.133  c3.371-3.302,8.772-3.243,12.075,0.128c3.302,3.371,3.243,8.772-0.128,12.075l0,0l-34.901,34.133  C421.734,494.088,419.593,494.941,417.365,494.933z"/>
<g>
	<path style="fill:#8BC34A;" d="M221.867,102.399L221.867,102.399c9.429,0,17.067,7.637,17.067,17.067v51.2   c0,9.429-7.637,17.067-17.067,17.067l0,0c-9.429,0-17.067-7.637-17.067-17.067v-51.2   C204.8,110.037,212.437,102.399,221.867,102.399z"/>
	<path style="fill:#8BC34A;" d="M290.133,102.399L290.133,102.399c9.429,0,17.067,7.637,17.067,17.067v51.2   c0,9.429-7.637,17.067-17.067,17.067l0,0c-9.429,0-17.067-7.637-17.067-17.067v-51.2   C273.067,110.037,280.704,102.399,290.133,102.399z"/>
</g>
<path d="M221.867,196.266c-14.14,0-25.6-11.46-25.6-25.6v-51.2c0-14.14,11.46-25.6,25.6-25.6c14.14,0,25.6,11.46,25.6,25.6v51.2  C247.467,184.806,236.006,196.266,221.867,196.266z M221.867,110.933c-4.71,0-8.533,3.823-8.533,8.533v51.2  c0,4.71,3.823,8.533,8.533,8.533c4.71,0,8.533-3.823,8.533-8.533v-51.2C230.4,114.747,226.577,110.933,221.867,110.933z"/>
<path d="M290.133,196.266c-14.14,0-25.6-11.46-25.6-25.6v-51.2c0-14.14,11.46-25.6,25.6-25.6c14.14,0,25.6,11.46,25.6,25.6v51.2  C315.733,184.806,304.273,196.266,290.133,196.266z M290.133,110.933c-4.71,0-8.533,3.823-8.533,8.533v51.2  c0,4.71,3.823,8.533,8.533,8.533c4.71,0,8.533-3.823,8.533-8.533v-51.2C298.667,114.747,294.844,110.933,290.133,110.933z"/>
<g>
</g>
<g>
</g>
<g>
</g>
<g>
</g>
<g>
</g>
<g>
</g>
<g>
</g>
<g>
</g>
<g>
</g>
<g>
</g>
<g>
</g>
<g>
</g>
<g>
</g>
<g>
</g>
<g>
</g>
</svg>
