<?xml version="1.0" encoding="iso-8859-1"?>
<!-- Generator: Adobe Illustrator 19.0.0, SVG Export Plug-In . SVG Version: 6.00 Build 0)  -->
<svg xmlns="http://www.w3.org/2000/svg" xmlns:xlink="http://www.w3.org/1999/xlink" version="1.1" id="Layer_1" x="0px" y="0px" viewBox="0 0 512 512" style="enable-background:new 0 0 512 512;" xml:space="preserve">
<path style="fill:#607D8B;" d="M503.467,256.041v179.2c0,9.429-7.637,17.067-17.067,17.067h-34.133  c9.429,0,17.067-7.637,17.067-17.067v-179.2c0-9.429-7.637-17.067-17.067-17.067H486.4  C495.829,238.975,503.467,246.612,503.467,256.041z"/>
<path style="fill:#CFD8DC;" d="M469.333,256.041v179.2c0,9.429-7.637,17.067-17.067,17.067H25.6  c-9.429,0-17.067-7.637-17.067-17.067v-179.2c0-9.429,7.637-17.067,17.067-17.067h156.587c3.55,2.79,7.253,5.385,11.093,7.765  l2.987,1.707c13.099,7.723,27.605,12.766,42.667,14.848c5.649,0.862,11.349,1.289,17.067,1.28  c20.992,0.06,41.626-5.513,59.733-16.128l2.987-1.707c3.84-2.381,7.543-4.975,11.093-7.765h122.453  C461.696,238.975,469.333,246.612,469.333,256.041z"/>
<circle style="fill:#009688;" cx="256" cy="349.951" r="34.133"/>
<polygon style="fill:#F44335;" points="358.4,324.308 358.4,375.508 392.533,349.908 "/>
<path style="fill:#37474F;" d="M42.667,452.308h435.2l0,0v17.067c0,9.429-7.637,17.067-17.067,17.067H59.733  c-9.429,0-17.067-7.637-17.067-17.067V452.308L42.667,452.308z"/>
<g>
	<circle style="fill:#009688;" cx="64" cy="354.175" r="21.333"/>
	<circle style="fill:#009688;" cx="140.8" cy="354.175" r="21.333"/>
</g>
<path style="fill:#F57C00;" d="M375.467,145.108c0,2.901,0,5.717,0,8.533c-0.777,11.691-3.311,23.194-7.509,34.133  c-6.187,16.077-15.761,30.626-28.075,42.667c-3.063,3.046-6.306,5.897-9.728,8.533c-3.55,2.79-7.253,5.385-11.093,7.765  l-2.987,1.707c-18.21,10.675-38.963,16.247-60.075,16.128c-5.717,0.009-11.418-0.418-17.067-1.28  c-15.061-2.082-29.568-7.125-42.667-14.848l-2.987-1.707c-3.84-2.381-7.543-4.975-11.093-7.765  c-3.422-2.637-6.665-5.487-9.728-8.533c-12.314-12.041-21.888-26.59-28.075-42.667c-4.318-10.914-6.963-22.426-7.851-34.133  c0-2.816,0-5.632,0-8.533c-0.034-17.715,3.9-35.209,11.52-51.2c17.143-36.173,51.26-61.355,90.88-67.072  c5.658-0.785,11.358-1.186,17.067-1.195C321.98,25.641,375.467,79.128,375.467,145.108z"/>
<path style="fill:#FF9801;" d="M341.333,145.108c0,2.901,0,5.717,0,8.533c-0.777,11.691-3.311,23.194-7.509,34.133  c-6.187,16.077-15.761,30.626-28.075,42.667c-3.063,3.046-6.306,5.897-9.728,8.533c-3.55,2.79-7.253,5.385-11.093,7.765  l-2.987,1.707c-13.099,7.723-27.605,12.766-42.667,14.848c-15.061-2.082-29.568-7.125-42.667-14.848l-2.987-1.707  c-3.84-2.381-7.543-4.975-11.093-7.765c-3.422-2.637-6.665-5.487-9.728-8.533c-12.314-12.041-21.888-26.59-28.075-42.667  c-4.437-10.897-7.194-22.409-8.192-34.133c0-2.816,0-5.632,0-8.533c-0.034-17.715,3.9-35.209,11.52-51.2  c17.143-36.173,51.26-61.355,90.88-67.072c39.62,5.717,73.737,30.899,90.88,67.072C337.434,109.899,341.367,127.393,341.333,145.108  z"/>
<circle style="fill:#FFEB3A;" cx="256" cy="145.065" r="34.133"/>
<path d="M486.4,460.841H25.6c-14.14,0-25.6-11.46-25.6-25.6v-179.2c0-14.14,11.46-25.6,25.6-25.6h156.587  c1.911-0.017,3.78,0.614,5.291,1.792c3.302,2.603,6.75,5.026,10.325,7.253l2.304,1.28c34.355,19.695,76.578,19.695,110.933,0  l2.731-1.536c3.627-2.142,7.125-4.471,10.496-6.997c1.51-1.178,3.379-1.809,5.291-1.792H486.4c14.14,0,25.6,11.46,25.6,25.6v179.2  C512,449.381,500.54,460.841,486.4,460.841z M25.6,247.508c-4.71,0-8.533,3.823-8.533,8.533v179.2c0,4.71,3.823,8.533,8.533,8.533  h460.8c4.71,0,8.533-3.823,8.533-8.533v-179.2c0-4.71-3.823-8.533-8.533-8.533H332.8c-3.072,2.304-6.144,4.437-9.472,6.485  c-1.186,0.777-2.415,1.485-3.669,2.133c-39.552,23.04-88.448,23.04-128,0l-3.243-1.877c-3.243-2.048-6.4-4.181-9.387-6.4  L25.6,247.508z"/>
<path d="M256,392.575c-23.561,0-42.667-19.106-42.667-42.667s19.106-42.667,42.667-42.667c23.561,0,42.667,19.106,42.667,42.667  S279.561,392.575,256,392.575z M256,324.308c-14.14,0-25.6,11.46-25.6,25.6s11.46,25.6,25.6,25.6c14.14,0,25.6-11.46,25.6-25.6  S270.14,324.308,256,324.308z"/>
<path d="M256,324.308c-4.71,0-8.533-3.823-8.533-8.533v-17.067c0-4.71,3.823-8.533,8.533-8.533c4.71,0,8.533,3.823,8.533,8.533  v17.067C264.533,320.485,260.71,324.308,256,324.308z"/>
<path d="M256,409.641c-4.71,0-8.533-3.823-8.533-8.533v-17.067c0-4.71,3.823-8.533,8.533-8.533c4.71,0,8.533,3.823,8.533,8.533  v17.067C264.533,405.818,260.71,409.641,256,409.641z"/>
<path d="M221.867,358.441H204.8c-4.71,0-8.533-3.823-8.533-8.533s3.823-8.533,8.533-8.533h17.067c4.71,0,8.533,3.823,8.533,8.533  S226.577,358.441,221.867,358.441z"/>
<path d="M307.2,358.441h-17.067c-4.71,0-8.533-3.823-8.533-8.533s3.823-8.533,8.533-8.533H307.2c4.71,0,8.533,3.823,8.533,8.533  S311.91,358.441,307.2,358.441z"/>
<path d="M64,384.041c-16.495,0-29.867-13.372-29.867-29.867c0-16.495,13.372-29.867,29.867-29.867s29.867,13.372,29.867,29.867  C93.867,370.67,80.495,384.041,64,384.041z M64,341.375c-7.066,0-12.8,5.734-12.8,12.8c0,7.066,5.734,12.8,12.8,12.8  c7.066,0,12.8-5.734,12.8-12.8C76.8,347.109,71.066,341.375,64,341.375z"/>
<path d="M140.8,384.041c-16.495,0-29.867-13.372-29.867-29.867c0-16.495,13.372-29.867,29.867-29.867s29.867,13.372,29.867,29.867  C170.667,370.67,157.295,384.041,140.8,384.041z M140.8,341.375c-7.066,0-12.8,5.734-12.8,12.8c0,7.066,5.734,12.8,12.8,12.8  s12.8-5.734,12.8-12.8C153.6,347.109,147.866,341.375,140.8,341.375z"/>
<path d="M358.4,384.041c-4.71,0-8.533-3.823-8.533-8.533v-51.2c0-4.71,3.823-8.533,8.533-8.533c1.843,0,3.644,0.597,5.12,1.707  l34.133,25.6c3.772,2.825,4.531,8.175,1.707,11.947c-0.486,0.649-1.058,1.22-1.707,1.707l-34.133,25.6  C362.044,383.444,360.243,384.041,358.4,384.041z M366.933,341.375v17.067l11.349-8.533L366.933,341.375z"/>
<path d="M435.2,375.508c-4.71,0-8.533-3.823-8.533-8.533v-34.133c0-4.71,3.823-8.533,8.533-8.533s8.533,3.823,8.533,8.533v34.133  C443.733,371.685,439.91,375.508,435.2,375.508z"/>
<path d="M469.333,375.508c-4.71,0-8.533-3.823-8.533-8.533v-34.133c0-4.71,3.823-8.533,8.533-8.533c4.71,0,8.533,3.823,8.533,8.533  v34.133C477.867,371.685,474.044,375.508,469.333,375.508z"/>
<path d="M460.8,494.975H59.733c-14.14,0-25.6-11.46-25.6-25.6v-17.067c0-4.71,3.823-8.533,8.533-8.533h435.2  c4.71,0,8.533,3.823,8.533,8.533v17.067C486.4,483.514,474.94,494.975,460.8,494.975z M51.2,460.841v8.533  c0,4.71,3.823,8.533,8.533,8.533H460.8c4.71,0,8.533-3.823,8.533-8.533v-8.533H51.2z"/>
<path d="M256,273.108c-22.502,0.111-44.621-5.786-64.085-17.067l-3.243-1.877c-4.079-2.62-8.013-5.47-11.776-8.533  c-3.686-2.85-7.194-5.931-10.496-9.216c-13.124-12.86-23.313-28.407-29.867-45.568c-4.676-11.733-7.552-24.107-8.533-36.693  c0-2.816,0-5.888,0-9.045c-0.051-18.987,4.181-37.743,12.373-54.869C170.65,26.358,246.972-0.889,310.861,29.388  c26.701,12.655,48.205,34.15,60.851,60.851c8.166,17.135,12.365,35.891,12.288,54.869c0,3.157,0,6.229,0,9.301  c-0.998,12.501-3.874,24.789-8.533,36.437c-6.622,17.237-16.896,32.845-30.123,45.739c-3.302,3.294-6.801,6.366-10.496,9.216  c-3.789,3.063-7.748,5.914-11.861,8.533c-1.186,0.777-2.415,1.485-3.669,2.133C300.049,267.51,278.204,273.245,256,273.108z   M256,34.175c-42.82,0.137-81.792,24.772-100.267,63.403c-7.083,14.839-10.735,31.087-10.667,47.531c0,2.645,0,5.205,0,7.765  c0.717,10.931,3.072,21.692,6.997,31.915c5.726,14.916,14.601,28.425,26.027,39.595c2.816,2.799,5.811,5.427,8.96,7.851  c3.337,2.611,6.81,5.026,10.411,7.253l2.304,1.28c34.355,19.695,76.578,19.695,110.933,0l2.731-1.536  c3.738-2.125,7.356-4.463,10.837-6.997c3.149-2.423,6.144-5.043,8.96-7.851c11.469-11.187,20.378-24.721,26.112-39.68  c4.105-10.086,6.665-20.727,7.595-31.573c0-2.816,0-5.376,0-8.021c0.068-16.444-3.584-32.691-10.667-47.531  C337.792,58.947,298.82,34.311,256,34.175z"/>
<path d="M256,187.775c-23.561,0-42.667-19.106-42.667-42.667s19.106-42.667,42.667-42.667c23.561,0,42.667,19.106,42.667,42.667  S279.561,187.775,256,187.775z M256,119.508c-14.14,0-25.6,11.46-25.6,25.6s11.46,25.6,25.6,25.6c14.14,0,25.6-11.46,25.6-25.6  S270.14,119.508,256,119.508z"/>
<path d="M256,119.508c-4.71,0-8.533-3.823-8.533-8.533V61.311c0-4.71,3.823-8.533,8.533-8.533c4.71,0,8.533,3.823,8.533,8.533  v49.664C264.533,115.685,260.71,119.508,256,119.508z"/>
<path d="M304.213,201.855c-2.27,0.017-4.446-0.879-6.059-2.475l-22.613-22.613c-3.063-3.575-2.645-8.969,0.93-12.032  c3.191-2.739,7.91-2.739,11.102,0l22.613,22.613c3.345,3.319,3.371,8.721,0.051,12.066c-1.613,1.63-3.814,2.534-6.11,2.526  L304.213,201.855z"/>
<path d="M51.2,281.641h-8.533c-4.71,0-8.533-3.823-8.533-8.533c0-4.71,3.823-8.533,8.533-8.533H51.2c4.71,0,8.533,3.823,8.533,8.533  C59.733,277.818,55.91,281.641,51.2,281.641z"/>
<path d="M170.667,281.641H85.333c-4.71,0-8.533-3.823-8.533-8.533c0-4.71,3.823-8.533,8.533-8.533h85.333  c4.71,0,8.533,3.823,8.533,8.533C179.2,277.818,175.377,281.641,170.667,281.641z"/>
<path d="M68.267,494.975c-4.71-0.017-8.516-3.857-8.499-8.567c0.009-2.261,0.922-4.429,2.526-6.025l34.901-34.133  c3.371-3.302,8.772-3.243,12.075,0.128c3.302,3.371,3.243,8.772-0.128,12.075l0,0L74.24,492.585  C72.636,494.13,70.494,494.992,68.267,494.975z"/>
<path d="M111.872,494.975c-4.71-0.017-8.516-3.857-8.499-8.567c0.009-2.261,0.922-4.429,2.526-6.025l34.901-34.133  c3.371-3.302,8.772-3.243,12.075,0.128c3.302,3.371,3.243,8.772-0.128,12.075l0,0l-34.901,34.133  C116.241,494.13,114.099,494.992,111.872,494.975z"/>
<path d="M155.563,494.975c-4.71-0.017-8.516-3.857-8.499-8.567c0.009-2.261,0.922-4.429,2.526-6.025l34.901-34.133  c2.884-3.729,8.243-4.412,11.972-1.527c3.729,2.884,4.412,8.243,1.527,11.972c-0.495,0.64-1.075,1.203-1.724,1.673L161.365,492.5  C159.821,494.036,157.739,494.924,155.563,494.975z"/>
<path d="M199.168,494.975c-4.71-0.017-8.516-3.857-8.499-8.567c0.009-2.261,0.922-4.429,2.526-6.025l34.901-34.133  c3.371-3.302,8.772-3.243,12.075,0.128c3.302,3.371,3.243,8.772-0.128,12.075l0,0l-34.901,34.133  C203.537,494.13,201.395,494.992,199.168,494.975z"/>
<path d="M242.773,494.975c-4.71-0.017-8.516-3.857-8.499-8.567c0.009-2.261,0.922-4.429,2.526-6.025l34.901-34.133  c3.371-3.302,8.772-3.243,12.075,0.128c3.302,3.371,3.243,8.772-0.128,12.075l0,0l-34.901,34.133  C247.142,494.13,245.001,494.992,242.773,494.975z"/>
<path d="M286.464,494.975c-4.71-0.017-8.516-3.857-8.499-8.567c0.009-2.261,0.922-4.429,2.526-6.025l34.901-34.133  c3.371-3.302,8.772-3.243,12.075,0.128c3.302,3.371,3.243,8.772-0.128,12.075l0,0l-34.901,34.133  C290.833,494.13,288.691,494.992,286.464,494.975z"/>
<path d="M330.069,494.975c-4.71-0.017-8.516-3.857-8.499-8.567c0.009-2.261,0.922-4.429,2.526-6.025l34.901-34.133  c3.371-3.302,8.772-3.243,12.075,0.128c3.302,3.371,3.243,8.772-0.128,12.075l0,0l-34.901,34.133  C334.438,494.13,332.297,494.992,330.069,494.975z"/>
<path d="M373.76,494.975c-4.71-0.017-8.516-3.857-8.499-8.567c0.009-2.261,0.922-4.429,2.526-6.025l34.901-34.133  c3.371-3.302,8.772-3.243,12.075,0.128c3.302,3.371,3.243,8.772-0.128,12.075l0,0l-34.901,34.133  C378.129,494.13,375.987,494.992,373.76,494.975z"/>
<path d="M417.365,494.975c-4.71-0.017-8.516-3.857-8.499-8.567c0.009-2.261,0.922-4.429,2.526-6.025l34.901-34.133  c3.371-3.302,8.772-3.243,12.075,0.128c3.302,3.371,3.243,8.772-0.128,12.075l0,0l-34.901,34.133  C421.734,494.13,419.593,494.992,417.365,494.975z"/>
<g>
</g>
<g>
</g>
<g>
</g>
<g>
</g>
<g>
</g>
<g>
</g>
<g>
</g>
<g>
</g>
<g>
</g>
<g>
</g>
<g>
</g>
<g>
</g>
<g>
</g>
<g>
</g>
<g>
</g>
</svg>
