<?xml version="1.0" encoding="iso-8859-1"?>
<!-- Generator: Adobe Illustrator 19.0.0, SVG Export Plug-In . SVG Version: 6.00 Build 0)  -->
<svg xmlns="http://www.w3.org/2000/svg" xmlns:xlink="http://www.w3.org/1999/xlink" version="1.1" id="Layer_1" x="0px" y="0px" viewBox="0 0 511.996 511.996" style="enable-background:new 0 0 511.996 511.996;" xml:space="preserve">
<path style="fill:#1566C0;" d="M375.437,128.053c0.051,32.12-12.908,62.902-35.917,85.313c-3.063,3.046-6.305,5.895-9.726,8.531  c-3.549,2.79-7.252,5.383-11.091,7.764l-2.986,1.706c-18.104,10.613-38.732,16.184-59.719,16.124  c-5.716,0.009-11.415-0.418-17.063-1.28c-15.058-2.082-29.561-7.124-42.657-14.845l-2.986-1.706  c-3.839-2.38-7.542-4.974-11.091-7.764c-3.421-2.636-6.663-5.486-9.726-8.531c-47.136-46.146-47.938-121.768-1.792-168.904  C189.018,25.737,213,13.563,238.935,9.809c5.656-0.785,11.355-1.186,17.063-1.194C321.962,8.614,375.437,62.089,375.437,128.053z"/>
<path style="fill:#2296F3;" d="M341.311,128.053c0.051,32.12-12.908,62.902-35.917,85.313c-3.063,3.046-6.305,5.895-9.726,8.531  c-3.549,2.79-7.252,5.383-11.091,7.764l-2.986,1.706c-13.096,7.721-27.599,12.763-42.657,14.845  c-15.058-2.082-29.561-7.124-42.657-14.845l-2.986-1.706c-3.839-2.38-7.542-4.974-11.091-7.764  c-3.421-2.636-6.663-5.486-9.726-8.531c-47.136-46.146-47.938-121.768-1.792-168.904C189.018,25.737,213,13.563,238.935,9.809  c39.611,5.716,73.719,30.892,90.859,67.056C337.404,92.853,341.345,110.342,341.311,128.053z"/>
<path style="fill:#37474F;" d="M503.407,162.178v281.534c0,14.136-11.458,25.594-25.594,25.594H34.183  c-14.136,0-25.594-11.458-25.594-25.594V162.179c0-14.136,11.458-25.594,25.594-25.594h102.376  c0.776,11.688,3.31,23.188,7.508,34.125c6.185,16.073,15.757,30.619,28.068,42.657c3.063,3.046,6.305,5.895,9.726,8.531  c3.549,2.79,7.252,5.383,11.091,7.764l2.986,1.706l6.228,3.413c6.279,3.199,12.848,5.801,19.622,7.764  c1.339,0.452,2.713,0.819,4.095,1.109c1.28,0,2.645,0.682,4.01,1.024c2.807,0.683,5.656,1.194,8.531,1.536  c2.73,0,5.631,0.768,8.531,0.938c2.901,0.171,5.716,0,8.531,0c20.987,0.06,41.616-5.511,59.719-16.124l2.986-1.706  c3.839-2.38,7.542-4.974,11.091-7.764c3.421-2.636,6.663-5.486,9.726-8.531c12.311-12.038,21.883-26.584,28.068-42.657  c4.462-10.784,7.277-22.164,8.361-33.784h102.376C491.949,136.584,503.407,148.042,503.407,162.178z"/>
<path style="fill:#607D8B;" d="M469.281,162.178v281.534c0,14.136-11.458,25.594-25.594,25.594H34.183  c-14.136,0-25.594-11.458-25.594-25.594V162.179c0-14.136,11.458-25.594,25.594-25.594h102.376  c0.776,11.688,3.31,23.188,7.508,34.125c6.185,16.073,15.757,30.619,28.068,42.657c3.063,3.046,6.305,5.895,9.726,8.531  c3.549,2.79,7.252,5.383,11.091,7.764l2.986,1.706l6.228,3.413c6.279,3.199,12.848,5.801,19.622,7.764  c1.339,0.452,2.713,0.819,4.095,1.109c1.28,0,2.645,0.682,4.01,1.024c2.807,0.683,5.656,1.194,8.531,1.536  c2.73,0,5.631,0.768,8.531,0.938c2.901,0.171,5.716,0,8.531,0c20.987,0.06,41.616-5.511,59.719-16.124l2.986-1.706  c3.839-2.38,7.542-4.974,11.091-7.764c3.421-2.636,6.663-5.486,9.726-8.531c12.311-12.038,21.883-26.584,28.068-42.657  c4.462-10.784,7.277-22.164,8.361-33.784h68.251C457.824,136.584,469.281,148.042,469.281,162.178z"/>
<path style="fill:#37474F;" d="M324.249,503.432H187.747c34.125,0,34.125-34.125,34.125-34.125h68.251  C290.123,469.307,290.123,503.432,324.249,503.432z"/>
<path style="fill:#0377BC;" d="M469.281,179.241v221.815c0,4.709-3.822,8.531-8.531,8.531h-34.125c4.709,0,8.531-3.822,8.531-8.531  V179.241c0-4.709-3.822-8.531-8.531-8.531h34.125C465.459,170.71,469.281,174.532,469.281,179.241z"/>
<path style="fill:#02A9F4;" d="M435.156,179.241v221.815c0,4.709-3.822,8.531-8.531,8.531H51.246c-4.709,0-8.531-3.822-8.531-8.531  V179.241c0-4.709,3.822-8.531,8.531-8.531h93.162c6.185,16.073,15.757,30.619,28.068,42.657c3.063,3.046,6.305,5.895,9.726,8.531  c3.549,2.79,7.252,5.383,11.091,7.764l2.986,1.706c13.096,7.721,27.599,12.763,42.657,14.845c5.648,0.862,11.347,1.288,17.063,1.28  c20.987,0.06,41.616-5.511,59.719-16.124l2.986-1.706c3.839-2.38,7.542-4.974,11.091-7.764c3.421-2.636,6.663-5.486,9.726-8.531  c12.311-12.038,21.883-26.584,28.068-42.657h59.037C431.334,170.71,435.156,174.532,435.156,179.241z"/>
<path d="M477.813,477.838H34.183c-18.846,0-34.125-15.28-34.125-34.125V162.178c0-18.846,15.28-34.125,34.125-34.125h102.376  c4.522-0.009,8.258,3.506,8.531,8.019c0.734,10.843,3.088,21.508,6.996,31.651c5.725,14.913,14.597,28.418,26.021,39.585  c2.815,2.798,5.81,5.426,8.958,7.849c3.336,2.611,6.808,5.025,10.408,7.252l2.303,1.28c34.347,19.69,76.56,19.69,110.907,0  l2.73-1.536c3.737-2.124,7.354-4.462,10.835-6.996c3.148-2.423,6.143-5.042,8.958-7.849c11.466-11.185,20.373-24.715,26.106-39.671  c4.104-10.084,6.663-20.723,7.593-31.566c0.273-4.513,4.01-8.028,8.531-8.019h102.376c18.846,0,34.125,15.28,34.125,34.125v281.534  C511.938,462.559,496.658,477.838,477.813,477.838z M34.183,145.116c-9.427,0-17.063,7.636-17.063,17.063v281.534  c0,9.427,7.636,17.063,17.063,17.063h443.63c9.427,0,17.063-7.636,17.063-17.063V162.179c0-9.427-7.636-17.063-17.063-17.063  h-94.954c-3.771,28.256-16.935,54.43-37.367,74.308c-3.302,3.293-6.799,6.364-10.494,9.214c-3.788,3.063-7.746,5.912-11.859,8.531  c-1.186,0.776-2.414,1.484-3.668,2.133c-39.543,23.035-88.427,23.035-127.97,0l-3.242-1.877c-4.078-2.619-8.011-5.469-11.773-8.531  c-3.686-2.849-7.192-5.929-10.494-9.214c-20.296-20.015-33.281-46.283-36.855-74.564L34.183,145.116L34.183,145.116z"/>
<path d="M187.747,511.964c-4.709,0-8.531-3.822-8.531-8.531s3.822-8.531,8.531-8.531c13.411,0.725,24.869-9.555,25.594-22.966  c0.051-0.879,0.051-1.757,0-2.628c0-4.709,3.822-8.531,8.531-8.531l0,0c4.709,0,8.531,3.822,8.531,8.531  c0.862,22.693-16.832,41.795-39.526,42.657C189.829,512.006,188.788,512.006,187.747,511.964z"/>
<path d="M324.249,511.964c-22.693,0.862-41.795-16.832-42.657-39.526c-0.043-1.041-0.043-2.09,0-3.131  c0-4.709,3.822-8.531,8.531-8.531s8.531,3.822,8.531,8.531c-0.725,13.411,9.555,24.869,22.966,25.594  c0.879,0.051,1.757,0.051,2.628,0c4.709,0,8.531,3.822,8.531,8.531S328.958,511.964,324.249,511.964z"/>
<path d="M460.75,418.119H51.246c-9.427,0-17.063-7.636-17.063-17.063V179.241c0-9.427,7.636-17.063,17.063-17.063h93.162  c3.515,0.009,6.672,2.175,7.934,5.46c5.75,14.921,14.648,28.426,26.106,39.585c2.815,2.798,5.81,5.426,8.958,7.849  c3.336,2.611,6.808,5.025,10.408,7.252l2.303,1.28c34.347,19.69,76.56,19.69,110.907,0l2.73-1.536  c3.617-2.107,7.124-4.419,10.494-6.91c3.148-2.423,6.143-5.042,8.958-7.849c11.466-11.185,20.373-24.715,26.106-39.671  c1.263-3.285,4.419-5.452,7.934-5.46h93.503c9.427,0,17.063,7.636,17.063,17.063v221.815  C477.813,410.483,470.169,418.119,460.75,418.119z M51.246,179.241v221.815H460.75V179.241h-87.446  c-6.603,15.058-16.047,28.699-27.812,40.183c-3.302,3.293-6.799,6.364-10.494,9.214c-3.788,3.063-7.746,5.912-11.859,8.531  c-1.186,0.776-2.414,1.484-3.668,2.133c-39.543,23.035-88.427,23.035-127.97,0l-3.242-1.877c-4.078-2.619-8.011-5.469-11.773-8.531  c-3.686-2.849-7.192-5.929-10.494-9.214c-11.62-11.594-20.893-25.33-27.3-40.439L51.246,179.241L51.246,179.241z"/>
<path d="M392.499,511.964H119.496c-4.709,0-8.531-3.822-8.531-8.531s3.822-8.531,8.531-8.531h273.003  c4.709,0,8.531,3.822,8.531,8.531S397.209,511.964,392.499,511.964z"/>
<path d="M85.371,213.367H76.84c-4.709,0-8.531-3.822-8.531-8.531s3.822-8.531,8.531-8.531h8.531c4.709,0,8.531,3.822,8.531,8.531  S90.08,213.367,85.371,213.367z"/>
<path d="M162.153,213.367h-42.657c-4.709,0-8.531-3.822-8.531-8.531s3.822-8.531,8.531-8.531h42.657  c4.709,0,8.531,3.822,8.531,8.531S166.862,213.367,162.153,213.367z"/>
<path d="M255.998,256.023c-22.497,0.111-44.61-5.784-64.07-17.063l-3.242-1.877c-4.078-2.619-8.011-5.469-11.773-8.531  c-3.686-2.849-7.192-5.929-10.494-9.214c-13.121-12.857-23.308-28.401-29.86-45.557c-4.675-11.731-7.55-24.101-8.531-36.685  c0-2.815,0-5.887,0-9.043c-0.051-18.982,4.18-37.734,12.37-54.857C170.667,9.331,246.972-17.91,310.846,12.36  c26.695,12.652,48.194,34.142,60.837,60.837c8.165,17.131,12.362,35.883,12.285,54.857c0,3.157,0,6.228,0,9.299  c-0.998,12.498-3.873,24.784-8.531,36.429c-6.62,17.233-16.892,32.837-30.116,45.728c-3.302,3.293-6.799,6.364-10.494,9.214  c-3.788,3.063-7.746,5.912-11.859,8.531c-1.186,0.776-2.414,1.484-3.668,2.133C300.037,250.427,278.196,256.16,255.998,256.023z   M255.998,17.146c-42.81,0.137-81.773,24.766-100.243,63.388c-7.081,14.836-10.732,31.08-10.664,47.52c0,2.645,0,5.204,0,7.764  c0.717,10.929,3.071,21.687,6.996,31.907c5.725,14.913,14.597,28.418,26.021,39.585c2.815,2.798,5.81,5.426,8.958,7.849  c3.336,2.611,6.808,5.025,10.408,7.252l2.303,1.28c34.347,19.69,76.56,19.69,110.907,0l2.73-1.536  c3.737-2.124,7.354-4.462,10.835-6.996c3.148-2.423,6.143-5.042,8.958-7.849c11.466-11.185,20.373-24.715,26.106-39.671  c4.104-10.084,6.663-20.723,7.593-31.566c0-2.815,0-5.375,0-8.019c0.068-16.44-3.583-32.684-10.664-47.52  C337.762,41.912,298.808,17.282,255.998,17.146z"/>
<path d="M255.998,187.773c-10.349,0.06-20.518-2.687-29.433-7.934l-2.303-1.28c-1.766-1.135-3.481-2.355-5.119-3.668  c-1.536-1.186-2.986-2.466-4.351-3.839c-11.816-11.185-18.513-26.729-18.513-42.998c-0.051-8.856,1.902-17.609,5.716-25.594  c14.077-29.826,49.678-42.588,79.495-28.512c12.515,5.912,22.6,15.988,28.512,28.512c10.912,23.026,6.006,50.429-12.2,68.251  c-1.442,1.442-2.986,2.781-4.607,4.01c-1.792,1.365-3.413,2.559-5.034,3.583l-2.73,1.621  C276.507,185.145,266.338,187.858,255.998,187.773z M255.998,85.396c-16.559-0.009-31.626,9.572-38.647,24.57  c-2.679,5.648-4.052,11.833-4.01,18.086c0.017,11.722,4.863,22.924,13.394,30.969c0.913,0.887,1.877,1.715,2.901,2.474  c1.109,0.853,2.133,1.621,3.498,2.474l1.962,1.109c12.925,7.397,28.793,7.397,41.718,0l2.474-1.365l3.413-2.474  c1.083-0.845,2.107-1.757,3.071-2.73c12.891-12.746,16.312-32.257,8.531-48.629C287.308,95.028,272.412,85.507,255.998,85.396z"/>
<path d="M255.998,153.647c-4.709,0-8.531-3.822-8.531-8.531V110.99c0-4.709,3.822-8.531,8.531-8.531  c4.709,0,8.531,3.822,8.531,8.531v34.125C264.529,149.825,260.707,153.647,255.998,153.647z"/>
<g>
</g>
<g>
</g>
<g>
</g>
<g>
</g>
<g>
</g>
<g>
</g>
<g>
</g>
<g>
</g>
<g>
</g>
<g>
</g>
<g>
</g>
<g>
</g>
<g>
</g>
<g>
</g>
<g>
</g>
</svg>
