<?xml version="1.0" encoding="iso-8859-1"?>
<!-- Generator: Adobe Illustrator 19.0.0, SVG Export Plug-In . SVG Version: 6.00 Build 0)  -->
<svg xmlns="http://www.w3.org/2000/svg" xmlns:xlink="http://www.w3.org/1999/xlink" version="1.1" id="Layer_1" x="0px" y="0px" viewBox="0 0 512 512" style="enable-background:new 0 0 512 512;" xml:space="preserve">
<path style="fill:#37474F;" d="M503.467,162.133v281.6c0,14.14-11.46,25.6-25.6,25.6H34.133c-14.14,0-25.6-11.46-25.6-25.6v-281.6  c0-14.14,11.46-25.6,25.6-25.6h102.4c0.777,11.691,3.311,23.194,7.509,34.133c6.187,16.077,15.761,30.626,28.075,42.667  c3.063,3.046,6.306,5.897,9.728,8.533c3.55,2.79,7.253,5.385,11.093,7.765l2.987,1.707l6.229,3.413  c6.281,3.2,12.851,5.803,19.627,7.765c1.34,0.452,2.714,0.819,4.096,1.109c1.28,0,2.645,0.683,4.011,1.024  c2.807,0.683,5.658,1.195,8.533,1.536c2.731,0,5.632,0.768,8.533,0.939c2.901,0.171,5.717,0,8.533,0  c20.992,0.06,41.626-5.513,59.733-16.128l2.987-1.707c3.84-2.381,7.543-4.975,11.093-7.765c3.422-2.637,6.665-5.487,9.728-8.533  c12.314-12.041,21.888-26.59,28.075-42.667c4.463-10.786,7.279-22.17,8.363-33.792h102.4  C492.006,136.533,503.467,147.993,503.467,162.133z"/>
<path style="fill:#607D8B;" d="M469.333,162.133v281.6c0,14.14-11.46,25.6-25.6,25.6h-409.6c-14.14,0-25.6-11.46-25.6-25.6v-281.6  c0-14.14,11.46-25.6,25.6-25.6h102.4c0.777,11.691,3.311,23.194,7.509,34.133c6.187,16.077,15.761,30.626,28.075,42.667  c3.063,3.046,6.306,5.897,9.728,8.533c3.55,2.79,7.253,5.385,11.093,7.765l2.987,1.707l6.229,3.413  c6.281,3.2,12.851,5.803,19.627,7.765c1.34,0.452,2.714,0.819,4.096,1.109c1.28,0,2.645,0.683,4.011,1.024  c2.807,0.683,5.658,1.195,8.533,1.536c2.731,0,5.632,0.768,8.533,0.939c2.901,0.171,5.717,0,8.533,0  c20.992,0.06,41.626-5.513,59.733-16.128l2.987-1.707c3.84-2.381,7.543-4.975,11.093-7.765c3.422-2.637,6.665-5.487,9.728-8.533  c12.314-12.041,21.888-26.59,28.075-42.667c4.463-10.786,7.279-22.17,8.363-33.792h68.267  C457.873,136.533,469.333,147.993,469.333,162.133z"/>
<path style="fill:#37474F;" d="M324.267,503.466H187.733c34.133,0,34.133-34.133,34.133-34.133h68.267  C290.133,469.333,290.133,503.466,324.267,503.466z"/>
<path style="fill:#0377BC;" d="M469.333,179.199v221.867c0,4.71-3.823,8.533-8.533,8.533h-34.133c4.71,0,8.533-3.823,8.533-8.533  V179.199c0-4.71-3.823-8.533-8.533-8.533H460.8C465.51,170.666,469.333,174.48,469.333,179.199z"/>
<path style="fill:#02A9F4;" d="M435.2,179.199v221.867c0,4.71-3.823,8.533-8.533,8.533H51.2c-4.71,0-8.533-3.823-8.533-8.533  V179.199c0-4.71,3.823-8.533,8.533-8.533h93.184c6.187,16.077,15.761,30.626,28.075,42.667c3.063,3.046,6.306,5.897,9.728,8.533  c3.55,2.79,7.253,5.385,11.093,7.765l2.987,1.707c13.099,7.723,27.605,12.766,42.667,14.848c5.649,0.862,11.349,1.289,17.067,1.28  c20.992,0.06,41.626-5.513,59.733-16.128l2.987-1.707c3.84-2.381,7.543-4.975,11.093-7.765c3.422-2.637,6.665-5.487,9.728-8.533  c12.314-12.041,21.888-26.59,28.075-42.667h59.051C431.377,170.666,435.2,174.48,435.2,179.199z"/>
<path style="fill:#D84315;" d="M375.467,127.999c0.051,32.128-12.911,62.916-35.925,85.333c-3.063,3.046-6.306,5.897-9.728,8.533  c-3.55,2.79-7.253,5.385-11.093,7.765l-2.987,1.707c-18.108,10.615-38.741,16.188-59.733,16.128  c-5.717,0.009-11.418-0.418-17.067-1.28c-15.061-2.082-29.568-7.125-42.667-14.848l-2.987-1.707  c-3.84-2.381-7.543-4.975-11.093-7.765c-3.422-2.637-6.665-5.487-9.728-8.533c-47.147-46.157-47.949-121.796-1.792-168.943  c18.338-18.731,42.325-30.908,68.267-34.662c5.658-0.794,11.358-1.195,17.067-1.195C321.98,8.533,375.467,62.019,375.467,127.999z"/>
<path style="fill:#FF5722;" d="M341.333,127.999c0.051,32.128-12.911,62.916-35.925,85.333c-3.063,3.046-6.306,5.897-9.728,8.533  c-3.55,2.79-7.253,5.385-11.093,7.765l-2.987,1.707c-13.099,7.723-27.605,12.766-42.667,14.848  c-15.061-2.082-29.568-7.125-42.667-14.848l-2.987-1.707c-3.84-2.381-7.543-4.975-11.093-7.765  c-3.422-2.637-6.665-5.487-9.728-8.533c-47.147-46.157-47.949-121.796-1.792-168.943c18.338-18.731,42.325-30.908,68.267-34.662  c39.62,5.717,73.737,30.899,90.88,67.072C337.434,92.791,341.367,110.284,341.333,127.999z"/>
<path d="M477.867,477.866H34.133C15.283,477.866,0,462.583,0,443.733v-281.6c0-18.85,15.283-34.133,34.133-34.133h102.4  c4.523-0.009,8.26,3.507,8.533,8.021c0.725,10.846,3.089,21.521,6.997,31.659c5.751,14.925,14.652,28.433,26.112,39.595  c2.816,2.807,5.811,5.427,8.96,7.851c3.337,2.603,6.81,5.026,10.411,7.253l2.304,1.28l6.315,3.499  c5.794,2.953,11.853,5.35,18.091,7.168c1.092,0.375,2.202,0.691,3.328,0.939h1.109l2.901,0.768c2.807,0.666,5.658,1.152,8.533,1.451  c2.901,0.427,5.461,0.768,8.021,0.939c2.56,0.171,5.461,0,8.107,0c19.456,0.034,38.579-5.12,55.381-14.933l2.731-1.536  c3.413-2.099,6.716-4.378,9.899-6.827c3.149-2.423,6.144-5.043,8.96-7.851c11.469-11.187,20.378-24.721,26.112-39.68  c4.105-10.078,6.665-20.727,7.595-31.573c0.273-4.514,4.011-8.03,8.533-8.021h102.4c18.85,0,34.133,15.283,34.133,34.133v281.6  C512,462.583,496.717,477.866,477.867,477.866z M34.133,145.066c-9.429,0-17.067,7.637-17.067,17.067v281.6  c0,9.429,7.637,17.067,17.067,17.067h443.733c9.429,0,17.067-7.637,17.067-17.067v-281.6c0-9.429-7.637-17.067-17.067-17.067  h-94.976c-3.78,28.262-16.939,54.443-37.376,74.325c-3.302,3.294-6.81,6.366-10.496,9.216c-3.763,3.055-7.697,5.905-11.776,8.533  c-1.186,0.777-2.415,1.485-3.669,2.133c-19.337,11.102-41.276,16.879-63.573,16.725c-3.157,0-6.315,0-9.387,0  s-5.888-0.512-8.533-1.024c-3.191-0.375-6.349-0.939-9.472-1.707c-1.417-0.256-2.807-0.597-4.181-1.024  c-1.451,0-2.901-0.768-4.437-1.195c-7.253-2.176-14.276-5.035-20.992-8.533L192,238.933l-3.243-1.877  c-4.079-2.628-8.013-5.47-11.776-8.533c-3.686-2.85-7.194-5.922-10.496-9.216c-20.42-19.857-33.587-46.003-37.376-74.24H34.133z"/>
<path d="M324.267,511.999H187.733c-4.71,0-8.533-3.823-8.533-8.533s3.823-8.533,8.533-8.533c13.414,0.725,24.875-9.557,25.6-22.972  c0.051-0.879,0.051-1.758,0-2.628c0-4.71,3.823-8.533,8.533-8.533h68.267c4.71,0,8.533,3.823,8.533,8.533  c-0.725,13.414,9.557,24.875,22.972,25.6c0.879,0.051,1.758,0.051,2.628,0c4.71,0,8.533,3.823,8.533,8.533  S328.977,511.999,324.267,511.999z M222.635,494.933h66.816c-3.413-5.171-5.76-10.974-6.912-17.067h-52.992  C228.395,483.95,226.048,489.753,222.635,494.933z"/>
<path d="M460.8,418.133H51.2c-9.429,0-17.067-7.637-17.067-17.067V179.199c0-9.429,7.637-17.067,17.067-17.067h93.184  c3.516,0.009,6.673,2.176,7.936,5.461c5.751,14.925,14.652,28.433,26.112,39.595c2.816,2.807,5.811,5.427,8.96,7.851  c3.337,2.603,6.81,5.026,10.411,7.253l2.304,1.28c34.355,19.695,76.578,19.695,110.933,0l2.731-1.536  c3.618-2.116,7.125-4.42,10.496-6.912c3.149-2.423,6.144-5.043,8.96-7.851c11.469-11.187,20.378-24.721,26.112-39.68  c1.263-3.285,4.42-5.453,7.936-5.461H460.8c9.429,0,17.067,7.637,17.067,17.067v221.867  C477.867,410.487,470.229,418.133,460.8,418.133z M51.2,179.199v221.867h409.6V179.199h-87.467  c-6.596,15.07-16.043,28.715-27.819,40.192c-3.302,3.294-6.81,6.366-10.496,9.216c-3.763,3.055-7.697,5.905-11.776,8.533  c-1.186,0.777-2.415,1.485-3.669,2.133c-39.552,23.04-88.448,23.04-128,0l-3.243-1.877c-4.079-2.628-8.013-5.47-11.776-8.533  c-3.686-2.85-7.194-5.922-10.496-9.216c-11.657-11.588-20.958-25.327-27.392-40.448H51.2z"/>
<path d="M392.533,511.999h-68.267c-4.71,0-8.533-3.823-8.533-8.533s3.823-8.533,8.533-8.533h68.267c4.71,0,8.533,3.823,8.533,8.533  S397.244,511.999,392.533,511.999z"/>
<path d="M187.733,511.999h-68.267c-4.71,0-8.533-3.823-8.533-8.533s3.823-8.533,8.533-8.533h68.267c4.71,0,8.533,3.823,8.533,8.533  S192.444,511.999,187.733,511.999z"/>
<path d="M85.333,213.333H76.8c-4.71,0-8.533-3.823-8.533-8.533s3.823-8.533,8.533-8.533h8.533c4.71,0,8.533,3.823,8.533,8.533  S90.044,213.333,85.333,213.333z"/>
<path d="M162.133,213.333h-42.667c-4.71,0-8.533-3.823-8.533-8.533s3.823-8.533,8.533-8.533h42.667c4.71,0,8.533,3.823,8.533,8.533  S166.844,213.333,162.133,213.333z"/>
<path d="M256,255.999c-22.502,0.111-44.621-5.786-64.085-17.067l-3.243-1.877c-4.079-2.628-8.013-5.47-11.776-8.533  c-3.686-2.85-7.194-5.922-10.496-9.216c-13.124-12.86-23.313-28.407-29.867-45.568c-4.676-11.733-7.552-24.107-8.533-36.693  c0-2.816,0-5.888,0-9.045c-0.06-18.987,4.173-37.743,12.373-54.869c30.319-63.863,106.675-91.051,170.53-60.723  c26.633,12.646,48.077,34.091,60.723,60.723c8.201,17.126,12.433,35.883,12.373,54.869c0,3.157,0,6.229,0,9.301  c-0.998,12.501-3.874,24.789-8.533,36.437c-6.596,17.237-16.845,32.836-30.037,45.739c-3.302,3.294-6.81,6.366-10.496,9.216  c-3.763,3.055-7.697,5.905-11.776,8.533c-1.186,0.777-2.415,1.485-3.669,2.133C300.169,250.418,278.263,256.161,256,255.999z   M256,17.066c-42.82,0.137-81.792,24.772-100.267,63.403c-7.083,14.839-10.735,31.087-10.667,47.531c0,2.645,0,5.205,0,7.765  c0.717,10.931,3.072,21.692,6.997,31.915c5.751,14.925,14.652,28.433,26.112,39.595c2.816,2.807,5.811,5.427,8.96,7.851  c3.337,2.603,6.81,5.026,10.411,7.253l2.304,1.28c34.355,19.695,76.578,19.695,110.933,0l2.731-1.536  c3.712-2.133,7.296-4.471,10.752-6.997c3.149-2.423,6.144-5.043,8.96-7.851c11.469-11.187,20.378-24.721,26.112-39.68  c4.105-10.078,6.665-20.727,7.595-31.573c0-2.816,0-5.376,0-8.021c0.068-16.444-3.584-32.691-10.667-47.531  C337.792,41.838,298.82,17.194,256,17.066z"/>
<path d="M256,187.733c-10.351,0.06-20.523-2.688-29.44-7.936l-2.304-1.28c-1.766-1.109-3.473-2.304-5.12-3.584  c-1.527-1.161-2.978-2.415-4.352-3.755c-11.861-11.23-18.56-26.854-18.517-43.179c-0.06-8.858,1.894-17.613,5.717-25.6  c5.222-10.923,13.645-20.002,24.149-26.027c4.173-2.185,9.335-0.572,11.52,3.61c2.057,3.925,0.759,8.781-2.987,11.153  c-7.458,4.386-13.414,10.931-17.067,18.773c-2.765,5.632-4.224,11.819-4.267,18.091c0.017,11.725,4.864,22.929,13.397,30.976  c0.913,0.887,1.886,1.707,2.901,2.475c1.109,0.853,2.133,1.621,3.499,2.475l1.963,1.109c12.928,7.398,28.8,7.398,41.728,0  l2.475-1.365l3.413-2.475c1.084-0.845,2.108-1.749,3.072-2.731c12.894-12.749,16.316-32.265,8.533-48.64  c-3.669-7.808-9.617-14.327-17.067-18.688c-4.173-2.185-5.794-7.339-3.61-11.52c2.185-4.173,7.339-5.794,11.52-3.61  c0.213,0.111,0.418,0.23,0.623,0.358c10.53,6.016,18.987,15.095,24.235,26.027c10.914,23.031,6.007,50.441-12.203,68.267  c-1.451,1.434-2.987,2.773-4.608,4.011c-1.792,1.365-3.413,2.56-5.035,3.584l-2.731,1.621  C276.514,185.104,266.342,187.818,256,187.733z"/>
<path d="M256,110.933c-4.71,0-8.533-3.823-8.533-8.533V68.266c0-4.71,3.823-8.533,8.533-8.533c4.71,0,8.533,3.823,8.533,8.533  v34.133C264.533,107.11,260.71,110.933,256,110.933z"/>
<g>
</g>
<g>
</g>
<g>
</g>
<g>
</g>
<g>
</g>
<g>
</g>
<g>
</g>
<g>
</g>
<g>
</g>
<g>
</g>
<g>
</g>
<g>
</g>
<g>
</g>
<g>
</g>
<g>
</g>
</svg>
