<?xml version="1.0" encoding="iso-8859-1"?>
<!-- Generator: Adobe Illustrator 19.0.0, SVG Export Plug-In . SVG Version: 6.00 Build 0)  -->
<svg xmlns="http://www.w3.org/2000/svg" xmlns:xlink="http://www.w3.org/1999/xlink" version="1.1" id="Layer_1" x="0px" y="0px" viewBox="0 0 512 512" style="enable-background:new 0 0 512 512;" xml:space="preserve">
<path style="fill:#607D8B;" d="M102.4,8.533h307.2c14.14,0,25.6,11.46,25.6,25.6v409.6c0,14.14-11.46,25.6-25.6,25.6H102.4  c-14.14,0-25.6-11.46-25.6-25.6v-409.6C76.8,19.994,88.26,8.533,102.4,8.533z"/>
<path style="fill:#CFD8DC;" d="M102.4,8.533h273.067c14.14,0,25.6,11.46,25.6,25.6v409.6c0,14.14-11.46,25.6-25.6,25.6H102.4  c-14.14,0-25.6-11.46-25.6-25.6v-409.6C76.8,19.994,88.26,8.533,102.4,8.533z"/>
<path style="fill:#558B30;" d="M375.467,290.133c0.051,32.128-12.911,62.916-35.925,85.333c-3.063,3.046-6.306,5.897-9.728,8.533  c-3.55,2.79-7.253,5.385-11.093,7.765l-2.987,1.707C297.626,404.087,276.992,409.66,256,409.6  c-5.717,0.009-11.418-0.418-17.067-1.28c-15.061-2.082-29.568-7.125-42.667-14.848l-2.987-1.707  c-3.84-2.381-7.543-4.975-11.093-7.765c-3.422-2.637-6.665-5.487-9.728-8.533c-47.147-46.157-47.949-121.796-1.792-168.943  c18.338-18.731,42.325-30.908,68.267-34.662c5.658-0.785,11.358-1.186,17.067-1.195C321.98,170.667,375.467,224.154,375.467,290.133  z"/>
<path style="fill:#8BC34A;" d="M341.333,290.133c0.051,32.128-12.911,62.916-35.925,85.333c-3.063,3.046-6.306,5.897-9.728,8.533  c-3.55,2.79-7.253,5.385-11.093,7.765l-2.987,1.707c-13.099,7.723-27.605,12.766-42.667,14.848  c-15.061-2.082-29.568-7.125-42.667-14.848l-2.987-1.707c-3.84-2.381-7.543-4.975-11.093-7.765  c-3.422-2.637-6.665-5.487-9.728-8.533c-47.147-46.157-47.949-121.796-1.792-168.943c18.338-18.731,42.325-30.908,68.267-34.662  c39.62,5.717,73.737,30.899,90.88,67.072C337.434,254.925,341.367,272.418,341.333,290.133z"/>
<g>
	<path style="fill:#00BCD4;" d="M260.864,290.133h-9.728c-18.338-7.543-30.669-24.994-31.659-44.8V230.4h73.131v14.933   C291.61,265.156,279.236,282.615,260.864,290.133z"/>
	<path style="fill:#00BCD4;" d="M251.136,290.133h9.728c18.338,7.543,30.669,24.994,31.659,44.8v14.933h-73.131v-14.933   C220.39,315.11,232.764,297.651,251.136,290.133z"/>
</g>
<g>
	<circle style="fill:#37474F;" cx="379.733" cy="64" r="21.333"/>
	<circle style="fill:#37474F;" cx="132.267" cy="64" r="21.333"/>
	<path style="fill:#37474F;" d="M162.133,503.467H128c-9.429,0-17.067-7.637-17.067-17.067v-17.067H179.2V486.4   C179.2,495.829,171.563,503.467,162.133,503.467z"/>
	<path style="fill:#37474F;" d="M384,503.467h-34.133c-9.429,0-17.067-7.637-17.067-17.067v-17.067h68.267V486.4   C401.067,495.829,393.429,503.467,384,503.467z"/>
	<path style="fill:#37474F;" d="M401.067,260.267v68.267c0,4.71-3.823,8.533-8.533,8.533H358.4c-9.429,0-17.067-7.637-17.067-17.067   v-51.2c0-9.429,7.637-17.067,17.067-17.067h34.133C397.244,251.733,401.067,255.556,401.067,260.267z"/>
</g>
<path d="M409.6,477.867H102.4c-18.85,0-34.133-15.283-34.133-34.133v-409.6C68.267,15.283,83.55,0,102.4,0h307.2  c18.85,0,34.133,15.283,34.133,34.133v409.6C443.733,462.583,428.45,477.867,409.6,477.867z M102.4,17.067  c-9.429,0-17.067,7.637-17.067,17.067v409.6c0,9.429,7.637,17.067,17.067,17.067h307.2c9.429,0,17.067-7.637,17.067-17.067v-409.6  c0-9.429-7.637-17.067-17.067-17.067H102.4z"/>
<path d="M430.933,128H81.067c-4.71,0-8.533-3.823-8.533-8.533c0-4.71,3.823-8.533,8.533-8.533h349.867  c4.71,0,8.533,3.823,8.533,8.533C439.467,124.177,435.644,128,430.933,128z"/>
<path d="M379.733,93.867c-16.495,0-29.867-13.372-29.867-29.867s13.372-29.867,29.867-29.867c16.495,0,29.867,13.372,29.867,29.867  S396.228,93.867,379.733,93.867z M379.733,51.2c-7.066,0-12.8,5.734-12.8,12.8c0,7.066,5.734,12.8,12.8,12.8  c7.066,0,12.8-5.734,12.8-12.8C392.533,56.934,386.799,51.2,379.733,51.2z"/>
<path d="M132.267,93.867C115.772,93.867,102.4,80.495,102.4,64s13.372-29.867,29.867-29.867S162.133,47.505,162.133,64  S148.762,93.867,132.267,93.867z M132.267,51.2c-7.066,0-12.8,5.734-12.8,12.8c0,7.066,5.734,12.8,12.8,12.8  c7.066,0,12.8-5.734,12.8-12.8C145.067,56.934,139.332,51.2,132.267,51.2z"/>
<path d="M187.733,128c-4.71,0-8.533-3.823-8.533-8.533V8.533c0-4.71,3.823-8.533,8.533-8.533c4.71,0,8.533,3.823,8.533,8.533  v110.933C196.267,124.177,192.444,128,187.733,128z"/>
<path d="M324.267,128c-4.71,0-8.533-3.823-8.533-8.533V8.533c0-4.71,3.823-8.533,8.533-8.533s8.533,3.823,8.533,8.533v110.933  C332.8,124.177,328.977,128,324.267,128z"/>
<path d="M162.133,512H128c-14.14,0-25.6-11.46-25.6-25.6v-17.067c0-4.71,3.823-8.533,8.533-8.533H179.2  c4.71,0,8.533,3.823,8.533,8.533V486.4C187.733,500.54,176.273,512,162.133,512z M119.467,477.867v8.533  c0,4.71,3.823,8.533,8.533,8.533h34.133c4.71,0,8.533-3.823,8.533-8.533v-8.533H119.467z"/>
<path d="M384,512h-34.133c-14.14,0-25.6-11.46-25.6-25.6v-17.067c0-4.71,3.823-8.533,8.533-8.533h68.267  c4.71,0,8.533,3.823,8.533,8.533V486.4C409.6,500.54,398.14,512,384,512z M341.333,477.867v8.533c0,4.71,3.823,8.533,8.533,8.533  H384c4.71,0,8.533-3.823,8.533-8.533v-8.533H341.333z"/>
<path d="M285.867,68.267h-59.733c-4.71,0-8.533-3.823-8.533-8.533s3.823-8.533,8.533-8.533h59.733c4.71,0,8.533,3.823,8.533,8.533  S290.577,68.267,285.867,68.267z"/>
<path d="M256,418.133c-70.69,0.017-128.017-57.267-128.034-127.966s57.267-128.017,127.957-128.034  c54.852-0.017,103.62,34.927,121.25,86.869c1.809,4.352-0.247,9.344-4.599,11.153c-4.352,1.809-9.344-0.247-11.153-4.599  c-0.145-0.358-0.273-0.717-0.367-1.092c-19.985-57.916-83.132-88.67-141.047-68.685s-88.678,83.132-68.693,141.047  s83.132,88.67,141.047,68.685c29.79-10.274,53.803-32.742,66.039-61.773c1.86-4.335,6.886-6.34,11.221-4.48s6.34,6.886,4.48,11.221  C353.886,387.721,307.388,418.304,256,418.133z"/>
<path d="M392.533,345.6H358.4c-14.14,0-25.6-11.46-25.6-25.6v-51.2c0-14.14,11.46-25.6,25.6-25.6h34.133  c9.429,0,17.067,7.637,17.067,17.067v68.267C409.6,337.963,401.963,345.6,392.533,345.6z M358.4,260.267  c-4.71,0-8.533,3.823-8.533,8.533V320c0,4.71,3.823,8.533,8.533,8.533h34.133v-68.267H358.4z"/>
<path d="M119.467,443.733h-8.533c-4.71,0-8.533-3.823-8.533-8.533s3.823-8.533,8.533-8.533h8.533c4.71,0,8.533,3.823,8.533,8.533  S124.177,443.733,119.467,443.733z"/>
<path d="M196.267,443.733H153.6c-4.71,0-8.533-3.823-8.533-8.533s3.823-8.533,8.533-8.533h42.667c4.71,0,8.533,3.823,8.533,8.533  S200.977,443.733,196.267,443.733z"/>
<path d="M262.571,298.667h-13.141l-1.536-0.597c-21.581-8.841-36.045-29.431-37.035-52.736v-23.467h90.283v23.467  c-0.99,23.305-15.454,43.895-37.035,52.736L262.571,298.667z M252.928,281.6h6.229c14.379-6.545,23.97-20.497,24.917-36.267v-6.4  h-56.149v6.4c0.947,15.77,10.539,29.722,24.917,36.267H252.928z"/>
<path d="M307.2,238.933h-14.592c-4.71,0-8.533-3.823-8.533-8.533s3.823-8.533,8.533-8.533H307.2c4.71,0,8.533,3.823,8.533,8.533  S311.91,238.933,307.2,238.933z"/>
<path d="M301.141,358.4h-90.283v-23.467c0.99-23.305,15.454-43.895,37.035-52.736l1.536-0.597h13.141l1.536,0.597  c21.581,8.841,36.045,29.431,37.035,52.736V358.4z M228.011,341.333h56.064v-6.4c-0.947-15.77-10.539-29.722-24.917-36.267h-6.229  c-14.379,6.545-23.97,20.497-24.917,36.267L228.011,341.333L228.011,341.333z"/>
<path d="M307.2,358.4h-14.592c-4.71,0-8.533-3.823-8.533-8.533c0-4.71,3.823-8.533,8.533-8.533H307.2  c4.71,0,8.533,3.823,8.533,8.533C315.733,354.577,311.91,358.4,307.2,358.4z"/>
<path d="M219.392,238.933H204.8c-4.71,0-8.533-3.823-8.533-8.533s3.823-8.533,8.533-8.533h14.592c4.71,0,8.533,3.823,8.533,8.533  S224.102,238.933,219.392,238.933z"/>
<path d="M219.392,358.4H204.8c-4.71,0-8.533-3.823-8.533-8.533c0-4.71,3.823-8.533,8.533-8.533h14.592  c4.71,0,8.533,3.823,8.533,8.533C227.925,354.577,224.102,358.4,219.392,358.4z"/>
<g>
</g>
<g>
</g>
<g>
</g>
<g>
</g>
<g>
</g>
<g>
</g>
<g>
</g>
<g>
</g>
<g>
</g>
<g>
</g>
<g>
</g>
<g>
</g>
<g>
</g>
<g>
</g>
<g>
</g>
</svg>
