<?xml version="1.0" encoding="iso-8859-1"?>
<!-- Generator: Adobe Illustrator 19.0.0, SVG Export Plug-In . SVG Version: 6.00 Build 0)  -->
<svg xmlns="http://www.w3.org/2000/svg" xmlns:xlink="http://www.w3.org/1999/xlink" version="1.1" id="Layer_1" x="0px" y="0px" viewBox="0 0 511.999 511.999" style="enable-background:new 0 0 511.999 511.999;" xml:space="preserve">
<path style="fill:#C52828;" d="M349.868,127.992c0,65.981-53.488,119.469-119.469,119.469c-5.717,0.009-11.418-0.418-17.067-1.28  c-58.762-8.482-102.376-58.821-102.402-118.189C110.913,68.599,154.536,18.209,213.332,9.718c5.658-0.785,11.358-1.186,17.067-1.195  C296.38,8.524,349.868,62.011,349.868,127.992z"/>
<path style="fill:#F44335;" d="M315.734,127.992c-0.026,59.367-43.64,109.706-102.402,118.189  c-58.762-8.482-102.376-58.821-102.402-118.189C110.913,68.599,154.536,18.209,213.332,9.718  C272.119,18.209,315.742,68.599,315.734,127.992z"/>
<g>
	<path style="fill:#FDD834;" d="M242.175,145.059h-23.552c-3.763,0.111-6.98-2.662-7.424-6.4l-6.4-79.959   c-0.196-3.951,2.859-7.313,6.81-7.509c0.23-0.009,0.469-0.009,0.7,0h36.267c3.96-0.145,7.279,2.944,7.424,6.895   c0.009,0.205,0.009,0.41,0,0.614l-6.4,79.959C249.156,142.397,245.93,145.179,242.175,145.059z"/>
	<path style="fill:#FDD834;" d="M225.876,179.193h9.045c6.929,0,12.544,5.615,12.544,12.544v9.045   c0,6.929-5.615,12.544-12.544,12.544h-9.045c-6.929,0-12.544-5.615-12.544-12.544v-9.045   C213.332,184.817,218.947,179.193,225.876,179.193z"/>
</g>
<path style="fill:#607D8B;" d="M146.856,213.327H93.863c-14.14,0-25.6-11.46-25.6-25.6v-85.335c0-14.14,11.46-25.6,25.6-25.6h28.587  C100.63,122.855,110.427,177.683,146.856,213.327z"/>
<path d="M146.856,221.861H93.863c-18.85,0-34.134-15.283-34.134-34.134v-85.335c0-18.85,15.283-34.134,34.134-34.134h28.587  c4.71,0.017,8.525,3.849,8.508,8.559c0,1.263-0.29,2.509-0.828,3.644c-20.224,42.761-11.111,93.638,22.699,126.722  c3.396,3.268,3.49,8.67,0.222,12.066C151.43,220.93,149.186,221.878,146.856,221.861z M93.863,85.325  c-9.429,0-17.067,7.637-17.067,17.067v85.335c0,9.429,7.637,17.067,17.067,17.067h34.134  c-25.72-34.245-32.606-79.088-18.347-119.469C109.65,85.325,93.863,85.325,93.863,85.325z"/>
<path d="M234.922,221.861h-9.045c-11.64,0-21.078-9.438-21.078-21.078v-9.045c0-11.64,9.438-21.078,21.078-21.078h9.045  c11.64,0,21.078,9.438,21.078,21.078l0,0v9.045C255.999,212.431,246.561,221.861,234.922,221.861L234.922,221.861z M225.876,187.727  c-2.219,0-4.011,1.792-4.011,4.011v9.045c0,2.219,1.792,4.011,4.011,4.011h9.045c2.219,0,4.011-1.792,4.011-4.011v-9.045  c0-2.219-1.792-4.011-4.011-4.011H225.876z"/>
<path style="fill:#37474F;" d="M392.535,102.392v85.335c0,14.14-11.46,25.6-25.6,25.6h-52.993  c36.429-35.644,46.226-90.48,24.406-136.536h28.587C381.075,76.791,392.535,88.26,392.535,102.392z"/>
<path style="fill:#607D8B;" d="M366.935,102.392v85.335c0,14.14-11.46,25.6-25.6,25.6h-27.392  c36.429-35.644,46.226-90.48,24.406-136.536h2.987C355.474,76.791,366.935,88.26,366.935,102.392z"/>
<path d="M366.935,221.861h-52.993c-4.71,0.026-8.559-3.772-8.585-8.482c-0.017-2.338,0.93-4.574,2.611-6.195  c33.81-33.084,42.923-83.961,22.699-126.722c-2.022-4.258-0.222-9.344,4.036-11.375c1.135-0.538,2.381-0.819,3.644-0.828h28.587  c18.85,0,34.134,15.283,34.134,34.134v85.335C401.068,206.586,385.785,221.861,366.935,221.861z M332.801,204.794h34.134  c9.429,0,17.067-7.637,17.067-17.067v-85.335c0-9.429-7.637-17.067-17.067-17.067h-15.787  C365.398,125.714,358.512,170.549,332.801,204.794z"/>
<path style="fill:#37474F;" d="M93.863,435.197h273.071c14.14,0,25.6,11.46,25.6,25.6v17.067c0,14.14-11.46,25.6-25.6,25.6H93.863  c-14.14,0-25.6-11.46-25.6-25.6v-17.067C68.263,446.666,79.723,435.197,93.863,435.197z"/>
<path style="fill:#607D8B;" d="M93.863,435.197h238.937c14.14,0,25.6,11.46,25.6,25.6v17.067c0,14.14-11.46,25.6-25.6,25.6H93.863  c-14.14,0-25.6-11.46-25.6-25.6v-17.067C68.263,446.666,79.723,435.197,93.863,435.197z"/>
<path d="M366.935,511.999H93.863c-18.85,0-34.134-15.283-34.134-34.134v-17.067c0-18.85,15.283-34.134,34.134-34.134h273.071  c18.85,0,34.134,15.283,34.134,34.134v17.067C401.068,496.724,385.785,511.999,366.935,511.999z M93.863,443.731  c-9.429,0-17.067,7.637-17.067,17.067v17.067c0,9.43,7.637,17.067,17.067,17.067h273.071c9.429,0,17.067-7.637,17.067-17.067  v-17.067c0-9.429-7.637-17.067-17.067-17.067H93.863z"/>
<g>
	<path style="fill:#424242;" d="M326.401,332.796h32.001v102.402h-42.667V332.796l0.512-2.048   C319.454,332.104,322.91,332.804,326.401,332.796z"/>
	<path style="fill:#424242;" d="M358.401,213.327v85.335h-32.001c-3.49-0.009-6.938,0.691-10.155,2.048l-0.512-2.048v-85.335   H358.401z"/>
</g>
<path style="fill:#9E9E9E;" d="M324.267,330.748v2.048v102.402h-221.87v-221.87h44.459c3.064,3.046,6.306,5.897,9.728,8.533  c3.55,2.79,7.253,5.385,11.094,7.765l2.987,1.707c13.099,7.723,27.606,12.766,42.667,14.848c5.649,0.862,11.35,1.289,17.067,1.28  c20.992,0.06,41.626-5.513,59.734-16.128l2.987-1.707c3.84-2.381,7.544-4.975,11.094-7.765c3.422-2.637,6.665-5.487,9.728-8.533  h10.326v85.335v2.048c-1.468,0.768-2.79,1.784-3.925,2.987c-3.046,3.251-4.702,7.569-4.608,12.032  C315.648,321.915,318.908,327.659,324.267,330.748z"/>
<path d="M358.401,443.731H102.397c-4.71,0-8.533-3.823-8.533-8.533v-221.87c0-4.71,3.823-8.533,8.533-8.533h44.459  c2.27-0.017,4.446,0.879,6.059,2.475c2.68,2.79,5.53,5.41,8.533,7.851c3.337,2.603,6.81,5.026,10.411,7.253l2.304,1.28  c34.356,19.695,76.579,19.695,110.935,0l2.731-1.536c3.738-2.133,7.356-4.463,10.838-6.997c3.149-2.424,6.144-5.043,8.96-7.851  c1.613-1.596,3.789-2.492,6.059-2.475h44.715c4.71,0,8.533,3.823,8.533,8.533v85.335c0,4.71-3.823,8.533-8.533,8.533h-25.6  c-2.21,0.034-4.318,0.922-5.888,2.475l0,0c-1.664,1.579-2.611,3.763-2.645,6.059c0,4.71,3.823,8.533,8.533,8.533h25.6  c4.71,0,8.533,3.823,8.533,8.533v102.402C366.935,439.916,363.112,443.731,358.401,443.731z M110.93,426.664h238.937v-85.335  h-17.067c-14.14,0-25.6-11.46-25.6-25.6c0-14.14,11.46-25.6,25.6-25.6h17.067v-68.268h-32.513c-2.475,2.304-5.12,4.523-7.936,6.741  c-3.763,3.055-7.697,5.905-11.776,8.533c-1.186,0.777-2.415,1.485-3.669,2.133c-39.553,23.04-88.449,23.04-128.002,0l-3.243-1.877  c-4.079-2.628-8.013-5.47-11.776-8.533c-2.816-2.219-5.461-4.437-7.936-6.741H110.93V426.664z"/>
<g>
	<path style="fill:#CFD8DC;" d="M290.133,231.333v41.729c0,9.43-7.637,17.067-17.067,17.067h-85.335   c-9.429,0-17.067-7.637-17.067-17.067v-41.729C207.58,252.837,253.209,252.837,290.133,231.333z"/>
	<rect x="196.265" y="290.128" style="fill:#CFD8DC;" width="68.268" height="42.667"/>
</g>
<path d="M273.066,298.662h-85.335c-14.14,0-25.6-11.46-25.6-25.6v-41.729c0-4.71,3.823-8.533,8.533-8.533  c1.528,0,3.038,0.41,4.352,1.195c34.381,19.61,76.554,19.61,110.935,0c4.053-2.406,9.293-1.067,11.691,2.987  c0.777,1.314,1.195,2.816,1.195,4.352v41.729c0,14.14-11.46,25.6-25.6,25.6C273.177,298.662,273.117,298.662,273.066,298.662z   M179.198,245.242v27.819c0,4.71,3.823,8.533,8.533,8.533h85.335c4.71,0,8.533-3.823,8.533-8.533v-27.819  C248.917,259.348,211.873,259.348,179.198,245.242z"/>
<path d="M264.533,341.329h-68.268c-4.71,0-8.533-3.823-8.533-8.533v-42.667c0-4.71,3.823-8.533,8.533-8.533h68.268  c4.71,0,8.533,3.823,8.533,8.533v42.667C273.066,337.515,269.243,341.329,264.533,341.329z M204.798,324.262h51.201v-25.6h-51.201  V324.262z"/>
<path d="M315.734,324.262h-51.201c-4.71,0-8.533-3.823-8.533-8.533c0-4.71,3.823-8.533,8.533-8.533h51.201  c4.71,0,8.533,3.823,8.533,8.533C324.267,320.439,320.444,324.262,315.734,324.262z"/>
<path style="fill:#CFD8DC;" d="M443.736,315.729c0,9.429-7.637,17.067-17.067,17.067h-93.868c-9.429,0-17.067-7.637-17.067-17.067  c0-9.43,7.637-17.067,17.067-17.067h93.868C436.09,298.662,443.736,306.308,443.736,315.729z"/>
<path d="M426.669,341.329h-93.868c-14.14,0-25.6-11.46-25.6-25.6c0-14.14,11.46-25.6,25.6-25.6h93.868c14.14,0,25.6,11.46,25.6,25.6  C452.269,329.869,440.809,341.329,426.669,341.329z M332.801,307.195c-2.21,0.034-4.318,0.922-5.888,2.475  c-1.664,1.579-2.611,3.763-2.645,6.059c0,4.71,3.823,8.533,8.533,8.533h93.868c2.21-0.034,4.318-0.922,5.888-2.475  c1.664-1.579,2.611-3.763,2.645-6.059c0-4.71-3.823-8.533-8.533-8.533H332.801z"/>
<path style="fill:#00BCD4;" d="M296.619,366.93h-132.44c-4.71,0-8.533,3.823-8.533,8.533c0,0.99,0.171,1.971,0.512,2.901  c6.016,14.865,17.28,27.017,31.659,34.134v22.699h85.249v-22.784c14.379-7.117,25.643-19.269,31.659-34.134  c1.553-4.446-0.794-9.319-5.24-10.872C298.564,367.092,297.592,366.93,296.619,366.93z"/>
<path d="M273.066,443.731h-85.335c-4.71,0-8.533-3.823-8.533-8.533v-17.835c-14.157-8.132-25.14-20.83-31.147-36.011  c-3.251-8.849,1.28-18.654,10.129-21.905c1.92-0.708,3.951-1.058,5.999-1.05h132.44c9.429-0.017,17.075,7.62,17.093,17.041  c0,2.014-0.35,4.019-1.05,5.914c-5.982,15.173-16.93,27.862-31.062,36.011v17.835C281.6,439.916,277.777,443.731,273.066,443.731z   M196.265,426.664h68.268v-14.251c0.009-3.081,1.673-5.914,4.352-7.424c12.561-6.118,22.46-16.615,27.819-29.526H164.179  c5.325,12.903,15.19,23.407,27.734,29.526c2.68,1.51,4.344,4.344,4.352,7.424V426.664z"/>
<path d="M230.399,255.994c-22.503,0.111-44.622-5.786-64.086-17.067l-3.243-1.877c-4.079-2.628-8.013-5.47-11.776-8.533  c-3.686-2.85-7.194-5.922-10.496-9.216c-38.938-38.204-49.383-96.881-26.027-146.178C145.09,9.266,221.439-17.922,285.303,12.406  c26.633,12.647,48.078,34.091,60.724,60.724c23.416,49.358,12.928,108.136-26.112,146.349c-3.302,3.294-6.81,6.366-10.496,9.216  c-3.763,3.055-7.697,5.905-11.776,8.533c-1.186,0.777-2.415,1.485-3.669,2.133C274.628,250.439,252.688,256.182,230.399,255.994z   M230.399,17.057c-42.821,0.137-81.793,24.773-100.268,63.404c-20.224,42.761-11.111,93.638,22.699,126.722  c2.816,2.808,5.811,5.427,8.96,7.851c3.337,2.603,6.81,5.026,10.411,7.253l2.304,1.28c34.356,19.695,76.579,19.695,110.935,0  l2.731-1.536c3.618-2.116,7.125-4.42,10.496-6.912c3.149-2.424,6.144-5.043,8.96-7.851c33.963-33.016,43.222-83.952,23.04-126.807  C312.184,41.83,273.22,17.194,230.399,17.057z"/>
<path d="M242.175,153.593h-23.552c-8.252,0.128-15.198-6.118-15.958-14.336l-6.4-79.532c-0.35-4.233,1.101-8.423,4.011-11.52  c3.055-3.465,7.416-5.478,12.032-5.547h36.182c4.557-0.017,8.917,1.869,12.032,5.205c3.004,3.183,4.463,7.509,4.011,11.862  l-6.4,79.959C257.168,147.73,250.273,153.738,242.175,153.593z M219.647,136.526h21.59l4.864-60.417l0,0l1.365-16.384h-34.134  L219.647,136.526z"/>
<path d="M110.93,477.865h-8.533c-4.71,0-8.533-3.823-8.533-8.533c0-4.71,3.823-8.533,8.533-8.533h8.533  c4.71,0,8.533,3.823,8.533,8.533C119.464,474.042,115.641,477.865,110.93,477.865z"/>
<path d="M247.466,477.865H145.064c-4.71,0-8.533-3.823-8.533-8.533c0-4.71,3.823-8.533,8.533-8.533h102.402  c4.71,0,8.533,3.823,8.533,8.533C255.999,474.042,252.176,477.865,247.466,477.865z"/>
<g>
</g>
<g>
</g>
<g>
</g>
<g>
</g>
<g>
</g>
<g>
</g>
<g>
</g>
<g>
</g>
<g>
</g>
<g>
</g>
<g>
</g>
<g>
</g>
<g>
</g>
<g>
</g>
<g>
</g>
</svg>
