<?xml version="1.0" encoding="iso-8859-1"?>
<!-- Generator: Adobe Illustrator 19.0.0, SVG Export Plug-In . SVG Version: 6.00 Build 0)  -->
<svg xmlns="http://www.w3.org/2000/svg" xmlns:xlink="http://www.w3.org/1999/xlink" version="1.1" id="Layer_1" x="0px" y="0px" viewBox="0 0 511.998 511.998" style="enable-background:new 0 0 511.998 511.998;" xml:space="preserve">
<path style="fill:#D84315;" d="M447.637,226.228H64.479c-6.573-0.024-11.883-5.382-11.859-11.954c0-1.322,0.226-2.631,0.667-3.882  L120.56,19.885c1.75-5.013,6.608-8.275,11.907-7.977h247.778c5.299-0.298,10.156,2.965,11.907,7.977l67.273,190.507  c2.179,6.203-1.083,13.002-7.299,15.181C450.697,226.073,449.161,226.3,447.637,226.228z"/>
<path style="fill:#FF5722;" d="M395.009,226.228H64.479c-6.573-0.024-11.883-5.382-11.859-11.954c0-1.322,0.226-2.631,0.667-3.882  L120.56,19.885c1.75-5.013,6.608-8.275,11.907-7.977h195.27c5.048,0.024,9.525,3.215,11.192,7.977l67.392,190.507  c2.167,6.203-1.107,13.002-7.311,15.169C397.724,226.014,396.379,226.24,395.009,226.228z"/>
<path d="M447.637,238.135H64.479c-13.157,0.036-23.837-10.597-23.885-23.742c-0.012-2.739,0.452-5.465,1.381-8.049l67.273-190.507  c3.393-9.561,12.478-15.919,22.623-15.836h248.374c10.097-0.024,19.122,6.322,22.504,15.836l67.273,190.507  c4.405,12.395-2.072,26.004-14.455,30.41C453.019,237.659,450.34,238.135,447.637,238.135z M131.871,23.814L64.479,214.321h383.158  L380.245,23.814H131.871z"/>
<path d="M166.758,357.202c-6.572,0-11.907-5.334-11.907-11.907c-0.012-6.572,5.298-11.919,11.883-11.931  c0.286,0,0.572,0.012,0.857,0.024h3.691c6.572-0.464,12.276,4.501,12.74,11.073c0.464,6.573-4.501,12.276-11.073,12.74H166.758z"/>
<path d="M333.452,357.202h-6.191c-6.573-0.464-11.538-6.168-11.073-12.74c0.464-6.572,6.168-11.538,12.74-11.073h4.525  c6.572,0,11.907,5.334,11.907,11.907C345.358,351.868,340.024,357.202,333.452,357.202z"/>
<path style="fill:#6A1B9A;" d="M404.892,422.689c0.31,39.59-29.362,73-68.702,77.394c-2.893,0.179-5.799,0.179-8.692,0H172.711  c-42.745,0.262-77.608-34.172-77.87-76.917c-0.119-20.134,7.608-39.53,21.551-54.056l1.548-1.667  c13.3-13.181,30.957-21.051,49.651-22.146h4.525l0,0c22.313-0.333,42.019-14.621,49.294-35.72  c2.941-7.608,4.596-15.657,4.882-23.813h47.627c0,0,0,55.842,54.175,59.533l0,0C370.601,345.629,404.892,380.182,404.892,422.689z"/>
<path style="fill:#9D27B0;" d="M357.265,446.502c0.131,19.908-7.418,39.09-21.075,53.58c-2.893,0.179-5.799,0.179-8.692,0H172.711  c-42.745,0.262-77.608-34.172-77.87-76.917c-0.119-20.134,7.608-39.53,21.551-54.056c2.691-0.179,5.406-0.179,8.097,0l0,0  c17.42-0.333,33.553-9.24,43.102-23.813h4.525l0,0c22.313-0.333,42.019-14.621,49.294-35.72h4.882c0,0,0,55.842,54.175,59.534l0,0  C322.974,369.442,357.265,403.995,357.265,446.502z"/>
<path d="M327.498,511.989H172.711c-49.318,0.655-89.836-38.792-90.491-88.11c-0.655-49.318,38.792-89.836,88.11-90.491l0,0h1.072  c42.983-2.858,42.983-45.841,42.983-47.627c0-6.573,5.334-11.907,11.907-11.907h47.627c6.572,0,11.907,5.334,11.907,11.907  c0,4.525,1.548,44.769,43.102,47.627h1.072c49.318,0.691,88.741,41.233,88.05,90.55C417.358,473.256,376.816,512.68,327.498,511.989  L327.498,511.989z M174.616,357.202h-2.5c-36.173,0-65.487,29.314-65.487,65.487s29.314,65.487,65.487,65.487h154.787  c36.173,0,65.487-29.314,65.487-65.487s-29.314-65.487-65.487-65.487h-2.5c-32.505-2.096-58.831-27.171-62.51-59.534h-24.766  C233.447,330.031,207.122,355.106,174.616,357.202z"/>
<path style="fill:#D84315;" d="M309.638,226.228v35.72c0,13.157-10.657,23.813-23.813,23.813h-71.44  c-13.157,0-23.813-10.657-23.813-23.813v-35.72H309.638z"/>
<path style="fill:#FF5722;" d="M262.012,226.228v35.72c0,13.157-10.657,23.813-23.813,23.813h-23.813  c-13.157,0-23.813-10.657-23.813-23.813v-35.72H262.012z"/>
<path d="M285.825,297.668h-71.44c-19.729,0-35.72-15.991-35.72-35.72v-35.72c0-6.573,5.334-11.907,11.907-11.907h119.067  c6.572,0,11.907,5.334,11.907,11.907v35.72C321.545,281.678,305.554,297.668,285.825,297.668z M202.478,238.135v23.813  c0,6.573,5.334,11.907,11.907,11.907h71.44c6.573,0,11.907-5.334,11.907-11.907v-23.813H202.478z"/>
<path d="M142.945,434.595c-6.572,0-11.907-5.334-11.907-11.907c-0.071-22.908,18.408-41.542,41.316-41.673l0,0  c6.572,0,11.907,5.334,11.907,11.907s-5.334,11.907-11.907,11.907c-4.465,0.155-8.716,1.988-11.907,5.12  c-3.477,3.334-5.489,7.918-5.596,12.74C154.851,429.261,149.517,434.595,142.945,434.595z"/>
<path d="M119.131,190.508c-1.56-0.024-3.096-0.345-4.525-0.953c-1.441-0.607-2.774-1.453-3.929-2.5  c-1.084-1.131-1.929-2.465-2.5-3.929c-0.607-1.429-0.929-2.965-0.953-4.525c-0.024-3.167,1.226-6.203,3.453-8.454  c1.155-1.048,2.488-1.893,3.929-2.5c2.155-1,4.56-1.334,6.906-0.953c0.75,0.131,1.465,0.369,2.143,0.714  c0.762,0.262,1.476,0.619,2.143,1.072l1.786,1.429c2.227,2.346,3.465,5.453,3.453,8.692c-0.024,1.56-0.345,3.096-0.953,4.525  c-0.607,1.441-1.453,2.774-2.5,3.929l-1.786,1.429c-0.667,0.452-1.381,0.81-2.143,1.072l-2.143,0.953H119.131z"/>
<path d="M297.732,190.508H166.758c-6.573,0-11.907-5.334-11.907-11.907c0-6.573,5.334-11.907,11.907-11.907h130.974  c6.573,0,11.907,5.334,11.907,11.907C309.638,185.174,304.304,190.508,297.732,190.508z"/>
<g>
</g>
<g>
</g>
<g>
</g>
<g>
</g>
<g>
</g>
<g>
</g>
<g>
</g>
<g>
</g>
<g>
</g>
<g>
</g>
<g>
</g>
<g>
</g>
<g>
</g>
<g>
</g>
<g>
</g>
</svg>
