<?xml version="1.0" encoding="iso-8859-1"?>
<!-- Generator: Adobe Illustrator 19.0.0, SVG Export Plug-In . SVG Version: 6.00 Build 0)  -->
<svg xmlns="http://www.w3.org/2000/svg" xmlns:xlink="http://www.w3.org/1999/xlink" version="1.1" id="Layer_1" x="0px" y="0px" viewBox="0 0 512 512" style="enable-background:new 0 0 512 512;" xml:space="preserve">
<path style="fill:#FDD834;" d="M407.905,292.372H113.43c-5.051-0.018-9.133-4.136-9.114-9.187c0-1.016,0.174-2.022,0.512-2.983  l51.702-146.414c1.345-3.853,5.079-6.36,9.151-6.131h190.429c4.072-0.229,7.806,2.279,9.151,6.131l51.702,146.414  c1.675,4.768-0.833,9.993-5.609,11.667C410.247,292.263,409.076,292.427,407.905,292.372z"/>
<path style="fill:#FFEB3A;" d="M367.458,292.372H113.43c-5.051-0.018-9.133-4.136-9.114-9.187c0-1.016,0.174-2.022,0.512-2.983  l51.702-146.414c1.345-3.853,5.079-6.36,9.151-6.131h150.074c3.88,0.018,7.321,2.471,8.602,6.131l51.794,146.414  c1.665,4.768-0.851,9.993-5.619,11.658C369.544,292.208,368.501,292.382,367.458,292.372z"/>
<path d="M407.905,301.523H113.43c-10.112,0.027-18.32-8.144-18.357-18.247c-0.009-2.105,0.348-4.2,1.062-6.186l51.702-146.414  c2.608-7.348,9.59-12.235,17.387-12.171h190.887c7.76-0.018,14.696,4.859,17.295,12.171l51.702,146.414  c3.386,9.526-1.592,19.985-11.109,23.371C412.032,301.166,409.973,301.523,407.905,301.523z M165.224,136.808L113.43,283.222  h294.475l-51.794-146.414C356.111,136.808,165.224,136.808,165.224,136.808z"/>
<path d="M192.036,393.032c-5.051,0-9.151-4.1-9.151-9.151c-0.009-5.051,4.072-9.16,9.133-9.169c0.22,0,0.439,0.009,0.659,0.018  h2.837c5.051-0.357,9.435,3.459,9.791,8.51c0.357,5.051-3.459,9.435-8.51,9.791H192.036z"/>
<path d="M320.148,393.032h-4.758c-5.051-0.357-8.867-4.74-8.51-9.791c0.357-5.051,4.74-8.867,9.791-8.51h3.477  c5.051,0,9.151,4.1,9.151,9.151C329.299,388.932,325.199,393.032,320.148,393.032z"/>
<path style="fill:#AD1457;" d="M375.053,443.362c0.238,30.427-22.566,56.104-52.8,59.481c-2.224,0.137-4.456,0.137-6.68,0H196.611  c-32.852,0.201-59.645-26.263-59.847-59.115c-0.092-15.474,5.847-30.381,16.563-41.545l1.19-1.281  c10.222-10.13,23.792-16.179,38.159-17.021h3.477l0,0c17.149-0.256,32.293-11.237,37.885-27.453  c2.26-5.847,3.532-12.033,3.752-18.302h36.603c0,0,0,42.918,41.636,45.754l0,0C348.699,384.137,375.053,410.693,375.053,443.362z"/>
<path style="fill:#E91E63;" d="M338.45,461.663c0.101,15.3-5.701,30.042-16.197,41.179c-2.224,0.137-4.456,0.137-6.68,0H196.611  c-32.852,0.201-59.645-26.263-59.847-59.115c-0.092-15.474,5.847-30.381,16.563-41.545c2.068-0.137,4.154-0.137,6.223,0l0,0  c13.388-0.256,25.787-7.101,33.126-18.302h3.477l0,0c17.149-0.256,32.293-11.237,37.885-27.453h3.752c0,0,0,42.918,41.636,45.754  l0,0C312.095,402.439,338.45,428.995,338.45,461.663z"/>
<path d="M315.573,511.993H196.611c-37.903,0.503-69.043-29.814-69.547-67.716c-0.503-37.903,29.814-69.043,67.716-69.547l0,0h0.824  c33.035-2.196,33.035-35.231,33.035-36.603c0-5.051,4.1-9.151,9.151-9.151h36.603c5.051,0,9.151,4.1,9.151,9.151  c0,3.477,1.19,34.407,33.126,36.603h0.824c37.903,0.531,68.201,31.689,67.671,69.592S353.475,512.524,315.573,511.993  L315.573,511.993z M198.075,393.032h-1.922c-27.8,0-50.33,22.529-50.33,50.33c0,27.8,22.529,50.33,50.33,50.33h118.961  c27.8,0,50.33-22.529,50.33-50.33c0-27.8-22.529-50.33-50.33-50.33h-1.922c-24.982-1.611-45.214-20.882-48.042-45.754h-19.034  C243.29,372.15,223.048,391.421,198.075,393.032z"/>
<path style="fill:#FDD834;" d="M301.846,292.372v27.453c0,10.112-8.19,18.302-18.302,18.302h-54.905  c-10.112,0-18.302-8.19-18.302-18.302v-27.453H301.846z"/>
<path style="fill:#FFEB3A;" d="M265.243,292.372v27.453c0,10.066-4.941,18.302-10.981,18.302h-32.943  c-6.04,0-10.981-8.236-10.981-18.302v-27.453H265.243z"/>
<path d="M283.545,347.278h-54.905c-15.163,0-27.453-12.29-27.453-27.453v-27.453c0-5.051,4.1-9.151,9.151-9.151h91.509  c5.051,0,9.151,4.1,9.151,9.151v27.453C310.997,334.988,298.698,347.278,283.545,347.278z M219.489,301.523v18.302  c0,5.051,4.1,9.151,9.151,9.151h54.905c5.051,0,9.151-4.1,9.151-9.151v-18.302H219.489z"/>
<path d="M210.338,91.053c-2.434,0.018-4.768-0.943-6.497-2.654l-73.207-73.207c-3.285-3.834-2.837-9.618,0.997-12.903  c3.422-2.937,8.483-2.937,11.905,0l73.207,73.207c3.541,3.605,3.477,9.398-0.128,12.939  C214.931,90.093,212.68,91.026,210.338,91.053z"/>
<path d="M310.997,91.053c-5.051,0.027-9.178-4.045-9.206-9.096c-0.018-2.462,0.961-4.823,2.709-6.552l73.207-73.207  c3.834-3.285,9.618-2.837,12.903,0.997c2.937,3.422,2.937,8.483,0,11.905l-73.207,73.207  C315.71,90.038,313.404,91.026,310.997,91.053z"/>
<path d="M82.226,411.334c-5.051,0.027-9.178-4.045-9.206-9.096c-0.018-2.462,0.961-4.823,2.709-6.552l73.207-73.207  c3.834-3.285,9.618-2.837,12.903,0.997c2.937,3.422,2.937,8.483,0,11.905l-73.207,73.207  C86.938,410.318,84.632,411.306,82.226,411.334z"/>
<path d="M429.958,411.334c-2.434,0.018-4.768-0.943-6.497-2.654l-73.207-73.207c-3.285-3.834-2.837-9.618,0.997-12.903  c3.422-2.937,8.483-2.937,11.905,0l73.207,73.207c3.541,3.605,3.477,9.398-0.128,12.939  C434.552,410.373,432.301,411.306,429.958,411.334z"/>
<path d="M256.092,91.053c-5.051,0-9.151-4.1-9.151-9.151V17.847c0-5.051,4.1-9.151,9.151-9.151c5.051,0,9.151,4.1,9.151,9.151  v64.056C265.243,86.963,261.143,91.053,256.092,91.053z"/>
<path d="M173.734,452.513c-5.051,0-9.151-4.1-9.151-9.151c-0.055-17.606,14.147-31.927,31.753-32.028l0,0  c5.051,0,9.151,4.1,9.151,9.151c0,5.051-4.1,9.151-9.151,9.151c-3.441,0.11-6.708,1.519-9.151,3.935  c-2.681,2.562-4.228,6.085-4.301,9.791C182.885,448.422,178.785,452.513,173.734,452.513z"/>
<path d="M155.432,264.92h-1.83l-1.647-0.549c-0.586-0.201-1.135-0.476-1.647-0.824l-1.373-1.098  c-1.757-1.775-2.718-4.182-2.654-6.68c0.018-1.199,0.265-2.379,0.732-3.477c0.467-1.107,1.116-2.132,1.922-3.02l1.373-1.098  c0.512-0.348,1.061-0.622,1.647-0.824c0.503-0.329,1.061-0.577,1.647-0.732c3.011-0.631,6.14,0.302,8.327,2.471  c3.688,3.45,3.889,9.242,0.43,12.93C160.566,263.941,158.05,264.993,155.432,264.92z"/>
<path d="M292.695,264.92h-100.66c-5.051,0-9.151-4.1-9.151-9.151s4.1-9.151,9.151-9.151h100.66c5.051,0,9.151,4.1,9.151,9.151  S297.747,264.92,292.695,264.92z"/>
<g>
</g>
<g>
</g>
<g>
</g>
<g>
</g>
<g>
</g>
<g>
</g>
<g>
</g>
<g>
</g>
<g>
</g>
<g>
</g>
<g>
</g>
<g>
</g>
<g>
</g>
<g>
</g>
<g>
</g>
</svg>
