<?xml version="1.0" encoding="iso-8859-1"?>
<!-- Generator: Adobe Illustrator 19.0.0, SVG Export Plug-In . SVG Version: 6.00 Build 0)  -->
<svg xmlns="http://www.w3.org/2000/svg" xmlns:xlink="http://www.w3.org/1999/xlink" version="1.1" id="Layer_1" x="0px" y="0px" viewBox="0 0 512.005 512.005" style="enable-background:new 0 0 512.005 512.005;" xml:space="preserve">
<path style="fill:#F57C00;" d="M431.266,304.759L273.06,199.345l-12.367-8.529c-2.849-1.876-6.533-1.876-9.382,0l-12.367,8.529  L80.739,304.759c-2.405,1.586-3.855,4.281-3.838,7.164v12.452c0,4.708,3.821,8.529,8.529,8.529c4.708,0,8.529,3.821,8.529,8.529  v153.516c0,4.708,3.821,8.529,8.529,8.529h17.057c4.708,0,8.529-3.821,8.529-8.529V392.604c0-4.708,3.821-8.529,8.529-8.529h59.701  c4.708,0,8.529,3.821,8.529,8.529v102.344c0,4.708,3.821,8.529,8.529,8.529h196.159c4.708,0,8.529-3.821,8.529-8.529V341.432  c0-4.708,3.821-8.529,8.529-8.529s8.529-3.821,8.529-8.529v-12.452C435.113,309.04,433.671,306.345,431.266,304.759z"/>
<path style="fill:#FF9801;" d="M400.989,311.923v12.452c0,4.708-3.821,8.529-8.529,8.529s-8.529,3.821-8.529,8.529v153.516  c0,4.708-3.821,8.529-8.529,8.529H213.359c-4.708,0-8.529-3.821-8.529-8.529V392.604c0-4.708-3.821-8.529-8.529-8.529h-59.701  c-4.708,0-8.529,3.821-8.529,8.529v102.344c0,4.708-3.821,8.529-8.529,8.529h-17.057c-4.708,0-8.529-3.821-8.529-8.529V341.432  c0-4.708-3.821-8.529-8.529-8.529s-8.529-3.821-8.529-8.529v-12.452c-0.017-2.883,1.433-5.578,3.838-7.164l158.206-105.414  l158.206,105.414C399.557,306.345,400.998,309.04,400.989,311.923z"/>
<path style="fill:#1566C0;" d="M375.403,128.216c0,65.943-53.458,119.401-119.401,119.401c-2.9,0-5.799,0-8.529,0  s-5.714-0.512-8.529-0.938c-2.814-0.426-5.117-0.853-7.676-1.365l0,0c-1.706,0-3.411-0.768-5.032-1.279  c-1.015-0.179-2.013-0.435-2.985-0.768l-6.226-1.962l-4.605-2.217l-2.388-1.023c-1.339-0.495-2.644-1.066-3.923-1.706l-1.279-0.341  l-0.853-0.426c-1.45-0.682-2.9-1.365-4.35-2.217l-5.288-2.814c-1.279-0.768-2.559-1.535-3.838-2.473  c-2.968-1.774-5.817-3.744-8.529-5.885c-28.742-22.712-45.466-57.355-45.372-93.986c0-2.729,0-5.373,0-8.017  c-0.009-0.171-0.009-0.341,0-0.512c0-2.559,0.256-5.117,0.768-7.676l0,0c0,0,0,0,0-0.682c0.512-3.241,1.109-6.396,1.876-9.552  c0.785-3.488,1.757-6.934,2.9-10.32l1.535-4.35c0.682-1.876,1.45-3.753,2.303-5.629c0.682-1.62,1.45-3.241,2.217-4.776  s1.535-3.156,2.388-4.691c0.853-1.535,1.706-3.07,2.644-4.605c1.876-3.07,3.923-6.141,6.055-9.04c2.132-2.9,3.667-4.776,5.629-6.993  c3.923-4.648,8.23-8.955,12.878-12.878c2.217-1.962,4.605-3.838,6.993-5.629c2.388-1.791,5.97-4.179,9.04-6.055l4.605-2.644  l4.691-2.388l4.776-2.217c1.876-0.853,3.667-1.62,5.629-2.303l4.35-1.535c3.386-1.143,6.831-2.115,10.32-2.9  c3.156-0.768,6.311-1.365,9.552-1.876h1.194c2.559-0.341,5.117-0.597,7.676-0.768c0.307-0.043,0.631-0.043,0.938,0  c2.644,0,5.288,0,8.017,0C321.153,9.941,374.653,62.639,375.403,128.216z"/>
<path style="fill:#2296F3;" d="M341.289,128.216c-0.026,59.334-43.615,109.644-102.344,118.122c-2.559,0-5.117-0.853-7.676-1.365  l0,0c-1.706,0-3.411-0.768-5.032-1.279c-1.015-0.179-2.013-0.435-2.985-0.768l-6.226-1.962l-4.605-1.876l-2.388-1.023  c-1.339-0.495-2.644-1.066-3.923-1.706l-1.279-0.341l-0.853-0.426c-1.45-0.682-2.9-1.365-4.35-2.217l-5.288-2.814  c-1.279-0.768-2.559-1.535-3.838-2.473c-2.968-1.774-5.817-3.744-8.529-5.885c-28.742-22.712-45.466-57.355-45.372-93.986  c0-2.729,0-5.373,0-8.017c-0.009-0.171-0.009-0.341,0-0.512c0-2.559,0.256-5.117,0.768-7.676l0,0c0,0,0,0,0-0.682  c0.512-3.241,1.109-6.396,1.876-9.552c0.785-3.488,1.757-6.934,2.9-10.32l1.535-4.35c0.682-1.876,1.45-3.753,2.303-5.629  c0.682-1.62,1.45-3.241,2.217-4.776s1.535-3.156,2.388-4.691c0.853-1.535,1.706-3.07,2.644-4.605c1.876-3.07,3.923-6.141,6.055-9.04  c2.132-2.9,3.667-4.776,5.629-6.993c3.923-4.648,8.23-8.955,12.878-12.878c2.217-1.962,4.605-3.838,6.993-5.629  c2.388-1.791,5.97-4.179,9.04-6.055l4.605-2.644l4.691-2.388l4.776-2.217c1.876-0.853,3.667-1.62,5.629-2.303l4.35-1.535  c3.386-1.143,6.831-2.115,10.32-2.9c3.156-0.768,6.311-1.365,9.552-1.876h1.194C297.349,19.382,340.837,69.206,341.289,128.216z"/>
<path style="fill:#F5F5F5;" d="M332.76,124.975c-26.098,41.193-61.236,57.483-93.815,48.954  c-21.833-5.458-42.643-21.833-59.701-48.954c13.944-21.1,35.215-36.298,59.701-42.643c5.595-1.262,11.318-1.893,17.057-1.876  C283.721,80.2,311.439,95.125,332.76,124.975z"/>
<path style="fill:#FFFFFF;" d="M298.646,124.975c-17.057,27.121-38.294,43.411-59.7,48.954  c-21.833-5.458-42.643-21.833-59.701-48.954c13.944-21.1,35.215-36.298,59.701-42.643  C263.431,88.686,284.693,103.875,298.646,124.975z"/>
<path style="fill:#3F51B5;" d="M236.984,82.332c-9.45,10.507-8.597,26.678,1.902,36.136c10.507,9.45,26.678,8.597,36.136-1.902  c8.759-9.731,8.759-24.503,0-34.234"/>
<path d="M409.518,512.005H213.359c-9.424,0-17.057-7.633-17.057-17.057V392.604h-59.701v102.344c0,9.424-7.633,17.057-17.057,17.057  h-17.057c-9.424,0-17.057-7.633-17.057-17.057V341.432c-9.424,0-17.057-7.633-17.057-17.057v-12.452  c-0.017-5.723,2.832-11.07,7.59-14.243l112.663-74.967c2.806-1.8,6.405-1.8,9.211,0c35.761,21.629,80.57,21.629,116.331,0  c2.806-1.8,6.405-1.8,9.211,0l112.578,74.967c4.793,3.156,7.676,8.503,7.676,14.243v12.452c0,9.424-7.633,17.057-17.057,17.057  v153.516C426.575,504.372,418.934,512.005,409.518,512.005L409.518,512.005z M136.602,375.547h59.701  c9.424,0,17.057,7.633,17.057,17.057v102.344h196.159V341.432c0-9.424,7.633-17.057,17.057-17.057v-12.452l-108.143-72.067  c-38.882,21.364-85.977,21.364-124.859,0L85.43,311.838v12.537c9.424,0,17.057,7.633,17.057,17.057v153.516h17.057V392.604  C119.544,383.188,127.177,375.547,136.602,375.547z"/>
<path d="M128.073,341.432c-4.708,0-8.529-3.821-8.529-8.529c0.017-1.117,0.247-2.217,0.682-3.241  c0.435-1.032,1.04-1.987,1.791-2.814c3.318-3.343,8.716-3.369,12.06-0.051c1.629,1.612,2.533,3.812,2.524,6.107  c0.043,0.571,0.043,1.134,0,1.706c-0.094,0.537-0.264,1.049-0.512,1.535c-0.188,0.546-0.443,1.058-0.768,1.535  c-0.316,0.443-0.657,0.87-1.023,1.279C132.619,340.562,130.384,341.449,128.073,341.432z"/>
<path d="M366.875,341.432H153.659c-4.708,0-8.529-3.821-8.529-8.529s3.821-8.529,8.529-8.529h213.216  c4.708,0,8.529,3.821,8.529,8.529S371.583,341.432,366.875,341.432z"/>
<path d="M256.003,256.146c-23.744,0.034-47.027-6.584-67.206-19.104c-4.111-2.618-8.068-5.467-11.855-8.529  c-55.547-43.667-65.176-124.092-21.518-179.639s124.092-65.176,179.639-21.518s65.176,124.092,21.518,179.639  c-6.294,8-13.509,15.224-21.518,21.518c-3.787,3.062-7.753,5.91-11.855,8.529C303.029,249.562,279.746,256.18,256.003,256.146z   M256.003,17.344c-61.236,0.222-110.693,50.038-110.472,111.273c0.119,33.825,15.676,65.739,42.242,86.677  c3.309,2.601,6.746,5.023,10.32,7.249c35.761,21.629,80.57,21.629,116.331,0c3.394-2.243,6.669-4.665,9.808-7.249  c48.093-37.901,56.349-107.614,18.447-155.707C321.741,33.019,289.819,17.472,256.003,17.344z"/>
<path d="M255.491,184.761h-0.597c-31.727,0-61.15-19.872-82.898-55.266c-1.876-2.849-1.876-6.533,0-9.382  c22.26-31.215,52.025-48.357,83.666-48.357s61.406,17.057,83.666,48.357c1.953,2.883,1.953,6.669,0,9.552  C317.323,165.145,287.388,184.761,255.491,184.761z M189.65,125.06c18.081,27.121,41.108,42.046,65.415,42.643h0.512  c24.477,0,48.016-14.925,66.865-42.643c-18.507-23.624-41.876-36.588-66.353-36.588c-24.477,0-48.016,13.219-66.523,36.929  L189.65,125.06z"/>
<path d="M256.003,133.504c-18.84-0.102-34.029-15.462-33.918-34.302c0.043-8.145,3.002-16,8.332-22.157  c3.318-3.343,8.716-3.369,12.059-0.051c3.096,3.07,3.377,7.991,0.648,11.394c-6.234,7.062-5.552,17.842,1.51,24.076  c7.062,6.234,17.842,5.552,24.076-1.51c5.689-6.448,5.689-16.119,0-22.567c-3.13-3.556-2.789-8.981,0.768-12.111  c3.556-3.13,8.981-2.789,12.111,0.768c12.58,14.03,11.403,35.599-2.627,48.17c-6.303,5.654-14.49,8.759-22.959,8.716V133.504z"/>
<g>
</g>
<g>
</g>
<g>
</g>
<g>
</g>
<g>
</g>
<g>
</g>
<g>
</g>
<g>
</g>
<g>
</g>
<g>
</g>
<g>
</g>
<g>
</g>
<g>
</g>
<g>
</g>
<g>
</g>
</svg>
