<?xml version="1.0" encoding="iso-8859-1"?>
<!-- Generator: Adobe Illustrator 19.0.0, SVG Export Plug-In . SVG Version: 6.00 Build 0)  -->
<svg xmlns="http://www.w3.org/2000/svg" xmlns:xlink="http://www.w3.org/1999/xlink" version="1.1" id="Layer_1" x="0px" y="0px" viewBox="0 0 512.005 512.005" style="enable-background:new 0 0 512.005 512.005;" xml:space="preserve">
<path style="fill:#F57C00;" d="M431.266,304.759L273.06,199.345l-12.367-8.529c-2.849-1.876-6.533-1.876-9.382,0l-12.367,8.529  L80.739,304.759c-2.405,1.586-3.855,4.281-3.838,7.164v12.452c0,4.708,3.821,8.529,8.529,8.529c4.708,0,8.529,3.821,8.529,8.529  v153.516c0,4.708,3.821,8.529,8.529,8.529h17.057c4.708,0,8.529-3.821,8.529-8.529V392.604c0-4.708,3.821-8.529,8.529-8.529h59.701  c4.708,0,8.529,3.821,8.529,8.529v102.344c0,4.708,3.821,8.529,8.529,8.529h196.159c4.708,0,8.529-3.821,8.529-8.529V341.432  c0-4.708,3.821-8.529,8.529-8.529s8.529-3.821,8.529-8.529v-12.452C435.113,309.04,433.671,306.345,431.266,304.759z"/>
<path style="fill:#FF9801;" d="M400.989,311.923v12.452c0,4.708-3.821,8.529-8.529,8.529s-8.529,3.821-8.529,8.529v153.516  c0,4.708-3.821,8.529-8.529,8.529H213.359c-4.708,0-8.529-3.821-8.529-8.529V392.604c0-4.708-3.821-8.529-8.529-8.529h-59.701  c-4.708,0-8.529,3.821-8.529,8.529v102.344c0,4.708-3.821,8.529-8.529,8.529h-17.057c-4.708,0-8.529-3.821-8.529-8.529V341.432  c0-4.708-3.821-8.529-8.529-8.529s-8.529-3.821-8.529-8.529v-12.452c-0.017-2.883,1.433-5.578,3.838-7.164l158.206-105.414  l158.206,105.414C399.557,306.345,400.998,309.04,400.989,311.923z"/>
<path style="fill:#C52828;" d="M375.403,128.216c0,65.943-53.458,119.401-119.401,119.401c-5.714,0.009-11.411-0.418-17.057-1.279  c-58.728-8.477-102.318-58.788-102.344-118.122c-0.017-59.368,43.59-109.73,102.344-118.207c5.654-0.785,11.352-1.185,17.057-1.194  C321.946,8.815,375.403,62.273,375.403,128.216z"/>
<path style="fill:#F44335;" d="M341.289,128.216c-0.026,59.334-43.615,109.644-102.344,118.122  c-58.728-8.477-102.318-58.788-102.344-118.122c-0.017-59.368,43.59-109.73,102.344-118.207  C297.699,18.495,341.297,68.857,341.289,128.216z"/>
<g>
	<path style="fill:#FDD834;" d="M267.772,145.273h-23.539c-3.761,0.111-6.976-2.661-7.42-6.396l-6.396-79.913   c-0.196-3.949,2.857-7.309,6.806-7.505c0.23-0.009,0.469-0.009,0.699,0h36.247c3.949-0.145,7.275,2.942,7.42,6.9   c0.009,0.205,0.009,0.409,0,0.614l-6.396,79.913C274.748,142.612,271.525,145.393,267.772,145.273z"/>
	<path style="fill:#FDD834;" d="M251.482,179.388h9.04c6.925,0,12.537,5.612,12.537,12.537v9.04c0,6.925-5.612,12.537-12.537,12.537   h-9.04c-6.925,0-12.537-5.612-12.537-12.537v-9.04C238.945,185,244.557,179.388,251.482,179.388z"/>
</g>
<path d="M409.518,512.005H213.359c-9.424,0-17.057-7.633-17.057-17.057V392.604h-59.701v102.344c0,9.424-7.633,17.057-17.057,17.057  h-17.057c-9.424,0-17.057-7.633-17.057-17.057V341.432c-9.424,0-17.057-7.633-17.057-17.057v-12.452  c-0.017-5.723,2.832-11.07,7.59-14.243l112.663-74.967c2.806-1.8,6.405-1.8,9.211,0c35.761,21.629,80.57,21.629,116.331,0  c2.806-1.8,6.405-1.8,9.211,0l112.578,74.967c4.793,3.156,7.676,8.503,7.676,14.243v12.452c0,9.424-7.633,17.057-17.057,17.057  v153.516C426.575,504.372,418.934,512.005,409.518,512.005L409.518,512.005z M136.602,375.547h59.701  c9.424,0,17.057,7.633,17.057,17.057v102.344h196.159V341.432c0-9.424,7.633-17.057,17.057-17.057v-12.452l-108.143-72.067  c-38.882,21.364-85.977,21.364-124.859,0L85.43,311.838v12.537c9.424,0,17.057,7.633,17.057,17.057v153.516h17.057V392.604  C119.544,383.188,127.177,375.547,136.602,375.547z"/>
<path d="M128.073,341.432h-1.706l-1.535-0.512l-1.535-0.768l-1.279-1.023c-0.751-0.827-1.356-1.782-1.791-2.814  c-0.461-1.075-0.691-2.243-0.682-3.411c0.034-2.26,0.913-4.418,2.473-6.055l1.279-1.023l1.535-0.768  c0.469-0.307,0.989-0.537,1.535-0.682c1.663-0.324,3.386-0.145,4.947,0.512c1.032,0.435,1.987,1.04,2.814,1.791  c1.595,1.68,2.482,3.906,2.473,6.226c0.026,1.117-0.205,2.226-0.682,3.241c-0.776,2.141-2.465,3.829-4.605,4.605  C130.282,341.193,129.182,341.424,128.073,341.432z"/>
<path d="M366.875,341.432H153.659c-4.708,0-8.529-3.821-8.529-8.529s3.821-8.529,8.529-8.529h213.216  c4.708,0,8.529,3.821,8.529,8.529S371.583,341.432,366.875,341.432z"/>
<path d="M256.003,256.146c-23.744,0.034-47.027-6.584-67.206-19.104c-4.111-2.618-8.068-5.467-11.855-8.529  c-55.547-43.667-65.176-124.092-21.518-179.639s124.092-65.176,179.639-21.518s65.176,124.092,21.518,179.639  c-6.294,8-13.509,15.224-21.518,21.518c-3.787,3.062-7.753,5.91-11.855,8.529C303.029,249.562,279.746,256.18,256.003,256.146z   M256.003,17.344c-61.236,0.222-110.693,50.038-110.472,111.273c0.119,33.825,15.676,65.739,42.242,86.677  c3.309,2.601,6.746,5.023,10.32,7.249c35.761,21.629,80.57,21.629,116.331,0c3.394-2.243,6.669-4.665,9.808-7.249  c48.093-37.901,56.349-107.614,18.447-155.707C321.741,33.019,289.819,17.472,256.003,17.344z"/>
<path d="M260.523,222.031h-9.04c-11.633,0-21.066-9.433-21.066-21.066v-9.04c0-11.633,9.433-21.066,21.066-21.066h9.04  c11.633,0,21.066,9.433,21.066,21.066l0,0v9.04C281.588,212.598,272.156,222.031,260.523,222.031L260.523,222.031z M251.482,187.917  c-2.217,0-4.008,1.791-4.008,4.008v9.04c0,2.217,1.791,4.008,4.008,4.008h9.04c2.217,0,4.008-1.791,4.008-4.008v-9.04  c0-2.217-1.791-4.008-4.008-4.008H251.482z"/>
<path d="M267.772,153.802h-23.539c-8.247,0.128-15.19-6.115-15.949-14.328l-6.396-79.487c-0.35-4.23,1.1-8.418,4.008-11.514  c3.053-3.463,7.411-5.475,12.025-5.544h36.161c4.554-0.017,8.912,1.868,12.025,5.202c3.002,3.181,4.46,7.505,4.008,11.855  l-6.396,79.828C282.799,147.892,275.891,153.947,267.772,153.802z M245.342,136.745h21.577l6.141-76.758h-34.115L245.342,136.745z"/>
<g>
</g>
<g>
</g>
<g>
</g>
<g>
</g>
<g>
</g>
<g>
</g>
<g>
</g>
<g>
</g>
<g>
</g>
<g>
</g>
<g>
</g>
<g>
</g>
<g>
</g>
<g>
</g>
<g>
</g>
</svg>
