<?xml version="1.0" encoding="iso-8859-1"?>
<!-- Generator: Adobe Illustrator 19.0.0, SVG Export Plug-In . SVG Version: 6.00 Build 0)  -->
<svg xmlns="http://www.w3.org/2000/svg" xmlns:xlink="http://www.w3.org/1999/xlink" version="1.1" id="Layer_1" x="0px" y="0px" viewBox="0 0 512.002 512.002" style="enable-background:new 0 0 512.002 512.002;" xml:space="preserve">
<path style="fill:#00838F;" d="M265.219,438.101c-34.534,61.687-112.529,83.695-174.217,49.161  c-39.074-21.879-63.881-62.592-65.399-107.358c0-1.451,0-2.987,0-4.437c0.017-47.454,26.291-91.008,68.267-113.152V68.267  c0.034-26.394,17.374-49.63,42.667-57.173c5.538-1.655,11.29-2.517,17.067-2.56c32.99,0,59.733,26.743,59.733,59.733v194.048  c21.794,11.503,39.782,29.082,51.797,50.603c-8.038,13.065-13.483,27.546-16.043,42.667c-1.118,6.571-1.655,13.218-1.621,19.883  C247.435,397.594,253.579,419.285,265.219,438.101z"/>
<path style="fill:#00BCD4;" d="M230.403,438.101c-19.55,34.876-54.272,58.615-93.867,64.171  C74.67,493.986,27.804,442.283,25.603,379.904c0-1.451,0-2.987,0-4.437c0.017-47.454,26.291-91.008,68.267-113.152V68.267  c0.034-26.394,17.374-49.63,42.667-57.173c25.293,7.543,42.633,30.78,42.667,57.173v194.048  c21.572,11.597,39.347,29.167,51.2,50.603c-8.038,13.065-13.483,27.546-16.043,42.667c-1.152,6.562-1.724,13.218-1.707,19.883  C212.619,397.594,218.763,419.285,230.403,438.101z"/>
<path style="fill:#D84315;" d="M247.47,375.467c-0.017-3.823,0.188-7.637,0.597-11.435c-9.711-3.763-20.045-5.675-30.464-5.632  c-5.734,0-11.452,0.597-17.067,1.792c-18.441,3.593-35.046,13.525-46.933,28.075c-15.735,19.106-39.253,30.08-64,29.867  c-5.734-0.009-11.452-0.614-17.067-1.792c-17.894-3.627-34.039-13.193-45.824-27.136c0.939,8.704,2.79,17.289,5.547,25.6  c15.095,46.754,55.612,80.734,104.277,87.467l0,0c52.053,7.074,103.134-18.364,128.853-64.171  C253.69,419.302,247.487,397.611,247.47,375.467z"/>
<path style="fill:#FF5722;" d="M230.403,438.101c-19.55,34.876-54.272,58.615-93.867,64.171l0,0  c-48.725-6.562-89.387-40.457-104.619-87.211c-2.756-8.311-4.608-16.896-5.547-25.6c11.785,13.943,27.93,23.509,45.824,27.136  c5.615,1.178,11.332,1.783,17.067,1.792c24.909,0.256,48.58-10.829,64.341-30.123c11.819-14.498,28.331-24.431,46.677-28.075  c4.42,0.922,8.764,2.202,12.971,3.84c-0.41,3.797-0.614,7.612-0.597,11.435C212.619,397.594,218.763,419.285,230.403,438.101z"/>
<path d="M128.003,76.8c-4.71,0-8.533-3.823-8.533-8.533c0-18.85,15.283-34.133,34.133-34.133c4.71,0,8.533,3.823,8.533,8.533  s-3.823,8.533-8.533,8.533c-9.429,0-17.067,7.637-17.067,17.067C136.536,72.977,132.722,76.8,128.003,76.8z"/>
<path d="M59.736,387.328c-4.548,0.009-8.303-3.558-8.533-8.107c0-1.621,0-2.56,0-3.328c-0.119-38.093,20.924-73.105,54.613-90.88  c4.224-2.091,9.344-0.367,11.435,3.857c2.022,4.079,0.486,9.037-3.499,11.247c-27.938,14.754-45.44,43.75-45.483,75.349  c0,1.024,0,1.707,0,2.816c0.009,4.548-3.558,8.303-8.107,8.533L59.736,387.328z"/>
<path d="M89.603,426.667c-27.273,0.265-53.214-11.81-70.571-32.853c-1.254-1.51-1.946-3.413-1.963-5.376h8.533l6.229-6.229v1.024  l0,0c14.259,17.101,35.507,26.795,57.771,26.368c22.178,0.264,43.273-9.566,57.344-26.709  c17.314-21.171,43.307-33.323,70.656-33.024c11.895-0.06,23.697,2.202,34.731,6.656l-6.4,15.787  c-9.003-3.618-18.628-5.444-28.331-5.376c-22.178-0.265-43.273,9.566-57.344,26.709C142.953,414.814,116.952,426.965,89.603,426.667  z"/>
<path d="M153.603,512C79.875,512.358,19.297,453.862,17.07,380.16c0-1.451,0-3.157,0-4.693  c0.017-48.759,26.044-93.807,68.267-118.187V68.267C85.336,30.566,115.903,0,153.603,0s68.267,30.566,68.267,68.267V257.28  c21.214,12.177,38.724,29.867,50.688,51.2c1.527,2.637,1.527,5.897,0,8.533c-7.509,12.22-12.587,25.788-14.933,39.936  c-1.084,6.11-1.63,12.305-1.621,18.517c-0.034,20.523,5.675,40.653,16.469,58.112c1.527,2.637,1.527,5.897,0,8.533  C248.391,485.171,202.951,511.898,153.603,512z M153.603,17.067c-28.279,0-51.2,22.921-51.2,51.2v194.048  c-0.009,3.149-1.749,6.033-4.523,7.509c-39.194,20.668-63.727,61.329-63.744,105.643c0,1.28,0,2.645,0,3.925  c2.193,65.946,57.438,117.624,123.375,115.422c40.021-1.331,76.706-22.63,97.724-56.713c-10.726-19.123-16.341-40.704-16.299-62.635  c-0.043-7.031,0.529-14.054,1.707-20.992c2.415-14.592,7.356-28.655,14.592-41.557c-11.204-18.082-27.059-32.819-45.909-42.667  c-2.773-1.476-4.514-4.361-4.523-7.509V68.267C204.803,39.987,181.882,17.067,153.603,17.067z"/>
<path d="M213.336,145.067h-51.2c-4.71,0-8.533-3.823-8.533-8.533s3.823-8.533,8.533-8.533h51.2c4.71,0,8.533,3.823,8.533,8.533  S218.055,145.067,213.336,145.067z"/>
<path d="M213.336,179.2h-51.2c-4.71,0-8.533-3.823-8.533-8.533s3.823-8.533,8.533-8.533h51.2c4.71,0,8.533,3.823,8.533,8.533  S218.055,179.2,213.336,179.2z"/>
<path d="M213.336,213.333h-51.2c-4.71,0-8.533-3.823-8.533-8.533c0-4.71,3.823-8.533,8.533-8.533h51.2  c4.71,0,8.533,3.823,8.533,8.533C221.87,209.51,218.055,213.333,213.336,213.333z"/>
<path d="M213.336,247.467h-51.2c-4.71,0-8.533-3.823-8.533-8.533s3.823-8.533,8.533-8.533h51.2c4.71,0,8.533,3.823,8.533,8.533  S218.055,247.467,213.336,247.467z"/>
<path style="fill:#F57C00;" d="M486.403,375.467c0,65.98-53.487,119.467-119.467,119.467c-5.717,0.009-11.418-0.418-17.067-1.28  c-20.736-2.944-40.32-11.332-56.747-24.32c-11.051-8.704-20.497-19.268-27.904-31.232c-11.639-18.816-17.783-40.508-17.749-62.635  c-0.026-6.545,0.521-13.09,1.621-19.541c8.499-51.354,49.263-91.29,100.779-98.731c5.658-0.785,11.358-1.186,17.067-1.195  C432.916,256,486.403,309.487,486.403,375.467z"/>
<path style="fill:#FF9801;" d="M452.27,375.467c-0.026,59.366-43.639,109.705-102.4,118.187  c-20.736-2.944-40.32-11.332-56.747-24.32c-11.051-8.704-20.497-19.268-27.904-31.232c-11.639-18.816-17.783-40.508-17.749-62.635  c-0.026-6.545,0.521-13.09,1.621-19.541c8.499-51.354,49.263-91.29,100.779-98.731C408.664,265.677,452.287,316.066,452.27,375.467z  "/>
<path d="M366.936,503.467c-28.706,0.085-56.593-9.566-79.104-27.392c-30.865-24.26-48.887-61.346-48.896-100.608  c-0.043-7.031,0.529-14.054,1.707-20.992c11.597-69.734,77.525-116.873,147.26-105.276c69.734,11.597,116.873,77.525,105.276,147.26  C482.921,458.189,429.52,503.45,366.936,503.467z M366.936,264.533c-54.238,0.017-100.514,39.253-109.397,92.757  c-1.033,5.999-1.553,12.083-1.536,18.176c0,61.269,49.664,110.933,110.933,110.933S477.87,436.736,477.87,375.467  S428.206,264.533,366.936,264.533z"/>
<path style="fill:#FDD834;" d="M418.136,375.467c0,28.279-22.921,51.2-51.2,51.2c-5.811,0.009-11.58-0.973-17.067-2.901  c-5.274-2.022-10.172-4.907-14.507-8.533c-4.813-3.763-8.917-8.354-12.117-13.568c-4.89-7.859-7.492-16.939-7.509-26.197  c-0.034-2.628,0.171-5.257,0.597-7.851c1.084-6.758,3.465-13.252,6.997-19.115c6.135-9.916,15.462-17.442,26.453-21.333  c5.521-1.92,11.315-2.901,17.152-2.901C395.216,324.267,418.136,347.187,418.136,375.467z"/>
<path style="fill:#FFEB3A;" d="M384.003,375.467c-0.017,15.684-7.219,30.498-19.541,40.192c-4.369,3.61-9.301,6.494-14.592,8.533  c-5.274-2.022-10.172-4.907-14.507-8.533c-4.813-3.763-8.917-8.354-12.117-13.568c-4.966-7.987-7.569-17.22-7.509-26.624  c-0.034-2.628,0.171-5.257,0.597-7.851c1.084-6.758,3.465-13.252,6.997-19.115c6.135-9.916,15.462-17.442,26.453-21.333  C370.29,334.379,384.003,353.741,384.003,375.467z"/>
<path d="M366.936,435.2c-13.38,0.017-26.377-4.489-36.864-12.8c-5.666-4.386-10.513-9.728-14.336-15.787  c-5.692-9.387-8.644-20.173-8.533-31.147c-0.017-3.149,0.239-6.289,0.768-9.387c1.365-7.825,4.267-15.309,8.533-22.016  c17.34-28.066,54.153-36.753,82.219-19.405c28.066,17.34,36.753,54.153,19.405,82.219  C407.179,424.593,387.775,435.337,366.936,435.2z M366.936,332.8c-14.771,0.009-28.493,7.654-36.267,20.224  c-2.987,4.881-4.992,10.3-5.888,15.957c-0.35,2.142-0.529,4.309-0.512,6.485c-0.026,7.799,2.133,15.454,6.229,22.101  c2.705,4.343,6.135,8.183,10.155,11.349c18.475,14.626,45.312,11.511,59.938-6.963c14.626-18.475,11.511-45.312-6.963-59.938  C386.034,336,376.622,332.757,366.936,332.8z"/>
<path d="M366.936,332.8c-4.71,0-8.533-3.823-8.533-8.533v-34.133c0-4.71,3.823-8.533,8.533-8.533s8.533,3.823,8.533,8.533v34.133  C375.47,328.977,371.655,332.8,366.936,332.8z"/>
<path d="M366.936,469.333c-4.71,0-8.533-3.823-8.533-8.533v-34.133c0-4.71,3.823-8.533,8.533-8.533s8.533,3.823,8.533,8.533V460.8  C375.47,465.51,371.655,469.333,366.936,469.333z"/>
<path d="M330.755,347.819c-2.27,0.017-4.446-0.879-6.059-2.475l-24.149-24.149c-3.063-3.575-2.645-8.969,0.93-12.032  c3.191-2.739,7.91-2.739,11.102,0l24.149,24.149c3.345,3.319,3.371,8.721,0.051,12.066c-1.613,1.63-3.814,2.534-6.11,2.526  L330.755,347.819z"/>
<path d="M427.267,444.331c-2.27,0.017-4.446-0.879-6.059-2.475l-24.149-24.149c-3.063-3.575-2.645-8.969,0.93-12.032  c3.191-2.739,7.91-2.739,11.102,0l24.149,24.149c3.345,3.319,3.371,8.721,0.051,12.066c-1.613,1.63-3.814,2.534-6.11,2.526  L427.267,444.331z"/>
<path d="M315.736,384h-34.133c-4.71,0-8.533-3.823-8.533-8.533c0-4.71,3.823-8.533,8.533-8.533h34.133  c4.71,0,8.533,3.823,8.533,8.533C324.27,380.177,320.455,384,315.736,384z"/>
<path d="M452.27,384h-34.133c-4.71,0-8.533-3.823-8.533-8.533c0-4.71,3.823-8.533,8.533-8.533h34.133  c4.71,0,8.533,3.823,8.533,8.533C460.803,380.177,456.989,384,452.27,384z"/>
<path d="M306.606,444.331c-4.71,0.026-8.559-3.772-8.585-8.482c-0.017-2.296,0.896-4.497,2.526-6.11l24.149-24.149  c3.575-3.063,8.969-2.645,12.032,0.93c2.739,3.191,2.739,7.91,0,11.102l-24.149,24.149  C311.009,443.375,308.858,444.297,306.606,444.331z"/>
<path d="M403.118,347.819c-4.71,0.026-8.559-3.772-8.585-8.482c-0.017-2.295,0.896-4.497,2.526-6.11l24.149-24.149  c3.575-3.063,8.969-2.645,12.032,0.93c2.739,3.191,2.739,7.91,0,11.102l-24.149,24.149  C407.521,346.863,405.37,347.785,403.118,347.819z"/>
<g>
</g>
<g>
</g>
<g>
</g>
<g>
</g>
<g>
</g>
<g>
</g>
<g>
</g>
<g>
</g>
<g>
</g>
<g>
</g>
<g>
</g>
<g>
</g>
<g>
</g>
<g>
</g>
<g>
</g>
</svg>
