<?xml version="1.0" encoding="iso-8859-1"?>
<!-- Generator: Adobe Illustrator 19.0.0, SVG Export Plug-In . SVG Version: 6.00 Build 0)  -->
<svg xmlns="http://www.w3.org/2000/svg" xmlns:xlink="http://www.w3.org/1999/xlink" version="1.1" id="Layer_1" x="0px" y="0px" viewBox="0 0 512 512" style="enable-background:new 0 0 512 512;" xml:space="preserve">
<path style="fill:#00838F;" d="M265.216,438.101c-34.534,61.687-112.529,83.695-174.217,49.161  C51.917,465.382,27.119,424.67,25.6,379.904c0-1.451,0-2.987,0-4.437c0.017-47.454,26.291-91.008,68.267-113.152V68.267  c0.034-26.394,17.374-49.63,42.667-57.173c5.538-1.655,11.29-2.517,17.067-2.56c32.99,0,59.733,26.743,59.733,59.733v194.048  c21.794,11.503,39.782,29.082,51.797,50.603c-8.038,13.065-13.483,27.546-16.043,42.667c-1.118,6.571-1.664,13.218-1.621,19.883  C247.424,397.594,253.577,419.285,265.216,438.101z"/>
<path style="fill:#00BCD4;" d="M230.4,438.101c-19.55,34.876-54.272,58.615-93.867,64.171  C74.667,493.986,27.793,442.283,25.6,379.904c0-1.451,0-2.987,0-4.437c0.017-47.454,26.291-91.008,68.267-113.152V68.267  c0.034-26.394,17.374-49.63,42.667-57.173c25.293,7.543,42.633,30.78,42.667,57.173v194.048  c21.572,11.597,39.347,29.167,51.2,50.603c-8.038,13.065-13.483,27.546-16.043,42.667c-1.152,6.562-1.724,13.218-1.707,19.883  C212.608,397.594,218.761,419.285,230.4,438.101z"/>
<path style="fill:#D84315;" d="M247.467,375.467c-0.017-3.823,0.188-7.637,0.597-11.435c-9.711-3.763-20.045-5.675-30.464-5.632  c-5.734,0-11.452,0.597-17.067,1.792c-18.441,3.593-35.046,13.525-46.933,28.075c-15.735,19.106-39.253,30.08-64,29.867  c-5.734-0.009-11.452-0.614-17.067-1.792c-17.894-3.627-34.039-13.193-45.824-27.136c0.939,8.704,2.79,17.289,5.547,25.6  c15.095,46.754,55.612,80.734,104.277,87.467l0,0c52.053,7.074,103.134-18.364,128.853-64.171  C253.687,419.302,247.475,397.611,247.467,375.467z"/>
<path style="fill:#FF5722;" d="M230.4,438.101c-19.55,34.876-54.272,58.615-93.867,64.171l0,0  c-48.725-6.562-89.387-40.457-104.619-87.211c-2.756-8.311-4.608-16.896-5.547-25.6c11.785,13.943,27.93,23.509,45.824,27.136  c5.615,1.178,11.332,1.783,17.067,1.792c24.909,0.256,48.58-10.829,64.341-30.123c11.819-14.498,28.331-24.431,46.677-28.075  c4.42,0.922,8.764,2.202,12.971,3.84c-0.41,3.797-0.614,7.612-0.597,11.435C212.608,397.594,218.761,419.285,230.4,438.101z"/>
<path d="M153.6,512c-69.7-0.034-128.188-52.557-135.68-121.856c-0.341-4.702,3.183-8.789,7.885-9.139  c2.722-0.196,5.367,0.913,7.134,2.995c14.157,16.512,34.91,25.882,56.661,25.6c22.178,0.264,43.273-9.566,57.344-26.709  c17.314-21.171,43.307-33.323,70.656-33.024c11.469-0.043,22.844,2.074,33.536,6.229c3.465,1.365,5.641,4.821,5.376,8.533  c-0.384,3.601-0.555,7.219-0.512,10.837c-0.034,20.523,5.675,40.653,16.469,58.112c1.527,2.637,1.527,5.897,0,8.533  C248.388,485.171,202.94,511.898,153.6,512z M39.936,412.331c20.412,62.746,87.825,97.058,150.571,76.646  c26.982-8.781,49.954-26.871,64.811-51.046c-10.735-19.072-16.375-40.585-16.384-62.464c0-1.877,0-3.755,0-5.547  c-6.929-2.005-14.114-3.012-21.333-2.987c-22.178-0.265-43.273,9.566-57.344,26.709c-17.314,21.171-43.307,33.323-70.656,33.024  C72.013,426.726,54.784,421.751,39.936,412.331z"/>
<path d="M89.6,426.667c-26.871,0.239-52.446-11.486-69.803-32c-1.084-1.28-1.766-2.859-1.963-4.523c0-3.328-0.683-6.571-0.768-9.984  c0-1.365,0-3.072,0-4.693c0.017-48.759,26.044-93.807,68.267-118.187V68.267C85.333,30.566,115.9,0,153.6,0  s68.267,30.566,68.267,68.267V257.28c21.214,12.177,38.724,29.867,50.688,51.2c1.527,2.637,1.527,5.897,0,8.533  c-7.509,12.22-12.587,25.788-14.933,39.936c0,2.731-0.768,4.949-0.939,7.253c-0.29,4.702-4.343,8.277-9.045,7.987  c-0.879-0.051-1.741-0.247-2.56-0.563c-8.781-3.268-18.108-4.864-27.477-4.693c-22.178-0.265-43.273,9.566-57.344,26.709  C142.942,414.814,116.949,426.965,89.6,426.667z M34.56,385.621c14.106,15.454,34.116,24.175,55.04,23.979  c22.178,0.264,43.273-9.566,57.344-26.709c17.314-21.171,43.307-33.323,70.656-33.024c7.885-0.026,15.744,0.947,23.381,2.901  c2.509-13.986,7.322-27.452,14.251-39.851c-11.204-18.082-27.059-32.819-45.909-42.667c-2.773-1.476-4.514-4.361-4.523-7.509V68.267  c-0.017-28.279-22.955-51.183-51.226-51.174c-28.254,0.017-51.157,22.921-51.174,51.174v194.048  c-0.009,3.149-1.749,6.033-4.523,7.509c-39.194,20.668-63.735,61.329-63.744,105.643c0,1.28,0,2.645,0,3.925  C34.133,380.672,34.133,384,34.56,385.621z"/>
<path d="M128,76.8c-4.71,0-8.533-3.823-8.533-8.533c0-18.85,15.283-34.133,34.133-34.133c4.71,0,8.533,3.823,8.533,8.533  S158.31,51.2,153.6,51.2c-9.429,0-17.067,7.637-17.067,17.067C136.533,72.977,132.71,76.8,128,76.8z"/>
<path d="M59.733,387.328c-4.548,0.009-8.303-3.558-8.533-8.107c0-1.621,0-2.56,0-3.328c-0.119-38.093,20.924-73.105,54.613-90.88  c4.224-2.091,9.344-0.367,11.435,3.857c2.022,4.079,0.486,9.037-3.499,11.247c-27.947,14.754-45.44,43.75-45.483,75.349  c0,1.024,0,1.707,0,2.816c0.009,4.548-3.558,8.303-8.107,8.533L59.733,387.328z"/>
<path d="M213.333,145.067h-51.2c-4.71,0-8.533-3.823-8.533-8.533s3.823-8.533,8.533-8.533h51.2c4.71,0,8.533,3.823,8.533,8.533  S218.044,145.067,213.333,145.067z"/>
<path d="M213.333,179.2h-51.2c-4.71,0-8.533-3.823-8.533-8.533s3.823-8.533,8.533-8.533h51.2c4.71,0,8.533,3.823,8.533,8.533  S218.044,179.2,213.333,179.2z"/>
<path d="M213.333,213.333h-51.2c-4.71,0-8.533-3.823-8.533-8.533c0-4.71,3.823-8.533,8.533-8.533h51.2  c4.71,0,8.533,3.823,8.533,8.533C221.867,209.51,218.044,213.333,213.333,213.333z"/>
<path d="M213.333,247.467h-51.2c-4.71,0-8.533-3.823-8.533-8.533s3.823-8.533,8.533-8.533h51.2c4.71,0,8.533,3.823,8.533,8.533  S218.044,247.467,213.333,247.467z"/>
<polygon points="245.675,372.309 244.224,371.627 251.904,356.437 252.928,356.779 245.248,372.053 249.088,364.459 "/>
<path d="M20.309,395.264c-0.631-0.631-1.203-1.314-1.707-2.048c-0.981-1.399-1.51-3.072-1.536-4.779H25.6l6.229-6.229l0.683,1.707  l0,0l0,0l1.792,4.437h-6.656L20.309,395.264z"/>
<path style="fill:#0377BC;" d="M486.4,375.467c0,65.98-53.487,119.467-119.467,119.467c-5.717,0.009-11.418-0.418-17.067-1.28  c-20.736-2.944-40.32-11.332-56.747-24.32c-11.051-8.704-20.497-19.268-27.904-31.232c-11.639-18.816-17.792-40.508-17.749-62.635  c-0.017-3.823,0.188-7.637,0.597-11.435c0-2.731,0.597-5.376,1.024-8.533c8.67-51.183,49.399-90.914,100.779-98.304  c5.658-0.785,11.358-1.186,17.067-1.195C432.913,256,486.4,309.487,486.4,375.467z"/>
<path style="fill:#02A9F4;" d="M452.267,375.467c-0.026,59.366-43.639,109.705-102.4,118.187  c-20.736-2.944-40.32-11.332-56.747-24.32c-11.051-8.704-20.497-19.268-27.904-31.232c-11.639-18.816-17.792-40.508-17.749-62.635  c-0.017-3.823,0.188-7.637,0.597-11.435c0-2.731,0.597-5.376,1.024-8.533c8.67-51.183,49.399-90.914,100.779-98.304  C408.653,265.677,452.284,316.066,452.267,375.467z"/>
<path d="M366.933,503.467c-28.706,0.085-56.593-9.566-79.104-27.392c-30.865-24.26-48.887-61.346-48.896-100.608  c-0.009-4.13,0.222-8.269,0.683-12.373c0-2.389,0.597-5.12,1.024-8.021c11.503-69.751,77.372-116.966,147.123-105.463  c61.653,10.163,106.957,63.369,107.17,125.858C494.933,446.157,437.624,503.467,366.933,503.467z M366.933,264.533  c-54.238,0.017-100.514,39.253-109.397,92.757c0,2.731-0.768,4.949-0.939,7.253c-0.401,3.627-0.606,7.27-0.597,10.923  c0,61.269,49.664,110.933,110.933,110.933s110.933-49.664,110.933-110.933S428.203,264.533,366.933,264.533z"/>
<path d="M366.933,469.333c-4.71,0-8.533-3.823-8.533-8.533V290.133c0-4.71,3.823-8.533,8.533-8.533s8.533,3.823,8.533,8.533V460.8  C375.467,465.51,371.644,469.333,366.933,469.333z"/>
<path d="M366.933,324.267c-1.673-0.017-3.302-0.521-4.693-1.451l-25.6-17.067c-4.053-2.398-5.402-7.629-3.004-11.691  c2.398-4.062,7.629-5.402,11.691-3.004c0.273,0.162,0.538,0.333,0.785,0.529l25.6,17.067c3.908,2.628,4.949,7.927,2.321,11.844  C372.446,322.859,369.783,324.275,366.933,324.267z"/>
<path d="M366.933,324.267c-4.71,0.009-8.542-3.797-8.55-8.516c-0.009-2.85,1.408-5.513,3.772-7.1l25.6-17.067  c3.763-2.833,9.114-2.074,11.947,1.69s2.074,9.114-1.69,11.947c-0.256,0.188-0.512,0.367-0.785,0.529l-25.6,17.067  C370.236,323.746,368.606,324.25,366.933,324.267z"/>
<path d="M341.333,460.8c-4.71,0.009-8.542-3.797-8.55-8.516c-0.009-2.85,1.408-5.513,3.772-7.1l25.6-17.067  c4.053-2.398,9.293-1.058,11.691,3.004c2.21,3.746,1.254,8.55-2.219,11.162l-25.6,17.067  C344.636,460.279,343.006,460.783,341.333,460.8z"/>
<path d="M392.533,460.8c-1.673-0.017-3.302-0.521-4.693-1.451l-25.6-17.067c-4.053-2.398-5.402-7.629-3.004-11.691  c2.398-4.062,7.629-5.402,11.691-3.004c0.273,0.162,0.538,0.333,0.785,0.529l25.6,17.067c3.908,2.628,4.949,7.927,2.321,11.844  C398.046,459.392,395.383,460.809,392.533,460.8z"/>
<path d="M452.267,384H281.6c-4.71,0-8.533-3.823-8.533-8.533c0-4.71,3.823-8.533,8.533-8.533h170.667  c4.71,0,8.533,3.823,8.533,8.533C460.8,380.177,456.977,384,452.267,384z"/>
<path d="M290.133,409.6c-4.71-0.026-8.516-3.866-8.491-8.576c0.009-1.655,0.495-3.268,1.408-4.651l17.067-25.6  c2.398-4.053,7.629-5.402,11.691-3.004c4.062,2.398,5.402,7.629,3.004,11.691c-0.162,0.273-0.333,0.538-0.529,0.785l-17.067,25.6  C295.629,408.201,292.975,409.6,290.133,409.6z"/>
<path d="M307.2,384c-2.859-0.017-5.513-1.459-7.083-3.84l-17.067-25.6c-2.398-4.053-1.058-9.293,3.004-11.691  c3.746-2.21,8.55-1.254,11.162,2.219l17.067,25.6c2.637,3.908,1.613,9.207-2.287,11.844C310.579,383.497,308.907,384,307.2,384z"/>
<path d="M443.733,409.6c-2.859-0.017-5.513-1.459-7.083-3.84l-17.067-25.6c-2.398-4.053-1.058-9.293,3.004-11.691  c3.746-2.21,8.55-1.254,11.162,2.219l17.067,25.6c2.637,3.908,1.613,9.207-2.287,11.844C447.113,409.097,445.44,409.6,443.733,409.6  z"/>
<path d="M426.667,384c-4.71-0.026-8.516-3.866-8.491-8.576c0.009-1.655,0.495-3.268,1.408-4.651l17.067-25.6  c2.398-4.053,7.629-5.402,11.691-3.004s5.402,7.629,3.004,11.691c-0.162,0.273-0.333,0.538-0.529,0.785l-17.067,25.6  C432.162,382.601,429.508,384,426.667,384z"/>
<path d="M409.6,426.667c-2.27,0.017-4.446-0.879-6.059-2.475l-85.333-85.333c-3.063-3.575-2.645-8.969,0.93-12.032  c3.191-2.739,7.91-2.739,11.102,0l85.333,85.333c3.302,3.362,3.243,8.764-0.119,12.066  C413.892,425.762,411.793,426.633,409.6,426.667z"/>
<path d="M324.267,426.667c-4.71,0.026-8.559-3.772-8.585-8.482c-0.017-2.295,0.896-4.497,2.526-6.11l85.333-85.333  c3.575-3.063,8.969-2.645,12.032,0.93c2.739,3.191,2.739,7.91,0,11.102l-85.333,85.333  C328.661,425.711,326.519,426.633,324.267,426.667z"/>
<g>
</g>
<g>
</g>
<g>
</g>
<g>
</g>
<g>
</g>
<g>
</g>
<g>
</g>
<g>
</g>
<g>
</g>
<g>
</g>
<g>
</g>
<g>
</g>
<g>
</g>
<g>
</g>
<g>
</g>
</svg>
