<?xml version="1.0" encoding="iso-8859-1"?>
<!-- Generator: Adobe Illustrator 19.0.0, SVG Export Plug-In . SVG Version: 6.00 Build 0)  -->
<svg xmlns="http://www.w3.org/2000/svg" xmlns:xlink="http://www.w3.org/1999/xlink" version="1.1" id="Layer_1" x="0px" y="0px" viewBox="0 0 512.002 512.002" style="enable-background:new 0 0 512.002 512.002;" xml:space="preserve">
<path style="fill:#F57C00;" d="M431.771,304.157L273.108,198.439l-12.402-8.553c-2.857-1.882-6.552-1.882-9.409,0l-12.402,8.553  L80.231,304.157c-2.412,1.591-3.866,4.294-3.849,7.185v12.488c0,4.721,3.832,8.553,8.553,8.553c4.721,0,8.553,3.832,8.553,8.553  v153.959c0,4.721,3.832,8.553,8.553,8.553h17.107c4.721,0,8.553-3.832,8.553-8.553V392.256c0-4.721,3.832-8.553,8.553-8.553h59.873  c4.721,0,8.553,3.832,8.553,8.553v102.639c0,4.721,3.832,8.553,8.553,8.553H409.96c4.721,0,8.553-3.832,8.553-8.553V340.936  c0-4.721,3.832-8.553,8.553-8.553s8.553-3.832,8.553-8.553v-12.488C435.637,308.451,434.192,305.748,431.771,304.157z"/>
<path style="fill:#FF9801;" d="M401.407,311.342v12.488c0,4.721-3.832,8.553-8.553,8.553s-8.553,3.832-8.553,8.553v153.959  c0,4.721-3.832,8.553-8.553,8.553H213.235c-4.721,0-8.553-3.832-8.553-8.553V392.256c0-4.721-3.832-8.553-8.553-8.553h-59.873  c-4.721,0-8.553,3.832-8.553,8.553v102.639c0,4.721-3.832,8.553-8.553,8.553h-17.107c-4.721,0-8.553-3.832-8.553-8.553V340.936  c0-4.721-3.832-8.553-8.553-8.553c-4.721,0-8.553-3.832-8.553-8.553v-12.488c-0.017-2.891,1.437-5.594,3.849-7.185l158.664-105.719  l158.664,105.719C399.979,305.748,401.424,308.451,401.407,311.342z"/>
<path d="M409.96,512.002H213.235c-9.451,0-17.107-7.655-17.107-17.107V392.256h-59.873v102.639c0,9.451-7.655,17.107-17.107,17.107  h-17.107c-9.451,0-17.107-7.655-17.107-17.107V340.936c-9.451,0-17.107-7.655-17.107-17.107v-12.488  c-0.017-5.739,2.84-11.102,7.612-14.284l171.066-114.015c5.731-3.798,13.172-3.798,18.903,0l171.066,114.015  c4.807,3.165,7.698,8.528,7.698,14.284v12.488c0,9.451-7.655,17.107-17.107,17.107v153.959  C427.067,504.347,419.412,512.002,409.96,512.002z M136.255,375.15h59.873c9.451,0,17.107,7.655,17.107,17.107v102.639H409.96  V340.936c0-9.451,7.655-17.107,17.107-17.107v-12.488L256.001,197.241l-12.317,8.553L84.935,311.256v12.573  c9.451,0,17.107,7.655,17.107,17.107v153.959h17.107V392.256C119.148,382.813,126.812,375.15,136.255,375.15z"/>
<path d="M127.702,340.936c-4.721,0.026-8.579-3.781-8.605-8.502c-0.017-2.301,0.898-4.508,2.532-6.124l1.283-1.026l1.54-0.77  c0.47-0.308,0.992-0.539,1.54-0.684c1.129-0.257,2.292-0.257,3.421,0c0.539,0.094,1.052,0.265,1.54,0.513  c0.547,0.188,1.061,0.445,1.54,0.77l1.283,1.026c0.753,0.83,1.36,1.788,1.796,2.823c0.915,2.07,0.915,4.431,0,6.5  c-0.411,1.052-1.018,2.01-1.796,2.823l-1.283,1.026c-0.479,0.325-0.992,0.582-1.54,0.77l-1.54,0.855H127.702z"/>
<path d="M367.194,340.936H153.362c-4.721,0-8.553-3.832-8.553-8.553c0-4.721,3.832-8.553,8.553-8.553h213.832  c4.721,0,8.553,3.832,8.553,8.553C375.747,337.104,371.924,340.936,367.194,340.936z"/>
<path style="fill:#00838F;" d="M290.214,106.149c-0.043,12.18-6.56,23.419-17.107,29.509v62.781l-12.402-8.553  c-2.857-1.882-6.552-1.882-9.409,0l-3.849,2.566l-0.77,0.513l-7.783,5.218v-62.525c-16.311-9.537-21.802-30.492-12.274-46.804  c4.824-8.237,12.873-14.096,22.196-16.149c2.361-0.522,4.773-0.778,7.185-0.77C274.895,71.935,290.214,87.254,290.214,106.149z"/>
<path style="fill:#00BCD4;" d="M264.554,101.444c-0.043,12.18-6.56,23.419-17.107,29.509v62.781l-0.77-0.513l-7.783-5.218v-52.346  c-16.311-9.537-21.802-30.492-12.274-46.804c4.824-8.237,12.873-14.096,22.196-16.149C258.61,78.992,264.537,89.82,264.554,101.444z  "/>
<path d="M273.108,206.992c-1.702,0-3.37-0.505-4.79-1.454l-12.317-8.297l-12.317,8.553c-3.909,2.652-9.229,1.625-11.881-2.292  c-1.009-1.488-1.522-3.267-1.463-5.064v-58.248c-18.894-14.173-22.726-40.979-8.553-59.873  c14.173-18.894,40.979-22.726,59.873-8.553s22.726,40.979,8.553,59.873c-2.429,3.242-5.312,6.124-8.553,8.553v58.248  C281.661,203.169,277.838,206.992,273.108,206.992z M256.001,80.489c-14.173,0-25.66,11.487-25.66,25.66  c0.051,9.109,4.935,17.509,12.83,22.067c2.66,1.531,4.285,4.371,4.277,7.441v46.787c5.294-3.054,11.812-3.054,17.107,0v-46.786  c0.017-3.036,1.642-5.833,4.277-7.356c7.92-4.567,12.804-13.01,12.83-22.153C281.661,91.984,270.174,80.489,256.001,80.489z"/>
<path d="M127.702,204.084c-2.275,0.017-4.456-0.881-6.073-2.48c-54.998-55.152-54.998-144.397,0-199.548  c3.584-3.071,8.99-2.652,12.06,0.932c2.746,3.199,2.746,7.929,0,11.128c-48.36,48.48-48.36,126.948,0,175.428  c3.31,3.37,3.25,8.784-0.12,12.094C132.004,203.186,129.9,204.058,127.702,204.084z"/>
<path d="M152.164,179.878c-2.275,0.017-4.456-0.881-6.073-2.48c-41.723-41.774-41.723-109.448,0-151.222  c3.584-3.071,8.99-2.652,12.06,0.932c2.746,3.199,2.746,7.929,0,11.128c-35.026,35.094-35.026,91.922,0,127.016  c3.353,3.327,3.379,8.741,0.051,12.094c-1.617,1.634-3.823,2.54-6.124,2.532L152.164,179.878z"/>
<path d="M176.37,155.672c-2.275,0.017-4.456-0.881-6.073-2.48c-28.414-28.44-28.397-74.525,0.043-102.939  c0.043-0.043,0.086-0.086,0.128-0.128c3.404-3.31,8.836-3.233,12.146,0.171c3.31,3.404,3.233,8.836-0.171,12.146  c-21.648,21.725-21.648,56.879,0,78.605c3.353,3.327,3.379,8.741,0.051,12.094C180.878,154.774,178.671,155.689,176.37,155.672z"/>
<path d="M384.301,204.084c-4.721,0.026-8.579-3.781-8.605-8.502c-0.017-2.301,0.898-4.508,2.532-6.124  c48.36-48.48,48.36-126.948,0-175.428c-2.788-3.815-1.959-9.161,1.856-11.949c2.951-2.155,6.954-2.198,9.947-0.111  c54.998,55.152,54.998,144.397,0,199.548C388.517,203.074,386.473,203.99,384.301,204.084z"/>
<path d="M359.838,179.878c-4.721,0.026-8.579-3.781-8.605-8.502c-0.017-2.301,0.898-4.508,2.532-6.124  c35.026-35.094,35.026-91.922,0-127.016c-3.327-3.353-3.31-8.776,0.043-12.103c3.353-3.327,8.776-3.31,12.103,0.043  c41.723,41.774,41.723,109.448,0,151.222C364.303,179.005,362.113,179.895,359.838,179.878z"/>
<path d="M335.632,155.672c-4.721,0.026-8.579-3.781-8.605-8.502c-0.017-2.301,0.898-4.508,2.532-6.124  c21.648-21.725,21.648-56.879,0-78.605c-3.404-3.31-3.481-8.741-0.171-12.146c3.31-3.404,8.741-3.481,12.146-0.171  c28.226,28.388,28.226,74.251,0,102.64C340.037,154.483,337.907,155.535,335.632,155.672z"/>
<g>
</g>
<g>
</g>
<g>
</g>
<g>
</g>
<g>
</g>
<g>
</g>
<g>
</g>
<g>
</g>
<g>
</g>
<g>
</g>
<g>
</g>
<g>
</g>
<g>
</g>
<g>
</g>
<g>
</g>
</svg>
