<?xml version="1.0" encoding="iso-8859-1"?>
<!-- Generator: Adobe Illustrator 19.0.0, SVG Export Plug-In . SVG Version: 6.00 Build 0)  -->
<svg xmlns="http://www.w3.org/2000/svg" xmlns:xlink="http://www.w3.org/1999/xlink" version="1.1" id="Layer_1" x="0px" y="0px" viewBox="0 0 511.999 511.999" style="enable-background:new 0 0 511.999 511.999;" xml:space="preserve">
<path d="M255.958,179.213c-5.651,0-10.238-4.587-10.238-10.238V46.117c0-5.651,4.587-10.238,10.238-10.238  s10.238,4.587,10.238,10.238v122.858C266.196,174.637,261.62,179.213,255.958,179.213z"/>
<path style="fill:#6A1B9A;" d="M488.671,404.453H23.245c-6.839,0.297-12.613-5.006-12.91-11.846  c-0.174-4.167,1.751-8.139,5.129-10.576l206.913-149.17c2.242-1.587,4.925-2.447,7.679-2.457h51.805  c2.754,0.01,5.436,0.87,7.679,2.457l206.913,149.17c5.549,4.003,6.798,11.743,2.795,17.292  C496.811,402.712,492.838,404.637,488.671,404.453z"/>
<path style="fill:#9D27B0;" d="M437.481,404.453H23.245c-6.839,0.297-12.613-5.006-12.91-11.846  c-0.174-4.167,1.751-8.139,5.129-10.576l206.913-149.17c2.242-1.587,4.925-2.447,7.679-2.457h0.614  c2.754,0.01,5.436,0.87,7.679,2.457l206.913,149.17c5.549,4.003,6.798,11.743,2.795,17.292  C445.62,402.712,441.648,404.637,437.481,404.453z"/>
<path style="fill:#6A1B9A;" d="M286.673,199.689v30.714h-61.429v-30.714c0-16.965,13.75-30.714,30.714-30.714  S286.673,182.735,286.673,199.689z"/>
<path style="fill:#9D27B0;" d="M255.958,199.689v30.714h-30.714v-30.714c-0.01-10.975,5.846-21.132,15.357-26.619  C250.112,178.568,255.968,188.714,255.958,199.689z"/>
<path d="M488.671,414.691H23.245c-10.074,0.195-19.074-6.266-22.114-15.869c-3.082-9.276,0.287-19.473,8.293-25.083l206.913-149.17  c3.993-2.867,8.795-4.413,13.719-4.402h51.703c4.925-0.01,9.726,1.536,13.719,4.402l207.016,149.17  c8.037,5.58,11.457,15.787,8.395,25.083C507.847,408.466,498.787,414.936,488.671,414.691z M230.055,240.642  c-0.614-0.01-1.229,0.174-1.74,0.512L21.402,390.426c-0.778,0.41-1.126,1.331-0.819,2.15c0.369,1.075,1.433,1.751,2.56,1.638  h465.529c1.126,0.113,2.191-0.563,2.56-1.638c0.307-0.819-0.041-1.74-0.819-2.15L283.601,241.154  c-0.512-0.338-1.126-0.522-1.74-0.512H230.055z"/>
<path style="fill:#F57C00;" d="M286.673,404.453v30.714c0,16.965-13.75,30.714-30.714,30.714s-30.714-13.75-30.714-30.714v-30.714  H286.673z"/>
<path style="fill:#FF9801;" d="M255.958,404.453v30.714c0.01,10.975-5.846,21.132-15.357,26.619  c-9.511-5.488-15.367-15.644-15.357-26.619v-30.714H255.958z"/>
<path d="M255.958,476.12c-22.616,0-40.953-18.337-40.953-40.953v-30.714c0-5.651,4.587-10.238,10.238-10.238h61.429  c5.651,0,10.238,4.587,10.238,10.238v30.714C296.911,457.793,278.584,476.12,255.958,476.12z M235.482,414.691v20.476  c0,11.313,9.163,20.476,20.476,20.476c11.313,0,20.476-9.163,20.476-20.476v-20.476H235.482z"/>
<path d="M286.673,240.642h-61.429c-5.651,0-10.238-4.587-10.238-10.238v-30.714c0-22.616,18.337-40.953,40.953-40.953  s40.953,18.337,40.953,40.953v30.714C296.911,236.066,292.334,240.642,286.673,240.642z M235.482,220.166h40.953v-20.476  c0-11.313-9.163-20.476-20.476-20.476c-11.313,0-20.476,9.163-20.476,20.476V220.166z"/>
<path d="M276.434,281.595h-40.953c-5.651,0-10.238-4.587-10.238-10.238s4.587-10.238,10.238-10.238h40.953  c5.651,0,10.238,4.587,10.238,10.238S282.096,281.595,276.434,281.595z"/>
<g>
</g>
<g>
</g>
<g>
</g>
<g>
</g>
<g>
</g>
<g>
</g>
<g>
</g>
<g>
</g>
<g>
</g>
<g>
</g>
<g>
</g>
<g>
</g>
<g>
</g>
<g>
</g>
<g>
</g>
</svg>
