<?xml version="1.0" encoding="iso-8859-1"?>
<!-- Generator: Adobe Illustrator 19.0.0, SVG Export Plug-In . SVG Version: 6.00 Build 0)  -->
<svg xmlns="http://www.w3.org/2000/svg" xmlns:xlink="http://www.w3.org/1999/xlink" version="1.1" id="Layer_1" x="0px" y="0px" viewBox="0 0 512 512" style="enable-background:new 0 0 512 512;" xml:space="preserve">
<path style="fill:#C52828;" d="M452.181,128.166c0,65.951-53.464,119.415-119.415,119.415c-5.715,0.009-11.413-0.418-17.059-1.279  c-58.735-8.478-102.33-58.795-102.356-118.135C213.335,68.791,256.947,18.424,315.707,9.945c5.655-0.785,11.353-1.186,17.059-1.194  C398.718,8.751,452.181,62.215,452.181,128.166z"/>
<path style="fill:#F44335;" d="M418.063,128.166c-0.026,59.341-43.621,109.657-102.356,118.135  c-58.735-8.478-102.33-58.795-102.356-118.135C213.335,68.791,256.947,18.424,315.707,9.945  C374.468,18.424,418.08,68.791,418.063,128.166z"/>
<g>
	<path style="fill:#FDD834;" d="M344.537,145.225h-23.542c-3.762,0.111-6.977-2.661-7.421-6.397l-6.397-79.923   c-0.196-3.949,2.857-7.31,6.807-7.506c0.23-0.009,0.469-0.009,0.699,0h36.251c3.958-0.145,7.276,2.943,7.421,6.892   c0.009,0.205,0.009,0.409,0,0.614l-6.397,79.923C351.515,142.564,348.299,145.336,344.537,145.225z"/>
	<path style="fill:#FDD834;" d="M328.246,179.344h9.041c6.926,0,12.539,5.613,12.539,12.539v9.041   c0,6.926-5.613,12.539-12.539,12.539h-9.041c-6.926,0-12.539-5.613-12.539-12.539v-9.041   C315.707,184.956,321.32,179.344,328.246,179.344z"/>
</g>
<path style="fill:#607D8B;" d="M281.589,235.981v250.43c0,9.425-7.634,17.059-17.059,17.059H76.877  c-9.425,0-17.059-7.634-17.059-17.059V128.166c0-9.425,7.634-17.059,17.059-17.059h137.668l0,0  c-0.341,2.559-0.597,5.118-0.768,7.677c-0.043,0.307-0.043,0.623,0,0.938c0,2.644,0,5.374,0,8.018  c0.017,36.618,16.837,71.205,45.634,93.826c2.712,2.141,5.561,4.111,8.53,5.885c1.279,0.938,2.559,1.706,3.838,2.474l5.288,2.985  c1.45,0.853,2.9,1.535,4.35,2.218L281.589,235.981z"/>
<path style="fill:#CFD8DC;" d="M247.47,235.981v250.43c0,9.425-7.634,17.059-17.059,17.059H76.877  c-9.425,0-17.059-7.634-17.059-17.059V128.166c0-9.425,7.634-17.059,17.059-17.059h103.55l0,0c-0.341,2.559-0.597,5.118-0.768,7.677  c-0.043,0.307-0.043,0.623,0,0.938c0,2.644,0,5.374,0,8.018c0.017,36.618,16.838,71.205,45.634,93.826  c2.712,2.141,5.561,4.111,8.53,5.885c1.279,0.938,2.559,1.706,3.838,2.474l5.288,2.985c1.45,0.853,2.9,1.535,4.35,2.218  L247.47,235.981z"/>
<path style="fill:#0377BC;" d="M221.881,409.644c0,28.267-22.911,51.178-51.178,51.178c-5.817,0.017-11.592-0.998-17.059-2.985  c-26.612-9.511-40.482-38.801-30.971-65.414c5.16-14.441,16.53-25.811,30.971-30.971c5.467-1.987,11.242-3.002,17.059-2.985  C198.971,358.466,221.881,381.377,221.881,409.644z"/>
<path style="fill:#02A9F4;" d="M187.763,409.644c-0.026,21.665-13.69,40.968-34.119,48.192  c-26.612-9.511-40.482-38.801-30.971-65.414c5.16-14.441,16.53-25.811,30.971-30.971  C174.073,368.676,187.737,387.979,187.763,409.644z"/>
<path d="M332.767,256.111c-28.685-0.085-56.509-9.749-79.07-27.465c-30.928-24.147-48.969-61.234-48.875-100.479  c0.009-6.107,0.435-12.206,1.279-18.253C216.073,39.961,280.855-8.675,350.815,1.296c63.128,8.99,109.998,63.102,109.896,126.87  C460.711,198.826,403.426,256.111,332.767,256.111z M332.767,17.281c-55.042,0.205-101.682,40.575-109.776,95.02  c-0.734,5.254-1.1,10.56-1.109,15.865c0,61.243,49.642,110.885,110.885,110.885s110.885-49.642,110.885-110.885  S394.009,17.281,332.767,17.281z"/>
<path d="M264.529,512H76.877c-14.134,0-25.589-11.455-25.589-25.589V128.166c0-14.134,11.455-25.589,25.589-25.589h137.668  c4.708,0,8.53,3.821,8.53,8.53c0,4.708-3.821,8.53-8.53,8.53H76.877c-4.708,0-8.53,3.821-8.53,8.53v358.245  c0,4.708,3.821,8.53,8.53,8.53h187.652c4.708,0,8.53-3.821,8.53-8.53v-250.43c0-4.708,3.821-8.53,8.53-8.53s8.53,3.821,8.53,8.53  v250.43C290.118,500.544,278.663,512,264.529,512z"/>
<path d="M153.644,196.403c-4.708,0-8.53-3.821-8.53-8.53c0.017-1.117,0.247-2.218,0.682-3.241c0.435-1.032,1.041-1.987,1.791-2.815  c3.318-3.344,8.717-3.369,12.061-0.051c0.017,0.017,0.034,0.034,0.051,0.051c0.751,0.827,1.356,1.783,1.791,2.815  c0.435,1.024,0.665,2.124,0.682,3.241C162.174,192.582,158.353,196.403,153.644,196.403z"/>
<path d="M136.585,230.522c-4.708,0-8.53-3.821-8.53-8.53c-0.034-1.117,0.205-2.226,0.682-3.241c0.435-1.032,1.041-1.987,1.791-2.815  c3.318-3.344,8.717-3.369,12.061-0.051c0.017,0.017,0.034,0.034,0.051,0.051c0.751,0.827,1.356,1.783,1.791,2.815  c0.435,1.024,0.665,2.124,0.682,3.241C145.115,226.7,141.293,230.522,136.585,230.522z"/>
<path d="M170.703,230.522h-1.706l-1.535-0.512c-0.546-0.188-1.058-0.444-1.535-0.768l-1.279-1.024  c-1.638-1.655-2.533-3.898-2.474-6.227c0.017-1.117,0.247-2.218,0.682-3.241c0.392-1.058,0.998-2.013,1.791-2.815  c0.401-0.367,0.836-0.708,1.279-1.024c0.478-0.324,0.989-0.58,1.535-0.768c0.469-0.307,0.989-0.537,1.535-0.682  c1.663-0.324,3.386-0.145,4.947,0.512c1.032,0.435,1.987,1.041,2.815,1.791c3.437,3.216,3.625,8.615,0.401,12.052  C175.497,229.601,173.143,230.59,170.703,230.522z"/>
<path d="M204.822,230.522c-4.708,0.026-8.555-3.77-8.581-8.478c-0.017-2.294,0.896-4.495,2.525-6.107  c2.013-1.996,4.896-2.857,7.677-2.303c0.563,0.077,1.109,0.256,1.621,0.512c0.52,0.171,1.015,0.426,1.45,0.768l1.365,1.024  c3.344,3.318,3.369,8.717,0.051,12.061c-0.017,0.017-0.034,0.034-0.051,0.051l-1.365,1.024c-0.435,0.341-0.93,0.597-1.45,0.768  c-0.512,0.256-1.058,0.426-1.621,0.512L204.822,230.522z"/>
<path d="M187.763,196.403h-1.706l-1.535-0.512c-0.546-0.188-1.058-0.444-1.535-0.768l-1.279-1.024  c-3.344-3.318-3.369-8.717-0.051-12.061c0.017-0.017,0.034-0.034,0.051-0.051l1.279-1.024c0.478-0.324,0.989-0.58,1.535-0.768  c0.461-0.367,0.981-0.657,1.535-0.853c2.806-0.589,5.723,0.281,7.762,2.303c3.344,3.318,3.369,8.717,0.051,12.061  c-0.017,0.017-0.034,0.034-0.051,0.051C192.241,195.422,190.057,196.369,187.763,196.403z"/>
<path d="M153.644,264.64c-2.269,0.017-4.444-0.879-6.056-2.474c-3.318-3.344-3.292-8.743,0.051-12.061s8.743-3.292,12.061,0.051  c3.301,3.327,3.301,8.692,0,12.01C158.088,263.762,155.913,264.657,153.644,264.64z"/>
<path d="M187.763,264.64h-1.706l-1.535-0.512c-0.546-0.188-1.058-0.444-1.535-0.768l-1.279-1.024  c-0.776-0.81-1.382-1.766-1.791-2.815c-0.913-2.064-0.913-4.418,0-6.483c0.435-1.032,1.041-1.987,1.791-2.815l1.279-1.024  c0.478-0.324,0.989-0.58,1.535-0.768c0.461-0.367,0.981-0.657,1.535-0.853c2.806-0.589,5.723,0.281,7.762,2.303  c0.751,0.827,1.356,1.783,1.791,2.815c0.503,1.066,0.734,2.235,0.682,3.412C196.292,260.819,192.471,264.64,187.763,264.64z"/>
<path d="M247.47,324.348H93.937c-4.708,0-8.53-3.821-8.53-8.53s3.821-8.53,8.53-8.53H247.47c4.708,0,8.53,3.821,8.53,8.53  S252.179,324.348,247.47,324.348z"/>
<path d="M170.703,469.352c-32.976,0-59.707-26.732-59.707-59.707s26.732-59.707,59.707-59.707s59.707,26.732,59.707,59.707  S203.679,469.352,170.703,469.352z M170.703,366.996c-23.55,0-42.648,19.098-42.648,42.648c0,23.55,19.098,42.648,42.648,42.648  s42.648-19.098,42.648-42.648C213.352,386.094,194.254,366.996,170.703,366.996z"/>
<path d="M187.763,418.174c-4.708,0-8.53-3.821-8.53-8.53s-3.821-8.53-8.53-8.53s-8.53-3.821-8.53-8.53s3.821-8.53,8.53-8.53  c14.134,0,25.589,11.455,25.589,25.589C196.292,414.352,192.471,418.174,187.763,418.174z"/>
<path d="M344.537,153.755h-23.542c-8.197,0.085-15.115-6.09-15.95-14.244l-6.397-79.582c-0.324-4.231,1.134-8.402,4.009-11.515  c3.045-3.472,7.412-5.485,12.027-5.544h36.251c4.529,0,8.854,1.885,11.941,5.203c2.968,3.199,4.427,7.515,4.009,11.856  l-6.397,79.923C359.49,147.87,352.624,153.857,344.537,153.755z M322.019,136.696h21.665l6.141-76.767h-34.119L322.019,136.696z"/>
<path d="M337.287,221.992h-9.041c-11.617-0.043-21.026-9.451-21.068-21.068v-9.041c0.043-11.617,9.451-21.026,21.068-21.068h8.956  c11.651,0,21.102,9.417,21.154,21.068v8.956C358.355,212.49,348.939,221.949,337.287,221.992z M328.331,187.874  c-2.192,0.043-3.966,1.817-4.009,4.009v8.956c0.043,2.192,1.817,3.966,4.009,4.009h8.956c2.192-0.043,3.966-1.817,4.009-4.009  v-8.956c-0.043-2.192-1.817-3.966-4.009-4.009H328.331z"/>
<g>
</g>
<g>
</g>
<g>
</g>
<g>
</g>
<g>
</g>
<g>
</g>
<g>
</g>
<g>
</g>
<g>
</g>
<g>
</g>
<g>
</g>
<g>
</g>
<g>
</g>
<g>
</g>
<g>
</g>
</svg>
