<?xml version="1.0" encoding="iso-8859-1"?>
<!-- Generator: Adobe Illustrator 19.0.0, SVG Export Plug-In . SVG Version: 6.00 Build 0)  -->
<svg xmlns="http://www.w3.org/2000/svg" xmlns:xlink="http://www.w3.org/1999/xlink" version="1.1" id="Layer_1" x="0px" y="0px" viewBox="0 0 512 512" style="enable-background:new 0 0 512 512;" xml:space="preserve">
<path style="fill:#1566C0;" d="M452.384,127.611c0,66.044-53.539,119.582-119.582,119.582c-2.904,0-5.808,0-8.542,0  s-5.723-0.512-8.542-0.94c-2.819-0.427-5.125-0.854-7.687-1.367l0,0c-1.708,0-3.417-0.769-5.04-1.281  c-1.016-0.179-2.016-0.436-2.99-0.769l-6.235-1.965l-4.612-2.221l-2.392-1.025c-1.341-0.495-2.648-1.068-3.929-1.708l-1.281-0.342  l-0.854-0.427c-1.452-0.683-2.904-1.367-4.356-2.221l-5.296-2.819c-1.281-0.769-2.562-1.537-3.844-2.477  c-2.972-1.777-5.825-3.75-8.542-5.894c-28.785-22.746-45.535-57.442-45.441-94.128c0-2.733,0-5.381,0-8.029  c-0.009-0.171-0.009-0.342,0-0.512c0-2.562,0.256-5.125,0.769-7.687l0,0c0,0,0,0,0-0.683c0.512-3.246,1.11-6.406,1.879-9.567  c0.786-3.494,1.76-6.944,2.904-10.335l1.537-4.356c0.683-1.879,1.452-3.758,2.306-5.637c0.683-1.623,1.452-3.246,2.221-4.783  c0.769-1.537,1.537-3.16,2.392-4.698s1.708-3.075,2.648-4.612c1.879-3.075,3.929-6.15,6.065-9.054  c2.135-2.904,3.673-4.783,5.637-7.004c3.929-4.655,8.243-8.969,12.898-12.898c2.221-1.965,4.612-3.844,7.004-5.637  c2.392-1.794,5.979-4.185,9.054-6.065l4.612-2.648l4.698-2.392l4.783-2.221c1.879-0.854,3.673-1.623,5.637-2.306l4.356-1.537  c3.391-1.145,6.842-2.118,10.335-2.904c3.16-0.769,6.321-1.367,9.567-1.879h1.196c2.562-0.342,5.125-0.598,7.687-0.769  c0.307-0.043,0.632-0.043,0.94,0c2.648,0,5.296,0,8.029,0C398.051,9.157,451.632,61.935,452.384,127.611z"/>
<path style="fill:#2296F3;" d="M418.218,127.611c-0.026,59.424-43.682,109.811-102.499,118.301c-2.562,0-5.125-0.854-7.687-1.367  l0,0c-1.708,0-3.417-0.769-5.04-1.281c-1.016-0.179-2.016-0.436-2.99-0.769l-6.235-1.965l-4.612-1.879l-2.392-1.025  c-1.341-0.495-2.648-1.068-3.929-1.708l-1.281-0.342l-0.854-0.427c-1.452-0.683-2.904-1.367-4.356-2.221l-5.296-2.819  c-1.281-0.769-2.562-1.537-3.844-2.477c-2.972-1.777-5.825-3.75-8.542-5.894c-28.785-22.746-45.535-57.442-45.441-94.128  c0-2.733,0-5.381,0-8.029c-0.009-0.171-0.009-0.342,0-0.512c0-2.562,0.256-5.125,0.769-7.687l0,0c0,0,0,0,0-0.683  c0.512-3.246,1.11-6.406,1.879-9.567c0.786-3.494,1.76-6.944,2.904-10.335l1.537-4.356c0.683-1.879,1.452-3.758,2.306-5.637  c0.683-1.623,1.452-3.246,2.221-4.783c0.769-1.537,1.537-3.16,2.392-4.698c0.854-1.537,1.708-3.075,2.648-4.612  c1.879-3.075,3.929-6.15,6.065-9.054c2.135-2.904,3.673-4.783,5.637-7.004c3.929-4.655,8.243-8.969,12.898-12.898  c2.221-1.965,4.612-3.844,7.004-5.637c2.392-1.794,5.979-4.185,9.054-6.065l4.612-2.648l4.698-2.392l4.783-2.221  c1.879-0.854,3.673-1.623,5.637-2.306l4.356-1.537c3.391-1.145,6.842-2.118,10.335-2.904c3.16-0.769,6.321-1.367,9.567-1.879h1.196  C374.211,18.604,417.765,68.512,418.218,127.611z"/>
<path style="fill:#F5F5F5;" d="M409.676,124.366c-26.137,41.256-61.329,57.57-93.957,49.029  c-21.866-5.467-42.708-21.866-59.791-49.029c13.965-21.132,35.268-36.353,59.791-42.708c5.603-1.264,11.335-1.896,17.083-1.879  C360.562,79.522,388.322,94.47,409.676,124.366z"/>
<path style="fill:#FFFFFF;" d="M375.51,124.366c-17.083,27.162-38.352,43.477-59.791,49.029  c-21.866-5.467-42.708-21.866-59.791-49.029c13.965-21.132,35.268-36.353,59.791-42.708  C340.241,88.013,361.536,103.234,375.51,124.366z"/>
<path style="fill:#F5F5F5;" d="M313.754,81.658c-9.464,10.523-8.61,26.718,1.905,36.191s26.718,8.61,36.191-1.905  c8.772-9.746,8.772-24.54,0-34.286C351.849,81.658,313.754,81.658,313.754,81.658z"/>
<path style="fill:#3F51B5;" d="M313.754,81.658c-9.464,10.523-8.61,26.718,1.905,36.191s26.718,8.61,36.191-1.905  c8.772-9.746,8.772-24.54,0-34.286"/>
<path d="M332.802,255.735c-3.16,0-6.321,0-9.396,0c-3.075,0-5.979-0.512-8.969-1.025c-2.99-0.512-4.954-0.854-7.517-1.367h-1.11  h-1.452l-3.587-0.94c-1.247-0.231-2.469-0.547-3.673-0.94l-6.235-1.965l-4.954-2.306l-2.562-1.11l-4.1-1.794h-0.854h-0.598l0,0  l-1.025-0.512l-4.442-2.221l-5.723-3.246c-1.538-0.94-2.99-1.794-4.527-2.904c-2.972-1.862-5.825-3.921-8.542-6.15  c-31.237-24.412-49.302-62.003-48.858-101.645c0-2.819,0-5.552,0-8.542c0-0.427,0-0.854,0-1.196c0-2.819,0.427-5.552,0.854-8.542  v-1.281c0.512-3.502,1.196-6.833,2.05-10.25c0.829-3.724,1.862-7.406,3.075-11.019l1.623-4.442c0.769-2.221,1.623-4.271,2.562-6.321  c0.94-2.05,1.452-3.331,2.306-5.04c0.854-1.708,1.623-3.246,2.562-5.04c0.94-1.794,1.794-3.246,2.819-4.869  c2.05-3.331,4.185-6.577,6.492-9.652c2.306-3.075,4.015-5.21,6.15-7.602c4.194-4.963,8.789-9.558,13.752-13.752  c2.306-2.05,4.869-4.015,7.431-5.979c2.563-1.965,6.406-4.527,9.737-6.492l4.954-2.819l5.21-2.648l5.125-2.392  c1.879-0.854,3.929-1.708,6.15-2.477l4.271-1.537c3.904-1.187,7.867-2.152,11.873-2.904c3.502-0.769,6.577-1.367,9.994-1.965h0.598  h0.683c2.733-0.342,5.578-0.624,8.542-0.854h1.452c2.648,0,5.296,0,8.029,0c70.759,0.017,128.107,57.391,128.098,128.149  c-0.009,39.283-18.04,76.387-48.918,100.68C389.509,246.519,361.527,256.009,332.802,255.735z M309.056,236.09h0.598  c2.477,0.512,4.783,0.94,7.175,1.281c2.392,0.342,5.296,0.683,7.858,0.854s5.467,0,8.115,0c61.158,0,110.802-49.456,111.041-110.614  c0-61.329-49.712-111.041-111.041-111.041c-2.477,0-4.783,0-7.175,0h-1.367l-6.15,0.598h-1.879c-2.819,0.427-5.552,0.94-8.542,1.623  c-3.263,0.743-6.483,1.657-9.652,2.733l-4.185,1.452c-1.794,0.598-3.331,1.281-4.954,2.05l-4.527,2.05l-4.356,2.221l-4.271,2.477  c-2.819,1.708-5.723,3.673-8.542,5.637s-4.356,3.331-6.406,5.125c-4.322,3.639-8.319,7.636-11.958,11.958  c-1.965,2.221-3.673,4.442-5.381,6.662c-1.708,2.221-3.844,5.552-5.637,8.542l-2.477,4.271c-0.769,1.367-1.452,2.733-2.05,4.015  c-0.598,1.281-1.537,3.16-2.135,4.612c-0.598,1.452-1.537,3.587-2.135,5.21l-1.537,4.271c-1.085,3.254-1.999,6.56-2.733,9.908  c-0.769,3.075-1.281,5.979-1.794,8.969l0,0c0.043,0.487,0.043,0.965,0,1.452c0,2.135-0.512,4.271-0.598,6.406  c0.034,0.427,0.034,0.854,0,1.281c0,2.392,0,4.783,0,7.175c-0.017,34.107,15.751,66.308,42.708,87.21  c2.392,1.947,4.903,3.75,7.517,5.381c1.623,1.196,2.648,1.794,3.758,2.392l4.869,2.733l4.015,2.05l0,0h0.683h0.513l3.673,3.075  l2.648,1.11l3.758,1.367l5.808,1.794l1.965,0.512h1.196l2.819,0.769L309.056,236.09z M310.764,2.477l-0.769,0.769L310.764,2.477z"/>
<path style="fill:#607D8B;" d="M281.552,235.577v250.781c0,9.438-7.645,17.083-17.083,17.083H76.554  c-9.438,0-17.083-7.645-17.083-17.083V127.611c0-9.438,7.645-17.083,17.083-17.083h137.861l0,0  c-0.342,2.562-0.598,5.125-0.769,7.687c-0.043,0.307-0.043,0.624,0,0.94c0,2.648,0,5.381,0,8.029  c0.017,36.669,16.861,71.305,45.698,93.957c2.716,2.144,5.569,4.117,8.542,5.894c1.281,0.94,2.562,1.708,3.844,2.477l5.296,2.99  c1.452,0.854,2.904,1.537,4.356,2.221L281.552,235.577z"/>
<path style="fill:#CFD8DC;" d="M247.386,235.577v250.781c0,9.438-7.645,17.083-17.083,17.083H76.554  c-9.438,0-17.083-7.645-17.083-17.083V127.611c0-9.438,7.645-17.083,17.083-17.083h103.695l0,0  c-0.342,2.562-0.598,5.125-0.769,7.687c-0.043,0.307-0.043,0.624,0,0.94c0,2.648,0,5.381,0,8.029  c0.017,36.669,16.861,71.305,45.698,93.957c2.716,2.144,5.569,4.117,8.542,5.894c1.281,0.94,2.562,1.708,3.844,2.477l5.296,2.99  c1.452,0.854,2.904,1.537,4.356,2.221L247.386,235.577z"/>
<path d="M264.469,511.983H76.554c-14.153,0-25.625-11.471-25.625-25.625V127.611c0-14.153,11.471-25.625,25.625-25.625h137.861  c4.715,0,8.542,3.827,8.542,8.542c0.06,0.598,0.06,1.196,0,1.794c-0.282,2.281-0.512,4.527-0.683,6.748  c0.034,0.427,0.034,0.854,0,1.281c0,2.392,0,4.783,0,7.175c-0.017,34.107,15.751,66.308,42.708,87.21  c2.392,1.947,4.903,3.75,7.517,5.381c1.623,1.196,2.648,1.794,3.758,2.392l4.869,2.733c1.537,0.854,2.648,1.452,3.844,1.965h0.513  l1.623,0.854c2.383,1.572,3.827,4.228,3.844,7.09v251.208c0.009,14.153-11.454,25.633-25.608,25.642  C265.041,512,264.751,511.991,264.469,511.983z M76.554,119.07c-4.715,0-8.542,3.827-8.542,8.542v358.747  c0,4.715,3.827,8.542,8.542,8.542h187.915c4.715,0,8.542-3.827,8.542-8.542V240.873l-1.025-0.598l-5.381-2.99  c-1.537-0.94-2.99-1.794-4.527-2.904c-2.972-1.862-5.825-3.921-8.542-6.15c-30.955-24.19-48.986-61.337-48.858-100.62  c0-2.733,0-5.552,0-8.542l0,0L76.554,119.07L76.554,119.07z"/>
<path d="M153.428,195.944c-2.264-0.034-4.425-0.914-6.065-2.477c-0.367-0.41-0.709-0.837-1.025-1.281  c-0.325-0.478-0.581-0.991-0.769-1.537c-0.307-0.478-0.538-0.991-0.683-1.537c-0.043-0.572-0.043-1.136,0-1.708  c-0.017-2.272,0.88-4.45,2.477-6.065c2.46-2.426,6.133-3.135,9.31-1.794c1.034,0.436,1.99,1.042,2.819,1.794  c1.563,1.64,2.443,3.801,2.477,6.065c0.043,0.572,0.043,1.136,0,1.708c-0.094,0.538-0.265,1.051-0.512,1.537  c-0.188,0.547-0.444,1.059-0.769,1.537l-1.025,1.281c-0.829,0.752-1.785,1.358-2.819,1.794  C155.76,195.722,154.598,195.953,153.428,195.944z"/>
<path d="M136.345,230.11c-1.119-0.017-2.221-0.248-3.246-0.683c-1.051-0.41-2.007-1.016-2.819-1.794  c-0.384-0.419-0.726-0.88-1.025-1.367c-0.342-0.436-0.598-0.923-0.769-1.452c-0.307-0.478-0.538-0.991-0.683-1.537  c-0.085-0.564-0.085-1.145,0-1.708c-0.077-0.564-0.077-1.145,0-1.708c0.094-0.538,0.265-1.051,0.513-1.537  c0.188-0.547,0.444-1.059,0.769-1.537c0.316-0.444,0.658-0.88,1.025-1.281c3.323-3.348,8.73-3.374,12.078-0.051  c0.017,0.017,0.034,0.034,0.051,0.051c1.623,1.606,2.571,3.775,2.648,6.065c0.043,0.572,0.043,1.136,0,1.708  c-0.094,0.538-0.265,1.051-0.512,1.537c-0.171,0.521-0.427,1.016-0.769,1.452l-1.025,1.367  C140.923,229.273,138.668,230.17,136.345,230.11z"/>
<path d="M170.511,230.11c-2.264-0.034-4.425-0.914-6.065-2.477c-0.777-0.811-1.384-1.768-1.794-2.819  c-0.914-2.067-0.914-4.425,0-6.492c0.436-1.034,1.042-1.99,1.794-2.819c2.46-2.426,6.133-3.135,9.31-1.794  c2.144,0.777,3.835,2.469,4.612,4.612c0.914,2.067,0.914,4.425,0,6.492c-0.41,1.051-1.016,2.007-1.794,2.819  c-0.829,0.752-1.785,1.358-2.819,1.794C172.724,229.863,171.622,230.093,170.511,230.11z"/>
<path d="M204.678,230.11c-2.264-0.034-4.425-0.914-6.065-2.477c-0.367-0.41-0.709-0.837-1.025-1.281  c-0.325-0.478-0.581-0.991-0.769-1.537c-0.307-0.478-0.538-0.991-0.683-1.537c-0.043-0.572-0.043-1.136,0-1.708  c-0.017-2.272,0.88-4.45,2.477-6.065c2.016-1.999,4.903-2.861,7.687-2.306c0.564,0.077,1.11,0.256,1.623,0.512  c0.521,0.171,1.016,0.427,1.452,0.769l1.367,1.025c1.563,1.64,2.443,3.801,2.477,6.065c0.017,2.272-0.88,4.45-2.477,6.065  l-1.367,1.025c-0.436,0.342-0.931,0.598-1.452,0.769c-0.512,0.256-1.059,0.427-1.623,0.512L204.678,230.11z"/>
<path d="M187.595,195.944c-2.264-0.034-4.425-0.914-6.065-2.477c-0.777-0.811-1.384-1.768-1.794-2.819  c-0.914-2.067-0.914-4.425,0-6.492c0.41-1.051,1.016-2.007,1.794-2.819c3.323-3.348,8.729-3.374,12.078-0.051  c0.017,0.017,0.034,0.034,0.051,0.051c0.777,0.811,1.384,1.768,1.794,2.819c0.914,2.067,0.914,4.425,0,6.492  c-0.41,1.051-1.016,2.007-1.794,2.819C192.019,195.03,189.85,195.91,187.595,195.944z"/>
<path d="M153.428,264.277c-2.264-0.034-4.425-0.914-6.065-2.477c-0.384-0.419-0.726-0.88-1.025-1.367  c-0.342-0.436-0.598-0.922-0.769-1.452c-0.307-0.478-0.538-0.991-0.683-1.538c-0.043-0.572-0.043-1.136,0-1.708  c-0.017-2.272,0.88-4.45,2.477-6.065c2.46-2.426,6.133-3.135,9.31-1.794c1.034,0.436,1.99,1.042,2.819,1.794  c1.563,1.64,2.443,3.801,2.477,6.065c0.043,0.572,0.043,1.136,0,1.708c-0.094,0.538-0.265,1.051-0.512,1.538  c-0.171,0.521-0.427,1.016-0.769,1.452l-1.025,1.367c-0.829,0.752-1.785,1.358-2.819,1.794  C155.76,264.055,154.598,264.285,153.428,264.277z"/>
<path d="M187.595,264.277c-2.264-0.034-4.425-0.914-6.065-2.477c-0.752-0.829-1.358-1.785-1.794-2.819  c-0.478-1.016-0.717-2.127-0.683-3.246c-0.043-0.572-0.043-1.136,0-1.708c0.094-0.538,0.265-1.051,0.512-1.537  c0.171-0.53,0.427-1.016,0.769-1.452c0.299-0.487,0.641-0.948,1.025-1.367c3.323-3.348,8.73-3.374,12.078-0.051  c0.017,0.017,0.034,0.034,0.051,0.051l1.025,1.367c0.333,0.436,0.598,0.931,0.769,1.452c0.248,0.487,0.419,0.999,0.512,1.537  c0.043,0.572,0.043,1.136,0,1.708c-0.017,1.119-0.248,2.221-0.683,3.246c-0.436,1.034-1.042,1.99-1.794,2.819  C191.763,263.286,189.73,264.166,187.595,264.277z"/>
<path d="M247.386,324.068H93.637c-4.715,0-8.542-3.827-8.542-8.542c0-4.715,3.827-8.542,8.542-8.542h153.749  c4.715,0,8.542,3.827,8.542,8.542C255.927,320.241,252.101,324.068,247.386,324.068z"/>
<path style="fill:#0377BC;" d="M221.761,409.484c0,28.307-22.943,51.25-51.25,51.25c-5.825,0.017-11.608-0.999-17.083-2.99  c-26.65-9.524-40.538-38.856-31.015-65.505c5.168-14.461,16.554-25.847,31.015-31.015c5.475-1.99,11.258-3.007,17.083-2.99  C198.81,358.234,221.761,381.177,221.761,409.484z"/>
<path style="fill:#02A9F4;" d="M187.595,409.484c-0.026,21.696-13.709,41.025-34.166,48.26  c-26.65-9.524-40.538-38.856-31.015-65.505c5.168-14.461,16.554-25.847,31.015-31.015  C173.877,368.459,187.569,387.788,187.595,409.484z"/>
<path d="M170.511,469.275c-33.022,0-59.791-26.769-59.791-59.791s26.769-59.791,59.791-59.791s59.791,26.769,59.791,59.791  S203.533,469.275,170.511,469.275z M170.511,366.776c-23.583,0-42.708,19.125-42.708,42.708s19.125,42.708,42.708,42.708  s42.708-19.125,42.708-42.708S194.095,366.776,170.511,366.776z"/>
<path d="M187.595,418.025c-4.715,0-8.542-3.827-8.542-8.542c0-4.715-3.827-8.542-8.542-8.542c-4.715,0-8.542-3.827-8.542-8.542  s3.827-8.542,8.542-8.542c14.153,0,25.625,11.471,25.625,25.625C196.136,414.199,192.31,418.025,187.595,418.025z"/>
<path d="M332.289,187.402h-0.598c-31.775,0-61.243-19.902-83.024-55.35c-1.879-2.853-1.879-6.543,0-9.396  c22.294-31.262,52.104-48.431,83.793-48.431s61.499,17.083,83.793,48.431c1.956,2.887,1.956,6.68,0,9.567  C394.216,167.842,364.235,187.402,332.289,187.402z M266.348,127.611c18.108,27.504,40.829,42.708,65.429,42.708h0.513  c24.514,0,48.089-14.948,66.966-42.708c-18.535-23.66-41.939-36.643-66.454-36.643s-48.004,13.325-66.539,36.643  C266.263,127.611,266.348,127.611,266.348,127.611z"/>
<path d="M332.802,136.153c-18.868,0.06-34.218-15.187-34.277-34.055c-0.026-8.413,3.049-16.545,8.653-22.832  c2.955-3.681,8.328-4.271,12.009-1.315c3.681,2.955,4.271,8.328,1.315,12.009c-0.188,0.231-0.384,0.453-0.598,0.666  c-6.244,7.072-5.561,17.869,1.512,24.113c7.072,6.244,17.869,5.561,24.113-1.512c5.697-6.457,5.697-16.144,0-22.601  c-3.16-3.562-2.836-9.011,0.726-12.172c3.562-3.16,9.011-2.836,12.172,0.726c12.599,14.051,11.42,35.653-2.631,48.243  C349.475,133.086,341.275,136.196,332.802,136.153z"/>
<g>
</g>
<g>
</g>
<g>
</g>
<g>
</g>
<g>
</g>
<g>
</g>
<g>
</g>
<g>
</g>
<g>
</g>
<g>
</g>
<g>
</g>
<g>
</g>
<g>
</g>
<g>
</g>
<g>
</g>
</svg>
