<?xml version="1.0" encoding="iso-8859-1"?>
<!-- Generator: Adobe Illustrator 19.0.0, SVG Export Plug-In . SVG Version: 6.00 Build 0)  -->
<svg xmlns="http://www.w3.org/2000/svg" xmlns:xlink="http://www.w3.org/1999/xlink" version="1.1" id="Layer_1" x="0px" y="0px" viewBox="0 0 512 512" style="enable-background:new 0 0 512 512;" xml:space="preserve">
<path style="fill:#607D8B;" d="M25.611,128.019h460.777c9.429,0,17.066,7.637,17.066,17.066v59.73  c0,9.429-7.637,17.066-17.066,17.066H25.611c-9.429,0-17.066-7.637-17.066-17.066v-59.73  C8.546,135.656,16.191,128.019,25.611,128.019z"/>
<path style="fill:#CFD8DC;" d="M25.611,128.019h426.645c9.429,0,17.066,7.637,17.066,17.066v59.73  c0,9.429-7.637,17.066-17.066,17.066H25.611c-9.429,0-17.066-7.637-17.066-17.066v-59.73  C8.546,135.656,16.191,128.019,25.611,128.019z"/>
<path style="fill:#607D8B;" d="M486.388,221.881v51.197c0,127.243-103.146,230.388-230.388,230.388l0,0  c-5.717,0-11.434,0-17.066-0.683C118.663,493.85,25.637,393.683,25.611,273.079v-51.197L486.388,221.881L486.388,221.881z"/>
<path style="fill:#CFD8DC;" d="M452.257,221.881v51.197c-0.026,120.604-93.051,220.772-213.323,229.706  C118.663,493.85,25.637,393.683,25.611,273.079v-51.197L452.257,221.881L452.257,221.881z"/>
<circle style="fill:#37474F;" cx="255.991" cy="383.981" r="76.796"/>
<path style="fill:#0377BC;" d="M298.664,384.006c0,23.559-19.105,42.665-42.665,42.665c-5.862-0.009-11.673-1.195-17.066-3.498  c-21.631-9.344-31.589-34.456-22.245-56.087c4.309-9.975,12.27-17.936,22.245-22.245c5.393-2.304,11.204-3.49,17.066-3.498  C279.568,341.342,298.664,360.439,298.664,384.006z"/>
<path style="fill:#02A9F4;" d="M264.533,384.006c0.026,16.989-10.026,32.374-25.599,39.166  c-21.631-9.344-31.589-34.456-22.245-56.087c4.309-9.975,12.27-17.936,22.245-22.245  C254.507,351.633,264.558,367.017,264.533,384.006z"/>
<path d="M182.19,230.414H25.611c-14.139,0-25.599-11.46-25.599-25.599v-59.73c0-14.139,11.46-25.599,25.599-25.599h110.928  c4.71,0,8.533,3.823,8.533,8.533c-0.017,34.072,15.735,66.241,42.665,87.121c3.729,2.884,4.412,8.243,1.527,11.972  C187.575,229.288,184.946,230.516,182.19,230.414z M25.611,136.552c-4.71,0-8.533,3.823-8.533,8.533v59.73  c0,4.71,3.823,8.533,8.533,8.533h134.991c-19.216-21.187-30.701-48.254-32.596-76.796H25.611z"/>
<path d="M486.388,230.414H329.81c-4.71,0.179-8.669-3.498-8.849-8.2c-0.102-2.748,1.126-5.384,3.302-7.074  c26.93-20.88,42.682-53.049,42.665-87.121c0-4.71,3.823-8.533,8.533-8.533h110.928c14.139,0,25.599,11.46,25.599,25.599v59.73  C511.987,218.954,500.527,230.414,486.388,230.414z M351.398,213.348h134.991c4.71,0,8.533-3.823,8.533-8.533v-59.73  c0-4.71-3.823-8.533-8.533-8.533H383.994C382.108,165.095,370.614,192.153,351.398,213.348z"/>
<path d="M256,512C124.047,512,17.079,405.031,17.079,273.079v-51.197c0-4.71,3.823-8.533,8.533-8.533H182.19  c1.911-0.017,3.78,0.614,5.29,1.792c40.216,31.589,96.823,31.589,137.038,0c1.51-1.178,3.379-1.809,5.29-1.792h156.579  c4.71,0,8.533,3.823,8.533,8.533v51.197C494.921,405.031,387.953,512,256,512z M34.144,230.414v42.665  c0,122.524,99.332,221.856,221.856,221.856s221.856-99.332,221.856-221.856v-42.665H332.796  c-45.506,34.132-108.086,34.132-153.592,0L34.144,230.414L34.144,230.414z"/>
<path d="M256,469.335c-47.127,0-85.329-38.202-85.329-85.329s38.202-85.329,85.329-85.329s85.329,38.202,85.329,85.329  S303.127,469.335,256,469.335z M256,315.743c-37.698,0-68.263,30.565-68.263,68.263S218.302,452.27,256,452.27  s68.263-30.565,68.263-68.263S293.707,315.743,256,315.743z"/>
<path d="M256,435.204c-28.278,0-51.197-22.919-51.197-51.197s22.919-51.197,51.197-51.197s51.197,22.919,51.197,51.197  S284.278,435.204,256,435.204z M256,349.875c-18.849,0-34.132,15.282-34.132,34.132s15.282,34.132,34.132,34.132  s34.132-15.282,34.132-34.132S274.849,349.875,256,349.875z"/>
<path d="M59.743,264.546c-4.71,0-8.533-3.823-8.533-8.533c0-4.71,3.823-8.533,8.533-8.533l0,0c4.71,0,8.533,3.823,8.533,8.533  C68.276,260.723,64.462,264.546,59.743,264.546z"/>
<path d="M162.138,264.546H85.342c-4.71,0-8.533-3.823-8.533-8.533c0-4.71,3.823-8.533,8.533-8.533h76.796  c4.71,0,8.533,3.823,8.533,8.533C170.671,260.723,166.857,264.546,162.138,264.546z"/>
<path style="fill:#1566C0;" d="M375.461,128.019c0,65.976-53.484,119.461-119.461,119.461c-5.717,0.009-11.417-0.418-17.066-1.28  c-58.758-8.482-102.369-58.817-102.395-118.181C136.522,68.622,180.151,18.235,238.934,9.753c5.657-0.785,11.357-1.186,17.066-1.195  C321.976,8.559,375.461,62.043,375.461,128.019z"/>
<path style="fill:#2296F3;" d="M341.329,128.019c-0.026,59.363-43.637,109.699-102.395,118.181  c-58.758-8.482-102.369-58.817-102.395-118.181C136.522,68.622,180.151,18.235,238.934,9.753  C297.726,18.235,341.346,68.622,341.329,128.019z"/>
<path d="M256,256.013c-70.687,0-127.994-57.307-127.994-127.994C127.998,57.324,185.288,0.009,255.983,0  s128.002,57.281,128.011,127.968c0.009,39.277-18.013,76.378-48.894,100.646C312.599,246.439,284.713,256.098,256,256.013z   M256,17.091c-61.258,0.222-110.749,50.063-110.527,111.329c0.119,33.842,15.683,65.772,42.263,86.72  c48.288,37.698,118.002,29.114,155.7-19.173c15.154-19.412,23.423-43.322,23.491-67.948C366.928,66.753,317.266,17.091,256,17.091z"/>
<path style="fill:#F5F5F5;" d="M332.796,124.777c-26.111,41.214-61.266,57.512-93.862,48.979  c-21.844-5.461-42.665-21.844-59.73-48.979c13.951-21.11,35.232-36.316,59.73-42.665c5.598-1.263,11.323-1.894,17.066-1.877  C283.732,79.979,311.464,94.912,332.796,124.777z"/>
<path style="fill:#FFFFFF;" d="M298.664,124.777c-17.066,27.135-38.313,43.433-59.73,48.979  c-21.844-5.461-42.665-21.844-59.73-48.979c13.951-21.11,35.232-36.316,59.73-42.665  C263.432,88.461,284.713,103.658,298.664,124.777z"/>
<path style="fill:#F5F5F5;" d="M236.972,82.112c-9.454,10.513-8.601,26.691,1.903,36.154c10.513,9.454,26.691,8.601,36.154-1.903  c8.763-9.736,8.763-24.515,0-34.251C275.028,82.112,236.972,82.112,236.972,82.112z"/>
<path style="fill:#3F51B5;" d="M236.972,82.112c-9.454,10.513-8.601,26.691,1.903,36.154c10.513,9.454,26.691,8.601,36.154-1.903  c8.763-9.736,8.763-24.515,0-34.251"/>
<path d="M256,133.31c-18.849-0.102-34.046-15.47-33.935-34.319c0.043-8.149,3.004-16.008,8.337-22.168  c3.319-3.345,8.721-3.371,12.066-0.051c3.097,3.072,3.379,7.995,0.648,11.4c-6.238,7.065-5.555,17.851,1.51,24.088  c7.065,6.238,17.851,5.555,24.088-1.51c5.691-6.451,5.691-16.127,0-22.578c-3.132-3.558-2.79-8.985,0.768-12.117  c3.558-3.132,8.985-2.79,12.117,0.768c12.586,14.037,11.409,35.616-2.628,48.194c-6.306,5.657-14.497,8.763-22.971,8.721L256,133.31  L256,133.31z"/>
<path d="M255.488,184.592h-0.597c-31.742,0-61.181-19.882-82.94-55.293c-1.877-2.85-1.877-6.536,0-9.386  c22.271-31.23,52.051-48.382,83.708-48.382s61.437,17.066,83.708,48.382c1.954,2.884,1.954,6.673,0,9.557  C317.352,164.967,287.401,184.592,255.488,184.592z M189.614,124.862c18.09,27.135,41.129,42.067,65.447,42.665h0.512  c24.489,0,48.04-14.933,66.898-42.665c-18.516-23.636-41.897-36.606-66.386-36.606s-48.04,13.226-66.557,36.947L189.614,124.862z"/>
<g>
</g>
<g>
</g>
<g>
</g>
<g>
</g>
<g>
</g>
<g>
</g>
<g>
</g>
<g>
</g>
<g>
</g>
<g>
</g>
<g>
</g>
<g>
</g>
<g>
</g>
<g>
</g>
<g>
</g>
</svg>
