<?xml version="1.0" encoding="iso-8859-1"?>
<!-- Generator: Adobe Illustrator 19.0.0, SVG Export Plug-In . SVG Version: 6.00 Build 0)  -->
<svg version="1.1" id="Capa_1" xmlns="http://www.w3.org/2000/svg" xmlns:xlink="http://www.w3.org/1999/xlink" x="0px" y="0px"
	 viewBox="0 0 512 512" style="enable-background:new 0 0 512 512;" xml:space="preserve">
<rect x="60" y="211" style="fill:#57555C;" width="392" height="271"/>
<rect x="256" y="211" style="fill:#3C3A41;" width="196" height="271"/>
<rect x="90" y="271" style="fill:#E5E5E5;" width="151" height="151"/>
<rect x="271" y="271" style="fill:#D9D9D9;" width="150" height="151"/>
<path style="fill:#3C3A41;" d="M346,301c-8.291,0-15-6.709-15-15v-60c0-8.291,6.709-15,15-15s15,6.709,15,15v60
	C361,294.291,354.291,301,346,301z"/>
<path style="fill:#AA3DC8;" d="M346,361c-24.814,0-45-20.186-45-45s20.186-45,45-45s45,20.186,45,45S370.814,361,346,361z"/>
<path style="fill:#FF3B3B;" d="M482,181v45c0,8.399-6.599,15-15,15H45c-8.401,0-15-6.601-15-15v-45l30-30h370.901L482,181z"/>
<path style="fill:#E81E0F;" d="M467,241H256v-90h174.901L482,181v45C482,234.399,475.401,241,467,241z"/>
<path style="fill:#FEDBAB;" d="M497,452H15c-8.401,0-15,6.599-15,15v30c0,8.399,6.599,15,15,15h482c8.401,0,15-6.601,15-15v-30
	C512,458.599,505.401,452,497,452z"/>
<path style="fill:#FEC478;" d="M512,467v30c0,8.399-6.599,15-15,15H256v-60h241C505.401,452,512,458.599,512,467z"/>
<polygon style="fill:#E81E0F;" points="482,121 482,181 30,181 30,121 60,91 430.901,91 "/>
<polygon style="fill:#C10524;" points="430.901,91 482,121 482,181 256,181 256,91 "/>
<polygon style="fill:#FF3B3B;" points="482,60 482,121 30,121 30,60 60,30 430.901,30 "/>
<polygon style="fill:#E81E0F;" points="482,121 256,121 256,30 430.901,30 482,60 "/>
<path style="fill:#FEDBAB;" d="M512,30c0,16.5-13.5,30-30,30H30C13.5,60,0,46.5,0,30S13.5,0,30,0h452C498.5,0,512,13.5,512,30z"/>
<path style="fill:#FEC478;" d="M512,30c0,16.5-13.5,30-30,30H256V0h226C498.5,0,512,13.5,512,30z"/>
<g>
</g>
<g>
</g>
<g>
</g>
<g>
</g>
<g>
</g>
<g>
</g>
<g>
</g>
<g>
</g>
<g>
</g>
<g>
</g>
<g>
</g>
<g>
</g>
<g>
</g>
<g>
</g>
<g>
</g>
</svg>
