<svg xmlns="http://www.w3.org/2000/svg" width="24" height="24" viewBox="0 0 24 24"><g fill="#009688"><circle cx="12" cy="12" r="2"/><path d="M12 4c-4.1 0-7.5 3.1-7.9 7h2c.4-3.1 3-5.5 6.4-5.9V3.1C8.3 3.5 5 7.1 5 11.5h2c0-3.3 2.5-6 5.8-6.4V3c-1.3.2-2.5.7-3.4 1.4l1.4 1.4C11.5 5.3 12.7 5 14 5v2c-.9 0-1.7.2-2.5.6l1.4 1.4c.3-.1.7-.2 1.1-.2v2c-.2 0-.3 0-.5.1l1.7 1.7c.1-.2.2-.5.2-.8h2c0 .5-.1.9-.2 1.4l1.4 1.4c.5-.8.8-1.7.8-2.7h2c0 1.3-.3 2.6-.9 3.7L20 16.4c.6-1.2.9-2.6.9-4h-2c0 1-.2 1.9-.5 2.8l1.4 1.4c.4-.9.7-1.8.9-2.8h2c-.5 4.4-3.9 8-8.2 8.4v-2c3.3-.4 6-2.9 6.4-6.2h-2c-.4 2.6-2.5 4.7-5.1 5.1v-2c1.9-.4 3.4-1.9 3.8-3.8h-2c-.4 1.2-1.5 2-2.7 2.1z"/></g></svg>
