<?xml version="1.0" encoding="iso-8859-1"?>
<!-- Generator: Adobe Illustrator 19.0.0, SVG Export Plug-In . SVG Version: 6.00 Build 0)  -->
<svg version="1.1" id="Capa_1" xmlns="http://www.w3.org/2000/svg" xmlns:xlink="http://www.w3.org/1999/xlink" x="0px" y="0px"
	 viewBox="0 0 512 512" style="enable-background:new 0 0 512 512;" xml:space="preserve">
<g>
	<path style="fill:#1D4859;" d="M101.669,439.632c-0.346,0-0.689-0.009-1.031-0.027v30.909c0,8.476,6.871,15.347,15.347,15.347
		h22.749c8.476,0,15.347-6.871,15.347-15.347v-30.882H101.669z"/>
	<path style="fill:#1D4859;" d="M410.328,439.632h-52.409v30.882c0,8.476,6.871,15.347,15.347,15.347h22.748
		c8.476,0,15.347-6.871,15.347-15.347v-30.909C411.017,439.622,410.673,439.632,410.328,439.632z"/>
</g>
<path style="fill:#2DE8E8;" d="M124.856,320.707H387.14c8.249,0,15.95,2.341,22.483,6.385l-27.52-86.715
	c-3.318-10.456-13.025-17.558-23.994-17.558H153.886c-10.97,0-20.676,7.103-23.994,17.558l-27.52,86.715
	C108.907,323.048,116.606,320.707,124.856,320.707z"/>
<path style="fill:#55A2F0;" d="M410.328,440.604H101.669c-10.824,0-19.599-8.775-19.599-19.599v-57.512
	c0-23.629,19.156-42.785,42.785-42.785H387.14c23.629,0,42.785,19.156,42.785,42.785v57.512
	C429.926,431.829,421.151,440.604,410.328,440.604z"/>
<g>
	<path style="fill:#FEE570;" d="M111.758,378.946l32.775,8.57c1.628,0.426,2.912,1.676,3.38,3.291l5.355,18.448
		c1.026,3.535-2.16,6.853-5.733,5.972l-35.645-8.792c-1.902-0.47-3.325-2.052-3.591-3.994l-2.484-18.224
		C105.354,380.843,108.465,378.085,111.758,378.946z"/>
	<path style="fill:#FEE570;" d="M400.239,378.946l-32.774,8.57c-1.628,0.426-2.912,1.676-3.38,3.291l-5.355,18.448
		c-1.026,3.535,2.16,6.853,5.733,5.972l35.645-8.792c1.902-0.47,3.325-2.052,3.591-3.994l2.484-18.224
		C406.643,380.843,403.532,378.085,400.239,378.946z"/>
</g>
<g>
	<path style="fill:#FF901D;" d="M417.254,330.246h21.522c4.865,0,8.808-3.943,8.808-8.808V310.62c0-4.865-3.943-8.808-8.808-8.808
		h-21.522c-4.865,0-8.808,3.943-8.808,8.808v10.817C408.446,326.302,412.389,330.246,417.254,330.246z"/>
	<path style="fill:#FF901D;" d="M73.424,330.246h21.522c4.865,0,8.808-3.943,8.808-8.808V310.62c0-4.865-3.943-8.808-8.808-8.808
		H73.424c-4.865,0-8.808,3.943-8.808,8.808v10.817C64.616,326.302,68.559,330.246,73.424,330.246z"/>
</g>
<path style="fill:#2C5871;" d="M19.664,485.859h15.914c2.919,0,5.283-2.366,5.283-5.283v-305.43c0-2.919-2.366-5.283-5.283-5.283
	H19.664c-2.919,0-5.283,2.366-5.283,5.283v305.43C14.379,483.493,16.745,485.859,19.664,485.859z"/>
<path style="fill:#1D4859;" d="M35.577,169.861H27.62v315.998h7.957c2.919,0,5.284-2.366,5.284-5.284V175.145
	C40.862,172.227,38.496,169.861,35.577,169.861z"/>
<path style="fill:#2C5871;" d="M476.423,485.859h15.915c2.919,0,5.283-2.366,5.283-5.283v-305.43c0-2.919-2.366-5.283-5.283-5.283
	h-15.915c-2.919,0-5.284,2.366-5.284,5.283v305.43C471.138,483.493,473.504,485.859,476.423,485.859z"/>
<path style="fill:#1D4859;" d="M492.336,169.861h-7.957v315.998h7.957c2.919,0,5.283-2.366,5.283-5.284V175.145
	C497.621,172.227,495.255,169.861,492.336,169.861z"/>
<path style="fill:#FF4C4C;" d="M260.9,27.295c-3.086-1.539-6.716-1.539-9.801,0L7.547,148.775C2.923,151.082,0,155.804,0,160.973
	v24.957c0,10.127,10.653,16.718,19.715,12.198L251.1,82.717c3.086-1.539,6.715-1.539,9.801,0l231.384,115.411
	c9.063,4.52,19.716-2.07,19.716-12.198v-24.957c0-5.168-2.923-9.891-7.547-12.198L260.9,27.295z"/>
<path style="fill:#F33A3A;" d="M492.284,170.583L260.9,55.173c-3.086-1.539-6.715-1.539-9.801,0L19.716,170.583
	c-8.665,4.322-18.777-1.517-19.648-10.891C0.028,160.116,0,160.542,0,160.973v24.957c0,10.127,10.653,16.718,19.716,12.198
	L251.1,82.717c3.086-1.539,6.716-1.539,9.801,0l231.384,115.411c9.063,4.52,19.716-2.07,19.716-12.198v-24.957
	c0-0.431-0.028-0.856-0.067-1.279C511.061,169.067,500.95,174.906,492.284,170.583z"/>
<g>
	<path style="fill:#61AFF7;" d="M341.311,383.384H170.686c-4.15,0-7.512,3.363-7.512,7.512c0,4.149,3.362,7.512,7.512,7.512h170.625
		c4.15,0,7.512-3.363,7.512-7.512C348.824,386.748,345.46,383.384,341.311,383.384z"/>
	<path style="fill:#61AFF7;" d="M336.233,406.064h-160.47c-4.15,0-7.512,3.363-7.512,7.512c0,4.149,3.362,7.512,7.512,7.512h160.47
		c4.15,0,7.512-3.363,7.512-7.512C343.746,409.427,340.382,406.064,336.233,406.064z"/>
</g>
<path style="fill:#61AFF6;" d="M412.716,332.479c2.606-4.867,3.139-10.587,1.469-15.849l-24.921-78.525
	c-4.327-13.636-16.846-22.799-31.154-22.799H153.886c-14.307,0-26.826,9.162-31.154,22.799l-24.449,77.042
	c-1.996,6.29-1.345,13.133,1.848,18.908c0.084,0.152,0.132,0.236,0.138,0.238c12.922,19.495,34.99,31.934,59.443,31.934h192.573
	c24.45,0,46.517-12.437,59.44-31.928C411.74,334.293,412.143,333.549,412.716,332.479z M387.141,320.707H124.856
	c-4.623,0-9.072,0.74-13.241,2.097l25.438-80.157c2.339-7.368,9.104-12.319,16.834-12.319h204.224c7.73,0,14.495,4.95,16.834,12.319
	l25.439,80.157C396.213,321.448,391.765,320.707,387.141,320.707z"/>
<g>
</g>
<g>
</g>
<g>
</g>
<g>
</g>
<g>
</g>
<g>
</g>
<g>
</g>
<g>
</g>
<g>
</g>
<g>
</g>
<g>
</g>
<g>
</g>
<g>
</g>
<g>
</g>
<g>
</g>
</svg>
