<?xml version="1.0" encoding="iso-8859-1"?>
<!-- Generator: Adobe Illustrator 19.0.0, SVG Export Plug-In . SVG Version: 6.00 Build 0)  -->
<svg version="1.1" id="Capa_1" xmlns="http://www.w3.org/2000/svg" xmlns:xlink="http://www.w3.org/1999/xlink" x="0px" y="0px"
	 viewBox="0 0 512 512" style="enable-background:new 0 0 512 512;" xml:space="preserve">
<path style="fill:#003D8C;" d="M430.73,256c0,96.35-78.38,174.73-174.73,174.73S81.27,352.35,81.27,256S159.65,81.27,256,81.27
	S430.73,159.65,430.73,256z"/>
<g>
	<rect x="241" style="fill:#FFB74F;" width="30" height="55"/>
	<rect x="241" y="457" style="fill:#FFB74F;" width="30" height="55"/>
</g>
<rect x="457" y="241" style="fill:#FFA71F;" width="55" height="30"/>
<rect y="241" style="fill:#FFB74F;" width="55" height="30"/>
<rect x="402.565" y="66.923" transform="matrix(-0.7071 -0.7071 0.7071 -0.7071 646.0615 456.4522)" style="fill:#FFA71F;" width="30" height="54.999"/>
<rect x="79.438" y="390.075" transform="matrix(-0.7071 -0.7071 0.7071 -0.7071 -134.055 779.623)" style="fill:#FFB74F;" width="30" height="54.999"/>
<rect x="324.386" y="42.042" transform="matrix(-0.9183 -0.396 0.396 -0.9183 628.4983 243.5389)" style="fill:#FFA71F;" width="30" height="29.715"/>
<g>
	
		<rect x="157.827" y="440.327" transform="matrix(-0.9237 -0.3831 0.3831 -0.9237 158.1022 941.7667)" style="fill:#FFB74F;" width="30" height="29.628"/>
	
		<rect x="159.338" y="41.387" transform="matrix(-0.3693 -0.9293 0.9293 -0.3693 186.1246 239.0909)" style="fill:#FFB74F;" width="29.714" height="29.999"/>
</g>
<rect x="323.251" y="440.742" transform="matrix(-0.3823 -0.924 0.924 -0.3823 46.192 942.361)" style="fill:#FFA71F;" width="29.628" height="29.999"/>
<rect x="42.179" y="157.838" transform="matrix(-0.9183 -0.396 0.396 -0.9183 40.9702 354.1334)" style="fill:#FFB74F;" width="29.715" height="30"/>
<rect x="440.462" y="324.37" transform="matrix(-0.9237 -0.3831 0.3831 -0.9237 745.8041 827.2654)" style="fill:#FFA71F;" width="29.628" height="30"/>
<rect x="41.549" y="323.158" transform="matrix(-0.3693 -0.9293 0.9293 -0.3693 -236.6875 515.3955)" style="fill:#FFB74F;" width="29.999" height="29.714"/>
<g>
	
		<rect x="440.902" y="159.327" transform="matrix(-0.3823 -0.924 0.924 -0.3823 469.2874 661.9854)" style="fill:#FFA71F;" width="29.999" height="29.628"/>
	
		<rect x="390.07" y="402.568" transform="matrix(-0.7071 -0.7071 0.7071 -0.7071 417.5718 1008.0989)" style="fill:#FFA71F;" width="54.999" height="30"/>
</g>
<rect x="66.927" y="79.43" transform="matrix(-0.7071 -0.7071 0.7071 -0.7071 94.4251 227.9723)" style="fill:#FFB74F;" width="54.999" height="30"/>
<path style="fill:#002D6B;" d="M430.73,256c0,96.35-78.38,174.73-174.73,174.73V81.27C352.35,81.27,430.73,159.65,430.73,256z"/>
<g>
	<rect x="256" style="fill:#FFA71F;" width="15" height="55"/>
	<rect x="256" y="457" style="fill:#FFA71F;" width="15" height="55"/>
</g>
<path style="fill:#FF9900;" d="M389,256c0,73.34-59.66,133-133,133s-133-59.66-133-133c0-68.27,51.7-124.68,118-132.16
	c4.92-0.55,9.93-0.84,15-0.84s10.08,0.29,15,0.84C337.3,131.32,389,187.73,389,256z"/>
<path style="fill:#E57500;" d="M389,256c0,73.34-59.66,133-133,133V123c5.07,0,10.08,0.29,15,0.84C337.3,131.32,389,187.73,389,256z
	"/>
<path style="fill:#E8336D;" d="M271,123.84v59.76h-30v-59.76c4.92-0.55,9.93-0.84,15-0.84S266.08,123.29,271,123.84z"/>
<path style="fill:#B02E65;" d="M256,123c5.07,0,10.08,0.29,15,0.84v59.76h-15V123z"/>
<g>
</g>
<g>
</g>
<g>
</g>
<g>
</g>
<g>
</g>
<g>
</g>
<g>
</g>
<g>
</g>
<g>
</g>
<g>
</g>
<g>
</g>
<g>
</g>
<g>
</g>
<g>
</g>
<g>
</g>
</svg>
