<?xml version="1.0" encoding="iso-8859-1"?>
<!-- Generator: Adobe Illustrator 19.0.0, SVG Export Plug-In . SVG Version: 6.00 Build 0)  -->
<svg xmlns="http://www.w3.org/2000/svg" xmlns:xlink="http://www.w3.org/1999/xlink" version="1.1" id="Layer_1" x="0px" y="0px" viewBox="0 0 512 512" style="enable-background:new 0 0 512 512;" xml:space="preserve">
<path style="fill:#FFB301;" d="M281.589,281.7c0,32.976-26.732,59.707-59.707,59.707h-4.35c-0.793,0.043-1.595,0.043-2.388,0  l-3.241-0.426l-3.668-0.682l-2.985-0.853c-5.578-1.544-10.875-3.958-15.695-7.165c-1.279-0.776-2.499-1.629-3.668-2.559  c-3.77-2.815-7.173-6.082-10.15-9.724c-1.024-1.194-1.962-2.474-2.9-3.753c-0.938-1.279,0,0,0,0  c-1.569-2.354-2.994-4.802-4.265-7.335c-1.484-3.02-2.712-6.158-3.668-9.383h47.254c9.894,0.188,18.066-7.677,18.253-17.571  c0-0.085,0-0.171,0-0.256c-0.017-4.606-2.004-8.982-5.459-12.027c-3.54-3.292-8.214-5.092-13.05-5.032h-47.254  c0.955-3.224,2.184-6.363,3.668-9.383c1.271-2.533,2.695-4.981,4.265-7.335l0,0c0,0,1.877-2.559,2.9-3.753  c2.977-3.642,6.38-6.909,10.15-9.724c1.169-0.93,2.388-1.783,3.668-2.559c4.742-3.31,9.988-5.843,15.524-7.506l2.985-0.853  l3.668-0.682h3.241c0.793-0.043,1.595-0.043,2.388,0l4.777-0.853c3.924,0.017,7.83,0.392,11.686,1.109h0.682l5.374,1.365  c1.877,0.597,3.753,1.279,5.544,2.047l5.203,2.474c10.15,5.553,18.501,13.903,24.054,24.054c1.817,3.446,3.335,7.037,4.521,10.747  c0.52,1.621,0.947,3.275,1.279,4.947v1.109c0.29,1.467,0.486,2.943,0.597,4.435C281.256,276.727,281.512,279.209,281.589,281.7z"/>
<path style="fill:#2E7D32;" d="M503.359,128.166c0,65.951-53.464,119.415-119.415,119.415c-2.9,0-5.8,0-8.53,0  s-5.544-0.512-8.53-0.938c-2.985-0.426-6.056-0.938-8.53-1.621c-2.474-0.682-4.777-1.109-7.08-1.791l0,0l-3.582-1.109  c-2.004-0.597-3.966-1.305-5.885-2.132h-0.512c-2.644-1.024-5.288-2.132-7.933-3.412c-8.274-3.941-16.061-8.837-23.201-14.586  c-28.796-22.621-45.616-57.208-45.634-93.826c0.009-5.706,0.409-11.404,1.194-17.059c0.947-6.534,2.422-12.982,4.435-19.277  l1.279-3.753c0.452-1.706,0.998-3.386,1.621-5.032c0.597-1.45,1.194-2.985,1.877-4.35c0.682-1.629,1.45-3.224,2.303-4.777  c0.597-1.279,1.279-2.559,1.962-3.753c3.164-5.57,6.815-10.85,10.918-15.78l2.9-3.497c0.989-1.305,2.073-2.533,3.241-3.668  c1.024-1.194,2.132-2.303,3.241-3.412c1.109-1.109,2.218-2.218,3.412-3.241c8.496-7.984,18.16-14.628,28.66-19.703l4.777-2.218  c1.612-0.768,3.267-1.45,4.947-2.047l5.032-1.791c6.687-2.243,13.571-3.864,20.556-4.862l0,0c2.593-0.537,5.212-0.938,7.847-1.194  c0.452-0.085,0.913-0.085,1.365,0c2.644,0,5.203,0,7.847,0C449.896,8.751,503.359,62.215,503.359,128.166L503.359,128.166z"/>
<path style="fill:#4CAF50;" d="M469.241,128.166c-0.026,59.341-43.621,109.657-102.356,118.135c-2.985,0-6.056-0.938-8.53-1.621  s-4.777-1.109-7.08-1.791l0,0l-3.582-1.109c-2.004-0.597-3.966-1.305-5.885-2.132h-0.512c-2.644-1.024-5.288-2.132-7.933-3.412  c-8.257-3.838-16.044-8.615-23.201-14.244c-28.796-22.621-45.616-57.208-45.634-93.826c0.009-5.706,0.409-11.404,1.194-17.059  c0.947-6.534,2.422-12.982,4.435-19.277l1.279-3.753c0.452-1.706,0.998-3.386,1.621-5.032c0.597-1.45,1.194-2.985,1.877-4.35  c0.682-1.629,1.45-3.224,2.303-4.777c0.597-1.279,1.279-2.559,1.962-3.753c3.164-5.57,6.815-10.85,10.918-15.78l2.9-3.497  c0.989-1.305,2.073-2.533,3.241-3.668c1.024-1.194,2.132-2.303,3.241-3.412c1.109-1.109,2.218-2.218,3.412-3.241  c8.496-7.984,18.16-14.628,28.66-19.703l4.777-2.218c1.612-0.768,3.267-1.45,4.947-2.047l5.032-1.791  c6.687-2.243,13.571-3.864,20.556-4.862l0,0C425.646,18.424,469.258,68.791,469.241,128.166z"/>
<path style="fill:#607D8B;" d="M310.163,221.992c-28.796-22.621-45.616-57.208-45.634-93.826c0.009-5.706,0.409-11.404,1.194-17.059  H128.055c-9.425,0-17.059,7.634-17.059,17.059V264.64h53.651c0.955-3.224,2.184-6.363,3.668-9.383  c1.271-2.533,2.695-4.981,4.265-7.335l0,0c0,0,1.877-2.559,2.9-3.753c2.977-3.642,6.38-6.909,10.15-9.724  c1.169-0.93,2.388-1.783,3.668-2.559c4.742-3.31,9.988-5.843,15.524-7.506l2.985-0.853l3.668-0.682h3.241  c0.793-0.043,1.595-0.043,2.388,0l4.777-0.853c3.924,0.017,7.83,0.392,11.686,1.109h0.682l5.374,1.365  c1.877,0.597,3.753,1.279,5.544,2.047c1.808,0.665,3.548,1.493,5.203,2.474c10.15,5.553,18.501,13.903,24.054,24.054  c1.817,3.446,3.335,7.037,4.521,10.747c0.52,1.621,0.947,3.275,1.279,4.947v1.109c0.29,1.467,0.486,2.943,0.597,4.435  c0.435,2.448,0.691,4.93,0.768,7.421c0,32.976-26.732,59.707-59.707,59.707h-4.35c-0.793,0.043-1.595,0.043-2.388,0l-3.241-0.426  l-3.668-0.682l-2.985-0.853c-5.578-1.544-10.875-3.958-15.695-7.165c-1.279-0.776-2.499-1.629-3.668-2.559  c-3.77-2.815-7.173-6.082-10.15-9.724c-1.024-1.194-1.962-2.474-2.9-3.753c-0.938-1.279,0,0,0,0  c-1.569-2.354-2.994-4.802-4.265-7.335c-1.484-3.02-2.712-6.158-3.668-9.383h-53.907v186.884c0,9.425,7.634,17.059,17.059,17.059  h187.652c9.425,0,17.059-7.634,17.059-17.059v-250.43C324.732,232.185,317.149,227.494,310.163,221.992z M221.881,426.703h-1.535  c-1.075,0.085-2.167,0.085-3.241,0l-2.815-0.768c-0.827-0.196-1.629-0.478-2.388-0.853l-1.45-0.682  c-1.348-0.691-2.627-1.484-3.838-2.388c-3.779-2.627-6.73-6.261-8.53-10.491c-0.375-0.759-0.657-1.561-0.853-2.388  c-1.595-4.939-1.595-10.244,0-15.183c0.196-0.827,0.478-1.629,0.853-2.388c0.93-2.303,2.226-4.427,3.838-6.312l1.365-1.535  c0.921-0.998,1.953-1.885,3.071-2.644c1.211-0.904,2.491-1.697,3.838-2.388l1.45-0.682c0.759-0.375,1.561-0.657,2.388-0.853  c0.913-0.333,1.859-0.589,2.815-0.768c1.646-0.426,3.335-0.716,5.032-0.853c14.134,0,25.589,11.455,25.589,25.589  C247.47,415.248,236.015,426.703,221.881,426.703z"/>
<path style="fill:#CFD8DC;" d="M276.044,221.992c-28.796-22.621-45.617-57.208-45.634-93.826c0.009-5.706,0.409-11.404,1.194-17.059  h-103.55c-9.425,0-17.059,7.634-17.059,17.059V264.64h53.651c0.955-3.224,2.184-6.363,3.668-9.383  c1.271-2.533,2.695-4.981,4.265-7.335l0,0c0,0,1.877-2.559,2.9-3.753c2.977-3.642,6.38-6.909,10.15-9.724  c1.169-0.93,2.388-1.783,3.668-2.559c4.742-3.31,9.988-5.843,15.524-7.506l2.985-0.853l3.668-0.682h3.241  c0.793-0.043,1.595-0.043,2.388,0l4.777-0.853c3.924-0.009,7.839,0.367,11.686,1.109h0.682h1.279l4.094,1.109  c1.902,0.52,3.762,1.203,5.544,2.047c1.808,0.665,3.548,1.493,5.203,2.474c10.21,5.476,18.578,13.844,24.054,24.054  c1.928,3.395,3.446,7.003,4.521,10.747c0.52,1.621,0.947,3.275,1.279,4.947v1.109c0,0,0,0.597,0,0.938s0,2.303,0,3.497  c0.648,2.516,1.109,5.084,1.365,7.677c0,32.976-26.732,59.707-59.707,59.707h-4.35c-0.793,0.043-1.595,0.043-2.388,0l-3.241-0.426  l-3.668-0.682l-2.985-0.853c-5.578-1.544-10.875-3.958-15.695-7.165c-1.279-0.776-2.499-1.629-3.668-2.559  c-3.77-2.815-7.173-6.082-10.15-9.724c-1.024-1.194-1.962-2.474-2.9-3.753c-0.938-1.279,0,0,0,0  c-1.569-2.354-2.994-4.802-4.265-7.335c-1.484-3.02-2.712-6.158-3.668-9.383h-53.907v186.884c0,9.425,7.634,17.059,17.059,17.059  h153.533c9.425,0,17.059-7.634,17.059-17.059v-250.26C290.656,232.202,283.081,227.46,276.044,221.992z M221.881,426.703h-1.535  c-1.075,0.085-2.167,0.085-3.241,0l-2.815-0.768c-0.827-0.196-1.629-0.478-2.388-0.853l-1.45-0.682  c-1.348-0.691-2.627-1.484-3.838-2.388c-3.779-2.627-6.73-6.261-8.53-10.491c-0.375-0.759-0.657-1.561-0.853-2.388  c-1.595-4.939-1.595-10.244,0-15.183c0.196-0.827,0.478-1.629,0.853-2.388c0.93-2.303,2.226-4.427,3.838-6.312l1.365-1.535  c0.921-0.998,1.953-1.885,3.071-2.644c1.211-0.904,2.491-1.697,3.838-2.388l1.45-0.682c0.759-0.375,1.561-0.657,2.388-0.853  c0.913-0.333,1.859-0.589,2.815-0.768c1.646-0.426,3.335-0.716,5.032-0.853c14.134,0,25.589,11.455,25.589,25.589  C247.47,415.248,236.015,426.703,221.881,426.703z"/>
<path style="fill:#FFB301;" d="M230.411,281.7c-0.461,9.792-8.709,17.4-18.509,17.059H27.15c-4.836,0.06-9.511-1.74-13.05-5.032  c-3.455-3.045-5.442-7.421-5.459-12.027c0.461-9.792,8.709-17.4,18.509-17.059h184.752c4.836-0.06,9.511,1.74,13.05,5.032  C228.406,272.718,230.394,277.094,230.411,281.7z"/>
<circle style="fill:#37474F;" cx="221.856" cy="401.149" r="25.589"/>
<path style="fill:#FFB301;" d="M332.767,102.577h102.356c9.425,0,17.059,7.634,17.059,17.059v51.178  c0,9.425-7.634,17.059-17.059,17.059H332.767c-9.425,0-17.059-7.634-17.059-17.059v-51.178  C315.707,110.211,323.341,102.577,332.767,102.577z"/>
<path style="fill:#FEC108;" d="M332.767,102.577h68.237c9.425,0,17.059,7.634,17.059,17.059v51.178  c0,9.425-7.634,17.059-17.059,17.059h-68.237c-9.425,0-17.059-7.634-17.059-17.059v-51.178  C315.707,110.211,323.341,102.577,332.767,102.577z"/>
<path d="M383.944,256.111c-28.685-0.077-56.517-9.741-79.07-27.465c-30.928-24.147-48.969-61.234-48.875-100.479  c0.009-6.107,0.435-12.206,1.279-18.253C267.25,39.961,332.033-8.675,401.993,1.296c63.128,8.99,109.998,63.102,109.896,126.87  C511.889,198.826,454.604,256.111,383.944,256.111z M383.944,17.281c-55.042,0.205-101.682,40.575-109.776,95.02  c-0.734,5.254-1.1,10.56-1.109,15.865c0,61.243,49.642,110.885,110.885,110.885S494.83,189.409,494.83,128.166  S445.187,17.281,383.944,17.281z"/>
<path d="M315.707,512H128.055c-14.134,0-25.589-11.455-25.589-25.589V298.759c0-4.708,3.821-8.53,8.53-8.53s8.53,3.821,8.53,8.53  v187.652c0,4.708,3.821,8.53,8.53,8.53h187.652c4.708,0,8.53-3.821,8.53-8.53v-250.43c0-4.708,3.821-8.53,8.53-8.53  s8.53,3.821,8.53,8.53v250.43C341.296,500.544,329.841,512,315.707,512z"/>
<path d="M110.996,273.17c-4.708,0-8.53-3.821-8.53-8.53V128.166c0-14.134,11.455-25.589,25.589-25.589h137.668  c4.708,0,8.53,3.821,8.53,8.53c0,4.708-3.821,8.53-8.53,8.53H128.055c-4.708,0-8.53,3.821-8.53,8.53V264.64  C119.526,269.349,115.704,273.17,110.996,273.17z"/>
<path d="M221.881,349.937c-30.178,0.017-56.782-19.789-65.422-48.704c-1.339-4.521,1.237-9.28,5.757-10.619  c4.521-1.339,9.28,1.237,10.619,5.758c8.078,27.082,36.584,42.495,63.674,34.417c27.082-8.078,42.495-36.584,34.417-63.674  c-8.078-27.082-36.584-42.495-63.674-34.417c-16.539,4.93-29.478,17.87-34.417,34.417c-1.339,4.521-6.099,7.097-10.619,5.757  c-4.521-1.339-7.097-6.099-5.757-10.619c10.739-36.123,48.73-56.697,84.853-45.958c36.123,10.739,56.696,48.73,45.958,84.853  C278.672,330.088,252.068,349.928,221.881,349.937z"/>
<path d="M211.902,307.288H27.15c-6.875-0.026-13.485-2.644-18.509-7.335c-5.348-4.563-8.461-11.225-8.53-18.253  c0.418-14.526,12.513-25.973,27.039-25.589h184.752c7.02-0.085,13.801,2.542,18.936,7.335c5.195,4.64,8.137,11.293,8.103,18.253  C238.523,296.226,226.428,307.672,211.902,307.288z M27.15,273.17c-5.075-0.299-9.485,3.463-9.98,8.53  c0.009,2.201,0.981,4.282,2.644,5.715c1.987,1.851,4.615,2.866,7.335,2.815h184.752c5.075,0.299,9.485-3.463,9.98-8.53  c-0.009-2.201-0.981-4.282-2.644-5.715c-1.987-1.859-4.615-2.875-7.335-2.815H27.15z"/>
<path d="M221.881,435.233c-18.842,0-34.119-15.277-34.119-34.119c0-18.842,15.277-34.119,34.119-34.119S256,382.273,256,401.115  C256,419.956,240.723,435.233,221.881,435.233z M221.881,384.055c-9.425,0-17.059,7.634-17.059,17.059  c0,9.425,7.634,17.059,17.059,17.059s17.059-7.634,17.059-17.059C238.941,391.689,231.307,384.055,221.881,384.055z"/>
<path d="M221.881,477.881c-4.708,0-8.53-3.821-8.53-8.53v-42.648c0-4.708,3.821-8.53,8.53-8.53s8.53,3.821,8.53,8.53v42.648  C230.411,474.06,226.59,477.881,221.881,477.881z"/>
<path d="M145.115,153.755h-1.706l-1.535-0.512l-1.535-0.768c-0.452-0.316-0.879-0.657-1.279-1.024  c-3.344-3.318-3.369-8.717-0.051-12.061c0.017-0.017,0.034-0.034,0.051-0.051c2.457-2.422,6.124-3.13,9.297-1.791  c1.032,0.435,1.987,1.041,2.815,1.791c3.344,3.318,3.369,8.717,0.051,12.061c-0.017,0.017-0.034,0.034-0.051,0.051  c-0.827,0.751-1.783,1.356-2.815,1.791C147.332,153.661,146.223,153.84,145.115,153.755z"/>
<path d="M230.411,153.755h-59.707c-4.708,0-8.53-3.821-8.53-8.53s3.821-8.53,8.53-8.53h59.707c4.708,0,8.53,3.821,8.53,8.53  S235.119,153.755,230.411,153.755z"/>
<path d="M435.122,196.403H332.767c-14.134,0-25.589-11.455-25.589-25.589v-51.178c0-14.134,11.455-25.589,25.589-25.589h102.356  c14.134,0,25.589,11.455,25.589,25.589v51.178C460.711,184.948,449.256,196.403,435.122,196.403z M332.767,111.107  c-4.708,0-8.53,3.821-8.53,8.53v51.178c0,4.708,3.821,8.53,8.53,8.53h102.356c4.708,0,8.53-3.821,8.53-8.53v-51.178  c0-4.708-3.821-8.53-8.53-8.53C435.122,111.107,332.767,111.107,332.767,111.107z"/>
<path d="M418.063,111.107h-68.237c-4.708,0-8.53-3.821-8.53-8.53V85.518c-0.009-23.55,19.072-42.657,42.631-42.665  c10.406-0.009,20.454,3.796,28.25,10.679c3.821,2.755,4.674,8.095,1.919,11.907c-2.755,3.821-8.095,4.674-11.907,1.919  c-0.426-0.307-0.819-0.657-1.186-1.032c-10.534-9.425-26.706-8.521-36.132,2.013c-4.222,4.725-6.542,10.841-6.517,17.179v8.53  h61.072c1.663,0.281,3.207,1.058,4.435,2.218l0.682,0.682c2.636,3.164,2.636,7.753,0,10.918c-0.563,0.665-1.228,1.237-1.962,1.706  C421.253,110.501,419.684,111.039,418.063,111.107z"/>
<path d="M383.944,162.285c-4.708,0-8.53-3.821-8.53-8.53v-17.059c0-4.708,3.821-8.53,8.53-8.53s8.53,3.821,8.53,8.53v17.059  C392.474,158.463,388.653,162.285,383.944,162.285z"/>
<path d="M392.474,145.225h-17.059c-4.708,0-8.53-3.821-8.53-8.53s3.821-8.53,8.53-8.53h17.059c4.708,0,8.53,3.821,8.53,8.53  S397.182,145.225,392.474,145.225z"/>
<g>
</g>
<g>
</g>
<g>
</g>
<g>
</g>
<g>
</g>
<g>
</g>
<g>
</g>
<g>
</g>
<g>
</g>
<g>
</g>
<g>
</g>
<g>
</g>
<g>
</g>
<g>
</g>
<g>
</g>
</svg>
