<?xml version="1.0" encoding="iso-8859-1"?>
<!-- Generator: Adobe Illustrator 19.0.0, SVG Export Plug-In . SVG Version: 6.00 Build 0)  -->
<svg version="1.1" id="Layer_1" xmlns="http://www.w3.org/2000/svg" xmlns:xlink="http://www.w3.org/1999/xlink" x="0px" y="0px"
	 viewBox="0 0 511.999 511.999" style="enable-background:new 0 0 511.999 511.999;" xml:space="preserve">
<polygon style="fill:#F4B2B0;" points="14.853,157.555 14.853,246.67 255.999,454.651 497.147,246.67 497.147,157.555 
	255.999,365.536 "/>
<g>
	<path style="fill:#B3404A;" d="M255.999,469.504c-3.456,0-6.914-1.202-9.7-3.605L5.152,257.918C1.882,255.096,0,250.991,0,246.67
		v-89.116c0-5.809,3.386-11.084,8.666-13.503c5.285-2.419,11.488-1.537,15.886,2.256l231.446,199.614l231.446-199.616
		c4.398-3.792,10.603-4.676,15.886-2.256c5.28,2.418,8.666,7.695,8.666,13.502v89.116c0,4.321-1.882,8.426-5.152,11.248
		L265.699,465.898C262.915,468.302,259.457,469.504,255.999,469.504z M29.705,239.866l226.294,195.172l226.294-195.172v-49.888
		L265.701,376.783c-5.573,4.806-13.829,4.806-19.402,0L29.705,189.978V239.866z"/>
	<path style="fill:#B3404A;" d="M255.999,380.388c-3.456,0-6.914-1.202-9.7-3.605L5.152,168.803C1.882,165.981,0,161.875,0,157.555
		V57.347c0-5.809,3.386-11.084,8.666-13.502c5.285-2.419,11.488-1.537,15.886,2.256l169.091,145.835
		c6.213,5.357,6.903,14.737,1.546,20.948c-5.354,6.21-14.731,6.906-20.948,1.548L29.705,89.771v60.98l226.294,195.172
		l226.294-195.172v-60.98L265.701,276.576c-6.211,5.359-15.591,4.664-20.948-1.548c-5.357-6.211-4.665-15.591,1.546-20.948
		L487.446,46.099c4.398-3.792,10.603-4.674,15.886-2.256c5.28,2.418,8.666,7.695,8.666,13.502v100.207
		c0,4.321-1.882,8.426-5.152,11.248L265.699,376.782C262.915,379.187,259.457,380.388,255.999,380.388z"/>
</g>
<g>
</g>
<g>
</g>
<g>
</g>
<g>
</g>
<g>
</g>
<g>
</g>
<g>
</g>
<g>
</g>
<g>
</g>
<g>
</g>
<g>
</g>
<g>
</g>
<g>
</g>
<g>
</g>
<g>
</g>
</svg>
