<?xml version="1.0" encoding="iso-8859-1"?>
<!-- Generator: Adobe Illustrator 19.0.0, SVG Export Plug-In . SVG Version: 6.00 Build 0)  -->
<svg version="1.1" id="Capa_1" xmlns="http://www.w3.org/2000/svg" xmlns:xlink="http://www.w3.org/1999/xlink" x="0px" y="0px"
	 viewBox="0 0 512 512" style="enable-background:new 0 0 512 512;" xml:space="preserve">
<path style="fill:#303C42;" d="M469.333,0H42.667C19.146,0,0,19.135,0,42.667v426.667C0,492.865,19.146,512,42.667,512h426.667
	C492.854,512,512,492.865,512,469.333V42.667C512,19.135,492.854,0,469.333,0z"/>
<path style="fill:#FAFAFA;" d="M490.667,469.333c0,11.76-9.563,21.333-21.333,21.333H42.667c-11.771,0-21.333-9.573-21.333-21.333
	V42.667c0-11.76,9.563-21.333,21.333-21.333h426.667c11.771,0,21.333,9.573,21.333,21.333V469.333z"/>
<path style="fill:#303C42;" d="M437.333,192H74.667C68.771,192,64,196.771,64,202.667v234.667C64,443.229,68.771,448,74.667,448
	h362.667c5.896,0,10.667-4.771,10.667-10.667V202.667C448,196.771,443.229,192,437.333,192z"/>
<rect x="85.333" y="213.333" style="fill:#FAA41A;" width="341.333" height="213.333"/>
<rect x="85.333" y="213.333" style="opacity:0.2;fill:#FFFFFF;enable-background:new    ;" width="341.333" height="32"/>
<rect x="85.333" y="394.667" style="opacity:0.1;enable-background:new    ;" width="341.333" height="32"/>
<circle style="fill:#303C42;" cx="256" cy="320" r="85.333"/>
<circle style="fill:#E53935;" cx="256" cy="320" r="64"/>
<g>
	<path style="fill:#303C42;" d="M74.667,160v-10.667H96V160c0,5.896,4.771,10.667,10.667,10.667c5.896,0,10.667-4.771,10.667-10.667
		V96c0-17.646-14.354-32-32-32s-32,14.354-32,32v64c0,5.896,4.771,10.667,10.667,10.667S74.667,165.896,74.667,160z M85.333,85.333
		C91.208,85.333,96,90.115,96,96v32H74.667V96C74.667,90.115,79.458,85.333,85.333,85.333z"/>
	<path style="fill:#303C42;" d="M213.333,170.667c5.896,0,10.667-4.771,10.667-10.667v-10.667h21.333V160
		c0,5.896,4.771,10.667,10.667,10.667c5.896,0,10.667-4.771,10.667-10.667V96c0-17.646-14.354-32-32-32s-32,14.354-32,32v64
		C202.667,165.896,207.438,170.667,213.333,170.667z M234.667,85.333c5.875,0,10.667,4.781,10.667,10.667v32H224V96
		C224,90.115,228.792,85.333,234.667,85.333z"/>
	<path style="fill:#303C42;" d="M138.667,170.667h42.667c5.896,0,10.667-4.771,10.667-10.667c0-5.896-4.771-10.667-10.667-10.667
		h-32V74.667c0-5.896-4.771-10.667-10.667-10.667S128,68.771,128,74.667V160C128,165.896,132.771,170.667,138.667,170.667z"/>
	<path style="fill:#303C42;" d="M426.667,64c-8.188,0-15.667,3.094-21.333,8.167C399.667,67.094,392.188,64,384,64
		c-17.646,0-32,14.354-32,32v64c0,5.896,4.771,10.667,10.667,10.667c5.896,0,10.667-4.771,10.667-10.667V96
		c0-5.885,4.792-10.667,10.667-10.667S394.667,90.115,394.667,96v64c0,5.896,4.771,10.667,10.667,10.667S416,165.896,416,160V96
		c0-5.885,4.792-10.667,10.667-10.667S437.333,90.115,437.333,96v64c0,5.896,4.771,10.667,10.667,10.667
		c5.896,0,10.667-4.771,10.667-10.667V96C458.667,78.354,444.313,64,426.667,64z"/>
	<path style="fill:#303C42;" d="M288,170.667c5.896,0,10.667-4.771,10.667-10.667v-32h10.667c5.875,0,10.667,4.781,10.667,10.667
		V160c0,5.896,4.771,10.667,10.667,10.667c5.896,0,10.667-4.771,10.667-10.667v-21.333c0-8.188-3.083-15.667-8.167-21.333
		c5.083-5.667,8.167-13.146,8.167-21.333c0-17.646-14.354-32-32-32H288c-5.896,0-10.667,4.771-10.667,10.667V160
		C277.333,165.896,282.104,170.667,288,170.667z M298.667,85.333h10.667C315.208,85.333,320,90.115,320,96
		c0,5.885-4.792,10.667-10.667,10.667h-10.667V85.333z"/>
</g>
<path style="fill:#FFFFFF;" d="M256,362.667c5.896,0,10.667-4.771,10.667-10.667c0-5.896-4.771-10.667-10.667-10.667
	c-11.771,0-21.333-9.573-21.333-21.333c0-5.896-4.771-10.667-10.667-10.667c-5.896,0-10.667,4.771-10.667,10.667
	C213.333,343.531,232.479,362.667,256,362.667z"/>
<linearGradient id="SVGID_1_" gradientUnits="userSpaceOnUse" x1="-48.5599" y1="640.9453" x2="-20.8464" y2="628.0235" gradientTransform="matrix(21.3333 0 0 -21.3333 996.3334 13791.667)">
	<stop  offset="0" style="stop-color:#FFFFFF;stop-opacity:0.2"/>
	<stop  offset="1" style="stop-color:#FFFFFF;stop-opacity:0"/>
</linearGradient>
<path style="fill:url(#SVGID_1_);" d="M469.333,0H42.667C19.146,0,0,19.135,0,42.667v426.667C0,492.865,19.146,512,42.667,512
	h426.667C492.854,512,512,492.865,512,469.333V42.667C512,19.135,492.854,0,469.333,0z"/>
<g>
</g>
<g>
</g>
<g>
</g>
<g>
</g>
<g>
</g>
<g>
</g>
<g>
</g>
<g>
</g>
<g>
</g>
<g>
</g>
<g>
</g>
<g>
</g>
<g>
</g>
<g>
</g>
<g>
</g>
</svg>
