<?xml version="1.0" encoding="iso-8859-1"?>
<!-- Generator: Adobe Illustrator 19.0.0, SVG Export Plug-In . SVG Version: 6.00 Build 0)  -->
<svg version="1.1" id="Capa_1" xmlns="http://www.w3.org/2000/svg" xmlns:xlink="http://www.w3.org/1999/xlink" x="0px" y="0px"
	 viewBox="0 0 512 512" style="enable-background:new 0 0 512 512;" xml:space="preserve">
<rect x="141.506" y="106.007" style="fill:#C9F3FF;" width="360.49" height="355.93"/>
<path style="fill:#D8FB93;" d="M409.271,288.771c0,0,1.062-34.158,30.075-48.713l10.737-5.381l0,0
	c-8.294,18.019-12.588,37.618-12.588,57.453v1.618l-13.034,20.087L409.271,288.771z"/>
<path style="fill:#62CD4D;" d="M420.896,334.92L420.896,334.92c0-32.21-18.5-61.556-47.562-75.445l-15.632-7.471l1.044,1.898
	c14.041,25.521,23.704,53.098,28.696,81.584l21.826,45.51L420.896,334.92z"/>
<path style="fill:#FFFFFF;" d="M402.555,380.996L402.555,380.996c0-27.012-15.515-53.515-39.886-65.163l-13.109-6.265l0.875,1.591
	c11.762,21.379,19.861,45.975,24.051,69.836h28.068V380.996z"/>
<path style="fill:#A0E557;" d="M415.252,380.996v-4.828c0-49.111,23.487-95.26,63.193-124.163l0,0l-0.03,0.065
	c-19.08,33.262-31.567,88.49-31.567,128.926h-31.596V380.996z"/>
<g>
	<rect x="10" y="10.009" style="fill:#FFFFFF;" width="491.987" height="55.998"/>
	<path style="fill:#FFFFFF;" d="M406.002,490.243V381.996h-47.999v108.247c0,6.489,5.261,11.75,11.75,11.75h47.999
		C411.263,501.993,406.002,496.732,406.002,490.243z"/>
</g>
<path style="fill:#FFB954;" d="M462.001,490.243V381.996h-55.998v108.247c0,6.489,5.26,11.75,11.75,11.75h32.499
	C456.741,501.993,462.001,496.732,462.001,490.243z"/>
<path d="M255.976,20.006c2.63,0,5.21-1.07,7.07-2.93c1.859-1.86,2.93-4.44,2.93-7.07s-1.07-5.21-2.93-7.07
	c-1.86-1.86-4.44-2.93-7.07-2.93c-2.63,0-5.21,1.07-7.07,2.93c-1.859,1.86-2.93,4.44-2.93,7.07s1.07,5.21,2.93,7.07
	S253.347,20.006,255.976,20.006z"/>
<path d="M189.158,134.593c-2.63,0-5.21,1.07-7.08,2.93c-1.859,1.86-2.92,4.44-2.92,7.07s1.061,5.21,2.92,7.08
	c1.87,1.86,4.44,2.92,7.08,2.92c2.631,0,5.21-1.06,7.07-2.92c1.86-1.87,2.93-4.45,2.93-7.08s-1.069-5.21-2.93-7.07
	C194.358,135.663,191.789,134.593,189.158,134.593z"/>
<path d="M154.46,165.15l-89.123,89.123c-3.905,3.905-3.905,10.237,0,14.143c1.953,1.952,4.512,2.929,7.071,2.929
	s5.118-0.977,7.071-2.929l89.123-89.123c3.905-3.905,3.905-10.237,0-14.143C164.695,161.244,158.366,161.244,154.46,165.15z"/>
<path d="M472.001,471.932H502c5.522,0,10-4.478,10-10V66.005c0-0.091-0.011-0.18-0.014-0.271V10.006c0-5.523-4.478-10-10-10h-195.01
	c-5.522,0-10,4.477-10,10s4.478,10,10,10h185.01v35.999H19.999V20.006h188.619c5.522,0,10-4.477,10-10s-4.478-10-10-10H10
	c-5.522,0-10,4.477-10,10v55.998v395.927c0,5.522,4.478,10,10,10h338.005v18.313c0,0.59,0.03,1.172,0.077,1.75H144.593
	c-5.522,0-10,4.478-10,10s4.478,10,10,10H502c5.522,0,10-4.478,10-10s-4.478-10-10-10h-30.076c0.046-0.578,0.077-1.16,0.077-1.75
	L472.001,471.932L472.001,471.932z M382.937,371.996c-2.692-13.068-6.387-25.833-10.991-37.945
	c10.586,9.642,17.806,23.256,19.938,37.945L382.937,371.996L382.937,371.996z M427.63,293.702c-1.228,2.105-2.396,4.244-3.529,6.401
	c-1.425-3.532-3.063-6.969-4.899-10.295c0.024-0.226,0.053-0.451,0.062-0.682c0.036-0.901,0.867-17.632,12.111-30.493
	c-2.562,10.987-3.881,22.27-3.881,33.499C427.495,292.667,427.549,293.189,427.63,293.702z M410.88,333.802
	c-1.576,5.846-2.833,11.792-3.754,17.812c-2.549-6.754-5.936-13.152-10.05-18.995c-3.562-19.835-9.253-39.115-17.02-57.594
	C398.814,288.482,410.518,310.352,410.88,333.802z M449.949,295.737c-7.215,24.608-11.948,51.803-12.91,76.259H425.33
	C426.136,344.54,434.854,318.091,449.949,295.737z M19.999,426.849l186.304-186.304c3.905-3.905,3.905-10.237,0-14.143
	c-3.906-3.905-10.236-3.905-14.143,0L19.999,398.564V76.004h226.008v375.928H19.999V426.849z M266.007,451.932V76.004h225.994
	v375.928h-19.999v-69.936c0-5.522-4.478-10-10-10h-4.945c1.702-39.2,14.039-87.071,30.032-114.952
	c0.136-0.236,0.292-0.542,0.408-0.789c1.94-4.132,0.836-9.055-2.684-11.962c-3.521-2.908-8.563-3.062-12.253-0.375
	c-7.804,5.681-15.023,12.008-21.609,18.873c1.948-8.237,4.693-16.283,8.216-23.934c1.775-3.857,0.921-8.416-2.131-11.369
	c-3.053-2.952-7.636-3.656-11.434-1.753l-10.739,5.382c-18.436,9.248-27.317,24.87-31.603,37.486
	c-7.357-7.355-15.972-13.545-25.612-18.152l-15.632-7.471c-3.92-1.874-8.6-1.002-11.583,2.156
	c-2.982,3.158-3.585,7.881-1.491,11.687l1.044,1.897c8.791,15.977,15.784,32.76,20.934,50.138c-1.294-0.719-2.603-1.41-3.941-2.049
	l-13.109-6.265c-3.92-1.872-8.602-1.001-11.583,2.158c-2.982,3.159-3.584,7.882-1.488,11.688l0.874,1.588
	c9.184,16.695,16.29,35.88,20.808,56.017h-4.479c-5.522,0-10,4.478-10,10v69.936L266.007,451.932L266.007,451.932z M369.754,491.993
	c-0.965,0-1.75-0.785-1.75-1.75v-98.247h83.998v98.247c0,0.965-0.785,1.75-1.75,1.75H369.754z"/>
<path d="M98.141,491.993c-2.63,0-5.21,1.069-7.07,2.93c-1.87,1.86-2.93,4.44-2.93,7.07c0,2.63,1.06,5.21,2.93,7.069
	c1.86,1.86,4.44,2.931,7.07,2.931c2.63,0,5.21-1.07,7.07-2.931c1.859-1.859,2.93-4.439,2.93-7.069c0-2.63-1.07-5.21-2.93-7.07
	C103.341,493.062,100.77,491.993,98.141,491.993z"/>
<g>
</g>
<g>
</g>
<g>
</g>
<g>
</g>
<g>
</g>
<g>
</g>
<g>
</g>
<g>
</g>
<g>
</g>
<g>
</g>
<g>
</g>
<g>
</g>
<g>
</g>
<g>
</g>
<g>
</g>
</svg>
