<?xml version="1.0" encoding="iso-8859-1"?>
<!-- Generator: Adobe Illustrator 19.0.0, SVG Export Plug-In . SVG Version: 6.00 Build 0)  -->
<svg version="1.1" id="Capa_1" xmlns="http://www.w3.org/2000/svg" xmlns:xlink="http://www.w3.org/1999/xlink" x="0px" y="0px"
	 viewBox="0 0 480 480" style="enable-background:new 0 0 480 480;" xml:space="preserve">
<linearGradient id="SVGID_1_" gradientUnits="userSpaceOnUse" x1="-34.8898" y1="556.733" x2="-34.8898" y2="619.676" gradientTransform="matrix(8 0 0 -8 511.1035 4941)">
	<stop  offset="0" style="stop-color:#006DF0"/>
	<stop  offset="1" style="stop-color:#00E7F0"/>
</linearGradient>
<path style="fill:url(#SVGID_1_);" d="M231.985,408c-13.255,0-24,10.745-24,24s10.745,24,24,24c13.255,0,24-10.745,24-24
	S245.24,408,231.985,408z M231.985,440c-4.418,0-8-3.582-8-8s3.582-8,8-8s8,3.582,8,8S236.403,440,231.985,440z"/>
<g>
	
		<linearGradient id="SVGID_2_" gradientUnits="userSpaceOnUse" x1="-40.8898" y1="556.733" x2="-40.8898" y2="619.676" gradientTransform="matrix(8 0 0 -8 511.1035 4941)">
		<stop  offset="0" style="stop-color:#006DF0"/>
		<stop  offset="1" style="stop-color:#00E7F0"/>
	</linearGradient>
	<path style="fill:url(#SVGID_2_);" d="M175.985,40h16c4.418,0,8-3.582,8-8s-3.582-8-8-8h-16c-4.418,0-8,3.582-8,8
		S171.567,40,175.985,40z"/>
	
		<linearGradient id="SVGID_3_" gradientUnits="userSpaceOnUse" x1="-31.8898" y1="556.733" x2="-31.8898" y2="619.676" gradientTransform="matrix(8 0 0 -8 511.1035 4941)">
		<stop  offset="0" style="stop-color:#006DF0"/>
		<stop  offset="1" style="stop-color:#00E7F0"/>
	</linearGradient>
	<path style="fill:url(#SVGID_3_);" d="M223.985,40h64c4.418,0,8-3.582,8-8s-3.582-8-8-8h-64c-4.418,0-8,3.582-8,8
		S219.567,40,223.985,40z"/>
</g>
<linearGradient id="SVGID_4_" gradientUnits="userSpaceOnUse" x1="-34.8898" y1="556.733" x2="-34.8898" y2="619.676" gradientTransform="matrix(8 0 0 -8 511.1035 4941)">
	<stop  offset="0" style="stop-color:#006DF0"/>
	<stop  offset="1" style="stop-color:#00E7F0"/>
</linearGradient>
<path style="fill:url(#SVGID_4_);" d="M295.985,216h-40v-40c0-4.418-3.582-8-8-8h-32c-4.418,0-8,3.582-8,8v40h-40
	c-4.418,0-8,3.582-8,8v32c0,4.418,3.582,8,8,8h40v40c0,4.418,3.582,8,8,8h32c4.418,0,8-3.582,8-8v-40h40c4.418,0,8-3.582,8-8v-32
	C303.985,219.582,300.403,216,295.985,216z M287.985,248h-40c-4.418,0-8,3.582-8,8v40h-16v-40c0-4.418-3.582-8-8-8h-40v-16h40
	c4.418,0,8-3.582,8-8v-40h16v40c0,4.418,3.582,8,8,8h40V248z"/>
<g>
	
		<linearGradient id="SVGID_5_" gradientUnits="userSpaceOnUse" x1="-33.8879" y1="556.733" x2="-33.8879" y2="619.676" gradientTransform="matrix(8 0 0 -8 511.1035 4941)">
		<stop  offset="0" style="stop-color:#006DF0"/>
		<stop  offset="1" style="stop-color:#00E7F0"/>
	</linearGradient>
	<path style="fill:url(#SVGID_5_);" d="M463.985,376c-0.052-41.064-31.147-75.438-72-79.592V40c-0.026-22.08-17.92-39.974-40-40
		h-224c-15.989-0.014-30.439,9.529-36.704,24.24c-44.076,2.585-77.712,40.411-75.127,84.487c2.3,39.213,32.746,70.946,71.831,74.865
		V440c0.026,22.08,17.92,39.974,40,40h224c15.989,0.014,30.439-9.529,36.704-24.24C430.933,453.272,463.931,418.316,463.985,376z
		 M374.113,296.672c-1.992,0.248-4,0.52-5.912,0.904c-0.936,0.192-1.848,0.464-2.768,0.688c-1.6,0.376-3.152,0.736-4.688,1.2
		c-1,0.312-1.96,0.688-2.944,1.024c-1.416,0.496-2.832,0.976-4.216,1.544c-0.992,0.416-1.96,0.888-2.936,1.336
		c-1.312,0.608-2.616,1.208-3.888,1.88c-0.976,0.512-1.904,1.072-2.848,1.6c-1.224,0.712-2.4,1.424-3.616,2.192
		c-0.92,0.608-1.816,1.248-2.712,1.896c-1.136,0.8-2.256,1.6-3.344,2.496c-0.864,0.696-1.704,1.408-2.544,2.136
		c-1.067,0.901-2.088,1.832-3.064,2.792c-0.8,0.8-1.6,1.552-2.352,2.4c-0.96,1-1.888,2.016-2.792,3.064
		c-0.728,0.84-1.44,1.688-2.128,2.56c-0.864,1.08-1.688,2.2-2.496,3.328c-0.64,0.904-1.28,1.808-1.88,2.736
		c-0.8,1.168-1.48,2.4-2.184,3.584c-0.552,0.96-1.112,1.904-1.6,2.888c-0.656,1.256-1.256,2.552-1.856,3.848
		c-0.456,0.984-0.92,1.968-1.336,2.984c-0.56,1.352-1.04,2.744-1.52,4.136c-0.352,1.008-0.728,2-1.04,3.032
		c-0.448,1.472-0.8,2.984-1.16,4.496c-0.232,0.984-0.512,1.952-0.712,2.96c-0.336,1.688-0.56,3.424-0.8,5.152
		c-0.112,0.856-0.28,1.696-0.368,2.56c-0.256,2.608-0.4,5.248-0.4,7.928s0.136,5.32,0.4,8H103.985V183.6h0.072
		c0.608-0.064,1.2-0.192,1.8-0.264c1.992-0.248,4-0.52,5.912-0.904c0.936-0.192,1.848-0.464,2.768-0.688
		c1.6-0.376,3.152-0.736,4.688-1.2c0.992-0.304,1.96-0.688,2.944-1.024c1.416-0.496,2.832-0.976,4.216-1.552
		c1-0.408,1.96-0.88,2.936-1.336c1.312-0.6,2.616-1.2,3.888-1.872c0.968-0.512,1.912-1.072,2.856-1.6
		c1.216-0.712,2.4-1.424,3.608-2.192c0.92-0.608,1.816-1.248,2.712-1.896c1.136-0.8,2.256-1.6,3.344-2.496
		c0.864-0.696,1.704-1.408,2.544-2.136c1.067-0.901,2.088-1.832,3.064-2.792c0.8-0.8,1.6-1.552,2.352-2.4
		c0.96-1,1.888-2.016,2.792-3.064c0.728-0.84,1.44-1.688,2.128-2.56c0.864-1.08,1.688-2.2,2.496-3.328
		c0.64-0.904,1.28-1.808,1.88-2.736c0.8-1.168,1.48-2.4,2.184-3.584c0.552-0.96,1.112-1.904,1.6-2.888
		c0.656-1.256,1.256-2.544,1.848-3.832c0.456-1,0.928-1.984,1.352-3c0.552-1.352,1.032-2.744,1.512-4.128
		c0.352-1.008,0.728-2.008,1.04-3.04c0.448-1.472,0.8-2.984,1.16-4.496c0.232-0.984,0.512-1.952,0.712-2.96
		c0.336-1.688,0.56-3.424,0.8-5.152c0.112-0.856,0.28-1.696,0.368-2.56c0.256-2.608,0.4-5.248,0.4-7.928
		c-0.02-3.135-0.226-6.266-0.616-9.376c-0.104-0.848-0.224-1.68-0.352-2.52c-0.392-2.6-0.896-5.16-1.536-7.696
		c-0.136-0.52-0.224-1.048-0.368-1.6c-0.814-2.943-1.8-5.836-2.952-8.664c-0.296-0.736-0.632-1.456-0.952-2.184
		c-0.992-2.267-2.088-4.483-3.288-6.648c-0.248-0.44-0.416-0.912-0.672-1.344h210.76V296.4h-0.072
		C375.305,296.472,374.713,296.6,374.113,296.672L374.113,296.672z M127.985,16h224c13.255,0,24,10.745,24,24v8h-223.04
		c-0.92-0.936-1.84-1.888-2.808-2.776c-0.584-0.536-1.192-1.032-1.792-1.544c-1.344-1.168-2.72-2.304-4.136-3.376
		c-0.704-0.528-1.416-1.04-2.128-1.552c-1.432-1.008-2.896-1.96-4.384-2.88c-0.696-0.416-1.376-0.856-2.08-1.256
		c-1.824-1.04-3.688-2-5.6-2.896c-0.384-0.184-0.752-0.392-1.144-0.568c-2.368-1.067-4.784-2.021-7.248-2.864
		c-0.336-0.12-0.688-0.2-1.032-0.312c-2.088-0.68-4.2-1.28-6.336-1.784c-0.688-0.168-1.384-0.296-2.072-0.44
		c-1.016-0.216-2.016-0.48-3.048-0.648C113.696,19.345,120.64,15.991,127.985,16L127.985,16z M31.985,104
		c0.04-35.33,28.67-63.96,64-64h0.912c35.343,0.504,63.585,29.563,63.082,64.906c-0.504,35.343-29.563,63.585-64.906,63.081
		C60.089,167.488,31.989,138.988,31.985,104z M351.985,464h-224c-13.255,0-24-10.745-24-24v-40h203.648
		c0.472,1.528,1.04,3.008,1.6,4.488c0.176,0.456,0.32,0.928,0.504,1.384c1.299,3.214,2.803,6.34,4.504,9.36
		c0.312,0.56,0.624,1.112,0.952,1.664c1.715,2.901,3.612,5.691,5.68,8.352c0.376,0.48,0.8,0.952,1.168,1.424
		c2.143,2.653,4.457,5.162,6.928,7.512c0.296,0.28,0.608,0.536,0.912,0.8c2.424,2.221,4.983,4.289,7.664,6.192
		c0.344,0.24,0.664,0.512,1.008,0.752c2.776,1.887,5.67,3.594,8.664,5.112c0.624,0.32,1.232,0.656,1.864,0.96
		c2.963,1.419,6.008,2.659,9.12,3.712c0.712,0.24,1.424,0.456,2.144,0.68c3.226,1.006,6.513,1.807,9.84,2.4
		c0.208,0,0.4,0.112,0.608,0.144C366.235,460.669,359.309,464.007,351.985,464L351.985,464z M383.985,440h-0.928
		c-29.525-0.342-54.956-20.905-61.472-49.704c-1.041-4.695-1.577-9.487-1.6-14.296c0-35.346,28.654-64,64-64s64,28.654,64,64
		S419.331,440,383.985,440L383.985,440z"/>
	
		<linearGradient id="SVGID_6_" gradientUnits="userSpaceOnUse" x1="-51.8855" y1="556.733" x2="-51.8855" y2="619.676" gradientTransform="matrix(8 0 0 -8 511.1035 4941)">
		<stop  offset="0" style="stop-color:#006DF0"/>
		<stop  offset="1" style="stop-color:#00E7F0"/>
	</linearGradient>
	<path style="fill:url(#SVGID_6_);" d="M101.641,141.656l33.92-33.92c9.378-9.367,9.386-24.563,0.019-33.941
		c-0.006-0.006-0.013-0.013-0.019-0.019c-9.509-9.04-24.435-9.04-33.944,0l-5.6,5.6l-5.6-5.6c-9.513-9.046-24.447-9.046-33.96,0
		c-9.358,9.383-9.358,24.569,0,33.952l33.92,33.92c3.124,3.123,8.188,3.123,11.312,0L101.641,141.656z M67.721,96.424
		c-3.126-3.122-3.129-8.188-0.006-11.314c0.002-0.002,0.004-0.004,0.006-0.006c1.471-1.515,3.488-2.38,5.6-2.4
		c2.144,0.015,4.194,0.878,5.704,2.4l11.28,11.28c3.124,3.123,8.188,3.123,11.312,0l11.28-11.28c3.16-3.043,8.16-3.043,11.32,0
		c3.128,3.12,3.135,8.186,0.014,11.314c-0.005,0.005-0.01,0.01-0.014,0.014l-28.232,28.256L67.721,96.424z"/>
	
		<linearGradient id="SVGID_7_" gradientUnits="userSpaceOnUse" x1="-15.8898" y1="556.733" x2="-15.8898" y2="619.676" gradientTransform="matrix(8 0 0 -8 511.1035 4941)">
		<stop  offset="0" style="stop-color:#006DF0"/>
		<stop  offset="1" style="stop-color:#00E7F0"/>
	</linearGradient>
	<path style="fill:url(#SVGID_7_);" d="M383.985,342.064L350.049,376c-9.369,9.372-9.369,24.564,0,33.936
		c9.372,9.369,24.564,9.369,33.936,0L417.921,376c9.369-9.372,9.369-24.564,0-33.936
		C408.423,333.004,393.483,333.004,383.985,342.064z M372.673,398.624c-3.16,3.028-8.144,3.028-11.304,0
		c-1.511-1.489-2.357-3.526-2.344-5.648c0-2.122,0.844-4.156,2.344-5.656L372.673,376l11.312,11.312L372.673,398.624z
		 M406.609,364.688L395.297,376l-11.312-11.312l11.312-11.312c1.5-1.5,3.534-2.344,5.656-2.344c4.418,0,8,3.582,8,8
		C408.953,361.154,408.11,363.188,406.609,364.688z"/>
	
		<linearGradient id="SVGID_8_" gradientUnits="userSpaceOnUse" x1="-43.3898" y1="556.733" x2="-43.3898" y2="619.676" gradientTransform="matrix(8 0 0 -8 511.1035 4941)">
		<stop  offset="0" style="stop-color:#006DF0"/>
		<stop  offset="1" style="stop-color:#00E7F0"/>
	</linearGradient>
	<path style="fill:url(#SVGID_8_);" d="M199.985,352h-64v-24c0-4.418-3.582-8-8-8c-4.418,0-8,3.582-8,8v32c0,4.418,3.582,8,8,8h72
		c4.418,0,8-3.582,8-8S204.403,352,199.985,352z"/>
	
		<linearGradient id="SVGID_9_" gradientUnits="userSpaceOnUse" x1="-47.8898" y1="556.733" x2="-47.8898" y2="619.676" gradientTransform="matrix(8 0 0 -8 511.1035 4941)">
		<stop  offset="0" style="stop-color:#006DF0"/>
		<stop  offset="1" style="stop-color:#00E7F0"/>
	</linearGradient>
	<path style="fill:url(#SVGID_9_);" d="M127.985,312c4.418,0,8-3.582,8-8v-8c0-4.418-3.582-8-8-8c-4.418,0-8,3.582-8,8v8
		C119.985,308.418,123.567,312,127.985,312z"/>
	
		<linearGradient id="SVGID_10_" gradientUnits="userSpaceOnUse" x1="-23.8898" y1="556.733" x2="-23.8898" y2="619.676" gradientTransform="matrix(8 0 0 -8 511.1035 4941)">
		<stop  offset="0" style="stop-color:#006DF0"/>
		<stop  offset="1" style="stop-color:#00E7F0"/>
	</linearGradient>
	<path style="fill:url(#SVGID_10_);" d="M351.985,80h-64c-4.418,0-8,3.582-8,8s3.582,8,8,8h56v40c0,4.418,3.582,8,8,8s8-3.582,8-8
		V88C359.985,83.582,356.403,80,351.985,80z"/>
	
		<linearGradient id="SVGID_11_" gradientUnits="userSpaceOnUse" x1="-19.8898" y1="556.733" x2="-19.8898" y2="619.676" gradientTransform="matrix(8 0 0 -8 511.1035 4941)">
		<stop  offset="0" style="stop-color:#006DF0"/>
		<stop  offset="1" style="stop-color:#00E7F0"/>
	</linearGradient>
	<path style="fill:url(#SVGID_11_);" d="M351.985,152c-4.418,0-8,3.582-8,8v8c0,4.418,3.582,8,8,8s8-3.582,8-8v-8
		C359.985,155.582,356.403,152,351.985,152z"/>
</g>
<g>
</g>
<g>
</g>
<g>
</g>
<g>
</g>
<g>
</g>
<g>
</g>
<g>
</g>
<g>
</g>
<g>
</g>
<g>
</g>
<g>
</g>
<g>
</g>
<g>
</g>
<g>
</g>
<g>
</g>
</svg>
