<?xml version="1.0" encoding="iso-8859-1"?>
<!-- Generator: Adobe Illustrator 19.0.0, SVG Export Plug-In . SVG Version: 6.00 Build 0)  -->
<svg version="1.1" id="Capa_1" xmlns="http://www.w3.org/2000/svg" xmlns:xlink="http://www.w3.org/1999/xlink" x="0px" y="0px"
	 viewBox="0 0 511.999 511.999" style="enable-background:new 0 0 511.999 511.999;" xml:space="preserve">
<circle style="fill:#FF525D;" cx="255.999" cy="255.999" r="255.999"/>
<g>
	<path style="fill:#FFD15C;" d="M438.341,79.833c0,42.728-40.478,80.957-91.076,80.957c-51.723,0-92.202-38.231-92.202-80.957
		S295.541,0,347.265,0C397.864,0,438.341,37.106,438.341,79.833z"/>
	<path style="fill:#FFD15C;" d="M434.973,254.139v184.905c-45.119,44.126-106.485,71.701-174.289,72.913V254.139
		c0-31.483,35.986-52.851,86.58-52.851C395.612,201.288,434.973,222.656,434.973,254.139z"/>
</g>
<g>
	<path style="fill:#EDBB4C;" d="M292.958,79.833c0-37.29,30.835-70.292,73.065-78.089C359.975,0.607,353.703,0,347.265,0
		c-51.723,0-92.202,37.105-92.202,79.833s40.478,80.957,92.202,80.957c6.439,0,12.71-0.626,18.759-1.794
		C323.793,150.982,292.958,117.123,292.958,79.833z"/>
	<path style="fill:#EDBB4C;" d="M298.579,254.139c0-27.318,27.104-47.01,67.326-51.744c-6.011-0.722-12.243-1.107-18.64-1.107
		c-50.594,0-86.58,21.368-86.58,52.851v257.818c12.887-0.23,25.539-1.418,37.894-3.486V254.139z"/>
</g>
<g>
	<path style="fill:#FCF8F2;" d="M64.217,312.824c0,2.843-2.694,5.387-6.06,5.387c-3.442,0-6.136-2.544-6.136-5.387
		s2.694-5.312,6.136-5.312C61.523,307.512,64.217,309.981,64.217,312.824z M63.993,328.612v28.508c0,1.796-2.619,3.592-5.836,3.592
		c-3.367,0-5.762-1.796-5.762-3.592v-28.508c0-2.095,2.395-3.516,5.762-3.516C61.374,325.095,63.993,326.517,63.993,328.612z"/>
	<path style="fill:#FCF8F2;" d="M82.248,357.12c0,1.796-2.694,3.592-5.836,3.592c-3.367,0-5.762-1.796-5.762-3.592v-28.508
		c0-2.095,2.395-3.516,5.762-3.516c2.768,0,5.089,1.421,5.089,3.516v1.721c1.421-2.918,5.013-5.686,10.027-5.686
		c6.809,0,12.72,7.108,12.72,15.713v16.76c0,2.395-2.917,3.592-5.836,3.592c-2.694,0-5.762-1.197-5.762-3.592v-16.76
		c0-2.843-2.395-5.612-5.387-5.612c-2.469,0-5.013,2.095-5.013,5.612v16.76H82.248z"/>
	<path style="fill:#FCF8F2;" d="M122.278,325.095h8.455c1.87,0,2.843,2.095,2.843,4.115c0,2.095-0.973,4.115-2.843,4.115h-8.455
		v23.869c0,2.095-2.768,3.517-5.911,3.517c-3.217,0-5.686-1.421-5.686-3.517v-37.412c0-8.68,5.986-15.04,13.17-15.04h5.387
		c2.918,0,4.339,2.469,4.339,4.864c0,2.469-1.421,4.863-4.339,4.863h-2.843c-2.395,0-4.115,1.273-4.115,4.041v6.587H122.278z"/>
	<path style="fill:#FCF8F2;" d="M169.116,340.36v5.237c0,8.306-7.931,15.864-17.06,15.864s-16.985-7.483-16.985-15.864v-5.237
		c0-8.381,7.632-15.713,16.985-15.713C161.186,324.647,169.116,331.754,169.116,340.36z M157.519,340.36
		c0-2.843-2.469-5.612-5.463-5.612c-2.994,0-5.387,2.769-5.387,5.612v5.237c0,2.994,2.395,5.762,5.387,5.762
		c2.993,0,5.463-2.768,5.463-5.762V340.36z"/>
	<path style="fill:#FCF8F2;" d="M194.256,334.748c-4.115,0-8.156,4.339-8.156,11.149v11.223c0,1.796-2.618,3.592-5.911,3.592
		c-3.291,0-5.686-1.796-5.686-3.592v-28.508c0-2.095,2.395-3.516,5.686-3.516c2.843,0,5.163,1.421,5.163,3.516v2.769
		c1.496-3.292,5.088-6.734,8.904-6.734h2.17c2.17,0,4.115,2.32,4.115,5.013c0,2.768-1.946,5.088-4.115,5.088H194.256z"/>
	<path style="fill:#FCF8F2;" d="M225.381,340.434c0-3.742-2.544-5.686-5.088-5.686c-2.395,0-4.715,1.796-4.715,5.612v16.76
		c0,1.796-2.694,3.592-5.836,3.592c-3.367,0-5.762-1.796-5.762-3.592v-28.508c0-2.095,2.395-3.516,5.762-3.516
		c2.768,0,5.089,1.421,5.089,3.516v1.721c1.646-2.918,4.938-5.686,9.876-5.686c4.041,0,7.333,3.068,8.829,7.483
		c2.619-5.088,6.959-7.483,11.223-7.483c7.033,0,13.618,5.686,13.618,15.713v16.76c0,1.796-2.618,3.592-5.837,3.592
		c-3.068,0-5.762-1.796-5.762-3.592v-16.76c0-3.742-2.469-5.686-5.013-5.686c-2.395,0-4.789,1.87-4.789,5.686v16.835
		c0,2.469-2.918,3.517-5.836,3.517c-2.694,0-5.762-1.047-5.762-3.517L225.381,340.434L225.381,340.434z"/>
	<path style="fill:#FCF8F2;" d="M294.59,339.312v17.808c0,2.021-2.395,3.592-5.686,3.592c-2.918,0-5.163-1.572-5.163-3.592v-1.646
		c-2.694,3.143-6.136,5.986-11.374,5.986c-5.162,0-9.578-3.143-9.578-9.952c0-8.829,7.184-11.298,17.509-11.298h2.694v-0.748
		c0-2.544-1.347-5.537-5.612-5.537c-6.136,0-6.733,2.469-8.754,2.469c-2.544,0-3.891-3.068-3.891-5.762
		c0-3.517,7.258-5.986,12.795-5.986C289.801,324.647,294.59,331.754,294.59,339.312z M282.992,345.822h-0.299
		c-4.265,0-8.231,0.449-8.231,4.041c0,2.17,1.197,3.142,2.917,3.142c2.321,0,5.612-3.068,5.612-6.884L282.992,345.822
		L282.992,345.822z"/>
	<path style="fill:#FCF8F2;" d="M312.471,348.066c0,2.17,0.748,2.918,3.068,2.918h3.218c3.367,0,4.938,2.469,4.938,4.863
		c0,2.469-1.572,4.864-4.938,4.864h-3.218c-9.502,0-14.665-3.816-14.665-12.645v-34.942c0-2.095,3.069-3.517,5.762-3.517
		c2.918,0,5.837,1.421,5.837,3.517v11.972h8.455c1.87,0,2.844,2.095,2.844,4.115c0,2.095-0.974,4.115-2.844,4.115h-8.455v14.74
		H312.471z"/>
	<path style="fill:#FCF8F2;" d="M340.081,312.824c0,2.843-2.694,5.387-6.061,5.387c-3.442,0-6.136-2.544-6.136-5.387
		s2.694-5.312,6.136-5.312C337.386,307.512,340.081,309.981,340.081,312.824z M339.857,328.612v28.508
		c0,1.796-2.62,3.592-5.837,3.592c-3.368,0-5.762-1.796-5.762-3.592v-28.508c0-2.095,2.394-3.516,5.762-3.516
		C337.237,325.095,339.857,326.517,339.857,328.612z"/>
	<path style="fill:#FCF8F2;" d="M379.211,340.36v5.237c0,8.306-7.932,15.864-17.06,15.864c-9.128,0-16.985-7.483-16.985-15.864
		v-5.237c0-8.381,7.632-15.713,16.985-15.713C371.28,324.647,379.211,331.754,379.211,340.36z M367.613,340.36
		c0-2.843-2.469-5.612-5.463-5.612s-5.386,2.769-5.386,5.612v5.237c0,2.994,2.394,5.762,5.386,5.762s5.463-2.768,5.463-5.762V340.36
		z"/>
	<path style="fill:#FCF8F2;" d="M396.195,357.12c0,1.796-2.694,3.592-5.837,3.592c-3.368,0-5.762-1.796-5.762-3.592v-28.508
		c0-2.095,2.394-3.516,5.762-3.516c2.768,0,5.088,1.421,5.088,3.516v1.721c1.422-2.918,5.013-5.686,10.027-5.686
		c6.81,0,12.721,7.108,12.721,15.713v16.76c0,2.395-2.918,3.592-5.837,3.592c-2.693,0-5.762-1.197-5.762-3.592v-16.76
		c0-2.843-2.394-5.612-5.386-5.612c-2.469,0-5.013,2.095-5.013,5.612V357.12z"/>
</g>
<g>
</g>
<g>
</g>
<g>
</g>
<g>
</g>
<g>
</g>
<g>
</g>
<g>
</g>
<g>
</g>
<g>
</g>
<g>
</g>
<g>
</g>
<g>
</g>
<g>
</g>
<g>
</g>
<g>
</g>
</svg>
