<?xml version="1.0" encoding="iso-8859-1"?>
<!-- Generator: Adobe Illustrator 19.0.0, SVG Export Plug-In . SVG Version: 6.00 Build 0)  -->
<svg version="1.1" id="Layer_1" xmlns="http://www.w3.org/2000/svg" xmlns:xlink="http://www.w3.org/1999/xlink" x="0px" y="0px"
	 viewBox="0 0 512 512" style="enable-background:new 0 0 512 512;" xml:space="preserve">
<path style="fill:#FC0023;" d="M256,0C155.482,0,73.705,81.777,73.705,182.295c0,55.358,29.029,125.712,86.281,209.106
	c41.96,61.119,83.27,105.913,85.008,107.79L255.96,512l11.009-12.768c1.739-1.864,43.064-46.347,85.035-107.315
	c57.259-83.177,86.292-153.704,86.292-209.622C438.295,81.777,356.518,0,256,0z"/>
<path style="fill:#C80018;" d="M255.96,512l11.009-12.768c1.739-1.864,43.064-46.347,85.035-107.315
	c57.259-83.177,86.292-153.704,86.292-209.622C438.295,81.777,356.518,0,256,0"/>
<path style="fill:#FFFFFF;" d="M256,303.962c-67.087,0-121.667-54.58-121.667-121.667S188.913,60.628,256,60.628
	s121.667,54.58,121.667,121.667S323.087,303.962,256,303.962z"/>
<path style="fill:#DBF2FC;" d="M256,60.628c67.087,0,121.667,54.58,121.667,121.667S323.087,303.962,256,303.962"/>
<path style="fill:#4CBCF0;" d="M234.867,136.694v-35.591h42.264v35.591H234.867z M234.867,263.486V146.482h42.264v117.004H234.867z"
	/>
<g>
</g>
<g>
</g>
<g>
</g>
<g>
</g>
<g>
</g>
<g>
</g>
<g>
</g>
<g>
</g>
<g>
</g>
<g>
</g>
<g>
</g>
<g>
</g>
<g>
</g>
<g>
</g>
<g>
</g>
</svg>
