<?xml version="1.0" encoding="iso-8859-1"?>
<!-- Generator: Adobe Illustrator 19.0.0, SVG Export Plug-In . SVG Version: 6.00 Build 0)  -->
<svg version="1.1" id="Capa_1" xmlns="http://www.w3.org/2000/svg" xmlns:xlink="http://www.w3.org/1999/xlink" x="0px" y="0px"
	 viewBox="0 0 512 512" style="enable-background:new 0 0 512 512;" xml:space="preserve">
<path style="fill:#FF7A53;" d="M130,276h-30V117c0-19.299-15.701-35-35-35V52c35.841,0,65,29.159,65,65V276z"/>
<path style="fill:#FFD400;" d="M390.023,331.517c-3.209,0-6.442-0.281-9.669-0.85h0.001l-141.812-25.005
	c-14.468-2.551-27.077-10.584-35.503-22.618c-8.427-12.034-11.662-26.629-9.111-41.097c2.551-14.468,10.583-27.076,22.618-35.503
	c12.034-8.428,26.629-11.66,41.097-9.111l141.813,25.005c29.866,5.267,49.88,33.849,44.614,63.715
	c-2.552,14.469-10.585,27.077-22.618,35.503C412.103,328.104,401.205,331.517,390.023,331.517z"/>
<path style="fill:#FF9A00;" d="M399.457,222.338L306,205.859v111.697l74.355,13.111h-0.001c3.227,0.568,6.46,0.85,9.669,0.85
	c11.182,0,22.079-3.413,31.43-9.961c12.033-8.426,20.066-21.034,22.618-35.503C449.337,256.187,429.323,227.604,399.457,222.338z"/>
<path style="fill:#FF4F19;" d="M512,423H158.787L100,364.213V251.094l412,73.341V423z"/>
<polygon style="fill:#EE2500;" points="512,324.435 306,287.764 306,423 512,423 "/>
<g>
	<path style="fill:#A17852;" d="M40,107C17.944,107,0,89.056,0,67s17.944-40,40-40s40,17.944,40,40S62.056,107,40,107z"/>
	<path style="fill:#A17852;" d="M216,485c-42.458,0-77-34.542-77-77s34.542-77,77-77s77,34.542,77,77S258.458,485,216,485z"/>
</g>
<path style="fill:#715539;" d="M447,485c-35.841,0-65-29.159-65-65s29.159-65,65-65s65,29.159,65,65S482.841,485,447,485z"/>
<g>
</g>
<g>
</g>
<g>
</g>
<g>
</g>
<g>
</g>
<g>
</g>
<g>
</g>
<g>
</g>
<g>
</g>
<g>
</g>
<g>
</g>
<g>
</g>
<g>
</g>
<g>
</g>
<g>
</g>
</svg>
