<?xml version="1.0" encoding="iso-8859-1"?>
<!-- Generator: Adobe Illustrator 19.0.0, SVG Export Plug-In . SVG Version: 6.00 Build 0)  -->
<svg version="1.1" id="Layer_1" xmlns="http://www.w3.org/2000/svg" xmlns:xlink="http://www.w3.org/1999/xlink" x="0px" y="0px"
	 viewBox="0 0 512 512" style="enable-background:new 0 0 512 512;" xml:space="preserve">
<path style="fill:#FF318F;" d="M481.817,255.562c-13.518-10.056-30.525-13.05-46.668-8.208L328.996,279.2v162.015l174.092-52.229
	v-91.082C503.089,281.053,495.336,265.621,481.817,255.562z"/>
<path d="M351.855,331.957l-36.122-8.067l59.26-265.348c6.837-30.613,33.521-51.993,64.887-51.993H512v37.012h-72.12
	c-13.905,0-25.733,9.479-28.763,23.049L351.855,331.957z"/>
<path style="fill:#4BBAED;" d="M220.402,268.293c-54.949,0-106.373,17.298-144.796,48.709
	c-39.916,32.63-61.898,77.27-61.898,125.698v7.527c0.005,14.261,11.354,19.576,18.507,19.576h333.793v-201.51H220.402z"/>
<circle cx="59.626" cy="445.822" r="41.12"/>
<path style="fill:#368BB2;" d="M59.63,505.451C26.75,505.451,0,478.702,0,445.82c0-32.88,26.75-59.63,59.63-59.63
	s59.631,26.75,59.631,59.63C119.261,478.702,92.51,505.451,59.63,505.451z M59.63,423.202c-12.471,0-22.618,10.147-22.618,22.618
	c0,12.471,10.147,22.618,22.618,22.618c12.472,0,22.619-10.147,22.619-22.618C82.249,433.349,72.102,423.202,59.63,423.202z"/>
<path style="fill:#265D77;" d="M59.63,386.19c-0.137,0-0.274,0.01-0.411,0.01v37.022c0.138-0.003,0.273-0.021,0.411-0.021
	c12.472,0,22.619,10.146,22.619,22.618c0,12.472-10.147,22.618-22.619,22.618c-0.138,0-0.273-0.019-0.411-0.021v37.022
	c0.137,0,0.274,0.01,0.411,0.01c32.88,0,59.631-26.75,59.631-59.63C119.261,412.941,92.51,386.19,59.63,386.19z"/>
<path style="fill:#BF256B;" d="M481.817,255.562c-9.318-6.932-20.295-10.507-31.503-10.473v159.73l52.775-15.833v-91.082
	C503.089,281.053,495.336,265.621,481.817,255.562z"/>
<circle cx="306.373" cy="404.69" r="82.253"/>
<path style="fill:#368BB2;" d="M306.377,505.451c-55.556,0-100.754-45.198-100.754-100.755S250.821,303.94,306.377,303.94
	s100.755,45.199,100.755,100.755S361.933,505.451,306.377,505.451z M306.377,340.953c-35.147,0-63.742,28.596-63.742,63.743
	s28.595,63.743,63.742,63.743c35.148,0,63.743-28.596,63.743-63.743S341.525,340.953,306.377,340.953z"/>
<path style="fill:#265D77;" d="M306.377,303.94v37.012c35.148,0,63.743,28.596,63.743,63.743s-28.596,63.743-63.743,63.743v37.012
	c55.556,0,100.755-45.198,100.755-100.755S361.933,303.94,306.377,303.94z"/>
<circle style="fill:#368BB2;" cx="306.373" cy="404.69" r="18.506"/>
<g>
</g>
<g>
</g>
<g>
</g>
<g>
</g>
<g>
</g>
<g>
</g>
<g>
</g>
<g>
</g>
<g>
</g>
<g>
</g>
<g>
</g>
<g>
</g>
<g>
</g>
<g>
</g>
<g>
</g>
</svg>
