<?xml version="1.0" encoding="UTF-8"?>
<svg xmlns="http://www.w3.org/2000/svg" xmlns:xlink="http://www.w3.org/1999/xlink" width="1580pt" height="512pt" viewBox="0 0 1580 512" version="1.1">
<defs>
<radialGradient id="radial0" gradientUnits="userSpaceOnUse" cx="1244.351" cy="920.081" fx="1244.351" fy="920.081" r="0.925" gradientTransform="matrix(312.313675,0,0,-512.256,-387229.85337,471571.84)">
<stop offset="0" style="stop-color:rgb(97.647059%,74.509804%,1.176471%);stop-opacity:1;"/>
<stop offset="1" style="stop-color:rgb(80%,48.627451%,9.803922%);stop-opacity:1;"/>
</radialGradient>
</defs>
<g id="surface1">
<path style=" stroke:none;fill-rule:nonzero;fill:rgb(28.627451%,28.627451%,28.627451%);fill-opacity:1;" d="M 1579.996094 0 L 1431.515625 0 L 1283.039062 256 L 1431.515625 512 L 1579.867188 512 L 1431.515625 256.128906 L 1579.996094 0 "/>
<path style=" stroke:none;fill-rule:nonzero;fill:url(#radial0);" d="M 1119.210938 0 L 1267.6875 0 L 1431.523438 256.128906 L 1267.6875 512.257812 L 1119.210938 512.257812 L 1283.046875 256.128906 L 1119.210938 0 "/>
<path style=" stroke:none;fill-rule:nonzero;fill:rgb(28.627451%,28.627451%,28.627451%);fill-opacity:1;" d="M 1067.984375 512 L 772.527344 512 L 772.527344 0 L 1067.984375 0 L 1067.984375 88.953125 L 881.308594 88.953125 L 881.308594 201.367188 L 1055.003906 201.367188 L 1055.003906 290.320312 L 881.308594 290.320312 L 881.308594 422.347656 L 1067.984375 422.347656 L 1067.984375 512 M 405.125 512 L 405.125 0 L 513.6875 0 L 513.6875 422.347656 L 721.355469 422.347656 L 721.355469 512 L 405.125 512 M 302.046875 286.117188 C 267.605469 315.304688 218.636719 329.894531 155.136719 329.894531 L 108.5625 329.894531 L 108.5625 512 L 0 512 L 0 240.8125 L 148.476562 240.996094 C 239.386719 239.9375 244.136719 184.257812 244.136719 164.964844 C 244.136719 147.058594 244.136719 89.828125 163.324219 88.933594 L 0 88.9375 L 0 0 L 163.542969 0 C 225.640625 0 272.859375 13.367188 305.199219 40.101562 C 337.53125 66.832031 353.699219 106.695312 353.699219 159.695312 C 353.699219 214.796875 336.480469 256.9375 302.046875 286.117188 Z M 302.046875 286.117188 "/>
<path style=" stroke:none;fill-rule:nonzero;fill:rgb(28.627451%,28.627451%,28.627451%);fill-opacity:1;" d="M 0 56.320312 L 108.644531 56.320312 L 108.644531 275.96875 L 0 275.96875 Z M 0 56.320312 "/>
</g>
</svg>
