<?xml version="1.0" encoding="iso-8859-1"?>
<!-- Generator: Adobe Illustrator 19.0.0, SVG Export Plug-In . SVG Version: 6.00 Build 0)  -->
<svg version="1.1" id="Capa_1" xmlns="http://www.w3.org/2000/svg" xmlns:xlink="http://www.w3.org/1999/xlink" x="0px" y="0px"
	 viewBox="0 0 512 512" style="enable-background:new 0 0 512 512;" xml:space="preserve">
<linearGradient id="SVGID_1_" gradientUnits="userSpaceOnUse" x1="0" y1="258.0002" x2="512.0001" y2="258.0002" gradientTransform="matrix(1 0 0 -1 0 514.0002)">
	<stop  offset="0" style="stop-color:#80D8FF"/>
	<stop  offset="1" style="stop-color:#EA80FC"/>
</linearGradient>
<path style="fill:url(#SVGID_1_);" d="M506.142,447.146l-58.998,58.997c-3.69,3.69-8.798,5.857-14.142,5.857
	c-5.126,0-10.346-2.075-14.142-5.857l-58.997-58.997c-7.811-7.811-7.811-20.475,0-28.285s20.474-7.811,28.284,0l24.855,24.855
	V183.291c0-11.046,8.954-20,20-20s20,8.954,20,20v260.425l24.855-24.855c7.81-7.811,20.473-7.811,28.284,0
	C513.953,426.672,513.953,439.335,506.142,447.146z M350.343,141.393c-7.811-7.812-20.474-7.812-28.284-0.001L182.432,281.018
	v-35.15c0-11.046-8.954-20-20-20s-20,8.954-20,20v83.435c0,0.001,0,0.001,0,0.002c0.001,10.929,8.903,19.998,20,19.998h83.435
	c11.046,0,20-8.954,20-20s-8.954-20-20-20h-35.15l139.626-139.625C358.154,161.867,358.154,149.203,350.343,141.393z M68.284,98.997
	h260.425c11.046,0,20-8.954,20-20s-8.954-20-20-20H68.285L93.14,34.143c7.811-7.811,7.811-20.475,0-28.284
	c-7.811-7.812-20.474-7.812-28.284-0.001L5.858,64.855C2.106,68.618,0,73.703,0,78.997c0,5.378,2.175,10.459,5.858,14.143
	l58.998,58.997c7.81,7.811,20.473,7.812,28.284,0.001c7.811-7.811,7.811-20.475,0-28.284L68.284,98.997z"/>
<g>
</g>
<g>
</g>
<g>
</g>
<g>
</g>
<g>
</g>
<g>
</g>
<g>
</g>
<g>
</g>
<g>
</g>
<g>
</g>
<g>
</g>
<g>
</g>
<g>
</g>
<g>
</g>
<g>
</g>
</svg>
