<svg height="512pt" viewBox="-40 0 512 512" width="512pt" xmlns="http://www.w3.org/2000/svg"><path d="m386.992188 0h-341.992188c-24.8125 0-45 20.1875-45 45v422c0 24.8125 20.1875 45 45 45h341.992188c24.8125 0 45-20.1875 45-45v-422c0-24.8125-20.1875-45-45-45zm0 0" fill="#ffbd61"/><path d="m386.992188 0h-170.996094v512h170.996094c24.8125 0 45-20.1875 45-45v-422c0-24.8125-20.1875-45-45-45zm0 0" fill="#ff7361"/><path d="m304.324219 72.710938h-176.65625c-8.28125 0-15 6.714843-15 15v336.578124c0 8.285157 6.71875 15 15 15h176.65625c8.28125 0 15-6.714843 15-15v-336.578124c0-8.285157-6.71875-15-15-15zm0 0" fill="#edeef2"/><path d="m112.667969 256v168.289062c0 8.285157 6.71875 15 15 15h176.65625c8.28125 0 15-6.714843 15-15v-168.289062zm0 0" fill="#9a9bab"/><path d="m304.324219 72.710938h-88.328125v366.578124h88.328125c8.28125 0 15-6.714843 15-15v-336.578124c0-8.285157-6.71875-15-15-15zm0 0" fill="#9a9bab"/><path d="m215.996094 256v183.289062h88.328125c8.28125 0 15-6.714843 15-15v-168.289062zm0 0" fill="#515260"/><path d="m215.996094 300.144531c-8.285156 0-15 6.714844-15 15v47.71875c0 8.285157 6.714844 15 15 15s15-6.714843 15-15v-47.71875c0-8.285156-6.714844-15-15-15zm0 0" fill="#515260"/><path d="m215.996094 300.144531v77.71875c8.285156 0 15-6.714843 15-15v-47.71875c0-8.285156-6.714844-15-15-15zm0 0" fill="#242536"/><path d="m215.996094 133.335938c-22.347656 0-40.53125 18.179687-40.53125 40.527343 0 22.351563 18.183594 40.53125 40.53125 40.53125s40.53125-18.179687 40.53125-40.53125c0-22.347656-18.183594-40.527343-40.53125-40.527343zm0 51.058593c-5.808594 0-10.53125-4.722656-10.53125-10.527343 0-5.808594 4.726562-10.53125 10.53125-10.53125 5.804687 0 10.53125 4.722656 10.53125 10.53125 0 5.804687-4.722656 10.527343-10.53125 10.527343zm0 0" fill="#515260"/><path d="m215.996094 133.335938v30c5.808594 0 10.53125 4.722656 10.53125 10.527343 0 5.808594-4.726563 10.53125-10.53125 10.53125v30c22.347656 0 40.53125-18.179687 40.53125-40.53125 0-22.347656-18.183594-40.527343-40.53125-40.527343zm0 0" fill="#242536"/></svg>