<?xml version="1.0" encoding="iso-8859-1"?>
<!-- Generator: Adobe Illustrator 19.0.0, SVG Export Plug-In . SVG Version: 6.00 Build 0)  -->
<svg version="1.1" id="Capa_1" xmlns="http://www.w3.org/2000/svg" xmlns:xlink="http://www.w3.org/1999/xlink" x="0px" y="0px"
	 viewBox="0 0 512 512" style="enable-background:new 0 0 512 512;" xml:space="preserve">
<path style="fill:#96C8EF;" d="M383.457,336.299V34.865C383.457,15.69,399.147,0,418.323,0l0,0c19.176,0,34.865,15.69,34.865,34.865
	v301.433c33.125,13.699,56.435,46.325,56.435,84.401c0,50.424-40.876,91.301-91.301,91.301s-91.301-40.877-91.301-91.301
	C327.023,382.624,350.332,349.998,383.457,336.299z"/>
<path style="fill:#FF3501;" d="M479.947,422.462c0,33.982-27.645,61.627-61.627,61.627c-2.119,0-4.218-0.103-6.286-0.32h-0.01
	c-31.026-3.164-55.321-29.454-55.321-61.307c0-30.023,21.576-55.083,50.038-60.511V115.762c0-5.717,4.683-10.4,10.4-10.4h2.357
	c5.728,0,10.4,4.683,10.4,10.4v246.189c9.915,1.892,18.992,6.162,26.611,12.199C470.777,385.429,479.947,402.89,479.947,422.462z"/>
<path style="fill:#FFD422;" d="M251.457,176.469c0,32.504-21.101,60.077-50.348,69.774c-7.278,2.419-15.063,3.722-23.148,3.722
	c-40.599,0-73.506-32.907-73.506-73.496c0-40.599,32.907-73.506,73.506-73.506c8.085,0,15.869,1.303,23.148,3.732
	C230.357,116.383,251.457,143.965,251.457,176.469z"/>
<g>
	<path style="fill:#FFDE55;" d="M251.457,176.469c0,32.504-21.101,60.077-50.348,69.774c-29.258-9.687-50.358-37.27-50.358-69.774
		c0-32.514,21.101-60.097,50.358-69.774C230.357,116.383,251.457,143.965,251.457,176.469z"/>
	<path style="fill:#FFDE55;" d="M178.148,69.336c-7.854,0-14.221-6.367-14.221-14.221V15.107c0-7.854,6.366-14.22,14.221-14.22
		s14.221,6.367,14.221,14.22v40.009C192.368,62.968,186.002,69.336,178.148,69.336z"/>
	<path style="fill:#FFDE55;" d="M124.556,83.593c-6.802,3.928-15.499,1.596-19.426-5.205L85.127,43.741
		c-3.927-6.802-1.597-15.499,5.205-19.426c6.802-3.928,15.499-1.596,19.426,5.205l20.004,34.648
		C133.688,70.969,131.358,79.667,124.556,83.593z"/>
	<path style="fill:#FFDE55;" d="M85.274,122.737c-3.928,6.802-12.624,9.132-19.426,5.205L31.2,107.938
		c-6.802-3.927-9.132-12.624-5.205-19.426s12.624-9.132,19.426-5.205l34.648,20.004C86.871,107.237,89.201,115.935,85.274,122.737z"
		/>
	<path style="fill:#FFDE55;" d="M70.826,176.277c0,7.854-6.367,14.221-14.221,14.221H16.597c-7.854,0-14.22-6.366-14.22-14.221
		c0-7.854,6.367-14.221,14.22-14.221h40.009C64.459,162.056,70.826,168.423,70.826,176.277z"/>
	<path style="fill:#FFDE55;" d="M85.084,229.868c3.928,6.802,1.596,15.499-5.205,19.426l-34.648,20.004
		c-6.802,3.927-15.499,1.597-19.426-5.205s-1.596-15.499,5.205-19.426l34.648-20.004C72.46,220.736,81.158,223.066,85.084,229.868z"
		/>
	<path style="fill:#FFDE55;" d="M124.228,269.149c6.802,3.928,9.132,12.624,5.205,19.426l-20.004,34.648
		c-3.927,6.802-12.624,9.132-19.426,5.205c-6.802-3.928-9.132-12.624-5.205-19.426l20.004-34.648
		C108.728,267.553,117.426,265.223,124.228,269.149z"/>
	<path style="fill:#FFDE55;" d="M177.768,283.597c7.854,0,14.221,6.367,14.221,14.221v40.009c0,7.854-6.366,14.22-14.221,14.22
		s-14.221-6.367-14.221-14.22v-40.008C163.547,289.965,169.914,283.597,177.768,283.597z"/>
	<path style="fill:#FFDE55;" d="M231.358,269.34c6.802-3.928,15.499-1.596,19.426,5.205l20.004,34.648
		c3.927,6.802,1.597,15.499-5.205,19.426c-6.803,3.927-15.499,1.596-19.426-5.205l-20.004-34.648
		C222.226,281.964,224.557,273.266,231.358,269.34z"/>
	<path style="fill:#FFDE55;" d="M270.64,230.196c3.928-6.802,12.624-9.132,19.426-5.205l34.648,20.004
		c6.802,3.927,9.132,12.624,5.205,19.426c-3.928,6.802-12.624,9.132-19.426,5.205l-34.648-20.004
		C269.044,245.696,266.714,236.998,270.64,230.196z"/>
	<path style="fill:#FFDE55;" d="M285.088,176.657c0-7.854,6.367-14.22,14.22-14.22h40.009c7.854,0,14.221,6.366,14.221,14.22
		c0,7.854-6.367,14.221-14.221,14.221h-40.009C291.456,190.877,285.088,184.511,285.088,176.657z"/>
	<path style="fill:#FFDE55;" d="M270.83,123.065c-3.928-6.802-1.596-15.499,5.205-19.426l34.648-20.004
		c6.802-3.927,15.499-1.597,19.426,5.205c3.928,6.802,1.596,15.499-5.205,19.426l-34.648,20.004
		C283.455,132.197,274.757,129.867,270.83,123.065z"/>
	<path style="fill:#FFDE55;" d="M231.687,83.784c-6.802-3.928-9.132-12.624-5.205-19.426l20.004-34.648
		c3.927-6.802,12.624-9.132,19.426-5.205s9.132,12.624,5.205,19.426l-20.004,34.648C247.186,85.38,238.489,87.71,231.687,83.784z"/>
</g>
<path style="fill:#FF6243;" d="M479.947,422.462c0,33.982-27.645,61.627-61.627,61.627c-2.119,0-4.218-0.103-6.286-0.32h-0.01
	c-10.039-11.641-16.097-26.808-16.097-43.38c0-34.737,26.632-63.24,60.583-66.238C470.777,385.429,479.947,402.89,479.947,422.462z"
	/>
<g>
</g>
<g>
</g>
<g>
</g>
<g>
</g>
<g>
</g>
<g>
</g>
<g>
</g>
<g>
</g>
<g>
</g>
<g>
</g>
<g>
</g>
<g>
</g>
<g>
</g>
<g>
</g>
<g>
</g>
</svg>
