<?xml version="1.0" encoding="iso-8859-1"?>
<!-- Generator: Adobe Illustrator 19.0.0, SVG Export Plug-In . SVG Version: 6.00 Build 0)  -->
<svg version="1.1" id="Layer_1" xmlns="http://www.w3.org/2000/svg" xmlns:xlink="http://www.w3.org/1999/xlink" x="0px" y="0px"
	 viewBox="0 0 512.002 512.002" style="enable-background:new 0 0 512.002 512.002;" xml:space="preserve">
<polygon style="fill:#CEE8FA;" points="497.147,354.445 497.147,265.329 256,57.349 14.853,265.329 14.853,354.445 256,146.465 "/>
<g>
	<path style="fill:#2D527C;" d="M497.15,369.297c-3.496,0-6.952-1.233-9.703-3.605L256,166.079L24.553,365.693
		c-4.399,3.793-10.605,4.677-15.886,2.256C3.386,365.529,0,360.254,0,354.445v-89.115c0-4.321,1.88-8.426,5.152-11.248L246.3,46.101
		c5.574-4.806,13.828-4.806,19.402,0l241.147,207.98c3.272,2.822,5.152,6.927,5.152,11.248v89.115
		c0,5.809-3.386,11.084-8.666,13.502C501.354,368.855,499.245,369.297,497.15,369.297z M256,131.612c3.458,0,6.914,1.202,9.7,3.605
		l216.595,186.805v-49.888L256,76.962L29.705,272.133v49.888L246.3,135.217C249.086,132.814,252.542,131.612,256,131.612z"/>
	<path style="fill:#2D527C;" d="M497.15,469.504c-3.496,0-6.952-1.233-9.703-3.605L318.355,320.066
		c-6.211-5.357-6.903-14.737-1.548-20.948c5.356-6.211,14.737-6.903,20.948-1.548l144.538,124.659v-60.98L256,166.077
		L29.705,361.249v60.98L246.3,235.424c6.213-5.356,15.591-4.664,20.948,1.548c5.357,6.211,4.665,15.591-1.548,20.948L24.553,465.9
		c-4.399,3.793-10.605,4.674-15.886,2.256C3.386,465.736,0,460.461,0,454.652V354.445c0-4.321,1.882-8.426,5.152-11.248
		L246.3,135.217c5.574-4.806,13.828-4.806,19.402,0l241.147,207.98c3.271,2.822,5.152,6.927,5.152,11.248v100.207
		c0,5.809-3.386,11.084-8.666,13.502C501.354,469.062,499.245,469.504,497.15,469.504z"/>
</g>
<g>
</g>
<g>
</g>
<g>
</g>
<g>
</g>
<g>
</g>
<g>
</g>
<g>
</g>
<g>
</g>
<g>
</g>
<g>
</g>
<g>
</g>
<g>
</g>
<g>
</g>
<g>
</g>
<g>
</g>
</svg>
