<?xml version="1.0" encoding="iso-8859-1"?>
<!-- Generator: Adobe Illustrator 19.0.0, SVG Export Plug-In . SVG Version: 6.00 Build 0)  -->
<svg version="1.1" id="Capa_1" xmlns="http://www.w3.org/2000/svg" xmlns:xlink="http://www.w3.org/1999/xlink" x="0px" y="0px"
	 viewBox="0 0 512 512" style="enable-background:new 0 0 512 512;" xml:space="preserve">
<path style="fill:#FF4F19;" d="M462,443H50V233h412V443z"/>
<rect x="256" y="233" style="fill:#EE2500;" width="206" height="210"/>
<g>
	<rect x="412" y="323" style="fill:#AEADB3;" width="35" height="30"/>
	<rect x="412" y="373" style="fill:#AEADB3;" width="35" height="30"/>
	<rect x="412" y="273" style="fill:#AEADB3;" width="35" height="30"/>
</g>
<g>
	<rect x="65" y="323" style="fill:#C8C6CD;" width="35" height="30"/>
	<rect x="65" y="373" style="fill:#C8C6CD;" width="35" height="30"/>
	<rect x="65" y="273" style="fill:#C8C6CD;" width="35" height="30"/>
</g>
<path style="fill:#EE2500;" d="M256,353c-24.361,0-47.479-3.424-65.097-9.642C174.98,337.738,156,327.042,156,308V178h200v130
	c0,19.042-18.98,29.738-34.903,35.358C303.479,349.576,280.361,353,256,353z"/>
<path style="fill:#AEADB3;" d="M80,463H0V213h80V463z"/>
<path style="fill:#57555C;" d="M512,463h-80V213h80V463z"/>
<path style="fill:#A01700;" d="M256,178v175c24.361,0,47.479-3.424,65.097-9.642C337.02,337.738,356,327.042,356,308V178H256z"/>
<path style="fill:#FF4F19;" d="M256,223c-24.361,0-47.479-3.424-65.097-9.642C174.98,207.738,156,197.042,156,178
	s18.98-29.738,34.903-35.358C208.521,136.424,231.639,133,256,133s47.479,3.424,65.097,9.642C337.02,148.262,356,158.958,356,178
	s-18.98,29.738-34.903,35.358C303.479,219.576,280.361,223,256,223z"/>
<path style="fill:#EE2500;" d="M321.097,142.642C303.479,136.424,280.361,133,256,133v90c24.361,0,47.479-3.424,65.097-9.642
	C337.02,207.738,356,197.042,356,178S337.02,148.262,321.097,142.642z"/>
<rect x="241" y="106" style="fill:#AEADB3;" width="30" height="72"/>
<rect x="256" y="106" style="fill:#57555C;" width="15" height="72"/>
<polygon style="fill:#ECB300;" points="334.702,89.874 323.298,62.126 256,89.783 188.702,62.126 177.298,89.874 216.538,106 
	177.298,122.126 188.702,149.874 256,122.217 323.298,149.874 334.702,122.126 295.462,106 "/>
<polygon style="fill:#D9A500;" points="334.702,89.874 323.298,62.126 256,89.783 256,122.217 323.298,149.874 334.702,122.126 
	295.462,106 "/>
<path style="fill:#FFDB2D;" d="M256,163c-65.02,0-135-17.837-135-57c0-12.792,7.841-30.783,45.191-43.856
	C190.408,53.668,222.303,49,256,49c65.02,0,135,17.837,135,57c0,12.792-7.841,30.783-45.191,43.856
	C321.592,158.332,289.697,163,256,163z M256,79c-30.409,0-58.784,4.07-79.897,11.459C155.629,97.625,151,104.95,151,106
	s4.629,8.375,25.103,15.541C197.216,128.93,225.591,133,256,133s58.784-4.07,79.897-11.459C356.371,114.375,361,107.05,361,106
	s-4.629-8.375-25.103-15.541C314.784,83.07,286.409,79,256,79z"/>
<path style="fill:#FEC000;" d="M256,49v30c30.409,0,58.784,4.07,79.897,11.459C356.371,97.625,361,104.95,361,106
	s-4.629,8.375-25.103,15.541C314.784,128.93,286.409,133,256,133v30c33.697,0,65.592-4.668,89.809-13.144
	C383.159,136.783,391,118.792,391,106C391,66.837,321.02,49,256,49z"/>
<path style="fill:#AEADB3;" d="M256,112.333c-7.224,0-15-1.982-15-6.333c0-1.421,0.871-3.42,5.021-4.873
	c2.691-0.942,6.235-1.46,9.979-1.46c7.224,0,15,1.982,15,6.333c0,1.421-0.871,3.42-5.021,4.873
	C263.288,111.815,259.744,112.333,256,112.333z"/>
<path style="fill:#57555C;" d="M256,99.667v12.667c3.744,0,7.288-0.519,9.979-1.46c4.15-1.453,5.021-3.452,5.021-4.873
	C271,101.649,263.224,99.667,256,99.667z"/>
<g>
</g>
<g>
</g>
<g>
</g>
<g>
</g>
<g>
</g>
<g>
</g>
<g>
</g>
<g>
</g>
<g>
</g>
<g>
</g>
<g>
</g>
<g>
</g>
<g>
</g>
<g>
</g>
<g>
</g>
</svg>
