<?xml version="1.0" encoding="iso-8859-1"?>
<!-- Generator: Adobe Illustrator 19.0.0, SVG Export Plug-In . SVG Version: 6.00 Build 0)  -->
<svg version="1.1" id="Capa_1" xmlns="http://www.w3.org/2000/svg" xmlns:xlink="http://www.w3.org/1999/xlink" x="0px" y="0px"
	 viewBox="0 0 511.997 511.997" style="enable-background:new 0 0 511.997 511.997;" xml:space="preserve">
<rect x="185.979" y="455.29" style="fill:#D8DFE6;" width="30" height="56.707"/>
<rect x="296.018" y="455.29" style="fill:#C0BACA;" width="30" height="56.707"/>
<polygon style="fill:#00D9F7;" points="426.527,0 255.999,0 235.982,378.406 426.527,358.39 "/>
<polygon style="fill:#A5EFF7;" points="85.47,0 85.47,358.39 255.999,378.406 255.999,0 "/>
<path style="fill:#FE6C21;" d="M286.93,124.544c0-29.816-30.931-52.137-30.931-52.137l-20.016,50.459l20.016,32.609
	C273.082,155.475,286.93,141.626,286.93,124.544z"/>
<path style="fill:#FEB561;" d="M225.068,124.544c0,17.083,13.848,30.931,30.931,30.931V72.406
	C255.999,72.406,225.068,94.728,225.068,124.544z"/>
<polygon style="fill:#0077D1;" points="311.017,270.241 255.999,270.241 245.991,285.241 255.999,300.241 311.017,300.241 "/>
<rect x="200.979" y="270.24" style="fill:#00D9F7;" width="55.02" height="30"/>
<polygon style="fill:#0077D1;" points="255.999,358.39 235.982,414.244 255.999,470.098 355.387,470.098 426.527,432.862 
	426.527,358.39 "/>
<polygon style="fill:#00D9F7;" points="85.47,358.39 85.47,432.862 156.611,470.098 255.999,470.098 255.999,358.39 "/>
<g>
</g>
<g>
</g>
<g>
</g>
<g>
</g>
<g>
</g>
<g>
</g>
<g>
</g>
<g>
</g>
<g>
</g>
<g>
</g>
<g>
</g>
<g>
</g>
<g>
</g>
<g>
</g>
<g>
</g>
</svg>
