<?xml version="1.0" encoding="iso-8859-1"?>
<!-- Generator: Adobe Illustrator 19.0.0, SVG Export Plug-In . SVG Version: 6.00 Build 0)  -->
<svg version="1.1" id="Capa_1" xmlns="http://www.w3.org/2000/svg" xmlns:xlink="http://www.w3.org/1999/xlink" x="0px" y="0px"
	 viewBox="0 0 472.016 472.016" style="enable-background:new 0 0 472.016 472.016;" xml:space="preserve">
<g>
	<path style="fill:#D3843D;" d="M132.001,112.016c-4.417,0.001-7.999-3.579-8-7.996c0-0.001,0-0.003,0-0.004v-32
		c0-4.418,3.582-8,8-8s8,3.582,8,8v32c0.001,4.417-3.579,7.999-7.996,8C132.003,112.016,132.002,112.016,132.001,112.016z"/>
	<path style="fill:#D3843D;" d="M100.001,48.016h-16c-4.418,0-8-3.582-8-8s3.582-8,8-8h16c4.418,0,8,3.582,8,8
		S104.419,48.016,100.001,48.016z"/>
	<path style="fill:#D3843D;" d="M219.43,42.84c0.697-1.819,0.697-3.831,0-5.649c-0.138-0.313-0.296-0.617-0.475-0.909
		c-0.157-0.368-0.343-0.724-0.556-1.064l-24-32c-2.639-3.541-7.649-4.273-11.191-1.634c-3.541,2.639-4.273,7.649-1.634,11.191
		c0.009,0.012,0.018,0.024,0.027,0.037l14.399,19.203h-32.001c-4.418,0-8,3.582-8,8s3.582,8,8,8h32.001l-14.399,19.203
		c-2.659,3.526-1.957,8.54,1.569,11.2c3.526,2.659,8.54,1.957,11.2-1.569c0.009-0.012,0.018-0.025,0.028-0.037l24-32
		c0.213-0.34,0.399-0.696,0.557-1.065C219.134,43.456,219.293,43.153,219.43,42.84z"/>
</g>
<path style="fill:#E9686A;" d="M91.157,36.438l-16-32c-1.355-2.711-4.126-4.423-7.156-4.422h-32
	c-4.42,0.002-8.001,3.587-7.999,8.007c0.001,1.24,0.289,2.462,0.843,3.571l14.211,28.422L28.844,68.438
	c-1.974,3.954-0.369,8.761,3.585,10.735c1.109,0.554,2.332,0.842,3.571,0.843h32c3.03,0.001,5.801-1.711,7.156-4.422l16-32
	C92.282,41.341,92.282,38.69,91.157,36.438L91.157,36.438z"/>
<circle style="fill:#FDBD40;" cx="132.001" cy="40.016" r="32"/>
<g>
	<path style="fill:#D3843D;" d="M84.001,472.016h-32l32-96h32L84.001,472.016z"/>
	<path style="fill:#D3843D;" d="M180.001,472.016h32l-32-96h-32L180.001,472.016z"/>
	<path style="fill:#D3843D;" d="M116.001,376.016h32v96h-32V376.016z"/>
</g>
<path style="fill:#FFD782;" d="M116.001,104.016h32v272h-32V104.016z"/>
<path style="fill:#D3843D;" d="M196.001,168.016h-48c-4.418,0-8-3.582-8-8s3.582-8,8-8h48c4.418,0,8,3.582,8,8
	S200.419,168.016,196.001,168.016z"/>
<g>
	<path style="fill:#FDBD40;" d="M356.001,125.352v69.328l32-1.064v-67.2L356.001,125.352z"/>
	<path style="fill:#FDBD40;" d="M276.001,122.68v74.672l32-1.072v-72.528L276.001,122.68z"/>
	<path style="fill:#FDBD40;" d="M196.001,120.016v80l32-1.064V121.08L196.001,120.016z"/>
</g>
<g>
	<path style="fill:#E9686A;" d="M228.001,121.08v77.872l48-1.6V122.68L228.001,121.08z"/>
	<path style="fill:#E9686A;" d="M308.001,123.752v72.528l48-1.6v-69.328L308.001,123.752z"/>
	<path style="fill:#E9686A;" d="M388.001,193.616l48-1.6v-64l-48-1.6V193.616z"/>
</g>
<g>
	<path style="fill:#C3EEFC;" d="M393.274,320h-0.57c-79.883-1.909-156.76-30.837-218.086-82.063
		c-3.265-2.978-3.498-8.038-0.521-11.304c2.97-3.257,8.015-3.498,11.282-0.54c0.844,0.766,85.938,76.633,207.488,77.906h0.406
		c17.44,0.671,32.488-12.125,34.629-29.445c1.401-17.619-11.747-33.038-29.367-34.438c-0.843-0.067-1.689-0.101-2.535-0.101
		c-4.418,0-8-3.582-8-8s3.582-8,8-8c13.364,0.02,26.119,5.592,35.215,15.383c9.148,9.804,13.738,23.011,12.641,36.375
		C441.07,301.431,419.073,320.663,393.274,320z"/>
	<path style="fill:#C3EEFC;" d="M393.274,320h-0.57c-79.883-1.909-156.76-30.837-218.086-82.063
		c-3.265-2.978-3.498-8.038-0.521-11.304c2.97-3.257,8.015-3.498,11.282-0.54c0.844,0.766,85.938,76.633,207.488,77.906h0.406
		c17.44,0.671,32.488-12.125,34.629-29.445c0.306-4.408,4.127-7.733,8.535-7.427c4.408,0.306,7.733,4.127,7.427,8.535
		c-0.003,0.037-0.005,0.074-0.008,0.111C441.07,301.43,419.073,320.663,393.274,320z"/>
	<path style="fill:#C3EEFC;" d="M420.009,384.016c-0.125,0-0.246,0-0.371-0.008c-177.801-8.086-243.402-95.57-246.106-99.289
		c-2.594-3.576-1.798-8.578,1.778-11.172c3.565-2.586,8.55-1.804,11.151,1.75c0.723,0.977,64.512,85.031,233.902,92.727
		c4.414,0.196,7.834,3.932,7.638,8.346C427.812,380.647,424.29,384.016,420.009,384.016L420.009,384.016z"/>
</g>
<g>
</g>
<g>
</g>
<g>
</g>
<g>
</g>
<g>
</g>
<g>
</g>
<g>
</g>
<g>
</g>
<g>
</g>
<g>
</g>
<g>
</g>
<g>
</g>
<g>
</g>
<g>
</g>
<g>
</g>
</svg>
